<?xml version="1.0" encoding="utf-8" standalone="no"?>
<!DOCTYPE svg PUBLIC "-//W3C//DTD SVG 1.1//EN"
  "http://www.w3.org/Graphics/SVG/1.1/DTD/svg11.dtd">
<svg xmlns:xlink="http://www.w3.org/1999/xlink" width="220.60625pt" height="214.674688pt" viewBox="0 0 220.60625 214.674688" xmlns="http://www.w3.org/2000/svg" version="1.1">
 <metadata>
  <rdf:RDF xmlns:dc="http://purl.org/dc/elements/1.1/" xmlns:cc="http://creativecommons.org/ns#" xmlns:rdf="http://www.w3.org/1999/02/22-rdf-syntax-ns#">
   <cc:Work>
    <dc:type rdf:resource="http://purl.org/dc/dcmitype/StillImage"/>
    <dc:date>2025-11-08T14:39:58.479730</dc:date>
    <dc:format>image/svg+xml</dc:format>
    <dc:creator>
     <cc:Agent>
      <dc:title>Matplotlib v3.10.6, https://matplotlib.org/</dc:title>
     </cc:Agent>
    </dc:creator>
   </cc:Work>
  </rdf:RDF>
 </metadata>
 <defs>
  <style type="text/css">*{stroke-linejoin: round; stroke-linecap: butt}</style>
 </defs>
 <g id="figure_1">
  <g id="patch_1">
   <path d="M 0 214.674688 
L 220.60625 214.674688 
L 220.60625 0 
L 0 0 
L 0 214.674688 
z
" style="fill: none"/>
  </g>
  <g id="axes_1">
   <g id="patch_2">
    <path d="M 46.00625 181.118437 
L 213.40625 181.118437 
L 213.40625 14.798437 
L 46.00625 14.798437 
L 46.00625 181.118437 
z
" style="fill: none"/>
   </g>
   <g id="FillBetweenPolyCollection_1">
    <defs>
     <path id="m890b7b19b0" d="M 46.00625 -199.87625 
L 46.00625 -199.87625 
L 46.807399 -187.569087 
L 47.608547 -180.373726 
L 48.409696 -174.159421 
L 49.210844 -168.5181 
L 50.011993 -163.286417 
L 50.813142 -158.377505 
L 51.61429 -153.737661 
L 52.415439 -149.330357 
L 53.216587 -145.129026 
L 54.017736 -141.113374 
L 54.818885 -137.2673 
L 55.620033 -133.577637 
L 56.421182 -130.03336 
L 57.22233 -126.62505 
L 58.023479 -123.34453 
L 58.824628 -120.184601 
L 59.625776 -117.138852 
L 60.426925 -114.20152 
L 61.228073 -111.367374 
L 62.029222 -108.63164 
L 62.830371 -105.989927 
L 63.631519 -103.438176 
L 64.432668 -100.972619 
L 65.233816 -98.58974 
L 66.034965 -96.286248 
L 66.836114 -94.059054 
L 67.637262 -91.905246 
L 68.438411 -89.822077 
L 69.239559 -87.806943 
L 70.040708 -85.857379 
L 70.841857 -83.971039 
L 71.643005 -82.14569 
L 72.444154 -80.379207 
L 73.245302 -78.669558 
L 74.046451 -77.014802 
L 74.8476 -75.413083 
L 75.648748 -73.86262 
L 76.449897 -72.361709 
L 77.251045 -70.908713 
L 78.052194 -69.502061 
L 78.853343 -68.140241 
L 79.654491 -66.821802 
L 80.45564 -65.545346 
L 81.256788 -64.309527 
L 82.057937 -63.113048 
L 82.859086 -61.954659 
L 83.660234 -60.833157 
L 84.461383 -59.747377 
L 85.262531 -58.696199 
L 86.06368 -57.678539 
L 86.864829 -56.693351 
L 87.665977 -55.739624 
L 88.467126 -54.816383 
L 89.268274 -53.922683 
L 90.069423 -53.057611 
L 90.870572 -52.220284 
L 91.67172 -51.409849 
L 92.472869 -50.625479 
L 93.274017 -49.866375 
L 94.075166 -49.131761 
L 94.876315 -48.42089 
L 95.677463 -47.733035 
L 96.478612 -47.067493 
L 97.27976 -46.423583 
L 98.080909 -45.800647 
L 98.882058 -45.198044 
L 99.683206 -44.615156 
L 100.484355 -44.051382 
L 101.285503 -43.506141 
L 102.086652 -42.978868 
L 102.887801 -42.469017 
L 103.688949 -41.976058 
L 104.490098 -41.499476 
L 105.291246 -41.038774 
L 106.092395 -40.593468 
L 106.893544 -40.163088 
L 107.694692 -39.747181 
L 108.495841 -39.345304 
L 109.296989 -38.957029 
L 110.098138 -38.581943 
L 110.899287 -38.21964 
L 111.700435 -37.869731 
L 112.501584 -37.531836 
L 113.302732 -37.205587 
L 114.103881 -36.890626 
L 114.90503 -36.586607 
L 115.706178 -36.293194 
L 116.507327 -36.010059 
L 117.308475 -35.736885 
L 118.109624 -35.473366 
L 118.910773 -35.219201 
L 119.711921 -34.974102 
L 120.51307 -34.737786 
L 121.314218 -34.509981 
L 122.115367 -34.290421 
L 122.916516 -34.078849 
L 123.717664 -33.875015 
L 124.518813 -33.678675 
L 125.319961 -33.489595 
L 126.12111 -33.307546 
L 126.922259 -33.132305 
L 127.723407 -32.963657 
L 128.524556 -32.801393 
L 129.325704 -32.645309 
L 130.126853 -32.495208 
L 130.928002 -32.350899 
L 131.72915 -32.212195 
L 132.530299 -32.078916 
L 133.331447 -31.950887 
L 134.132596 -31.827937 
L 134.933745 -31.709902 
L 135.734893 -31.59662 
L 136.536042 -31.487937 
L 137.33719 -31.3837 
L 138.138339 -31.283763 
L 138.939488 -31.187985 
L 139.740636 -31.096225 
L 140.541785 -31.008351 
L 141.342933 -30.924232 
L 142.144082 -30.843741 
L 142.945231 -30.766755 
L 143.746379 -30.693156 
L 144.547528 -30.622828 
L 145.348676 -30.555659 
L 146.149825 -30.49154 
L 146.950974 -30.430364 
L 147.752122 -30.372031 
L 148.553271 -30.316439 
L 149.354419 -30.263493 
L 150.155568 -30.213098 
L 150.956717 -30.165165 
L 151.757865 -30.119605 
L 152.559014 -30.076332 
L 153.360162 -30.035264 
L 154.161311 -29.99632 
L 154.96246 -29.959423 
L 155.763608 -29.924495 
L 156.564757 -29.891466 
L 157.365905 -29.860262 
L 158.167054 -29.830816 
L 158.968203 -29.80306 
L 159.769351 -29.77693 
L 160.5705 -29.752364 
L 161.371648 -29.729299 
L 162.172797 -29.707679 
L 162.973946 -29.687445 
L 163.775094 -29.668542 
L 164.576243 -29.650916 
L 165.377391 -29.634517 
L 166.17854 -29.619294 
L 166.979689 -29.605198 
L 167.780837 -29.592182 
L 168.581986 -29.580201 
L 169.383134 -29.56921 
L 170.184283 -29.559168 
L 170.985432 -29.550033 
L 171.78658 -29.541765 
L 172.587729 -29.534326 
L 173.388877 -29.527678 
L 174.190026 -29.521786 
L 174.991175 -29.516615 
L 175.792323 -29.512131 
L 176.593472 -29.508302 
L 177.39462 -29.505096 
L 178.195769 -29.502483 
L 178.996918 -29.500435 
L 179.798066 -29.498923 
L 180.599215 -29.497919 
L 181.400363 -29.497398 
L 182.201512 -29.497334 
L 183.002661 -29.497704 
L 183.803809 -29.498483 
L 184.604958 -29.499649 
L 185.406106 -29.501181 
L 186.207255 -29.503057 
L 187.008404 -29.505257 
L 187.809552 -29.507762 
L 188.610701 -29.510554 
L 189.411849 -29.513614 
L 190.212998 -29.516925 
L 191.014147 -29.52047 
L 191.815295 -29.524235 
L 192.616444 -29.528203 
L 193.417592 -29.532361 
L 194.218741 -29.536693 
L 195.01989 -29.541187 
L 195.821038 -29.54583 
L 196.622187 -29.55061 
L 197.423335 -29.555514 
L 198.224484 -29.560532 
L 199.025633 -29.565653 
L 199.826781 -29.570866 
L 200.62793 -29.576162 
L 201.429078 -29.581532 
L 202.230227 -29.586966 
L 203.031376 -29.592456 
L 203.832524 -29.597994 
L 204.633673 -29.603572 
L 205.434821 -29.609184 
L 205.434821 -42.907673 
L 205.434821 -42.907673 
L 204.633673 -42.967538 
L 203.832524 -43.028764 
L 203.031376 -43.09138 
L 202.230227 -43.155415 
L 201.429078 -43.220899 
L 200.62793 -43.287861 
L 199.826781 -43.356334 
L 199.025633 -43.426347 
L 198.224484 -43.497933 
L 197.423335 -43.571124 
L 196.622187 -43.645954 
L 195.821038 -43.722457 
L 195.01989 -43.800666 
L 194.218741 -43.880617 
L 193.417592 -43.962346 
L 192.616444 -44.045889 
L 191.815295 -44.131283 
L 191.014147 -44.218567 
L 190.212998 -44.307778 
L 189.411849 -44.398956 
L 188.610701 -44.492142 
L 187.809552 -44.587375 
L 187.008404 -44.684698 
L 186.207255 -44.784153 
L 185.406106 -44.885783 
L 184.604958 -44.989632 
L 183.803809 -45.095746 
L 183.002661 -45.204171 
L 182.201512 -45.314952 
L 181.400363 -45.428138 
L 180.599215 -45.543777 
L 179.798066 -45.66192 
L 178.996918 -45.782615 
L 178.195769 -45.905916 
L 177.39462 -46.031874 
L 176.593472 -46.160543 
L 175.792323 -46.291979 
L 174.991175 -46.426236 
L 174.190026 -46.563371 
L 173.388877 -46.703444 
L 172.587729 -46.846512 
L 171.78658 -46.992637 
L 170.985432 -47.141879 
L 170.184283 -47.294303 
L 169.383134 -47.449973 
L 168.581986 -47.608953 
L 167.780837 -47.77131 
L 166.979689 -47.937114 
L 166.17854 -48.106434 
L 165.377391 -48.27934 
L 164.576243 -48.455906 
L 163.775094 -48.636205 
L 162.973946 -48.820314 
L 162.172797 -49.008309 
L 161.371648 -49.200269 
L 160.5705 -49.396275 
L 159.769351 -49.596409 
L 158.968203 -49.800756 
L 158.167054 -50.0094 
L 157.365905 -50.222429 
L 156.564757 -50.439933 
L 155.763608 -50.662003 
L 154.96246 -50.888732 
L 154.161311 -51.120215 
L 153.360162 -51.35655 
L 152.559014 -51.597836 
L 151.757865 -51.844174 
L 150.956717 -52.095669 
L 150.155568 -52.352425 
L 149.354419 -52.614551 
L 148.553271 -52.882157 
L 147.752122 -53.155357 
L 146.950974 -53.434265 
L 146.149825 -53.718999 
L 145.348676 -54.009679 
L 144.547528 -54.306429 
L 143.746379 -54.609373 
L 142.945231 -54.91864 
L 142.144082 -55.234361 
L 141.342933 -55.556669 
L 140.541785 -55.885702 
L 139.740636 -56.221598 
L 138.939488 -56.564501 
L 138.138339 -56.914555 
L 137.33719 -57.271911 
L 136.536042 -57.63672 
L 135.734893 -58.009137 
L 134.933745 -58.389321 
L 134.132596 -58.777434 
L 133.331447 -59.173642 
L 132.530299 -59.578113 
L 131.72915 -59.991021 
L 130.928002 -60.412542 
L 130.126853 -60.842856 
L 129.325704 -61.282147 
L 128.524556 -61.730604 
L 127.723407 -62.188418 
L 126.922259 -62.655785 
L 126.12111 -63.132906 
L 125.319961 -63.619985 
L 124.518813 -64.117231 
L 123.717664 -64.624857 
L 122.916516 -65.143082 
L 122.115367 -65.672126 
L 121.314218 -66.212219 
L 120.51307 -66.76359 
L 119.711921 -67.326477 
L 118.910773 -67.901121 
L 118.109624 -68.487768 
L 117.308475 -69.086671 
L 116.507327 -69.698085 
L 115.706178 -70.322273 
L 114.90503 -70.959502 
L 114.103881 -71.610045 
L 113.302732 -72.27418 
L 112.501584 -72.952191 
L 111.700435 -73.644367 
L 110.899287 -74.351003 
L 110.098138 -75.072401 
L 109.296989 -75.808868 
L 108.495841 -76.560715 
L 107.694692 -77.328264 
L 106.893544 -78.111837 
L 106.092395 -78.911767 
L 105.291246 -79.728392 
L 104.490098 -80.562054 
L 103.688949 -81.413104 
L 102.887801 -82.281899 
L 102.086652 -83.168801 
L 101.285503 -84.07418 
L 100.484355 -84.998412 
L 99.683206 -85.94188 
L 98.882058 -86.904972 
L 98.080909 -87.888083 
L 97.27976 -88.891616 
L 96.478612 -89.915979 
L 95.677463 -90.961586 
L 94.876315 -92.02886 
L 94.075166 -93.118227 
L 93.274017 -94.230122 
L 92.472869 -95.364983 
L 91.67172 -96.523257 
L 90.870572 -97.705395 
L 90.069423 -98.911854 
L 89.268274 -100.143096 
L 88.467126 -101.399588 
L 87.665977 -102.681803 
L 86.864829 -103.990216 
L 86.06368 -105.325309 
L 85.262531 -106.687564 
L 84.461383 -108.077469 
L 83.660234 -109.495513 
L 82.859086 -110.942185 
L 82.057937 -112.417978 
L 81.256788 -113.923383 
L 80.45564 -115.458891 
L 79.654491 -117.024989 
L 78.853343 -118.622163 
L 78.052194 -120.250893 
L 77.251045 -121.911651 
L 76.449897 -123.604903 
L 75.648748 -125.331104 
L 74.8476 -127.090695 
L 74.046451 -128.884103 
L 73.245302 -130.711735 
L 72.444154 -132.573977 
L 71.643005 -134.471188 
L 70.841857 -136.403697 
L 70.040708 -138.371797 
L 69.239559 -140.375738 
L 68.438411 -142.415722 
L 67.637262 -144.491892 
L 66.836114 -146.604327 
L 66.034965 -148.753024 
L 65.233816 -150.937891 
L 64.432668 -153.158728 
L 63.631519 -155.41521 
L 62.830371 -157.706863 
L 62.029222 -160.033037 
L 61.228073 -162.392873 
L 60.426925 -164.785262 
L 59.625776 -167.208794 
L 58.824628 -169.661693 
L 58.023479 -172.141735 
L 57.22233 -174.646143 
L 56.421182 -177.171444 
L 55.620033 -179.71328 
L 54.818885 -182.266153 
L 54.017736 -184.823058 
L 53.216587 -187.374954 
L 52.415439 -189.909966 
L 51.61429 -192.412139 
L 50.813142 -194.859359 
L 50.011993 -197.219659 
L 49.210844 -199.444018 
L 48.409696 -201.450372 
L 47.608547 -203.080299 
L 46.807399 -203.93078 
L 46.00625 -199.87625 
z
" style="stroke: #808080; stroke-opacity: 0.5"/>
    </defs>
    <g clip-path="url(#p50a291466a)">
     <use xlink:href="#m890b7b19b0" x="0" y="214.674688" style="fill: #808080; fill-opacity: 0.5; stroke: #808080; stroke-opacity: 0.5"/>
    </g>
   </g>
   <g id="matplotlib.axis_1">
    <g id="xtick_1">
     <g id="line2d_1">
      <defs>
       <path id="ma631d5eb82" d="M 0 0 
L 0 3.5 
" style="stroke: #000000; stroke-width: 0.8"/>
      </defs>
      <g>
       <use xlink:href="#ma631d5eb82" x="77.891964" y="181.118437" style="stroke: #000000; stroke-width: 0.8"/>
      </g>
     </g>
     <g id="text_1">
      <!-- 1 -->
      <g transform="translate(71.529464 203.315313) scale(0.2 -0.2)">
       <defs>
        <path id="DejaVuSans-31" d="M 794 531 
L 1825 531 
L 1825 4091 
L 703 3866 
L 703 4441 
L 1819 4666 
L 2450 4666 
L 2450 531 
L 3481 531 
L 3481 0 
L 794 0 
L 794 531 
z
" transform="scale(0.015625)"/>
       </defs>
       <use xlink:href="#DejaVuSans-31"/>
      </g>
     </g>
    </g>
    <g id="xtick_2">
     <g id="line2d_2">
      <g>
       <use xlink:href="#ma631d5eb82" x="141.663393" y="181.118437" style="stroke: #000000; stroke-width: 0.8"/>
      </g>
     </g>
     <g id="text_2">
      <!-- 3 -->
      <g transform="translate(135.300893 203.315313) scale(0.2 -0.2)">
       <defs>
        <path id="DejaVuSans-33" d="M 2597 2516 
Q 3050 2419 3304 2112 
Q 3559 1806 3559 1356 
Q 3559 666 3084 287 
Q 2609 -91 1734 -91 
Q 1441 -91 1130 -33 
Q 819 25 488 141 
L 488 750 
Q 750 597 1062 519 
Q 1375 441 1716 441 
Q 2309 441 2620 675 
Q 2931 909 2931 1356 
Q 2931 1769 2642 2001 
Q 2353 2234 1838 2234 
L 1294 2234 
L 1294 2753 
L 1863 2753 
Q 2328 2753 2575 2939 
Q 2822 3125 2822 3475 
Q 2822 3834 2567 4026 
Q 2313 4219 1838 4219 
Q 1578 4219 1281 4162 
Q 984 4106 628 3988 
L 628 4550 
Q 988 4650 1302 4700 
Q 1616 4750 1894 4750 
Q 2613 4750 3031 4423 
Q 3450 4097 3450 3541 
Q 3450 3153 3228 2886 
Q 3006 2619 2597 2516 
z
" transform="scale(0.015625)"/>
       </defs>
       <use xlink:href="#DejaVuSans-33"/>
      </g>
     </g>
    </g>
   </g>
   <g id="matplotlib.axis_2">
    <g id="ytick_1">
     <g id="line2d_3">
      <defs>
       <path id="m2a7ca15cec" d="M 0 0 
L -3.5 0 
" style="stroke: #000000; stroke-width: 0.8"/>
      </defs>
      <g>
       <use xlink:href="#m2a7ca15cec" x="46.00625" y="181.118437" style="stroke: #000000; stroke-width: 0.8"/>
      </g>
     </g>
     <g id="text_3">
      <!-- 0 -->
      <g transform="translate(26.28125 188.716875) scale(0.2 -0.2)">
       <defs>
        <path id="DejaVuSans-30" d="M 2034 4250 
Q 1547 4250 1301 3770 
Q 1056 3291 1056 2328 
Q 1056 1369 1301 889 
Q 1547 409 2034 409 
Q 2525 409 2770 889 
Q 3016 1369 3016 2328 
Q 3016 3291 2770 3770 
Q 2525 4250 2034 4250 
z
M 2034 4750 
Q 2819 4750 3233 4129 
Q 3647 3509 3647 2328 
Q 3647 1150 3233 529 
Q 2819 -91 2034 -91 
Q 1250 -91 836 529 
Q 422 1150 422 2328 
Q 422 3509 836 4129 
Q 1250 4750 2034 4750 
z
" transform="scale(0.015625)"/>
       </defs>
       <use xlink:href="#DejaVuSans-30"/>
      </g>
     </g>
    </g>
    <g id="ytick_2">
     <g id="line2d_4">
      <g>
       <use xlink:href="#m2a7ca15cec" x="46.00625" y="97.958437" style="stroke: #000000; stroke-width: 0.8"/>
      </g>
     </g>
     <g id="text_4">
      <!-- 0.5 -->
      <g transform="translate(7.2 105.556875) scale(0.2 -0.2)">
       <defs>
        <path id="DejaVuSans-2e" d="M 684 794 
L 1344 794 
L 1344 0 
L 684 0 
L 684 794 
z
" transform="scale(0.015625)"/>
        <path id="DejaVuSans-35" d="M 691 4666 
L 3169 4666 
L 3169 4134 
L 1269 4134 
L 1269 2991 
Q 1406 3038 1543 3061 
Q 1681 3084 1819 3084 
Q 2600 3084 3056 2656 
Q 3513 2228 3513 1497 
Q 3513 744 3044 326 
Q 2575 -91 1722 -91 
Q 1428 -91 1123 -41 
Q 819 9 494 109 
L 494 744 
Q 775 591 1075 516 
Q 1375 441 1709 441 
Q 2250 441 2565 725 
Q 2881 1009 2881 1497 
Q 2881 1984 2565 2268 
Q 2250 2553 1709 2553 
Q 1456 2553 1204 2497 
Q 953 2441 691 2322 
L 691 4666 
z
" transform="scale(0.015625)"/>
       </defs>
       <use xlink:href="#DejaVuSans-30"/>
       <use xlink:href="#DejaVuSans-2e" transform="translate(63.623047 0)"/>
       <use xlink:href="#DejaVuSans-35" transform="translate(95.410156 0)"/>
      </g>
     </g>
    </g>
    <g id="ytick_3">
     <g id="line2d_5">
      <g>
       <use xlink:href="#m2a7ca15cec" x="46.00625" y="14.798437" style="stroke: #000000; stroke-width: 0.8"/>
      </g>
     </g>
     <g id="text_5">
      <!-- 1 -->
      <g transform="translate(26.28125 22.396875) scale(0.2 -0.2)">
       <use xlink:href="#DejaVuSans-31"/>
      </g>
     </g>
    </g>
   </g>
   <g id="patch_3">
    <path d="M 46.00625 181.118437 
L 46.00625 14.798437 
" style="fill: none; stroke: #000000; stroke-width: 0.8; stroke-linejoin: miter; stroke-linecap: square"/>
   </g>
   <g id="patch_4">
    <path d="M 46.00625 181.118437 
L 213.40625 181.118437 
" style="fill: none; stroke: #000000; stroke-width: 0.8; stroke-linejoin: miter; stroke-linecap: square"/>
   </g>
   <g id="line2d_6">
    <path d="M 46.00625 14.798437 
L 48.409696 26.869791 
L 50.813142 38.056256 
L 53.216587 48.422698 
L 55.620033 58.029229 
L 58.023479 66.931555 
L 60.426925 75.181297 
L 62.830371 82.826292 
L 65.233816 89.910872 
L 67.637262 96.476118 
L 70.841857 104.48732 
L 74.046451 111.725235 
L 77.251045 118.264505 
L 80.45564 124.172569 
L 83.660234 129.510353 
L 86.864829 134.332904 
L 90.069423 138.689955 
L 93.274017 142.626439 
L 96.478612 146.182952 
L 99.683206 149.39617 
L 102.887801 152.29923 
L 106.092395 154.92207 
L 109.296989 157.291739 
L 112.501584 159.432674 
L 116.507327 161.820616 
L 120.51307 163.923999 
L 124.518813 165.776734 
L 128.524556 167.408689 
L 133.331447 169.112423 
L 138.138339 170.575528 
L 143.746379 172.023423 
L 149.354419 173.235666 
L 155.763608 174.381439 
L 162.973946 175.420808 
L 170.985432 176.328731 
L 179.798066 177.094266 
L 190.212998 177.762336 
L 202.230227 178.303497 
L 205.434821 178.416259 
L 205.434821 178.416259 
" clip-path="url(#p50a291466a)" style="fill: none; stroke: #000000; stroke-width: 4; stroke-linecap: square"/>
   </g>
  </g>
 </g>
 <defs>
  <clipPath id="p50a291466a">
   <rect x="46.00625" y="14.798437" width="167.4" height="166.32"/>
  </clipPath>
 </defs>
</svg>
