<?xml version="1.0" encoding="utf-8" standalone="no"?>
<!DOCTYPE svg PUBLIC "-//W3C//DTD SVG 1.1//EN"
  "http://www.w3.org/Graphics/SVG/1.1/DTD/svg11.dtd">
<svg xmlns:xlink="http://www.w3.org/1999/xlink" width="220.60625pt" height="214.674688pt" viewBox="0 0 220.60625 214.674688" xmlns="http://www.w3.org/2000/svg" version="1.1">
 <metadata>
  <rdf:RDF xmlns:dc="http://purl.org/dc/elements/1.1/" xmlns:cc="http://creativecommons.org/ns#" xmlns:rdf="http://www.w3.org/1999/02/22-rdf-syntax-ns#">
   <cc:Work>
    <dc:type rdf:resource="http://purl.org/dc/dcmitype/StillImage"/>
    <dc:date>2025-11-08T14:25:24.881273</dc:date>
    <dc:format>image/svg+xml</dc:format>
    <dc:creator>
     <cc:Agent>
      <dc:title>Matplotlib v3.10.6, https://matplotlib.org/</dc:title>
     </cc:Agent>
    </dc:creator>
   </cc:Work>
  </rdf:RDF>
 </metadata>
 <defs>
  <style type="text/css">*{stroke-linejoin: round; stroke-linecap: butt}</style>
 </defs>
 <g id="figure_1">
  <g id="patch_1">
   <path d="M 0 214.674688 
L 220.60625 214.674688 
L 220.60625 0 
L 0 0 
L 0 214.674688 
z
" style="fill: none"/>
  </g>
  <g id="axes_1">
   <g id="patch_2">
    <path d="M 46.00625 181.118437 
L 213.40625 181.118437 
L 213.40625 14.798437 
L 46.00625 14.798437 
L 46.00625 181.118437 
z
" style="fill: none"/>
   </g>
   <g id="matplotlib.axis_1">
    <g id="xtick_1">
     <g id="line2d_1">
      <defs>
       <path id="mea1d3a51f8" d="M 0 0 
L 0 3.5 
" style="stroke: #000000; stroke-width: 0.8"/>
      </defs>
      <g>
       <use xlink:href="#mea1d3a51f8" x="53.615341" y="181.118437" style="stroke: #000000; stroke-width: 0.8"/>
      </g>
     </g>
     <g id="text_1">
      <!-- −3 -->
      <g transform="translate(38.873153 203.315313) scale(0.2 -0.2)">
       <defs>
        <path id="DejaVuSans-2212" d="M 678 2272 
L 4684 2272 
L 4684 1741 
L 678 1741 
L 678 2272 
z
" transform="scale(0.015625)"/>
        <path id="DejaVuSans-33" d="M 2597 2516 
Q 3050 2419 3304 2112 
Q 3559 1806 3559 1356 
Q 3559 666 3084 287 
Q 2609 -91 1734 -91 
Q 1441 -91 1130 -33 
Q 819 25 488 141 
L 488 750 
Q 750 597 1062 519 
Q 1375 441 1716 441 
Q 2309 441 2620 675 
Q 2931 909 2931 1356 
Q 2931 1769 2642 2001 
Q 2353 2234 1838 2234 
L 1294 2234 
L 1294 2753 
L 1863 2753 
Q 2328 2753 2575 2939 
Q 2822 3125 2822 3475 
Q 2822 3834 2567 4026 
Q 2313 4219 1838 4219 
Q 1578 4219 1281 4162 
Q 984 4106 628 3988 
L 628 4550 
Q 988 4650 1302 4700 
Q 1616 4750 1894 4750 
Q 2613 4750 3031 4423 
Q 3450 4097 3450 3541 
Q 3450 3153 3228 2886 
Q 3006 2619 2597 2516 
z
" transform="scale(0.015625)"/>
       </defs>
       <use xlink:href="#DejaVuSans-2212"/>
       <use xlink:href="#DejaVuSans-33" transform="translate(83.789062 0)"/>
      </g>
     </g>
    </g>
    <g id="xtick_2">
     <g id="line2d_2">
      <g>
       <use xlink:href="#mea1d3a51f8" x="104.342614" y="181.118437" style="stroke: #000000; stroke-width: 0.8"/>
      </g>
     </g>
     <g id="text_2">
      <!-- −2 -->
      <g transform="translate(89.600426 203.315313) scale(0.2 -0.2)">
       <defs>
        <path id="DejaVuSans-32" d="M 1228 531 
L 3431 531 
L 3431 0 
L 469 0 
L 469 531 
Q 828 903 1448 1529 
Q 2069 2156 2228 2338 
Q 2531 2678 2651 2914 
Q 2772 3150 2772 3378 
Q 2772 3750 2511 3984 
Q 2250 4219 1831 4219 
Q 1534 4219 1204 4116 
Q 875 4013 500 3803 
L 500 4441 
Q 881 4594 1212 4672 
Q 1544 4750 1819 4750 
Q 2544 4750 2975 4387 
Q 3406 4025 3406 3419 
Q 3406 3131 3298 2873 
Q 3191 2616 2906 2266 
Q 2828 2175 2409 1742 
Q 1991 1309 1228 531 
z
" transform="scale(0.015625)"/>
       </defs>
       <use xlink:href="#DejaVuSans-2212"/>
       <use xlink:href="#DejaVuSans-32" transform="translate(83.789062 0)"/>
      </g>
     </g>
    </g>
    <g id="xtick_3">
     <g id="line2d_3">
      <g>
       <use xlink:href="#mea1d3a51f8" x="155.069886" y="181.118437" style="stroke: #000000; stroke-width: 0.8"/>
      </g>
     </g>
     <g id="text_3">
      <!-- −1 -->
      <g transform="translate(140.327699 203.315313) scale(0.2 -0.2)">
       <defs>
        <path id="DejaVuSans-31" d="M 794 531 
L 1825 531 
L 1825 4091 
L 703 3866 
L 703 4441 
L 1819 4666 
L 2450 4666 
L 2450 531 
L 3481 531 
L 3481 0 
L 794 0 
L 794 531 
z
" transform="scale(0.015625)"/>
       </defs>
       <use xlink:href="#DejaVuSans-2212"/>
       <use xlink:href="#DejaVuSans-31" transform="translate(83.789062 0)"/>
      </g>
     </g>
    </g>
    <g id="xtick_4">
     <g id="line2d_4">
      <g>
       <use xlink:href="#mea1d3a51f8" x="205.797159" y="181.118437" style="stroke: #000000; stroke-width: 0.8"/>
      </g>
     </g>
     <g id="text_4">
      <!-- 0 -->
      <g transform="translate(199.434659 203.315313) scale(0.2 -0.2)">
       <defs>
        <path id="DejaVuSans-30" d="M 2034 4250 
Q 1547 4250 1301 3770 
Q 1056 3291 1056 2328 
Q 1056 1369 1301 889 
Q 1547 409 2034 409 
Q 2525 409 2770 889 
Q 3016 1369 3016 2328 
Q 3016 3291 2770 3770 
Q 2525 4250 2034 4250 
z
M 2034 4750 
Q 2819 4750 3233 4129 
Q 3647 3509 3647 2328 
Q 3647 1150 3233 529 
Q 2819 -91 2034 -91 
Q 1250 -91 836 529 
Q 422 1150 422 2328 
Q 422 3509 836 4129 
Q 1250 4750 2034 4750 
z
" transform="scale(0.015625)"/>
       </defs>
       <use xlink:href="#DejaVuSans-30"/>
      </g>
     </g>
    </g>
   </g>
   <g id="matplotlib.axis_2">
    <g id="ytick_1">
     <g id="line2d_5">
      <defs>
       <path id="m1f3ecc11b6" d="M 0 0 
L -3.5 0 
" style="stroke: #000000; stroke-width: 0.8"/>
      </defs>
      <g>
       <use xlink:href="#m1f3ecc11b6" x="46.00625" y="181.118437" style="stroke: #000000; stroke-width: 0.8"/>
      </g>
     </g>
     <g id="text_5">
      <!-- 0 -->
      <g transform="translate(26.28125 188.716875) scale(0.2 -0.2)">
       <use xlink:href="#DejaVuSans-30"/>
      </g>
     </g>
    </g>
    <g id="ytick_2">
     <g id="line2d_6">
      <g>
       <use xlink:href="#m1f3ecc11b6" x="46.00625" y="97.958437" style="stroke: #000000; stroke-width: 0.8"/>
      </g>
     </g>
     <g id="text_6">
      <!-- 0.5 -->
      <g transform="translate(7.2 105.556875) scale(0.2 -0.2)">
       <defs>
        <path id="DejaVuSans-2e" d="M 684 794 
L 1344 794 
L 1344 0 
L 684 0 
L 684 794 
z
" transform="scale(0.015625)"/>
        <path id="DejaVuSans-35" d="M 691 4666 
L 3169 4666 
L 3169 4134 
L 1269 4134 
L 1269 2991 
Q 1406 3038 1543 3061 
Q 1681 3084 1819 3084 
Q 2600 3084 3056 2656 
Q 3513 2228 3513 1497 
Q 3513 744 3044 326 
Q 2575 -91 1722 -91 
Q 1428 -91 1123 -41 
Q 819 9 494 109 
L 494 744 
Q 775 591 1075 516 
Q 1375 441 1709 441 
Q 2250 441 2565 725 
Q 2881 1009 2881 1497 
Q 2881 1984 2565 2268 
Q 2250 2553 1709 2553 
Q 1456 2553 1204 2497 
Q 953 2441 691 2322 
L 691 4666 
z
" transform="scale(0.015625)"/>
       </defs>
       <use xlink:href="#DejaVuSans-30"/>
       <use xlink:href="#DejaVuSans-2e" transform="translate(63.623047 0)"/>
       <use xlink:href="#DejaVuSans-35" transform="translate(95.410156 0)"/>
      </g>
     </g>
    </g>
    <g id="ytick_3">
     <g id="line2d_7">
      <g>
       <use xlink:href="#m1f3ecc11b6" x="46.00625" y="14.798437" style="stroke: #000000; stroke-width: 0.8"/>
      </g>
     </g>
     <g id="text_7">
      <!-- 1 -->
      <g transform="translate(26.28125 22.396875) scale(0.2 -0.2)">
       <use xlink:href="#DejaVuSans-31"/>
      </g>
     </g>
    </g>
   </g>
   <g id="line2d_8">
    <path d="M 53.615341 53.954081 
L 55.152531 54.120418 
L 56.689721 54.286754 
L 58.226911 54.453091 
L 59.764101 54.619428 
L 61.301291 54.868933 
L 62.838481 55.035269 
L 64.375671 55.284774 
L 65.912862 55.534279 
L 67.450052 55.783784 
L 68.987242 56.033289 
L 70.524432 56.282794 
L 72.061622 56.615467 
L 73.598812 56.94814 
L 75.136002 57.280814 
L 76.673192 57.613487 
L 78.210382 57.94616 
L 79.747572 58.362002 
L 81.284762 58.777843 
L 82.821952 59.193685 
L 84.359143 59.609527 
L 85.896333 60.108537 
L 87.433523 60.524378 
L 88.970713 61.106556 
L 90.507903 61.605566 
L 92.045093 62.187744 
L 93.582283 62.769923 
L 95.119473 63.352101 
L 96.656663 64.017447 
L 98.193853 64.682794 
L 99.731043 65.431309 
L 101.268233 66.179824 
L 102.805424 66.928338 
L 104.342614 67.760022 
L 105.879804 68.591705 
L 107.416994 69.423388 
L 108.954184 70.338239 
L 110.491374 71.336259 
L 112.028564 72.334279 
L 113.565754 73.332299 
L 115.102944 74.413487 
L 116.640134 75.494675 
L 118.177324 76.659032 
L 119.714514 77.906556 
L 121.251705 79.070913 
L 122.788895 80.401606 
L 124.326085 81.732299 
L 125.863275 83.062992 
L 127.400465 84.476853 
L 128.937655 85.890715 
L 130.474845 87.387744 
L 132.012035 88.884774 
L 133.549225 90.464972 
L 135.086415 92.04517 
L 136.623605 93.708537 
L 138.160795 95.371903 
L 139.697986 97.118437 
L 141.235176 98.864972 
L 142.772366 100.611507 
L 144.309556 102.44121 
L 145.846746 104.187744 
L 147.383936 106.100616 
L 148.921126 107.930319 
L 150.458316 109.84319 
L 151.995506 111.672893 
L 153.532696 113.585764 
L 155.069886 115.498636 
L 156.607076 117.411507 
L 158.144267 119.324378 
L 159.681457 121.154081 
L 161.218647 123.066952 
L 162.755837 124.979824 
L 164.293027 126.809527 
L 165.830217 128.63923 
L 167.367407 130.385764 
L 168.904597 132.215467 
L 170.441787 133.878834 
L 171.978977 135.625368 
L 173.516167 137.288735 
L 175.053357 138.952101 
L 176.590548 140.532299 
L 178.127738 142.029329 
L 179.664928 143.609527 
L 181.202118 145.023388 
L 182.739308 146.437249 
L 184.276498 147.851111 
L 185.813688 149.181804 
L 187.350878 150.512497 
L 188.888068 151.760022 
L 190.425258 153.007546 
L 191.962448 154.171903 
L 193.499638 155.336259 
L 195.036829 156.417447 
L 196.574019 157.498636 
L 198.111209 158.579824 
L 199.648399 159.577843 
L 201.185589 160.575863 
L 202.722779 161.490715 
L 204.259969 162.405566 
L 205.797159 163.237249 
" clip-path="url(#pf51d1fbeac)" style="fill: none; stroke: #0000ff; stroke-width: 4; stroke-linecap: square"/>
   </g>
   <g id="line2d_9">
    <path d="M 53.615341 123.732299 
L 55.152531 123.732299 
L 56.689721 123.815467 
L 58.226911 123.815467 
L 59.764101 123.898636 
L 61.301291 123.898636 
L 62.838481 123.981804 
L 64.375671 123.981804 
L 65.912862 124.064972 
L 67.450052 124.064972 
L 68.987242 124.14814 
L 70.524432 124.231309 
L 72.061622 124.231309 
L 73.598812 124.314477 
L 75.136002 124.397645 
L 76.673192 124.480814 
L 78.210382 124.563982 
L 79.747572 124.64715 
L 81.284762 124.64715 
L 82.821952 124.730319 
L 84.359143 124.896655 
L 85.896333 124.979824 
L 87.433523 125.062992 
L 88.970713 125.14616 
L 90.507903 125.229329 
L 92.045093 125.395665 
L 93.582283 125.478834 
L 95.119473 125.64517 
L 96.656663 125.811507 
L 98.193853 125.894675 
L 99.731043 126.061012 
L 101.268233 126.227348 
L 102.805424 126.393685 
L 104.342614 126.560022 
L 105.879804 126.726358 
L 107.416994 126.892695 
L 108.954184 127.1422 
L 110.491374 127.308537 
L 112.028564 127.558041 
L 113.565754 127.807546 
L 115.102944 128.057051 
L 116.640134 128.306556 
L 118.177324 128.556061 
L 119.714514 128.805566 
L 121.251705 129.055071 
L 122.788895 129.387744 
L 124.326085 129.720418 
L 125.863275 130.053091 
L 127.400465 130.385764 
L 128.937655 130.718437 
L 130.474845 131.051111 
L 132.012035 131.466952 
L 133.549225 131.799626 
L 135.086415 132.215467 
L 136.623605 132.631309 
L 138.160795 133.130319 
L 139.697986 133.54616 
L 141.235176 134.04517 
L 142.772366 134.54418 
L 144.309556 135.04319 
L 145.846746 135.5422 
L 147.383936 136.04121 
L 148.921126 136.623388 
L 150.458316 137.205566 
L 151.995506 137.787744 
L 153.532696 138.369923 
L 155.069886 138.952101 
L 156.607076 139.617447 
L 158.144267 140.282794 
L 159.681457 140.94814 
L 161.218647 141.613487 
L 162.755837 142.278834 
L 164.293027 143.027348 
L 165.830217 143.692695 
L 167.367407 144.44121 
L 168.904597 145.189725 
L 170.441787 145.938239 
L 171.978977 146.769923 
L 173.516167 147.518438 
L 175.053357 148.266952 
L 176.590548 149.098636 
L 178.127738 149.930319 
L 179.664928 150.678834 
L 181.202118 151.510517 
L 182.739308 152.3422 
L 184.276498 153.173883 
L 185.813688 154.005566 
L 187.350878 154.837249 
L 188.888068 155.668933 
L 190.425258 156.500616 
L 191.962448 157.332299 
L 193.499638 158.080814 
L 195.036829 158.912497 
L 196.574019 159.74418 
L 198.111209 160.492695 
L 199.648399 161.324378 
L 201.185589 162.072893 
L 202.722779 162.821408 
L 204.259969 163.569923 
L 205.797159 164.318437 
" clip-path="url(#pf51d1fbeac)" style="fill: none; stroke: #000000; stroke-width: 4; stroke-linecap: square"/>
   </g>
   <g id="patch_3">
    <path d="M 46.00625 181.118437 
L 46.00625 14.798437 
" style="fill: none; stroke: #000000; stroke-width: 0.8; stroke-linejoin: miter; stroke-linecap: square"/>
   </g>
   <g id="patch_4">
    <path d="M 46.00625 181.118437 
L 213.40625 181.118437 
" style="fill: none; stroke: #000000; stroke-width: 0.8; stroke-linejoin: miter; stroke-linecap: square"/>
   </g>
  </g>
 </g>
 <defs>
  <clipPath id="pf51d1fbeac">
   <rect x="46.00625" y="14.798437" width="167.4" height="166.32"/>
  </clipPath>
 </defs>
</svg>
