<?xml version="1.0" encoding="utf-8" standalone="no"?>
<!DOCTYPE svg PUBLIC "-//W3C//DTD SVG 1.1//EN"
  "http://www.w3.org/Graphics/SVG/1.1/DTD/svg11.dtd">
<svg xmlns:xlink="http://www.w3.org/1999/xlink" width="204.70625pt" height="221.413359pt" viewBox="0 0 204.70625 221.413359" xmlns="http://www.w3.org/2000/svg" version="1.1">
 <metadata>
  <rdf:RDF xmlns:dc="http://purl.org/dc/elements/1.1/" xmlns:cc="http://creativecommons.org/ns#" xmlns:rdf="http://www.w3.org/1999/02/22-rdf-syntax-ns#">
   <cc:Work>
    <dc:type rdf:resource="http://purl.org/dc/dcmitype/StillImage"/>
    <dc:date>2025-11-08T14:51:37.715434</dc:date>
    <dc:format>image/svg+xml</dc:format>
    <dc:creator>
     <cc:Agent>
      <dc:title>Matplotlib v3.10.6, https://matplotlib.org/</dc:title>
     </cc:Agent>
    </dc:creator>
   </cc:Work>
  </rdf:RDF>
 </metadata>
 <defs>
  <style type="text/css">*{stroke-linejoin: round; stroke-linecap: butt}</style>
 </defs>
 <g id="figure_1">
  <g id="patch_1">
   <path d="M 0 221.413359 
L 204.70625 221.413359 
L 204.70625 0 
L 0 0 
L 0 221.413359 
z
" style="fill: none"/>
  </g>
  <g id="axes_1">
   <g id="patch_2">
    <path d="M 30.10625 183.018047 
L 197.50625 183.018047 
L 197.50625 16.698047 
L 30.10625 16.698047 
L 30.10625 183.018047 
z
" style="fill: none"/>
   </g>
   <g id="matplotlib.axis_1">
    <g id="xtick_1">
     <g id="line2d_1">
      <defs>
       <path id="m40150c0597" d="M 0 0 
L 0 3.5 
" style="stroke: #000000; stroke-width: 0.8"/>
      </defs>
      <g>
       <use xlink:href="#m40150c0597" x="69.963393" y="183.018047" style="stroke: #000000; stroke-width: 0.8"/>
      </g>
     </g>
     <g id="text_1">
      <!-- 1 -->
      <g transform="translate(62.010268 209.014141) scale(0.25 -0.25)">
       <defs>
        <path id="DejaVuSans-31" d="M 794 531 
L 1825 531 
L 1825 4091 
L 703 3866 
L 703 4441 
L 1819 4666 
L 2450 4666 
L 2450 531 
L 3481 531 
L 3481 0 
L 794 0 
L 794 531 
z
" transform="scale(0.015625)"/>
       </defs>
       <use xlink:href="#DejaVuSans-31"/>
      </g>
     </g>
    </g>
    <g id="xtick_2">
     <g id="line2d_2">
      <g>
       <use xlink:href="#m40150c0597" x="109.820536" y="183.018047" style="stroke: #000000; stroke-width: 0.8"/>
      </g>
     </g>
     <g id="text_2">
      <!-- 2 -->
      <g transform="translate(101.867411 209.014141) scale(0.25 -0.25)">
       <defs>
        <path id="DejaVuSans-32" d="M 1228 531 
L 3431 531 
L 3431 0 
L 469 0 
L 469 531 
Q 828 903 1448 1529 
Q 2069 2156 2228 2338 
Q 2531 2678 2651 2914 
Q 2772 3150 2772 3378 
Q 2772 3750 2511 3984 
Q 2250 4219 1831 4219 
Q 1534 4219 1204 4116 
Q 875 4013 500 3803 
L 500 4441 
Q 881 4594 1212 4672 
Q 1544 4750 1819 4750 
Q 2544 4750 2975 4387 
Q 3406 4025 3406 3419 
Q 3406 3131 3298 2873 
Q 3191 2616 2906 2266 
Q 2828 2175 2409 1742 
Q 1991 1309 1228 531 
z
" transform="scale(0.015625)"/>
       </defs>
       <use xlink:href="#DejaVuSans-32"/>
      </g>
     </g>
    </g>
    <g id="xtick_3">
     <g id="line2d_3">
      <g>
       <use xlink:href="#m40150c0597" x="149.677679" y="183.018047" style="stroke: #000000; stroke-width: 0.8"/>
      </g>
     </g>
     <g id="text_3">
      <!-- 3 -->
      <g transform="translate(141.724554 209.014141) scale(0.25 -0.25)">
       <defs>
        <path id="DejaVuSans-33" d="M 2597 2516 
Q 3050 2419 3304 2112 
Q 3559 1806 3559 1356 
Q 3559 666 3084 287 
Q 2609 -91 1734 -91 
Q 1441 -91 1130 -33 
Q 819 25 488 141 
L 488 750 
Q 750 597 1062 519 
Q 1375 441 1716 441 
Q 2309 441 2620 675 
Q 2931 909 2931 1356 
Q 2931 1769 2642 2001 
Q 2353 2234 1838 2234 
L 1294 2234 
L 1294 2753 
L 1863 2753 
Q 2328 2753 2575 2939 
Q 2822 3125 2822 3475 
Q 2822 3834 2567 4026 
Q 2313 4219 1838 4219 
Q 1578 4219 1281 4162 
Q 984 4106 628 3988 
L 628 4550 
Q 988 4650 1302 4700 
Q 1616 4750 1894 4750 
Q 2613 4750 3031 4423 
Q 3450 4097 3450 3541 
Q 3450 3153 3228 2886 
Q 3006 2619 2597 2516 
z
" transform="scale(0.015625)"/>
       </defs>
       <use xlink:href="#DejaVuSans-33"/>
      </g>
     </g>
    </g>
   </g>
   <g id="matplotlib.axis_2">
    <g id="ytick_1">
     <g id="line2d_4">
      <defs>
       <path id="mcfe798d2ae" d="M 0 0 
L -3.5 0 
" style="stroke: #000000; stroke-width: 0.8"/>
      </defs>
      <g>
       <use xlink:href="#mcfe798d2ae" x="30.10625" y="183.018047" style="stroke: #000000; stroke-width: 0.8"/>
      </g>
     </g>
     <g id="text_4">
      <!-- 0 -->
      <g transform="translate(7.2 192.516094) scale(0.25 -0.25)">
       <defs>
        <path id="DejaVuSans-30" d="M 2034 4250 
Q 1547 4250 1301 3770 
Q 1056 3291 1056 2328 
Q 1056 1369 1301 889 
Q 1547 409 2034 409 
Q 2525 409 2770 889 
Q 3016 1369 3016 2328 
Q 3016 3291 2770 3770 
Q 2525 4250 2034 4250 
z
M 2034 4750 
Q 2819 4750 3233 4129 
Q 3647 3509 3647 2328 
Q 3647 1150 3233 529 
Q 2819 -91 2034 -91 
Q 1250 -91 836 529 
Q 422 1150 422 2328 
Q 422 3509 836 4129 
Q 1250 4750 2034 4750 
z
" transform="scale(0.015625)"/>
       </defs>
       <use xlink:href="#DejaVuSans-30"/>
      </g>
     </g>
    </g>
    <g id="ytick_2">
     <g id="line2d_5">
      <g>
       <use xlink:href="#mcfe798d2ae" x="30.10625" y="141.438047" style="stroke: #000000; stroke-width: 0.8"/>
      </g>
     </g>
     <g id="text_5">
      <!-- 2 -->
      <g transform="translate(7.2 150.936094) scale(0.25 -0.25)">
       <use xlink:href="#DejaVuSans-32"/>
      </g>
     </g>
    </g>
    <g id="ytick_3">
     <g id="line2d_6">
      <g>
       <use xlink:href="#mcfe798d2ae" x="30.10625" y="99.858047" style="stroke: #000000; stroke-width: 0.8"/>
      </g>
     </g>
     <g id="text_6">
      <!-- 4 -->
      <g transform="translate(7.2 109.356094) scale(0.25 -0.25)">
       <defs>
        <path id="DejaVuSans-34" d="M 2419 4116 
L 825 1625 
L 2419 1625 
L 2419 4116 
z
M 2253 4666 
L 3047 4666 
L 3047 1625 
L 3713 1625 
L 3713 1100 
L 3047 1100 
L 3047 0 
L 2419 0 
L 2419 1100 
L 313 1100 
L 313 1709 
L 2253 4666 
z
" transform="scale(0.015625)"/>
       </defs>
       <use xlink:href="#DejaVuSans-34"/>
      </g>
     </g>
    </g>
    <g id="ytick_4">
     <g id="line2d_7">
      <g>
       <use xlink:href="#mcfe798d2ae" x="30.10625" y="58.278047" style="stroke: #000000; stroke-width: 0.8"/>
      </g>
     </g>
     <g id="text_7">
      <!-- 6 -->
      <g transform="translate(7.2 67.776094) scale(0.25 -0.25)">
       <defs>
        <path id="DejaVuSans-36" d="M 2113 2584 
Q 1688 2584 1439 2293 
Q 1191 2003 1191 1497 
Q 1191 994 1439 701 
Q 1688 409 2113 409 
Q 2538 409 2786 701 
Q 3034 994 3034 1497 
Q 3034 2003 2786 2293 
Q 2538 2584 2113 2584 
z
M 3366 4563 
L 3366 3988 
Q 3128 4100 2886 4159 
Q 2644 4219 2406 4219 
Q 1781 4219 1451 3797 
Q 1122 3375 1075 2522 
Q 1259 2794 1537 2939 
Q 1816 3084 2150 3084 
Q 2853 3084 3261 2657 
Q 3669 2231 3669 1497 
Q 3669 778 3244 343 
Q 2819 -91 2113 -91 
Q 1303 -91 875 529 
Q 447 1150 447 2328 
Q 447 3434 972 4092 
Q 1497 4750 2381 4750 
Q 2619 4750 2861 4703 
Q 3103 4656 3366 4563 
z
" transform="scale(0.015625)"/>
       </defs>
       <use xlink:href="#DejaVuSans-36"/>
      </g>
     </g>
    </g>
    <g id="ytick_5">
     <g id="line2d_8">
      <g>
       <use xlink:href="#mcfe798d2ae" x="30.10625" y="16.698047" style="stroke: #000000; stroke-width: 0.8"/>
      </g>
     </g>
     <g id="text_8">
      <!-- 8 -->
      <g transform="translate(7.2 26.196094) scale(0.25 -0.25)">
       <defs>
        <path id="DejaVuSans-38" d="M 2034 2216 
Q 1584 2216 1326 1975 
Q 1069 1734 1069 1313 
Q 1069 891 1326 650 
Q 1584 409 2034 409 
Q 2484 409 2743 651 
Q 3003 894 3003 1313 
Q 3003 1734 2745 1975 
Q 2488 2216 2034 2216 
z
M 1403 2484 
Q 997 2584 770 2862 
Q 544 3141 544 3541 
Q 544 4100 942 4425 
Q 1341 4750 2034 4750 
Q 2731 4750 3128 4425 
Q 3525 4100 3525 3541 
Q 3525 3141 3298 2862 
Q 3072 2584 2669 2484 
Q 3125 2378 3379 2068 
Q 3634 1759 3634 1313 
Q 3634 634 3220 271 
Q 2806 -91 2034 -91 
Q 1263 -91 848 271 
Q 434 634 434 1313 
Q 434 1759 690 2068 
Q 947 2378 1403 2484 
z
M 1172 3481 
Q 1172 3119 1398 2916 
Q 1625 2713 2034 2713 
Q 2441 2713 2670 2916 
Q 2900 3119 2900 3481 
Q 2900 3844 2670 4047 
Q 2441 4250 2034 4250 
Q 1625 4250 1398 4047 
Q 1172 3844 1172 3481 
z
" transform="scale(0.015625)"/>
       </defs>
       <use xlink:href="#DejaVuSans-38"/>
      </g>
     </g>
    </g>
   </g>
   <g id="line2d_9">
    <path d="M 30.10625 175.692641 
L 30.10625 175.692641 
L 30.10625 175.692641 
L 30.10625 175.692641 
L 30.10625 175.692641 
L 30.10625 175.692641 
L 30.10625 175.692641 
L 30.10625 175.692641 
L 42.104446 167.035344 
L 42.104446 167.035344 
L 42.104446 167.035344 
L 42.104446 167.035344 
L 49.12294 160.708858 
L 49.12294 160.708858 
L 49.12294 160.708858 
L 54.102641 155.88075 
L 54.102641 155.88075 
L 54.102641 155.88075 
L 57.965197 152.05156 
L 57.965197 152.05156 
L 61.121136 148.721831 
L 63.789443 146.058047 
L 63.789443 146.058047 
L 66.100837 143.56075 
L 68.13963 141.396425 
L 69.963393 139.565074 
L 71.613187 137.733723 
L 73.119331 136.068858 
L 74.504849 134.736966 
L 75.787639 133.238587 
L 78.099032 130.907777 
L 79.148428 129.742371 
L 81.073715 127.744533 
L 82.806133 125.913182 
L 84.380831 124.248317 
L 85.824145 122.583452 
L 87.785834 120.585614 
L 89.547666 118.754263 
L 91.146624 117.089398 
L 92.61029 115.59102 
L 94.387207 113.759668 
L 95.998577 112.094804 
L 97.472637 110.596425 
L 99.154516 108.765074 
L 100.687352 107.266696 
L 102.363797 105.601831 
L 104.134217 103.770479 
L 105.740244 102.272101 
L 107.209831 100.773723 
L 108.932662 99.108858 
L 110.499436 97.610479 
L 112.088601 96.112101 
L 113.821019 94.447236 
L 115.395716 92.948858 
L 116.954045 91.450479 
L 118.593415 89.952101 
L 120.281086 88.287236 
L 121.818731 86.955344 
L 123.468525 85.456966 
L 125.11832 83.958587 
L 126.689907 82.460209 
L 128.309985 80.961831 
L 129.900193 79.629939 
L 131.554919 78.13156 
L 133.155328 76.799668 
L 134.743703 75.30129 
L 136.386038 73.969398 
L 137.988287 72.637506 
L 139.610235 71.139128 
L 141.20646 69.807236 
L 142.82285 68.475344 
L 144.442221 67.143452 
L 146.05151 65.81156 
L 147.660509 64.479668 
L 149.274905 63.147777 
L 150.881156 61.982371 
L 152.483913 60.650479 
L 154.098882 59.318587 
L 155.710848 58.153182 
L 157.319504 56.82129 
L 158.933843 55.655885 
L 160.540256 54.323993 
L 162.153885 53.158587 
L 163.768436 51.993182 
L 165.378444 50.66129 
L 166.985621 49.495885 
L 168.596001 48.330479 
L 170.207243 47.165074 
L 171.816616 45.999668 
L 173.430021 44.834263 
L 175.03827 43.668858 
L 176.648752 42.503452 
L 178.262067 41.338047 
L 179.871372 40.172641 
L 181.48207 39.007236 
L 183.091726 38.008317 
L 184.702203 36.842912 
L 186.313676 35.677506 
L 187.92324 34.678587 
L 189.534821 33.513182 
" clip-path="url(#p6ec7f39e99)" style="fill: none; stroke: #db7093; stroke-width: 4; stroke-linecap: square"/>
   </g>
   <g id="line2d_10">
    <path d="M 30.10625 176.192101 
L 30.10625 176.192101 
L 30.10625 176.192101 
L 30.10625 176.192101 
L 30.10625 176.192101 
L 30.10625 176.192101 
L 30.10625 176.192101 
L 30.10625 176.192101 
L 42.104446 168.700209 
L 42.104446 168.700209 
L 42.104446 168.700209 
L 42.104446 168.700209 
L 49.12294 163.206155 
L 49.12294 163.206155 
L 49.12294 163.206155 
L 54.102641 159.043993 
L 54.102641 159.043993 
L 54.102641 159.043993 
L 57.965197 155.714263 
L 57.965197 155.714263 
L 61.121136 152.883993 
L 63.789443 150.553182 
L 63.789443 150.553182 
L 66.100837 148.388858 
L 68.13963 146.557506 
L 69.963393 145.059128 
L 71.613187 143.56075 
L 73.119331 142.228858 
L 74.504849 140.896966 
L 75.787639 139.898047 
L 78.099032 137.733723 
L 79.148428 136.90129 
L 81.073715 135.236425 
L 82.806133 133.57156 
L 84.380831 132.239668 
L 85.824145 131.074263 
L 87.785834 129.409398 
L 89.547666 127.91102 
L 91.146624 126.412641 
L 92.61029 125.247236 
L 94.387207 123.748858 
L 95.998577 122.416966 
L 97.472637 121.085074 
L 99.154516 119.753182 
L 100.687352 118.42129 
L 102.363797 117.089398 
L 104.134217 115.757506 
L 105.740244 114.425614 
L 107.209831 113.260209 
L 108.932662 111.928317 
L 110.499436 110.596425 
L 112.088601 109.43102 
L 113.821019 108.099128 
L 115.395716 106.767236 
L 116.954045 105.601831 
L 118.593415 104.436425 
L 120.281086 103.104533 
L 121.818731 101.939128 
L 123.468525 100.773723 
L 125.11832 99.441831 
L 126.689907 98.276425 
L 128.309985 97.11102 
L 129.900193 95.945614 
L 131.554919 94.780209 
L 133.155328 93.614804 
L 134.743703 92.615885 
L 136.386038 91.450479 
L 137.988287 90.285074 
L 139.610235 89.119668 
L 141.20646 87.954263 
L 142.82285 86.955344 
L 144.442221 85.789939 
L 146.05151 84.624533 
L 147.660509 83.625614 
L 149.274905 82.460209 
L 150.881156 81.46129 
L 152.483913 80.295885 
L 154.098882 79.296966 
L 155.710848 78.13156 
L 157.319504 77.132641 
L 158.933843 75.967236 
L 160.540256 74.968317 
L 162.153885 73.969398 
L 163.768436 72.803993 
L 165.378444 71.805074 
L 166.985621 70.806155 
L 168.596001 69.807236 
L 170.207243 68.641831 
L 171.816616 67.642912 
L 173.430021 66.643993 
L 175.03827 65.645074 
L 176.648752 64.646155 
L 178.262067 63.48075 
L 179.871372 62.481831 
L 181.48207 61.482912 
L 183.091726 60.483993 
L 184.702203 59.485074 
L 186.313676 58.486155 
L 187.92324 57.487236 
L 189.534821 56.488317 
" clip-path="url(#p6ec7f39e99)" style="fill: none; stroke: #ff69b4; stroke-width: 4; stroke-linecap: square"/>
   </g>
   <g id="line2d_11">
    <path d="M 30.10625 177.690479 
L 30.10625 177.690479 
L 30.10625 177.690479 
L 30.10625 177.690479 
L 30.10625 177.690479 
L 30.10625 177.690479 
L 30.10625 177.690479 
L 30.10625 177.690479 
L 42.104446 174.693723 
L 42.104446 174.693723 
L 42.104446 174.693723 
L 42.104446 174.693723 
L 49.12294 171.363993 
L 49.12294 171.363993 
L 49.12294 171.363993 
L 54.102641 168.533723 
L 54.102641 168.533723 
L 54.102641 168.533723 
L 57.965197 166.202912 
L 57.965197 166.202912 
L 61.121136 164.37156 
L 63.789443 162.706696 
L 63.789443 162.706696 
L 66.100837 161.208317 
L 68.13963 159.876425 
L 69.963393 158.71102 
L 71.613187 157.712101 
L 73.119331 156.713182 
L 74.504849 155.714263 
L 75.787639 154.881831 
L 78.099032 153.383452 
L 79.148428 152.717506 
L 81.073715 151.552101 
L 82.806133 150.386696 
L 84.380831 149.387777 
L 85.824145 148.555344 
L 87.785834 147.223452 
L 89.547666 146.224533 
L 91.146624 145.225614 
L 92.61029 144.226696 
L 94.387207 143.06129 
L 95.998577 142.062371 
L 97.472637 141.229939 
L 99.154516 140.064533 
L 100.687352 139.232101 
L 102.363797 138.066696 
L 104.134217 137.067777 
L 105.740244 136.068858 
L 107.209831 135.236425 
L 108.932662 134.07102 
L 110.499436 133.238587 
L 112.088601 132.239668 
L 113.821019 131.24075 
L 115.395716 130.241831 
L 116.954045 129.242912 
L 118.593415 128.243993 
L 120.281086 127.245074 
L 121.818731 126.412641 
L 123.468525 125.413723 
L 125.11832 124.414804 
L 126.689907 123.582371 
L 128.309985 122.583452 
L 129.900193 121.584533 
L 131.554919 120.752101 
L 133.155328 119.753182 
L 134.743703 118.754263 
L 136.386038 117.921831 
L 137.988287 116.922912 
L 139.610235 115.923993 
L 141.20646 115.09156 
L 142.82285 114.092641 
L 144.442221 113.260209 
L 146.05151 112.26129 
L 147.660509 111.428858 
L 149.274905 110.429939 
L 150.881156 109.597506 
L 152.483913 108.598587 
L 154.098882 107.766155 
L 155.710848 106.767236 
L 157.319504 105.934804 
L 158.933843 104.935885 
L 160.540256 104.103452 
L 162.153885 103.104533 
L 163.768436 102.272101 
L 165.378444 101.439668 
L 166.985621 100.44075 
L 168.596001 99.608317 
L 170.207243 98.609398 
L 171.816616 97.776966 
L 173.430021 96.944533 
L 175.03827 95.945614 
L 176.648752 95.113182 
L 178.262067 94.114263 
L 179.871372 93.281831 
L 181.48207 92.449398 
L 183.091726 91.450479 
L 184.702203 90.618047 
L 186.313676 89.619128 
L 187.92324 88.786696 
L 189.534821 87.954263 
" clip-path="url(#p6ec7f39e99)" style="fill: none; stroke: #ffc0cb; stroke-width: 4; stroke-linecap: square"/>
   </g>
   <g id="patch_3">
    <path d="M 30.10625 183.018047 
L 30.10625 16.698047 
" style="fill: none; stroke: #000000; stroke-width: 0.8; stroke-linejoin: miter; stroke-linecap: square"/>
   </g>
   <g id="patch_4">
    <path d="M 30.10625 183.018047 
L 197.50625 183.018047 
" style="fill: none; stroke: #000000; stroke-width: 0.8; stroke-linejoin: miter; stroke-linecap: square"/>
   </g>
  </g>
 </g>
 <defs>
  <clipPath id="p6ec7f39e99">
   <rect x="30.10625" y="16.698047" width="167.4" height="166.32"/>
  </clipPath>
 </defs>
</svg>
