<?xml version="1.0" encoding="utf-8" standalone="no"?>
<!DOCTYPE svg PUBLIC "-//W3C//DTD SVG 1.1//EN"
  "http://www.w3.org/Graphics/SVG/1.1/DTD/svg11.dtd">
<svg xmlns:xlink="http://www.w3.org/1999/xlink" width="499.60625pt" height="207.07625pt" viewBox="0 0 499.60625 207.07625" xmlns="http://www.w3.org/2000/svg" version="1.1">
 <metadata>
  <rdf:RDF xmlns:dc="http://purl.org/dc/elements/1.1/" xmlns:cc="http://creativecommons.org/ns#" xmlns:rdf="http://www.w3.org/1999/02/22-rdf-syntax-ns#">
   <cc:Work>
    <dc:type rdf:resource="http://purl.org/dc/dcmitype/StillImage"/>
    <dc:date>2025-11-08T14:46:27.422815</dc:date>
    <dc:format>image/svg+xml</dc:format>
    <dc:creator>
     <cc:Agent>
      <dc:title>Matplotlib v3.10.6, https://matplotlib.org/</dc:title>
     </cc:Agent>
    </dc:creator>
   </cc:Work>
  </rdf:RDF>
 </metadata>
 <defs>
  <style type="text/css">*{stroke-linejoin: round; stroke-linecap: butt}</style>
 </defs>
 <g id="figure_1">
  <g id="patch_1">
   <path d="M 0 207.07625 
L 499.60625 207.07625 
L 499.60625 0 
L 0 0 
L 0 207.07625 
z
" style="fill: none"/>
  </g>
  <g id="axes_1">
   <g id="patch_2">
    <path d="M 46.00625 173.52 
L 492.40625 173.52 
L 492.40625 7.2 
L 46.00625 7.2 
L 46.00625 173.52 
z
" style="fill: none"/>
   </g>
   <g id="matplotlib.axis_1">
    <g id="xtick_1">
     <g id="line2d_1">
      <defs>
       <path id="mb6903f7809" d="M 0 0 
L 0 3.5 
" style="stroke: #000000; stroke-width: 0.8"/>
      </defs>
      <g>
       <use xlink:href="#mb6903f7809" x="99.149107" y="173.52" style="stroke: #000000; stroke-width: 0.8"/>
      </g>
     </g>
     <g id="text_1">
      <!-- 1 -->
      <g transform="translate(92.786607 195.716875) scale(0.2 -0.2)">
       <defs>
        <path id="DejaVuSans-31" d="M 794 531 
L 1825 531 
L 1825 4091 
L 703 3866 
L 703 4441 
L 1819 4666 
L 2450 4666 
L 2450 531 
L 3481 531 
L 3481 0 
L 794 0 
L 794 531 
z
" transform="scale(0.015625)"/>
       </defs>
       <use xlink:href="#DejaVuSans-31"/>
      </g>
     </g>
    </g>
    <g id="xtick_2">
     <g id="line2d_2">
      <g>
       <use xlink:href="#mb6903f7809" x="152.291964" y="173.52" style="stroke: #000000; stroke-width: 0.8"/>
      </g>
     </g>
     <g id="text_2">
      <!-- 2 -->
      <g transform="translate(145.929464 195.716875) scale(0.2 -0.2)">
       <defs>
        <path id="DejaVuSans-32" d="M 1228 531 
L 3431 531 
L 3431 0 
L 469 0 
L 469 531 
Q 828 903 1448 1529 
Q 2069 2156 2228 2338 
Q 2531 2678 2651 2914 
Q 2772 3150 2772 3378 
Q 2772 3750 2511 3984 
Q 2250 4219 1831 4219 
Q 1534 4219 1204 4116 
Q 875 4013 500 3803 
L 500 4441 
Q 881 4594 1212 4672 
Q 1544 4750 1819 4750 
Q 2544 4750 2975 4387 
Q 3406 4025 3406 3419 
Q 3406 3131 3298 2873 
Q 3191 2616 2906 2266 
Q 2828 2175 2409 1742 
Q 1991 1309 1228 531 
z
" transform="scale(0.015625)"/>
       </defs>
       <use xlink:href="#DejaVuSans-32"/>
      </g>
     </g>
    </g>
    <g id="xtick_3">
     <g id="line2d_3">
      <g>
       <use xlink:href="#mb6903f7809" x="205.434821" y="173.52" style="stroke: #000000; stroke-width: 0.8"/>
      </g>
     </g>
     <g id="text_3">
      <!-- 3 -->
      <g transform="translate(199.072321 195.716875) scale(0.2 -0.2)">
       <defs>
        <path id="DejaVuSans-33" d="M 2597 2516 
Q 3050 2419 3304 2112 
Q 3559 1806 3559 1356 
Q 3559 666 3084 287 
Q 2609 -91 1734 -91 
Q 1441 -91 1130 -33 
Q 819 25 488 141 
L 488 750 
Q 750 597 1062 519 
Q 1375 441 1716 441 
Q 2309 441 2620 675 
Q 2931 909 2931 1356 
Q 2931 1769 2642 2001 
Q 2353 2234 1838 2234 
L 1294 2234 
L 1294 2753 
L 1863 2753 
Q 2328 2753 2575 2939 
Q 2822 3125 2822 3475 
Q 2822 3834 2567 4026 
Q 2313 4219 1838 4219 
Q 1578 4219 1281 4162 
Q 984 4106 628 3988 
L 628 4550 
Q 988 4650 1302 4700 
Q 1616 4750 1894 4750 
Q 2613 4750 3031 4423 
Q 3450 4097 3450 3541 
Q 3450 3153 3228 2886 
Q 3006 2619 2597 2516 
z
" transform="scale(0.015625)"/>
       </defs>
       <use xlink:href="#DejaVuSans-33"/>
      </g>
     </g>
    </g>
    <g id="xtick_4">
     <g id="line2d_4">
      <g>
       <use xlink:href="#mb6903f7809" x="258.577679" y="173.52" style="stroke: #000000; stroke-width: 0.8"/>
      </g>
     </g>
     <g id="text_4">
      <!-- 4 -->
      <g transform="translate(252.215179 195.716875) scale(0.2 -0.2)">
       <defs>
        <path id="DejaVuSans-34" d="M 2419 4116 
L 825 1625 
L 2419 1625 
L 2419 4116 
z
M 2253 4666 
L 3047 4666 
L 3047 1625 
L 3713 1625 
L 3713 1100 
L 3047 1100 
L 3047 0 
L 2419 0 
L 2419 1100 
L 313 1100 
L 313 1709 
L 2253 4666 
z
" transform="scale(0.015625)"/>
       </defs>
       <use xlink:href="#DejaVuSans-34"/>
      </g>
     </g>
    </g>
    <g id="xtick_5">
     <g id="line2d_5">
      <g>
       <use xlink:href="#mb6903f7809" x="311.720536" y="173.52" style="stroke: #000000; stroke-width: 0.8"/>
      </g>
     </g>
     <g id="text_5">
      <!-- 5 -->
      <g transform="translate(305.358036 195.716875) scale(0.2 -0.2)">
       <defs>
        <path id="DejaVuSans-35" d="M 691 4666 
L 3169 4666 
L 3169 4134 
L 1269 4134 
L 1269 2991 
Q 1406 3038 1543 3061 
Q 1681 3084 1819 3084 
Q 2600 3084 3056 2656 
Q 3513 2228 3513 1497 
Q 3513 744 3044 326 
Q 2575 -91 1722 -91 
Q 1428 -91 1123 -41 
Q 819 9 494 109 
L 494 744 
Q 775 591 1075 516 
Q 1375 441 1709 441 
Q 2250 441 2565 725 
Q 2881 1009 2881 1497 
Q 2881 1984 2565 2268 
Q 2250 2553 1709 2553 
Q 1456 2553 1204 2497 
Q 953 2441 691 2322 
L 691 4666 
z
" transform="scale(0.015625)"/>
       </defs>
       <use xlink:href="#DejaVuSans-35"/>
      </g>
     </g>
    </g>
    <g id="xtick_6">
     <g id="line2d_6">
      <g>
       <use xlink:href="#mb6903f7809" x="364.863393" y="173.52" style="stroke: #000000; stroke-width: 0.8"/>
      </g>
     </g>
     <g id="text_6">
      <!-- 6 -->
      <g transform="translate(358.500893 195.716875) scale(0.2 -0.2)">
       <defs>
        <path id="DejaVuSans-36" d="M 2113 2584 
Q 1688 2584 1439 2293 
Q 1191 2003 1191 1497 
Q 1191 994 1439 701 
Q 1688 409 2113 409 
Q 2538 409 2786 701 
Q 3034 994 3034 1497 
Q 3034 2003 2786 2293 
Q 2538 2584 2113 2584 
z
M 3366 4563 
L 3366 3988 
Q 3128 4100 2886 4159 
Q 2644 4219 2406 4219 
Q 1781 4219 1451 3797 
Q 1122 3375 1075 2522 
Q 1259 2794 1537 2939 
Q 1816 3084 2150 3084 
Q 2853 3084 3261 2657 
Q 3669 2231 3669 1497 
Q 3669 778 3244 343 
Q 2819 -91 2113 -91 
Q 1303 -91 875 529 
Q 447 1150 447 2328 
Q 447 3434 972 4092 
Q 1497 4750 2381 4750 
Q 2619 4750 2861 4703 
Q 3103 4656 3366 4563 
z
" transform="scale(0.015625)"/>
       </defs>
       <use xlink:href="#DejaVuSans-36"/>
      </g>
     </g>
    </g>
   </g>
   <g id="matplotlib.axis_2">
    <g id="ytick_1">
     <g id="line2d_7">
      <defs>
       <path id="m3e54daff1c" d="M 0 0 
L -3.5 0 
" style="stroke: #000000; stroke-width: 0.8"/>
      </defs>
      <g>
       <use xlink:href="#m3e54daff1c" x="46.00625" y="173.52" style="stroke: #000000; stroke-width: 0.8"/>
      </g>
     </g>
     <g id="text_7">
      <!-- 0 -->
      <g transform="translate(26.28125 181.118438) scale(0.2 -0.2)">
       <defs>
        <path id="DejaVuSans-30" d="M 2034 4250 
Q 1547 4250 1301 3770 
Q 1056 3291 1056 2328 
Q 1056 1369 1301 889 
Q 1547 409 2034 409 
Q 2525 409 2770 889 
Q 3016 1369 3016 2328 
Q 3016 3291 2770 3770 
Q 2525 4250 2034 4250 
z
M 2034 4750 
Q 2819 4750 3233 4129 
Q 3647 3509 3647 2328 
Q 3647 1150 3233 529 
Q 2819 -91 2034 -91 
Q 1250 -91 836 529 
Q 422 1150 422 2328 
Q 422 3509 836 4129 
Q 1250 4750 2034 4750 
z
" transform="scale(0.015625)"/>
       </defs>
       <use xlink:href="#DejaVuSans-30"/>
      </g>
     </g>
    </g>
    <g id="ytick_2">
     <g id="line2d_8">
      <g>
       <use xlink:href="#m3e54daff1c" x="46.00625" y="94.319994" style="stroke: #000000; stroke-width: 0.8"/>
      </g>
     </g>
     <g id="text_8">
      <!-- 0.5 -->
      <g transform="translate(7.2 101.918431) scale(0.2 -0.2)">
       <defs>
        <path id="DejaVuSans-2e" d="M 684 794 
L 1344 794 
L 1344 0 
L 684 0 
L 684 794 
z
" transform="scale(0.015625)"/>
       </defs>
       <use xlink:href="#DejaVuSans-30"/>
       <use xlink:href="#DejaVuSans-2e" transform="translate(63.623047 0)"/>
       <use xlink:href="#DejaVuSans-35" transform="translate(95.410156 0)"/>
      </g>
     </g>
    </g>
    <g id="ytick_3">
     <g id="line2d_9">
      <g>
       <use xlink:href="#m3e54daff1c" x="46.00625" y="15.119987" style="stroke: #000000; stroke-width: 0.8"/>
      </g>
     </g>
     <g id="text_9">
      <!-- 1 -->
      <g transform="translate(26.28125 22.718425) scale(0.2 -0.2)">
       <use xlink:href="#DejaVuSans-31"/>
      </g>
     </g>
    </g>
   </g>
   <g id="line2d_10">
    <path d="M 46.00625 21.477964 
L 46.431478 26.77425 
L 47.281934 34.305161 
L 48.387526 42.150309 
L 49.748256 50.229335 
L 51.279076 58.004721 
L 52.979988 65.510381 
L 54.85099 72.749452 
L 56.807039 79.441583 
L 58.933178 85.912564 
L 61.144363 91.924498 
L 63.440594 97.530344 
L 65.82187 102.770955 
L 68.288192 107.678982 
L 70.924605 112.427195 
L 73.646064 116.865379 
L 76.452568 121.017268 
L 79.344118 124.903359 
L 82.405758 128.640645 
L 85.552445 132.128142 
L 88.784177 135.38278 
L 92.186 138.493903 
L 95.757915 141.454695 
L 99.414875 144.199922 
L 103.241926 146.799464 
L 107.324114 149.300499 
L 111.576393 151.642848 
L 116.083808 153.868126 
L 120.846361 155.966433 
L 125.86405 157.930882 
L 131.221922 159.78491 
L 136.919976 161.516495 
L 142.958212 163.117462 
L 149.506722 164.619318 
L 156.565505 166.004561 
L 164.219607 167.274391 
L 172.554074 168.426448 
L 181.653951 169.456608 
L 191.774375 170.374364 
L 203.085437 171.17272 
L 216.012366 171.856196 
L 230.980388 172.418542 
L 248.925005 172.862341 
L 271.54713 173.188218 
L 302.673812 173.398112 
L 355.402072 173.500354 
L 471.149107 173.51973 
L 471.149107 173.51973 
" clip-path="url(#p3df2f29c93)" style="fill: none; stroke: #000000; stroke-width: 4; stroke-linecap: square"/>
   </g>
   <g id="line2d_11">
    <path d="M 46.00625 15.234577 
L 46.261387 17.369716 
L 46.686615 18.916931 
L 47.452025 20.721186 
L 49.578164 24.843552 
L 52.129532 30.046282 
L 55.191173 36.837167 
L 60.889227 50.151685 
L 66.842417 63.844229 
L 71.094696 73.078569 
L 75.006793 81.056848 
L 78.748799 88.193541 
L 82.405758 94.697978 
L 86.062718 100.748844 
L 89.719678 106.364885 
L 93.376638 111.569033 
L 97.033598 116.386164 
L 100.690558 120.841683 
L 104.432564 125.052613 
L 108.259615 129.021672 
L 112.171712 132.753194 
L 116.168854 136.252797 
L 120.251042 139.5271 
L 124.418275 142.583494 
L 128.670554 145.429943 
L 133.092924 148.12424 
L 137.685386 150.661213 
L 142.447938 153.037742 
L 147.380582 155.252578 
L 152.568362 157.338485 
L 158.01128 159.286652 
L 163.794379 161.116426 
L 169.832615 162.793065 
L 176.296079 164.354889 
L 183.184771 165.788002 
L 190.583737 167.097185 
L 198.578021 168.282576 
L 207.252671 169.341562 
L 216.777776 170.278074 
L 227.408473 171.095881 
L 239.3999 171.790786 
L 253.26233 172.365477 
L 269.761172 172.819603 
L 290.427248 173.155928 
L 318.662381 173.377774 
L 365.182314 173.49236 
L 471.149107 173.51946 
L 471.149107 173.51946 
" clip-path="url(#p3df2f29c93)" style="fill: none; stroke: #0000ff; stroke-width: 4; stroke-linecap: square"/>
   </g>
   <g id="line2d_12">
    <path d="M 46.00625 15.119987 
L 58.592996 15.229311 
L 63.100412 15.489567 
L 66.927463 15.928596 
L 70.414332 16.545161 
L 73.561018 17.321617 
L 76.452568 18.260709 
L 79.174026 19.372453 
L 81.895485 20.724669 
L 84.616944 22.326363 
L 87.423448 24.239296 
L 90.314997 26.479547 
L 93.376638 29.134593 
L 96.60837 32.232227 
L 100.095239 35.88764 
L 103.837245 40.13891 
L 107.919433 45.120691 
L 112.511894 51.090364 
L 117.869766 58.437938 
L 125.013594 68.643444 
L 141.087209 91.714219 
L 147.210491 100.038277 
L 152.568362 106.957405 
L 157.586052 113.081029 
L 162.348604 118.549712 
L 167.026111 123.582776 
L 171.533527 128.112186 
L 176.040943 132.328801 
L 180.548358 136.238718 
L 185.055774 139.85122 
L 189.56319 143.177934 
L 194.070606 146.232132 
L 198.663067 149.078534 
L 203.340574 151.718534 
L 208.188172 154.196668 
L 213.120816 156.468123 
L 218.223551 158.57302 
L 223.496377 160.508407 
L 229.024339 162.299662 
L 234.807439 163.93876 
L 240.930721 165.440646 
L 247.394185 166.795775 
L 254.367922 168.026846 
L 261.851933 169.119085 
L 270.016309 170.083086 
L 279.031141 170.920669 
L 289.23661 171.639784 
L 300.9729 172.236605 
L 314.920376 172.714508 
L 332.269674 173.075884 
L 355.657209 173.325476 
L 392.226808 173.468494 
L 471.149107 173.517302 
L 471.149107 173.517302 
" clip-path="url(#p3df2f29c93)" style="fill: none; stroke: #4169e1; stroke-width: 4; stroke-linecap: square"/>
   </g>
   <g id="line2d_13">
    <path d="M 46.00625 15.119987 
L 136.409702 15.229855 
L 143.808668 15.48369 
L 149.166539 15.883449 
L 153.588909 16.434638 
L 157.415961 17.132013 
L 160.902829 17.99082 
L 164.134561 19.011899 
L 167.281248 20.242337 
L 170.257843 21.642491 
L 173.234438 23.289997 
L 176.211034 25.198761 
L 179.187629 27.378445 
L 182.164224 29.833832 
L 185.225865 32.6466 
L 188.457597 35.925012 
L 191.859421 39.704673 
L 195.431335 44.011661 
L 199.343432 49.08701 
L 203.680756 55.089004 
L 208.783491 62.547079 
L 215.502092 72.790767 
L 232.000935 98.101833 
L 237.784034 106.470535 
L 242.886769 113.467898 
L 247.564276 119.511528 
L 251.986646 124.870831 
L 256.238925 129.683777 
L 260.406159 134.07036 
L 264.488346 138.050273 
L 268.570534 141.720643 
L 272.652722 145.089529 
L 276.73491 148.167965 
L 280.817098 150.969264 
L 284.984331 153.55861 
L 289.23661 155.936911 
L 293.573935 158.107621 
L 298.081351 160.112041 
L 302.758858 161.944986 
L 307.606456 163.604805 
L 312.709191 165.116529 
L 318.152108 166.494294 
L 323.935207 167.727362 
L 330.22858 168.838332 
L 337.117272 169.823355 
L 344.686329 170.678111 
L 353.275933 171.419311 
L 363.14122 172.041709 
L 374.87751 172.551645 
L 389.420304 172.950211 
L 408.55556 173.238657 
L 436.790693 173.421803 
L 471.149107 173.493023 
L 471.149107 173.493023 
" clip-path="url(#p3df2f29c93)" style="fill: none; stroke: #6495ed; stroke-width: 4; stroke-linecap: square"/>
   </g>
   <g id="line2d_14">
    <path d="M 46.00625 15.119987 
L 222.560875 15.229787 
L 229.19443 15.481997 
L 233.956983 15.878834 
L 237.784034 16.412482 
L 241.185857 17.109222 
L 244.247498 17.962283 
L 247.139048 19.00265 
L 249.860507 20.2204 
L 252.49692 21.645124 
L 255.048287 23.2724 
L 257.599654 25.158641 
L 260.236067 27.390524 
L 262.87248 29.91561 
L 265.593939 32.829908 
L 268.485489 36.261967 
L 271.54713 40.256074 
L 274.778862 44.844462 
L 278.350776 50.311375 
L 282.432964 56.983681 
L 287.365608 65.494337 
L 295.189801 79.508824 
L 304.119587 95.379123 
L 309.477459 104.444681 
L 314.06992 111.792878 
L 318.322199 118.18554 
L 322.319341 123.800774 
L 326.146392 128.802981 
L 329.888398 133.334335 
L 333.545358 137.420463 
L 337.202318 141.174942 
L 340.859278 144.608526 
L 344.516238 147.735126 
L 348.173198 150.570932 
L 351.915203 153.19016 
L 355.742254 155.593945 
L 359.654351 157.786189 
L 363.651493 159.773206 
L 367.818727 161.598243 
L 372.241097 163.288213 
L 376.833558 164.804647 
L 381.766202 166.196383 
L 387.039028 167.449642 
L 392.737082 168.572602 
L 398.945409 169.568019 
L 405.834101 170.445592 
L 413.658295 171.213014 
L 422.673126 171.866405 
L 433.303824 172.405997 
L 446.315798 172.834849 
L 463.154823 173.155866 
L 471.149107 173.250511 
L 471.149107 173.250511 
" clip-path="url(#p3df2f29c93)" style="fill: none; stroke: #00bfff; stroke-width: 4; stroke-linecap: square"/>
   </g>
   <g id="line2d_15">
    <path d="M 46.00625 15.119987 
L 471.149107 15.119987 
L 471.149107 15.119987 
" clip-path="url(#p3df2f29c93)" style="fill: none; stroke-dasharray: 14.8,6.4; stroke-dashoffset: 0; stroke: #000000; stroke-opacity: 0.5; stroke-width: 4"/>
   </g>
   <g id="patch_3">
    <path d="M 46.00625 173.52 
L 46.00625 7.2 
" style="fill: none; stroke: #000000; stroke-width: 0.8; stroke-linejoin: miter; stroke-linecap: square"/>
   </g>
   <g id="patch_4">
    <path d="M 46.00625 173.52 
L 492.40625 173.52 
" style="fill: none; stroke: #000000; stroke-width: 0.8; stroke-linejoin: miter; stroke-linecap: square"/>
   </g>
   <g id="PathCollection_1">
    <defs>
     <path id="mb9a6b33a4a" d="M 0 7.071068 
C 1.875269 7.071068 3.673985 6.326016 5 5 
C 6.326016 3.673985 7.071068 1.875269 7.071068 0 
C 7.071068 -1.875269 6.326016 -3.673985 5 -5 
C 3.673985 -6.326016 1.875269 -7.071068 0 -7.071068 
C -1.875269 -7.071068 -3.673985 -6.326016 -5 -5 
C -6.326016 -3.673985 -7.071068 -1.875269 -7.071068 0 
C -7.071068 1.875269 -6.326016 3.673985 -5 5 
C -3.673985 6.326016 -1.875269 7.071068 0 7.071068 
z
" style="stroke: #000000"/>
    </defs>
    <g clip-path="url(#p3df2f29c93)">
     <use xlink:href="#mb9a6b33a4a" x="63.440594" y="94.319994" style="stroke: #000000"/>
    </g>
   </g>
   <g id="PathCollection_2">
    <defs>
     <path id="m41e8949587" d="M 0 7.071068 
C 1.875269 7.071068 3.673985 6.326016 5 5 
C 6.326016 3.673985 7.071068 1.875269 7.071068 0 
C 7.071068 -1.875269 6.326016 -3.673985 5 -5 
C 3.673985 -6.326016 1.875269 -7.071068 0 -7.071068 
C -1.875269 -7.071068 -3.673985 -6.326016 -5 -5 
C -6.326016 -3.673985 -7.071068 -1.875269 -7.071068 0 
C -7.071068 1.875269 -6.326016 3.673985 -5 5 
C -3.673985 6.326016 -1.875269 7.071068 0 7.071068 
z
" style="stroke: #0000ff"/>
    </defs>
    <g clip-path="url(#p3df2f29c93)">
     <use xlink:href="#m41e8949587" x="82.235667" y="94.377288" style="fill: #0000ff; stroke: #0000ff"/>
    </g>
   </g>
   <g id="PathCollection_3">
    <defs>
     <path id="m104278e951" d="M 0 7.071068 
C 1.875269 7.071068 3.673985 6.326016 5 5 
C 6.326016 3.673985 7.071068 1.875269 7.071068 0 
C 7.071068 -1.875269 6.326016 -3.673985 5 -5 
C 3.673985 -6.326016 1.875269 -7.071068 0 -7.071068 
C -1.875269 -7.071068 -3.673985 -6.326016 -5 -5 
C -6.326016 -3.673985 -7.071068 -1.875269 -7.071068 0 
C -7.071068 1.875269 -6.326016 3.673985 -5 5 
C -3.673985 6.326016 -1.875269 7.071068 0 7.071068 
z
" style="stroke: #4169e1"/>
    </defs>
    <g clip-path="url(#p3df2f29c93)">
     <use xlink:href="#m104278e951" x="143.043257" y="94.319994" style="fill: #4169e1; stroke: #4169e1"/>
    </g>
   </g>
   <g id="PathCollection_4">
    <defs>
     <path id="mf029cfe834" d="M 0 7.071068 
C 1.875269 7.071068 3.673985 6.326016 5 5 
C 6.326016 3.673985 7.071068 1.875269 7.071068 0 
C 7.071068 -1.875269 6.326016 -3.673985 5 -5 
C 3.673985 -6.326016 1.875269 -7.071068 0 -7.071068 
C -1.875269 -7.071068 -3.673985 -6.326016 -5 -5 
C -6.326016 -3.673985 -7.071068 -1.875269 -7.071068 0 
C -7.071068 1.875269 -6.326016 3.673985 -5 5 
C -3.673985 6.326016 -1.875269 7.071068 0 7.071068 
z
" style="stroke: #6495ed"/>
    </defs>
    <g clip-path="url(#p3df2f29c93)">
     <use xlink:href="#mf029cfe834" x="229.534613" y="94.319994" style="fill: #6495ed; stroke: #6495ed"/>
    </g>
   </g>
   <g id="PathCollection_5">
    <defs>
     <path id="mb8e708af35" d="M 0 7.071068 
C 1.875269 7.071068 3.673985 6.326016 5 5 
C 6.326016 3.673985 7.071068 1.875269 7.071068 0 
C 7.071068 -1.875269 6.326016 -3.673985 5 -5 
C 3.673985 -6.326016 1.875269 -7.071068 0 -7.071068 
C -1.875269 -7.071068 -3.673985 -6.326016 -5 -5 
C -6.326016 -3.673985 -7.071068 -1.875269 -7.071068 0 
C -7.071068 1.875269 -6.326016 3.673985 -5 5 
C -3.673985 6.326016 -1.875269 7.071068 0 7.071068 
z
" style="stroke: #00bfff"/>
    </defs>
    <g clip-path="url(#p3df2f29c93)">
     <use xlink:href="#mb8e708af35" x="303.524268" y="94.319994" style="fill: #00bfff; stroke: #00bfff"/>
    </g>
   </g>
  </g>
 </g>
 <defs>
  <clipPath id="p3df2f29c93">
   <rect x="46.00625" y="7.2" width="446.4" height="166.32"/>
  </clipPath>
 </defs>
</svg>
