<?xml version="1.0" encoding="utf-8" standalone="no"?>
<!DOCTYPE svg PUBLIC "-//W3C//DTD SVG 1.1//EN"
  "http://www.w3.org/Graphics/SVG/1.1/DTD/svg11.dtd">
<svg xmlns:xlink="http://www.w3.org/1999/xlink" width="499.60625pt" height="207.07625pt" viewBox="0 0 499.60625 207.07625" xmlns="http://www.w3.org/2000/svg" version="1.1">
 <metadata>
  <rdf:RDF xmlns:dc="http://purl.org/dc/elements/1.1/" xmlns:cc="http://creativecommons.org/ns#" xmlns:rdf="http://www.w3.org/1999/02/22-rdf-syntax-ns#">
   <cc:Work>
    <dc:type rdf:resource="http://purl.org/dc/dcmitype/StillImage"/>
    <dc:date>2025-11-08T14:18:56.091127</dc:date>
    <dc:format>image/svg+xml</dc:format>
    <dc:creator>
     <cc:Agent>
      <dc:title>Matplotlib v3.10.6, https://matplotlib.org/</dc:title>
     </cc:Agent>
    </dc:creator>
   </cc:Work>
  </rdf:RDF>
 </metadata>
 <defs>
  <style type="text/css">*{stroke-linejoin: round; stroke-linecap: butt}</style>
 </defs>
 <g id="figure_1">
  <g id="patch_1">
   <path d="M 0 207.07625 
L 499.60625 207.07625 
L 499.60625 0 
L 0 0 
L 0 207.07625 
z
" style="fill: none"/>
  </g>
  <g id="axes_1">
   <g id="patch_2">
    <path d="M 46.00625 173.52 
L 492.40625 173.52 
L 492.40625 7.2 
L 46.00625 7.2 
L 46.00625 173.52 
z
" style="fill: none"/>
   </g>
   <g id="matplotlib.axis_1">
    <g id="xtick_1">
     <g id="line2d_1">
      <defs>
       <path id="m5c26448da6" d="M 0 0 
L 0 3.5 
" style="stroke: #000000; stroke-width: 0.8"/>
      </defs>
      <g>
       <use xlink:href="#m5c26448da6" x="187.720536" y="173.52" style="stroke: #000000; stroke-width: 0.8"/>
      </g>
     </g>
     <g id="text_1">
      <!-- 1 -->
      <g transform="translate(181.358036 195.716875) scale(0.2 -0.2)">
       <defs>
        <path id="DejaVuSans-31" d="M 794 531 
L 1825 531 
L 1825 4091 
L 703 3866 
L 703 4441 
L 1819 4666 
L 2450 4666 
L 2450 531 
L 3481 531 
L 3481 0 
L 794 0 
L 794 531 
z
" transform="scale(0.015625)"/>
       </defs>
       <use xlink:href="#DejaVuSans-31"/>
      </g>
     </g>
    </g>
    <g id="xtick_2">
     <g id="line2d_2">
      <g>
       <use xlink:href="#m5c26448da6" x="329.434821" y="173.52" style="stroke: #000000; stroke-width: 0.8"/>
      </g>
     </g>
     <g id="text_2">
      <!-- 2 -->
      <g transform="translate(323.072321 195.716875) scale(0.2 -0.2)">
       <defs>
        <path id="DejaVuSans-32" d="M 1228 531 
L 3431 531 
L 3431 0 
L 469 0 
L 469 531 
Q 828 903 1448 1529 
Q 2069 2156 2228 2338 
Q 2531 2678 2651 2914 
Q 2772 3150 2772 3378 
Q 2772 3750 2511 3984 
Q 2250 4219 1831 4219 
Q 1534 4219 1204 4116 
Q 875 4013 500 3803 
L 500 4441 
Q 881 4594 1212 4672 
Q 1544 4750 1819 4750 
Q 2544 4750 2975 4387 
Q 3406 4025 3406 3419 
Q 3406 3131 3298 2873 
Q 3191 2616 2906 2266 
Q 2828 2175 2409 1742 
Q 1991 1309 1228 531 
z
" transform="scale(0.015625)"/>
       </defs>
       <use xlink:href="#DejaVuSans-32"/>
      </g>
     </g>
    </g>
   </g>
   <g id="matplotlib.axis_2">
    <g id="ytick_1">
     <g id="line2d_3">
      <defs>
       <path id="m77a3da9064" d="M 0 0 
L -3.5 0 
" style="stroke: #000000; stroke-width: 0.8"/>
      </defs>
      <g>
       <use xlink:href="#m77a3da9064" x="46.00625" y="173.52" style="stroke: #000000; stroke-width: 0.8"/>
      </g>
     </g>
     <g id="text_3">
      <!-- 0 -->
      <g transform="translate(26.28125 181.118438) scale(0.2 -0.2)">
       <defs>
        <path id="DejaVuSans-30" d="M 2034 4250 
Q 1547 4250 1301 3770 
Q 1056 3291 1056 2328 
Q 1056 1369 1301 889 
Q 1547 409 2034 409 
Q 2525 409 2770 889 
Q 3016 1369 3016 2328 
Q 3016 3291 2770 3770 
Q 2525 4250 2034 4250 
z
M 2034 4750 
Q 2819 4750 3233 4129 
Q 3647 3509 3647 2328 
Q 3647 1150 3233 529 
Q 2819 -91 2034 -91 
Q 1250 -91 836 529 
Q 422 1150 422 2328 
Q 422 3509 836 4129 
Q 1250 4750 2034 4750 
z
" transform="scale(0.015625)"/>
       </defs>
       <use xlink:href="#DejaVuSans-30"/>
      </g>
     </g>
    </g>
    <g id="ytick_2">
     <g id="line2d_4">
      <g>
       <use xlink:href="#m77a3da9064" x="46.00625" y="94.32" style="stroke: #000000; stroke-width: 0.8"/>
      </g>
     </g>
     <g id="text_4">
      <!-- 0.5 -->
      <g transform="translate(7.2 101.918438) scale(0.2 -0.2)">
       <defs>
        <path id="DejaVuSans-2e" d="M 684 794 
L 1344 794 
L 1344 0 
L 684 0 
L 684 794 
z
" transform="scale(0.015625)"/>
        <path id="DejaVuSans-35" d="M 691 4666 
L 3169 4666 
L 3169 4134 
L 1269 4134 
L 1269 2991 
Q 1406 3038 1543 3061 
Q 1681 3084 1819 3084 
Q 2600 3084 3056 2656 
Q 3513 2228 3513 1497 
Q 3513 744 3044 326 
Q 2575 -91 1722 -91 
Q 1428 -91 1123 -41 
Q 819 9 494 109 
L 494 744 
Q 775 591 1075 516 
Q 1375 441 1709 441 
Q 2250 441 2565 725 
Q 2881 1009 2881 1497 
Q 2881 1984 2565 2268 
Q 2250 2553 1709 2553 
Q 1456 2553 1204 2497 
Q 953 2441 691 2322 
L 691 4666 
z
" transform="scale(0.015625)"/>
       </defs>
       <use xlink:href="#DejaVuSans-30"/>
       <use xlink:href="#DejaVuSans-2e" transform="translate(63.623047 0)"/>
       <use xlink:href="#DejaVuSans-35" transform="translate(95.410156 0)"/>
      </g>
     </g>
    </g>
    <g id="ytick_3">
     <g id="line2d_5">
      <g>
       <use xlink:href="#m77a3da9064" x="46.00625" y="15.12" style="stroke: #000000; stroke-width: 0.8"/>
      </g>
     </g>
     <g id="text_5">
      <!-- 1 -->
      <g transform="translate(26.28125 22.718437) scale(0.2 -0.2)">
       <use xlink:href="#DejaVuSans-31"/>
      </g>
     </g>
    </g>
   </g>
   <g id="line2d_6">
    <path d="M 46.00625 21.477976 
L 46.516523 24.192724 
L 47.53707 28.252902 
L 48.982845 33.028809 
L 50.768803 38.114736 
L 52.809896 43.2385 
L 55.106127 48.391812 
L 57.657495 53.554511 
L 60.378953 58.554733 
L 63.270503 63.408782 
L 66.417189 68.251311 
L 69.733967 72.942172 
L 73.220836 77.487417 
L 76.877796 81.891168 
L 80.704847 86.1564 
L 84.787035 90.369967 
L 89.039314 94.437044 
L 93.461684 98.360907 
L 98.139191 102.212019 
L 102.986789 105.916099 
L 108.089524 109.535107 
L 113.447395 113.060189 
L 119.060404 116.484119 
L 124.928549 119.80111 
L 131.051831 123.006649 
L 137.515295 126.136963 
L 144.233896 129.144035 
L 151.292679 132.060713 
L 158.77669 134.909956 
L 166.600883 137.649236 
L 174.850305 140.300274 
L 183.524954 142.85329 
L 192.709876 145.322375 
L 202.405073 147.695726 
L 212.610542 149.963976 
L 223.411331 152.136239 
L 234.892484 154.217146 
L 247.139048 156.207718 
L 260.151022 158.094533 
L 274.013451 159.877773 
L 288.811382 161.5557 
L 304.714906 163.13321 
L 321.809068 164.60349 
L 340.349004 165.971814 
L 360.419761 167.227422 
L 382.361521 168.374186 
L 406.514466 169.40985 
L 433.303824 170.331358 
L 463.324914 171.136489 
L 471.149107 171.313301 
L 471.149107 171.313301 
" clip-path="url(#p5680ecc0fb)" style="fill: none; stroke: #000000; stroke-width: 4; stroke-linecap: square"/>
   </g>
   <g id="line2d_7">
    <path d="M 46.00625 15.23459 
L 46.261387 16.38183 
L 46.77166 17.522582 
L 47.53707 18.599311 
L 48.642663 19.714887 
L 50.42862 21.153694 
L 55.871537 25.092325 
L 60.974272 28.967275 
L 66.502235 33.453503 
L 73.646064 39.556586 
L 105.027883 66.718321 
L 113.192259 73.302182 
L 120.931406 79.260446 
L 128.500463 84.807861 
L 135.984474 90.016777 
L 143.468485 94.952987 
L 150.952496 99.622291 
L 158.521553 104.081717 
L 166.175655 108.332854 
L 173.999849 112.422024 
L 181.909088 116.305321 
L 189.988418 120.026341 
L 198.322885 123.619598 
L 206.912488 127.078166 
L 215.672183 130.365861 
L 224.77206 133.542471 
L 234.127074 136.57223 
L 243.82227 139.47814 
L 253.857649 142.254043 
L 264.318255 144.916059 
L 275.20409 147.455766 
L 286.600197 149.883918 
L 298.506579 152.190979 
L 310.923233 154.369616 
L 324.020253 156.440078 
L 337.797637 158.390996 
L 352.340431 160.223955 
L 367.733681 161.938468 
L 384.147478 163.540379 
L 401.666868 165.023835 
L 420.461941 166.388995 
L 440.702789 167.633311 
L 462.644549 168.756837 
L 471.149107 169.137246 
L 471.149107 169.137246 
" clip-path="url(#p5680ecc0fb)" style="fill: none; stroke: #0000ff; stroke-width: 4; stroke-linecap: square"/>
   </g>
   <g id="line2d_8">
    <path d="M 46.00625 15.12 
L 471.149107 15.12 
L 471.149107 15.12 
" clip-path="url(#p5680ecc0fb)" style="fill: none; stroke-dasharray: 14.8,6.4; stroke-dashoffset: 0; stroke: #000000; stroke-opacity: 0.5; stroke-width: 4"/>
   </g>
   <g id="patch_3">
    <path d="M 46.00625 173.52 
L 46.00625 7.2 
" style="fill: none; stroke: #000000; stroke-width: 0.8; stroke-linejoin: miter; stroke-linecap: square"/>
   </g>
   <g id="patch_4">
    <path d="M 46.00625 173.52 
L 492.40625 173.52 
" style="fill: none; stroke: #000000; stroke-width: 0.8; stroke-linejoin: miter; stroke-linecap: square"/>
   </g>
   <g id="PathCollection_1">
    <defs>
     <path id="m9fc0f6b454" d="M 0 7.071068 
C 1.875269 7.071068 3.673985 6.326016 5 5 
C 6.326016 3.673985 7.071068 1.875269 7.071068 0 
C 7.071068 -1.875269 6.326016 -3.673985 5 -5 
C 3.673985 -6.326016 1.875269 -7.071068 0 -7.071068 
C -1.875269 -7.071068 -3.673985 -6.326016 -5 -5 
C -6.326016 -3.673985 -7.071068 -1.875269 -7.071068 0 
C -7.071068 1.875269 -6.326016 3.673985 -5 5 
C -3.673985 6.326016 -1.875269 7.071068 0 7.071068 
z
" style="stroke: #0000ff"/>
    </defs>
    <g clip-path="url(#p5680ecc0fb)">
     <use xlink:href="#m9fc0f6b454" x="142.618029" y="94.377295" style="fill: #0000ff; stroke: #0000ff"/>
    </g>
   </g>
   <g id="line2d_9">
    <path d="M 142.618029 173.52 
L 142.618029 164.726366 
L 142.618029 155.932732 
L 142.618029 147.139098 
L 142.618029 138.345464 
L 142.618029 129.55183 
L 142.618029 120.758197 
L 142.618029 111.964563 
L 142.618029 103.170929 
L 142.618029 94.377295 
" clip-path="url(#p5680ecc0fb)" style="fill: none; stroke-dasharray: 4,6.6; stroke-dashoffset: 0; stroke: #0000ff; stroke-opacity: 0.5; stroke-width: 4"/>
   </g>
   <g id="PathCollection_2">
    <defs>
     <path id="mb1564d8aa8" d="M 0 7.071068 
C 1.875269 7.071068 3.673985 6.326016 5 5 
C 6.326016 3.673985 7.071068 1.875269 7.071068 0 
C 7.071068 -1.875269 6.326016 -3.673985 5 -5 
C 3.673985 -6.326016 1.875269 -7.071068 0 -7.071068 
C -1.875269 -7.071068 -3.673985 -6.326016 -5 -5 
C -6.326016 -3.673985 -7.071068 -1.875269 -7.071068 0 
C -7.071068 1.875269 -6.326016 3.673985 -5 5 
C -3.673985 6.326016 -1.875269 7.071068 0 7.071068 
z
" style="stroke: #000000"/>
    </defs>
    <g clip-path="url(#p5680ecc0fb)">
     <use xlink:href="#mb1564d8aa8" x="92.526183" y="97.498988" style="stroke: #000000"/>
    </g>
   </g>
   <g id="line2d_10">
    <path d="M 92.526183 173.52 
L 92.526183 165.073221 
L 92.526183 156.626442 
L 92.526183 148.179663 
L 92.526183 139.732884 
L 92.526183 131.286104 
L 92.526183 122.839325 
L 92.526183 114.392546 
L 92.526183 105.945767 
L 92.526183 97.498988 
" clip-path="url(#p5680ecc0fb)" style="fill: none; stroke-dasharray: 4,6.6; stroke-dashoffset: 0; stroke: #000000; stroke-opacity: 0.5; stroke-width: 4"/>
   </g>
  </g>
 </g>
 <defs>
  <clipPath id="p5680ecc0fb">
   <rect x="46.00625" y="7.2" width="446.4" height="166.32"/>
  </clipPath>
 </defs>
</svg>
