<?xml version="1.0" encoding="utf-8" standalone="no"?>
<!DOCTYPE svg PUBLIC "-//W3C//DTD SVG 1.1//EN"
  "http://www.w3.org/Graphics/SVG/1.1/DTD/svg11.dtd">
<svg xmlns:xlink="http://www.w3.org/1999/xlink" width="340.157812pt" height="213.493359pt" viewBox="0 0 340.157812 213.493359" xmlns="http://www.w3.org/2000/svg" version="1.1">
 <metadata>
  <rdf:RDF xmlns:dc="http://purl.org/dc/elements/1.1/" xmlns:cc="http://creativecommons.org/ns#" xmlns:rdf="http://www.w3.org/1999/02/22-rdf-syntax-ns#">
   <cc:Work>
    <dc:type rdf:resource="http://purl.org/dc/dcmitype/StillImage"/>
    <dc:date>2025-11-08T14:16:06.228939</dc:date>
    <dc:format>image/svg+xml</dc:format>
    <dc:creator>
     <cc:Agent>
      <dc:title>Matplotlib v3.10.6, https://matplotlib.org/</dc:title>
     </cc:Agent>
    </dc:creator>
   </cc:Work>
  </rdf:RDF>
 </metadata>
 <defs>
  <style type="text/css">*{stroke-linejoin: round; stroke-linecap: butt}</style>
 </defs>
 <g id="figure_1">
  <g id="patch_1">
   <path d="M 0 213.493359 
L 340.157812 213.493359 
L 340.157812 0 
L 0 0 
L 0 213.493359 
z
" style="fill: none"/>
  </g>
  <g id="axes_1">
   <g id="patch_2">
    <path d="M 53.957813 175.098047 
L 332.957812 175.098047 
L 332.957812 8.778047 
L 53.957813 8.778047 
L 53.957813 175.098047 
z
" style="fill: none"/>
   </g>
   <g id="FillBetweenPolyCollection_1">
    <defs>
     <path id="m4d226f68ae" d="M 53.957813 -38.395313 
L 53.957813 -196.795312 
L 102.269501 -196.795312 
L 102.269501 -38.395313 
L 102.269501 -38.395313 
L 53.957813 -38.395313 
z
" style="stroke: #bbd6ff; stroke-opacity: 0.25"/>
    </defs>
    <g clip-path="url(#p220a8efe90)">
     <use xlink:href="#m4d226f68ae" x="0" y="213.493359" style="fill: #bbd6ff; fill-opacity: 0.25; stroke: #bbd6ff; stroke-opacity: 0.25"/>
    </g>
   </g>
   <g id="matplotlib.axis_1">
    <g id="xtick_1">
     <g id="line2d_1">
      <defs>
       <path id="mab17bcaa01" d="M 0 0 
L 0 3.5 
" style="stroke: #000000; stroke-width: 0.8"/>
      </defs>
      <g>
       <use xlink:href="#mab17bcaa01" x="107.10067" y="175.098047" style="stroke: #000000; stroke-width: 0.8"/>
      </g>
     </g>
     <g id="text_1">
      <!-- 1 -->
      <g transform="translate(99.147545 201.094141) scale(0.25 -0.25)">
       <defs>
        <path id="DejaVuSans-31" d="M 794 531 
L 1825 531 
L 1825 4091 
L 703 3866 
L 703 4441 
L 1819 4666 
L 2450 4666 
L 2450 531 
L 3481 531 
L 3481 0 
L 794 0 
L 794 531 
z
" transform="scale(0.015625)"/>
       </defs>
       <use xlink:href="#DejaVuSans-31"/>
      </g>
     </g>
    </g>
    <g id="xtick_2">
     <g id="line2d_2">
      <g>
       <use xlink:href="#mab17bcaa01" x="160.243527" y="175.098047" style="stroke: #000000; stroke-width: 0.8"/>
      </g>
     </g>
     <g id="text_2">
      <!-- 2 -->
      <g transform="translate(152.290402 201.094141) scale(0.25 -0.25)">
       <defs>
        <path id="DejaVuSans-32" d="M 1228 531 
L 3431 531 
L 3431 0 
L 469 0 
L 469 531 
Q 828 903 1448 1529 
Q 2069 2156 2228 2338 
Q 2531 2678 2651 2914 
Q 2772 3150 2772 3378 
Q 2772 3750 2511 3984 
Q 2250 4219 1831 4219 
Q 1534 4219 1204 4116 
Q 875 4013 500 3803 
L 500 4441 
Q 881 4594 1212 4672 
Q 1544 4750 1819 4750 
Q 2544 4750 2975 4387 
Q 3406 4025 3406 3419 
Q 3406 3131 3298 2873 
Q 3191 2616 2906 2266 
Q 2828 2175 2409 1742 
Q 1991 1309 1228 531 
z
" transform="scale(0.015625)"/>
       </defs>
       <use xlink:href="#DejaVuSans-32"/>
      </g>
     </g>
    </g>
    <g id="xtick_3">
     <g id="line2d_3">
      <g>
       <use xlink:href="#mab17bcaa01" x="213.386384" y="175.098047" style="stroke: #000000; stroke-width: 0.8"/>
      </g>
     </g>
     <g id="text_3">
      <!-- 3 -->
      <g transform="translate(205.433259 201.094141) scale(0.25 -0.25)">
       <defs>
        <path id="DejaVuSans-33" d="M 2597 2516 
Q 3050 2419 3304 2112 
Q 3559 1806 3559 1356 
Q 3559 666 3084 287 
Q 2609 -91 1734 -91 
Q 1441 -91 1130 -33 
Q 819 25 488 141 
L 488 750 
Q 750 597 1062 519 
Q 1375 441 1716 441 
Q 2309 441 2620 675 
Q 2931 909 2931 1356 
Q 2931 1769 2642 2001 
Q 2353 2234 1838 2234 
L 1294 2234 
L 1294 2753 
L 1863 2753 
Q 2328 2753 2575 2939 
Q 2822 3125 2822 3475 
Q 2822 3834 2567 4026 
Q 2313 4219 1838 4219 
Q 1578 4219 1281 4162 
Q 984 4106 628 3988 
L 628 4550 
Q 988 4650 1302 4700 
Q 1616 4750 1894 4750 
Q 2613 4750 3031 4423 
Q 3450 4097 3450 3541 
Q 3450 3153 3228 2886 
Q 3006 2619 2597 2516 
z
" transform="scale(0.015625)"/>
       </defs>
       <use xlink:href="#DejaVuSans-33"/>
      </g>
     </g>
    </g>
   </g>
   <g id="matplotlib.axis_2">
    <g id="ytick_1">
     <g id="line2d_4">
      <defs>
       <path id="md49e8220fd" d="M 0 0 
L -3.5 0 
" style="stroke: #000000; stroke-width: 0.8"/>
      </defs>
      <g>
       <use xlink:href="#md49e8220fd" x="53.957813" y="175.098047" style="stroke: #000000; stroke-width: 0.8"/>
      </g>
     </g>
     <g id="text_4">
      <!-- 0 -->
      <g transform="translate(31.051563 184.596094) scale(0.25 -0.25)">
       <defs>
        <path id="DejaVuSans-30" d="M 2034 4250 
Q 1547 4250 1301 3770 
Q 1056 3291 1056 2328 
Q 1056 1369 1301 889 
Q 1547 409 2034 409 
Q 2525 409 2770 889 
Q 3016 1369 3016 2328 
Q 3016 3291 2770 3770 
Q 2525 4250 2034 4250 
z
M 2034 4750 
Q 2819 4750 3233 4129 
Q 3647 3509 3647 2328 
Q 3647 1150 3233 529 
Q 2819 -91 2034 -91 
Q 1250 -91 836 529 
Q 422 1150 422 2328 
Q 422 3509 836 4129 
Q 1250 4750 2034 4750 
z
" transform="scale(0.015625)"/>
       </defs>
       <use xlink:href="#DejaVuSans-30"/>
      </g>
     </g>
    </g>
    <g id="ytick_2">
     <g id="line2d_5">
      <g>
       <use xlink:href="#md49e8220fd" x="53.957813" y="95.898047" style="stroke: #000000; stroke-width: 0.8"/>
      </g>
     </g>
     <g id="text_5">
      <!-- 0.5 -->
      <g transform="translate(7.2 105.396094) scale(0.25 -0.25)">
       <defs>
        <path id="DejaVuSans-2e" d="M 684 794 
L 1344 794 
L 1344 0 
L 684 0 
L 684 794 
z
" transform="scale(0.015625)"/>
        <path id="DejaVuSans-35" d="M 691 4666 
L 3169 4666 
L 3169 4134 
L 1269 4134 
L 1269 2991 
Q 1406 3038 1543 3061 
Q 1681 3084 1819 3084 
Q 2600 3084 3056 2656 
Q 3513 2228 3513 1497 
Q 3513 744 3044 326 
Q 2575 -91 1722 -91 
Q 1428 -91 1123 -41 
Q 819 9 494 109 
L 494 744 
Q 775 591 1075 516 
Q 1375 441 1709 441 
Q 2250 441 2565 725 
Q 2881 1009 2881 1497 
Q 2881 1984 2565 2268 
Q 2250 2553 1709 2553 
Q 1456 2553 1204 2497 
Q 953 2441 691 2322 
L 691 4666 
z
" transform="scale(0.015625)"/>
       </defs>
       <use xlink:href="#DejaVuSans-30"/>
       <use xlink:href="#DejaVuSans-2e" transform="translate(63.623047 0)"/>
       <use xlink:href="#DejaVuSans-35" transform="translate(95.410156 0)"/>
      </g>
     </g>
    </g>
    <g id="ytick_3">
     <g id="line2d_6">
      <g>
       <use xlink:href="#md49e8220fd" x="53.957813" y="16.698047" style="stroke: #000000; stroke-width: 0.8"/>
      </g>
     </g>
     <g id="text_6">
      <!-- 1 -->
      <g transform="translate(31.051563 26.196094) scale(0.25 -0.25)">
       <use xlink:href="#DejaVuSans-31"/>
      </g>
     </g>
    </g>
   </g>
   <g id="line2d_7">
    <path d="M 53.957813 16.698047 
L 319.672098 16.698047 
L 319.672098 16.698047 
" clip-path="url(#p220a8efe90)" style="fill: none; stroke-dasharray: 14.8,6.4; stroke-dashoffset: 0; stroke: #808080; stroke-width: 4"/>
   </g>
   <g id="line2d_8">
    <path d="M 53.957813 175.098047 
L 55.29306 175.000769 
L 56.628308 174.719471 
L 57.963556 174.269206 
L 59.298803 173.664081 
L 60.634051 172.917304 
L 63.304546 171.047464 
L 65.975042 168.749356 
L 68.645537 166.101359 
L 71.316032 163.171841 
L 75.321775 158.377715 
L 80.662766 151.492347 
L 90.0095 138.899324 
L 98.020986 128.236786 
L 104.697224 119.763398 
L 110.038215 113.355138 
L 115.379205 107.319737 
L 120.720196 101.677252 
L 126.061187 96.433922 
L 131.402177 91.585936 
L 136.743168 87.122352 
L 142.084159 83.027337 
L 147.425149 79.281874 
L 152.76614 75.865056 
L 158.107131 72.755055 
L 163.448121 69.929836 
L 168.789112 67.367667 
L 174.130103 65.047494 
L 179.471093 62.949179 
L 184.812084 61.053662 
L 191.488322 58.942311 
L 198.164561 57.08769 
L 204.840799 55.460474 
L 212.852285 53.770923 
L 220.863771 52.330282 
L 228.875257 51.103131 
L 238.221991 49.900501 
L 248.903972 48.777642 
L 259.585953 47.873903 
L 271.603182 47.06692 
L 286.290907 46.315544 
L 303.649126 45.675505 
L 319.672098 45.256761 
L 319.672098 45.256761 
" clip-path="url(#p220a8efe90)" style="fill: none; stroke: #ff0000; stroke-width: 4; stroke-linecap: square"/>
   </g>
   <g id="line2d_9">
    <path d="M 53.957813 175.098047 
L 56.628308 160.367594 
L 59.298803 147.823636 
L 61.969299 137.202657 
L 64.639794 128.270588 
L 65.975042 124.372007 
L 67.310289 120.819618 
L 68.645537 117.591081 
L 69.980785 114.66536 
L 71.316032 112.022649 
L 72.65128 109.644302 
L 73.986528 107.512771 
L 75.321775 105.611541 
L 76.657023 103.925074 
L 77.992271 102.438753 
L 79.327518 101.138832 
L 80.662766 100.012385 
L 81.998014 99.047258 
L 83.333261 98.232032 
L 84.668509 97.555973 
L 87.339004 96.58164 
L 90.0095 96.050748 
L 92.679995 95.898523 
L 95.35049 96.067958 
L 98.020986 96.508947 
L 100.691481 97.177513 
L 103.361976 98.035116 
L 107.367719 99.603401 
L 111.373462 101.425915 
L 116.714453 104.118555 
L 126.061187 109.173997 
L 138.078416 115.653598 
L 146.089902 119.69474 
L 152.76614 122.817098 
L 159.442378 125.693226 
L 166.118617 128.317047 
L 172.794855 130.692414 
L 179.471093 132.829613 
L 186.147332 134.742864 
L 192.82357 136.448539 
L 200.835056 138.2457 
L 208.846542 139.798728 
L 216.858028 141.136322 
L 226.204762 142.460113 
L 235.551495 143.565395 
L 246.233477 144.604203 
L 258.250706 145.538097 
L 271.603182 146.343654 
L 286.290907 147.011877 
L 303.649126 147.583003 
L 319.672098 147.95761 
L 319.672098 147.95761 
" clip-path="url(#p220a8efe90)" style="fill: none; stroke: #ff8c00; stroke-width: 4; stroke-linecap: square"/>
   </g>
   <g id="line2d_10">
    <path d="M 53.957813 16.698047 
L 56.628308 31.807076 
L 59.298803 45.406424 
L 61.969299 57.650242 
L 64.639794 68.676757 
L 67.310289 78.609922 
L 69.980785 87.560905 
L 72.65128 95.629413 
L 75.321775 102.904885 
L 77.992271 109.467555 
L 80.662766 115.389409 
L 83.333261 120.735039 
L 86.003757 125.562412 
L 88.674252 129.923551 
L 91.344747 133.865156 
L 94.015243 137.429151 
L 96.685738 140.653179 
L 99.356233 143.571044 
L 102.026729 146.213108 
L 104.697224 148.606645 
L 107.367719 150.776162 
L 110.038215 152.743679 
L 114.043958 155.358953 
L 118.049701 157.622382 
L 122.055444 159.583928 
L 126.061187 161.286222 
L 130.06693 162.765658 
L 134.072673 164.053325 
L 139.413663 165.517273 
L 144.754654 166.739728 
L 151.430892 167.992598 
L 158.107131 169.000926 
L 166.118617 169.959888 
L 175.46535 170.816117 
L 186.147332 171.54193 
L 198.164561 172.131216 
L 212.852285 172.630487 
L 231.545752 173.041872 
L 256.915458 173.367361 
L 294.302393 173.601806 
L 319.672098 173.67977 
L 319.672098 173.67977 
" clip-path="url(#p220a8efe90)" style="fill: none; stroke: #39b54a; stroke-width: 4; stroke-linecap: square"/>
   </g>
   <g id="patch_3">
    <path d="M 53.957813 175.098047 
L 53.957813 8.778047 
" style="fill: none; stroke: #000000; stroke-width: 0.8; stroke-linejoin: miter; stroke-linecap: square"/>
   </g>
   <g id="patch_4">
    <path d="M 53.957813 175.098047 
L 332.957812 175.098047 
" style="fill: none; stroke: #000000; stroke-width: 0.8; stroke-linejoin: miter; stroke-linecap: square"/>
   </g>
  </g>
 </g>
 <defs>
  <clipPath id="p220a8efe90">
   <rect x="53.957813" y="8.778047" width="279" height="166.32"/>
  </clipPath>
 </defs>
</svg>
