<?xml version="1.0" encoding="utf-8" standalone="no"?>
<!DOCTYPE svg PUBLIC "-//W3C//DTD SVG 1.1//EN"
  "http://www.w3.org/Graphics/SVG/1.1/DTD/svg11.dtd">
<svg xmlns:xlink="http://www.w3.org/1999/xlink" width="340.157812pt" height="213.493359pt" viewBox="0 0 340.157812 213.493359" xmlns="http://www.w3.org/2000/svg" version="1.1">
 <metadata>
  <rdf:RDF xmlns:dc="http://purl.org/dc/elements/1.1/" xmlns:cc="http://creativecommons.org/ns#" xmlns:rdf="http://www.w3.org/1999/02/22-rdf-syntax-ns#">
   <cc:Work>
    <dc:type rdf:resource="http://purl.org/dc/dcmitype/StillImage"/>
    <dc:date>2025-11-08T13:28:37.282002</dc:date>
    <dc:format>image/svg+xml</dc:format>
    <dc:creator>
     <cc:Agent>
      <dc:title>Matplotlib v3.10.6, https://matplotlib.org/</dc:title>
     </cc:Agent>
    </dc:creator>
   </cc:Work>
  </rdf:RDF>
 </metadata>
 <defs>
  <style type="text/css">*{stroke-linejoin: round; stroke-linecap: butt}</style>
 </defs>
 <g id="figure_1">
  <g id="patch_1">
   <path d="M 0 213.493359 
L 340.157812 213.493359 
L 340.157812 0 
L 0 0 
L 0 213.493359 
z
" style="fill: none"/>
  </g>
  <g id="axes_1">
   <g id="patch_2">
    <path d="M 53.957813 175.098047 
L 332.957812 175.098047 
L 332.957812 8.778047 
L 53.957813 8.778047 
L 53.957813 175.098047 
z
" style="fill: none"/>
   </g>
   <g id="FillBetweenPolyCollection_1">
    <defs>
     <path id="m490961312b" d="M 53.957813 -38.395313 
L 53.957813 -196.795312 
L 102.269501 -196.795312 
L 102.269501 -38.395313 
L 102.269501 -38.395313 
L 53.957813 -38.395313 
z
" style="stroke: #bbd6ff; stroke-opacity: 0.25"/>
    </defs>
    <g clip-path="url(#p6414780e6a)">
     <use xlink:href="#m490961312b" x="0" y="213.493359" style="fill: #bbd6ff; fill-opacity: 0.25; stroke: #bbd6ff; stroke-opacity: 0.25"/>
    </g>
   </g>
   <g id="matplotlib.axis_1">
    <g id="xtick_1">
     <g id="line2d_1">
      <defs>
       <path id="m3600327122" d="M 0 0 
L 0 3.5 
" style="stroke: #000000; stroke-width: 0.8"/>
      </defs>
      <g>
       <use xlink:href="#m3600327122" x="107.10067" y="175.098047" style="stroke: #000000; stroke-width: 0.8"/>
      </g>
     </g>
     <g id="text_1">
      <!-- 1 -->
      <g transform="translate(99.147545 201.094141) scale(0.25 -0.25)">
       <defs>
        <path id="DejaVuSans-31" d="M 794 531 
L 1825 531 
L 1825 4091 
L 703 3866 
L 703 4441 
L 1819 4666 
L 2450 4666 
L 2450 531 
L 3481 531 
L 3481 0 
L 794 0 
L 794 531 
z
" transform="scale(0.015625)"/>
       </defs>
       <use xlink:href="#DejaVuSans-31"/>
      </g>
     </g>
    </g>
    <g id="xtick_2">
     <g id="line2d_2">
      <g>
       <use xlink:href="#m3600327122" x="160.243527" y="175.098047" style="stroke: #000000; stroke-width: 0.8"/>
      </g>
     </g>
     <g id="text_2">
      <!-- 2 -->
      <g transform="translate(152.290402 201.094141) scale(0.25 -0.25)">
       <defs>
        <path id="DejaVuSans-32" d="M 1228 531 
L 3431 531 
L 3431 0 
L 469 0 
L 469 531 
Q 828 903 1448 1529 
Q 2069 2156 2228 2338 
Q 2531 2678 2651 2914 
Q 2772 3150 2772 3378 
Q 2772 3750 2511 3984 
Q 2250 4219 1831 4219 
Q 1534 4219 1204 4116 
Q 875 4013 500 3803 
L 500 4441 
Q 881 4594 1212 4672 
Q 1544 4750 1819 4750 
Q 2544 4750 2975 4387 
Q 3406 4025 3406 3419 
Q 3406 3131 3298 2873 
Q 3191 2616 2906 2266 
Q 2828 2175 2409 1742 
Q 1991 1309 1228 531 
z
" transform="scale(0.015625)"/>
       </defs>
       <use xlink:href="#DejaVuSans-32"/>
      </g>
     </g>
    </g>
    <g id="xtick_3">
     <g id="line2d_3">
      <g>
       <use xlink:href="#m3600327122" x="213.386384" y="175.098047" style="stroke: #000000; stroke-width: 0.8"/>
      </g>
     </g>
     <g id="text_3">
      <!-- 3 -->
      <g transform="translate(205.433259 201.094141) scale(0.25 -0.25)">
       <defs>
        <path id="DejaVuSans-33" d="M 2597 2516 
Q 3050 2419 3304 2112 
Q 3559 1806 3559 1356 
Q 3559 666 3084 287 
Q 2609 -91 1734 -91 
Q 1441 -91 1130 -33 
Q 819 25 488 141 
L 488 750 
Q 750 597 1062 519 
Q 1375 441 1716 441 
Q 2309 441 2620 675 
Q 2931 909 2931 1356 
Q 2931 1769 2642 2001 
Q 2353 2234 1838 2234 
L 1294 2234 
L 1294 2753 
L 1863 2753 
Q 2328 2753 2575 2939 
Q 2822 3125 2822 3475 
Q 2822 3834 2567 4026 
Q 2313 4219 1838 4219 
Q 1578 4219 1281 4162 
Q 984 4106 628 3988 
L 628 4550 
Q 988 4650 1302 4700 
Q 1616 4750 1894 4750 
Q 2613 4750 3031 4423 
Q 3450 4097 3450 3541 
Q 3450 3153 3228 2886 
Q 3006 2619 2597 2516 
z
" transform="scale(0.015625)"/>
       </defs>
       <use xlink:href="#DejaVuSans-33"/>
      </g>
     </g>
    </g>
   </g>
   <g id="matplotlib.axis_2">
    <g id="ytick_1">
     <g id="line2d_4">
      <defs>
       <path id="md379ff6135" d="M 0 0 
L -3.5 0 
" style="stroke: #000000; stroke-width: 0.8"/>
      </defs>
      <g>
       <use xlink:href="#md379ff6135" x="53.957813" y="175.098047" style="stroke: #000000; stroke-width: 0.8"/>
      </g>
     </g>
     <g id="text_4">
      <!-- 0 -->
      <g transform="translate(31.051563 184.596094) scale(0.25 -0.25)">
       <defs>
        <path id="DejaVuSans-30" d="M 2034 4250 
Q 1547 4250 1301 3770 
Q 1056 3291 1056 2328 
Q 1056 1369 1301 889 
Q 1547 409 2034 409 
Q 2525 409 2770 889 
Q 3016 1369 3016 2328 
Q 3016 3291 2770 3770 
Q 2525 4250 2034 4250 
z
M 2034 4750 
Q 2819 4750 3233 4129 
Q 3647 3509 3647 2328 
Q 3647 1150 3233 529 
Q 2819 -91 2034 -91 
Q 1250 -91 836 529 
Q 422 1150 422 2328 
Q 422 3509 836 4129 
Q 1250 4750 2034 4750 
z
" transform="scale(0.015625)"/>
       </defs>
       <use xlink:href="#DejaVuSans-30"/>
      </g>
     </g>
    </g>
    <g id="ytick_2">
     <g id="line2d_5">
      <g>
       <use xlink:href="#md379ff6135" x="53.957813" y="95.898047" style="stroke: #000000; stroke-width: 0.8"/>
      </g>
     </g>
     <g id="text_5">
      <!-- 0.5 -->
      <g transform="translate(7.2 105.396094) scale(0.25 -0.25)">
       <defs>
        <path id="DejaVuSans-2e" d="M 684 794 
L 1344 794 
L 1344 0 
L 684 0 
L 684 794 
z
" transform="scale(0.015625)"/>
        <path id="DejaVuSans-35" d="M 691 4666 
L 3169 4666 
L 3169 4134 
L 1269 4134 
L 1269 2991 
Q 1406 3038 1543 3061 
Q 1681 3084 1819 3084 
Q 2600 3084 3056 2656 
Q 3513 2228 3513 1497 
Q 3513 744 3044 326 
Q 2575 -91 1722 -91 
Q 1428 -91 1123 -41 
Q 819 9 494 109 
L 494 744 
Q 775 591 1075 516 
Q 1375 441 1709 441 
Q 2250 441 2565 725 
Q 2881 1009 2881 1497 
Q 2881 1984 2565 2268 
Q 2250 2553 1709 2553 
Q 1456 2553 1204 2497 
Q 953 2441 691 2322 
L 691 4666 
z
" transform="scale(0.015625)"/>
       </defs>
       <use xlink:href="#DejaVuSans-30"/>
       <use xlink:href="#DejaVuSans-2e" transform="translate(63.623047 0)"/>
       <use xlink:href="#DejaVuSans-35" transform="translate(95.410156 0)"/>
      </g>
     </g>
    </g>
    <g id="ytick_3">
     <g id="line2d_6">
      <g>
       <use xlink:href="#md379ff6135" x="53.957813" y="16.698047" style="stroke: #000000; stroke-width: 0.8"/>
      </g>
     </g>
     <g id="text_6">
      <!-- 1 -->
      <g transform="translate(31.051563 26.196094) scale(0.25 -0.25)">
       <use xlink:href="#DejaVuSans-31"/>
      </g>
     </g>
    </g>
   </g>
   <g id="line2d_7">
    <path d="M 53.957813 16.698047 
L 319.672098 16.698047 
L 319.672098 16.698047 
" clip-path="url(#p6414780e6a)" style="fill: none; stroke-dasharray: 14.8,6.4; stroke-dashoffset: 0; stroke: #808080; stroke-width: 4"/>
   </g>
   <g id="line2d_8">
    <path d="M 53.957813 175.098047 
L 57.963556 163.639934 
L 61.969299 153.093546 
L 65.975042 143.386337 
L 69.980785 134.451532 
L 73.986528 126.227672 
L 77.992271 118.658186 
L 81.998014 111.691006 
L 86.003757 105.278206 
L 90.0095 99.375674 
L 94.015243 93.942808 
L 98.020986 88.942236 
L 102.026729 84.339561 
L 106.032472 80.103121 
L 110.038215 76.203776 
L 114.043958 72.614703 
L 118.049701 69.311214 
L 122.055444 66.270583 
L 126.061187 63.471897 
L 130.06693 60.895902 
L 134.072673 58.52488 
L 139.413663 55.654363 
L 144.754654 53.084276 
L 150.095645 50.783177 
L 155.436635 48.722914 
L 160.777626 46.878279 
L 167.453864 44.841562 
L 174.130103 43.067719 
L 180.806341 41.522822 
L 188.817827 39.929822 
L 196.829313 38.580247 
L 206.176047 37.264104 
L 215.52278 36.179474 
L 226.204762 35.171482 
L 238.221991 34.274429 
L 251.574467 33.507407 
L 267.597439 32.827323 
L 286.290907 32.272459 
L 308.990117 31.832168 
L 319.672098 31.686542 
L 319.672098 31.686542 
" clip-path="url(#p6414780e6a)" style="fill: none; stroke: #ff0000; stroke-width: 4; stroke-linecap: square"/>
   </g>
   <g id="line2d_9">
    <path d="M 53.957813 16.698047 
L 57.963556 28.156159 
L 61.969299 38.702547 
L 65.975042 48.409757 
L 69.980785 57.344562 
L 73.986528 65.568422 
L 77.992271 73.137908 
L 81.998014 80.105088 
L 86.003757 86.517888 
L 90.0095 92.42042 
L 94.015243 97.853286 
L 98.020986 102.853858 
L 102.026729 107.456533 
L 106.032472 111.692972 
L 110.038215 115.592317 
L 114.043958 119.18139 
L 118.049701 122.48488 
L 122.055444 125.525511 
L 126.061187 128.324197 
L 130.06693 130.900192 
L 134.072673 133.271214 
L 139.413663 136.141731 
L 144.754654 138.711818 
L 150.095645 141.012916 
L 155.436635 143.07318 
L 160.777626 144.917815 
L 167.453864 146.954532 
L 174.130103 148.728375 
L 180.806341 150.273272 
L 188.817827 151.866272 
L 196.829313 153.215847 
L 206.176047 154.53199 
L 215.52278 155.61662 
L 226.204762 156.624612 
L 238.221991 157.521664 
L 251.574467 158.288687 
L 267.597439 158.968771 
L 286.290907 159.523634 
L 308.990117 159.963926 
L 319.672098 160.109552 
L 319.672098 160.109552 
" clip-path="url(#p6414780e6a)" style="fill: none; stroke: #39b54a; stroke-width: 4; stroke-linecap: square"/>
   </g>
   <g id="patch_3">
    <path d="M 53.957813 175.098047 
L 53.957813 8.778047 
" style="fill: none; stroke: #000000; stroke-width: 0.8; stroke-linejoin: miter; stroke-linecap: square"/>
   </g>
   <g id="patch_4">
    <path d="M 53.957813 175.098047 
L 332.957812 175.098047 
" style="fill: none; stroke: #000000; stroke-width: 0.8; stroke-linejoin: miter; stroke-linecap: square"/>
   </g>
  </g>
 </g>
 <defs>
  <clipPath id="p6414780e6a">
   <rect x="53.957813" y="8.778047" width="279" height="166.32"/>
  </clipPath>
 </defs>
</svg>
