<?xml version="1.0" encoding="utf-8" standalone="no"?>
<!DOCTYPE svg PUBLIC "-//W3C//DTD SVG 1.1//EN"
  "http://www.w3.org/Graphics/SVG/1.1/DTD/svg11.dtd">
<svg xmlns:xlink="http://www.w3.org/1999/xlink" width="220.60625pt" height="207.07625pt" viewBox="0 0 220.60625 207.07625" xmlns="http://www.w3.org/2000/svg" version="1.1">
 <metadata>
  <rdf:RDF xmlns:dc="http://purl.org/dc/elements/1.1/" xmlns:cc="http://creativecommons.org/ns#" xmlns:rdf="http://www.w3.org/1999/02/22-rdf-syntax-ns#">
   <cc:Work>
    <dc:type rdf:resource="http://purl.org/dc/dcmitype/StillImage"/>
    <dc:date>2025-10-26T14:27:31.970112</dc:date>
    <dc:format>image/svg+xml</dc:format>
    <dc:creator>
     <cc:Agent>
      <dc:title>Matplotlib v3.10.6, https://matplotlib.org/</dc:title>
     </cc:Agent>
    </dc:creator>
   </cc:Work>
  </rdf:RDF>
 </metadata>
 <defs>
  <style type="text/css">*{stroke-linejoin: round; stroke-linecap: butt}</style>
 </defs>
 <g id="figure_1">
  <g id="patch_1">
   <path d="M 0 207.07625 
L 220.60625 207.07625 
L 220.60625 0 
L 0 0 
L 0 207.07625 
z
" style="fill: none"/>
  </g>
  <g id="axes_1">
   <g id="patch_2">
    <path d="M 46.00625 173.52 
L 213.40625 173.52 
L 213.40625 7.2 
L 46.00625 7.2 
L 46.00625 173.52 
z
" style="fill: none"/>
   </g>
   <g id="matplotlib.axis_1">
    <g id="xtick_1">
     <g id="line2d_1">
      <defs>
       <path id="m265f618aa7" d="M 0 0 
L 0 3.5 
" style="stroke: #000000; stroke-width: 0.8"/>
      </defs>
      <g>
       <use xlink:href="#m265f618aa7" x="91.660795" y="173.52" style="stroke: #000000; stroke-width: 0.8"/>
      </g>
     </g>
     <g id="text_1">
      <!-- 25 -->
      <g transform="translate(78.935795 195.716875) scale(0.2 -0.2)">
       <defs>
        <path id="DejaVuSans-32" d="M 1228 531 
L 3431 531 
L 3431 0 
L 469 0 
L 469 531 
Q 828 903 1448 1529 
Q 2069 2156 2228 2338 
Q 2531 2678 2651 2914 
Q 2772 3150 2772 3378 
Q 2772 3750 2511 3984 
Q 2250 4219 1831 4219 
Q 1534 4219 1204 4116 
Q 875 4013 500 3803 
L 500 4441 
Q 881 4594 1212 4672 
Q 1544 4750 1819 4750 
Q 2544 4750 2975 4387 
Q 3406 4025 3406 3419 
Q 3406 3131 3298 2873 
Q 3191 2616 2906 2266 
Q 2828 2175 2409 1742 
Q 1991 1309 1228 531 
z
" transform="scale(0.015625)"/>
        <path id="DejaVuSans-35" d="M 691 4666 
L 3169 4666 
L 3169 4134 
L 1269 4134 
L 1269 2991 
Q 1406 3038 1543 3061 
Q 1681 3084 1819 3084 
Q 2600 3084 3056 2656 
Q 3513 2228 3513 1497 
Q 3513 744 3044 326 
Q 2575 -91 1722 -91 
Q 1428 -91 1123 -41 
Q 819 9 494 109 
L 494 744 
Q 775 591 1075 516 
Q 1375 441 1709 441 
Q 2250 441 2565 725 
Q 2881 1009 2881 1497 
Q 2881 1984 2565 2268 
Q 2250 2553 1709 2553 
Q 1456 2553 1204 2497 
Q 953 2441 691 2322 
L 691 4666 
z
" transform="scale(0.015625)"/>
       </defs>
       <use xlink:href="#DejaVuSans-32"/>
       <use xlink:href="#DejaVuSans-35" transform="translate(63.623047 0)"/>
      </g>
     </g>
    </g>
    <g id="xtick_2">
     <g id="line2d_2">
      <g>
       <use xlink:href="#m265f618aa7" x="129.70625" y="173.52" style="stroke: #000000; stroke-width: 0.8"/>
      </g>
     </g>
     <g id="text_2">
      <!-- 50 -->
      <g transform="translate(116.98125 195.716875) scale(0.2 -0.2)">
       <defs>
        <path id="DejaVuSans-30" d="M 2034 4250 
Q 1547 4250 1301 3770 
Q 1056 3291 1056 2328 
Q 1056 1369 1301 889 
Q 1547 409 2034 409 
Q 2525 409 2770 889 
Q 3016 1369 3016 2328 
Q 3016 3291 2770 3770 
Q 2525 4250 2034 4250 
z
M 2034 4750 
Q 2819 4750 3233 4129 
Q 3647 3509 3647 2328 
Q 3647 1150 3233 529 
Q 2819 -91 2034 -91 
Q 1250 -91 836 529 
Q 422 1150 422 2328 
Q 422 3509 836 4129 
Q 1250 4750 2034 4750 
z
" transform="scale(0.015625)"/>
       </defs>
       <use xlink:href="#DejaVuSans-35"/>
       <use xlink:href="#DejaVuSans-30" transform="translate(63.623047 0)"/>
      </g>
     </g>
    </g>
    <g id="xtick_3">
     <g id="line2d_3">
      <g>
       <use xlink:href="#m265f618aa7" x="167.751705" y="173.52" style="stroke: #000000; stroke-width: 0.8"/>
      </g>
     </g>
     <g id="text_3">
      <!-- 75 -->
      <g transform="translate(155.026705 195.716875) scale(0.2 -0.2)">
       <defs>
        <path id="DejaVuSans-37" d="M 525 4666 
L 3525 4666 
L 3525 4397 
L 1831 0 
L 1172 0 
L 2766 4134 
L 525 4134 
L 525 4666 
z
" transform="scale(0.015625)"/>
       </defs>
       <use xlink:href="#DejaVuSans-37"/>
       <use xlink:href="#DejaVuSans-35" transform="translate(63.623047 0)"/>
      </g>
     </g>
    </g>
   </g>
   <g id="matplotlib.axis_2">
    <g id="ytick_1">
     <g id="line2d_4">
      <defs>
       <path id="m60b0827558" d="M 0 0 
L -3.5 0 
" style="stroke: #000000; stroke-width: 0.8"/>
      </defs>
      <g>
       <use xlink:href="#m60b0827558" x="46.00625" y="173.52" style="stroke: #000000; stroke-width: 0.8"/>
      </g>
     </g>
     <g id="text_4">
      <!-- 0 -->
      <g transform="translate(26.28125 181.118438) scale(0.2 -0.2)">
       <use xlink:href="#DejaVuSans-30"/>
      </g>
     </g>
    </g>
    <g id="ytick_2">
     <g id="line2d_5">
      <g>
       <use xlink:href="#m60b0827558" x="46.00625" y="94.32" style="stroke: #000000; stroke-width: 0.8"/>
      </g>
     </g>
     <g id="text_5">
      <!-- 0.5 -->
      <g transform="translate(7.2 101.918438) scale(0.2 -0.2)">
       <defs>
        <path id="DejaVuSans-2e" d="M 684 794 
L 1344 794 
L 1344 0 
L 684 0 
L 684 794 
z
" transform="scale(0.015625)"/>
       </defs>
       <use xlink:href="#DejaVuSans-30"/>
       <use xlink:href="#DejaVuSans-2e" transform="translate(63.623047 0)"/>
       <use xlink:href="#DejaVuSans-35" transform="translate(95.410156 0)"/>
      </g>
     </g>
    </g>
    <g id="ytick_3">
     <g id="line2d_6">
      <g>
       <use xlink:href="#m60b0827558" x="46.00625" y="15.12" style="stroke: #000000; stroke-width: 0.8"/>
      </g>
     </g>
     <g id="text_6">
      <!-- 1 -->
      <g transform="translate(26.28125 22.718437) scale(0.2 -0.2)">
       <defs>
        <path id="DejaVuSans-31" d="M 794 531 
L 1825 531 
L 1825 4091 
L 703 3866 
L 703 4441 
L 1819 4666 
L 2450 4666 
L 2450 531 
L 3481 531 
L 3481 0 
L 794 0 
L 794 531 
z
" transform="scale(0.015625)"/>
       </defs>
       <use xlink:href="#DejaVuSans-31"/>
      </g>
     </g>
    </g>
   </g>
   <g id="line2d_7">
    <path d="M 53.615341 15.12169 
L 55.152531 16.029972 
L 56.689721 16.778237 
L 58.226911 17.465287 
L 59.764101 18.112333 
L 61.301291 18.729474 
L 62.838481 19.322671 
L 64.375671 19.895872 
L 65.912862 20.45189 
L 67.450052 20.992832 
L 68.987242 21.520336 
L 70.524432 22.035715 
L 72.061622 22.540043 
L 73.598812 23.034217 
L 75.136002 23.518996 
L 76.673192 23.995034 
L 78.210382 24.462896 
L 79.747572 24.923079 
L 81.284762 25.376021 
L 82.821952 25.822113 
L 84.359143 26.261706 
L 85.896333 26.695114 
L 87.433523 27.122624 
L 88.970713 27.544497 
L 90.507903 27.960971 
L 92.045093 28.372265 
L 93.582283 28.778581 
L 95.119473 29.180105 
L 96.656663 29.57701 
L 98.193853 29.969457 
L 99.731043 30.357598 
L 101.268233 30.74157 
L 102.805424 31.121508 
L 104.342614 31.497533 
L 105.879804 31.869762 
L 107.416994 32.238306 
L 108.954184 32.603266 
L 110.491374 32.964742 
L 112.028564 33.322826 
L 113.565754 33.677606 
L 115.102944 34.029165 
L 116.640134 34.377584 
L 118.177324 34.722938 
L 119.714514 35.0653 
L 121.251705 35.404738 
L 122.788895 35.741319 
L 124.326085 36.075106 
L 125.863275 36.406159 
L 127.400465 36.734537 
L 128.937655 37.060295 
L 130.474845 37.383487 
L 132.012035 37.704164 
L 133.549225 38.022376 
L 135.086415 38.33817 
L 136.623605 38.651593 
L 138.160795 38.962688 
L 139.697986 39.271499 
L 141.235176 39.578067 
L 142.772366 39.882431 
L 144.309556 40.184631 
L 145.846746 40.484703 
L 147.383936 40.782684 
L 148.921126 41.078608 
L 150.458316 41.37251 
L 151.995506 41.664423 
L 153.532696 41.954377 
L 155.069886 42.242405 
L 156.607076 42.528536 
L 158.144267 42.812799 
L 159.681457 43.095223 
L 161.218647 43.375835 
L 162.755837 43.654662 
L 164.293027 43.93173 
L 165.830217 44.207065 
L 167.367407 44.480691 
L 168.904597 44.752632 
L 170.441787 45.022911 
L 171.978977 45.291553 
L 173.516167 45.558578 
L 175.053357 45.824008 
L 176.590548 46.087866 
L 178.127738 46.350171 
L 179.664928 46.610943 
L 181.202118 46.870203 
L 182.739308 47.12797 
L 184.276498 47.384262 
L 185.813688 47.639098 
L 187.350878 47.892496 
L 188.888068 48.144473 
L 190.425258 48.395048 
L 191.962448 48.644236 
L 193.499638 48.892054 
L 195.036829 49.138518 
L 196.574019 49.383644 
L 198.111209 49.627448 
L 199.648399 49.869944 
L 201.185589 50.111148 
L 202.722779 50.351074 
L 204.259969 50.589737 
L 205.797159 50.827149 
" clip-path="url(#p92e2deb536)" style="fill: none; stroke: #db7093; stroke-width: 4; stroke-linecap: square"/>
   </g>
   <g id="line2d_8">
    <path d="M 53.615341 15.23459 
L 55.152531 21.478489 
L 56.689721 26.149474 
L 58.226911 30.189995 
L 59.764101 33.815226 
L 61.301291 37.129643 
L 62.838481 40.195904 
L 64.375671 43.056066 
L 65.912862 45.740435 
L 67.450052 48.271946 
L 68.987242 50.66859 
L 70.524432 52.944873 
L 72.061622 55.112745 
L 73.598812 57.182227 
L 75.136002 59.161843 
L 76.673192 61.058931 
L 78.210382 62.879872 
L 79.747572 64.630269 
L 81.284762 66.315074 
L 82.821952 67.938696 
L 84.359143 69.505085 
L 85.896333 71.017795 
L 87.433523 72.480043 
L 88.970713 73.89475 
L 90.507903 75.264581 
L 92.045093 76.591976 
L 93.582283 77.879173 
L 95.119473 79.128234 
L 96.656663 80.341065 
L 98.193853 81.519427 
L 99.731043 82.664958 
L 101.268233 83.779179 
L 102.805424 84.863507 
L 104.342614 85.919266 
L 105.879804 86.947694 
L 107.416994 87.949952 
L 108.954184 88.927127 
L 110.491374 89.880242 
L 112.028564 90.810261 
L 113.565754 91.71809 
L 115.102944 92.604586 
L 116.640134 93.470556 
L 118.177324 94.316765 
L 119.714514 95.143938 
L 121.251705 95.952761 
L 122.788895 96.743884 
L 124.326085 97.517926 
L 125.863275 98.275474 
L 127.400465 99.017088 
L 128.937655 99.7433 
L 130.474845 100.454616 
L 132.012035 101.151521 
L 133.549225 101.834476 
L 135.086415 102.503921 
L 136.623605 103.160279 
L 138.160795 103.803951 
L 139.697986 104.435323 
L 141.235176 105.054765 
L 142.772366 105.66263 
L 144.309556 106.259257 
L 145.846746 106.844971 
L 147.383936 107.420084 
L 148.921126 107.984897 
L 150.458316 108.539696 
L 151.995506 109.084759 
L 153.532696 109.620353 
L 155.069886 110.146732 
L 156.607076 110.664143 
L 158.144267 111.172825 
L 159.681457 111.673005 
L 161.218647 112.164904 
L 162.755837 112.648735 
L 164.293027 113.124702 
L 165.830217 113.593004 
L 167.367407 114.053831 
L 168.904597 114.507369 
L 170.441787 114.953794 
L 171.978977 115.393279 
L 173.516167 115.825992 
L 175.053357 116.252092 
L 176.590548 116.671735 
L 178.127738 117.085073 
L 179.664928 117.492251 
L 181.202118 117.89341 
L 182.739308 118.288688 
L 184.276498 118.678217 
L 185.813688 119.062125 
L 187.350878 119.440537 
L 188.888068 119.813574 
L 190.425258 120.181352 
L 191.962448 120.543987 
L 193.499638 120.901587 
L 195.036829 121.254261 
L 196.574019 121.602111 
L 198.111209 121.94524 
L 199.648399 122.283745 
L 201.185589 122.617722 
L 202.722779 122.947263 
L 204.259969 123.272458 
L 205.797159 123.593396 
" clip-path="url(#p92e2deb536)" style="fill: none; stroke: #ff69b4; stroke-width: 4; stroke-linecap: square"/>
   </g>
   <g id="line2d_9">
    <path d="M 53.615341 20.596911 
L 55.152531 49.080845 
L 56.689721 66.035751 
L 58.226911 78.297491 
L 59.764101 87.782957 
L 61.301291 95.414144 
L 62.838481 101.720424 
L 64.375671 107.036838 
L 65.912862 111.589361 
L 67.450052 115.537509 
L 68.987242 118.997863 
L 70.524432 122.057996 
L 72.061622 124.785191 
L 73.598812 127.232121 
L 75.136002 129.44069 
L 76.673192 131.444699 
L 78.210382 133.271745 
L 79.747572 134.944603 
L 81.284762 136.482251 
L 82.821952 137.900635 
L 84.359143 139.213262 
L 85.896333 140.431655 
L 87.433523 141.565701 
L 88.970713 142.623943 
L 90.507903 143.613796 
L 92.045093 144.541731 
L 93.582283 145.413422 
L 95.119473 146.233868 
L 96.656663 147.007484 
L 98.193853 147.738194 
L 99.731043 148.42949 
L 101.268233 149.084493 
L 102.805424 149.706003 
L 104.342614 150.296537 
L 105.879804 150.858364 
L 107.416994 151.393537 
L 108.954184 151.903917 
L 110.491374 152.391194 
L 112.028564 152.856907 
L 113.565754 153.302462 
L 115.102944 153.729145 
L 116.640134 154.138134 
L 118.177324 154.530509 
L 119.714514 154.907267 
L 121.251705 155.269325 
L 122.788895 155.617527 
L 124.326085 155.952658 
L 125.863275 156.275441 
L 127.400465 156.586548 
L 128.937655 156.886603 
L 130.474845 157.176185 
L 132.012035 157.455836 
L 133.549225 157.726058 
L 135.086415 157.98732 
L 136.623605 158.240064 
L 138.160795 158.484698 
L 139.697986 158.721608 
L 141.235176 158.951155 
L 142.772366 159.173678 
L 144.309556 159.389494 
L 145.846746 159.598902 
L 147.383936 159.802185 
L 148.921126 159.999608 
L 150.458316 160.19142 
L 151.995506 160.377858 
L 153.532696 160.559146 
L 155.069886 160.735493 
L 156.607076 160.907099 
L 158.144267 161.074154 
L 159.681457 161.236835 
L 161.218647 161.395314 
L 162.755837 161.549751 
L 164.293027 161.700298 
L 165.830217 161.847101 
L 167.367407 161.990298 
L 168.904597 162.130021 
L 170.441787 162.266394 
L 171.978977 162.399538 
L 173.516167 162.529564 
L 175.053357 162.656582 
L 176.590548 162.780694 
L 178.127738 162.902001 
L 179.664928 163.020594 
L 181.202118 163.136566 
L 182.739308 163.250001 
L 184.276498 163.360983 
L 185.813688 163.46959 
L 187.350878 163.575897 
L 188.888068 163.679977 
L 190.425258 163.781899 
L 191.962448 163.88173 
L 193.499638 163.979533 
L 195.036829 164.07537 
L 196.574019 164.1693 
L 198.111209 164.261378 
L 199.648399 164.351659 
L 201.185589 164.440195 
L 202.722779 164.527036 
L 204.259969 164.612231 
L 205.797159 164.695826 
" clip-path="url(#p92e2deb536)" style="fill: none; stroke: #ffc0cb; stroke-width: 4; stroke-linecap: square"/>
   </g>
   <g id="patch_3">
    <path d="M 46.00625 173.52 
L 46.00625 7.2 
" style="fill: none; stroke: #000000; stroke-width: 0.8; stroke-linejoin: miter; stroke-linecap: square"/>
   </g>
   <g id="patch_4">
    <path d="M 46.00625 173.52 
L 213.40625 173.52 
" style="fill: none; stroke: #000000; stroke-width: 0.8; stroke-linejoin: miter; stroke-linecap: square"/>
   </g>
  </g>
 </g>
 <defs>
  <clipPath id="p92e2deb536">
   <rect x="46.00625" y="7.2" width="167.4" height="166.32"/>
  </clipPath>
 </defs>
</svg>
