<?xml version="1.0" encoding="utf-8" standalone="no"?>
<!DOCTYPE svg PUBLIC "-//W3C//DTD SVG 1.1//EN"
  "http://www.w3.org/Graphics/SVG/1.1/DTD/svg11.dtd">
<svg xmlns:xlink="http://www.w3.org/1999/xlink" width="126pt" height="51.6pt" viewBox="0 0 126 51.6" xmlns="http://www.w3.org/2000/svg" version="1.1">
 <metadata>
  <rdf:RDF xmlns:dc="http://purl.org/dc/elements/1.1/" xmlns:cc="http://creativecommons.org/ns#" xmlns:rdf="http://www.w3.org/1999/02/22-rdf-syntax-ns#">
   <cc:Work>
    <dc:type rdf:resource="http://purl.org/dc/dcmitype/StillImage"/>
    <dc:date>2025-11-08T15:37:18.772679</dc:date>
    <dc:format>image/svg+xml</dc:format>
    <dc:creator>
     <cc:Agent>
      <dc:title>Matplotlib v3.10.6, https://matplotlib.org/</dc:title>
     </cc:Agent>
    </dc:creator>
   </cc:Work>
  </rdf:RDF>
 </metadata>
 <defs>
  <style type="text/css">*{stroke-linejoin: round; stroke-linecap: butt}</style>
 </defs>
 <g id="figure_1">
  <g id="patch_1">
   <path d="M 0 51.6 
L 126 51.6 
L 126 0 
L 0 0 
L 0 51.6 
z
" style="fill: none"/>
  </g>
  <g id="axes_1">
   <g id="patch_2">
    <path d="M 25.8 40.68 
C 29.746222 40.68 33.531348 39.112149 36.321749 36.321749 
C 39.112149 33.531348 40.68 29.746222 40.68 25.8 
C 40.68 21.853778 39.112149 18.068652 36.321749 15.278251 
C 33.531348 12.487851 29.746222 10.92 25.8 10.92 
C 21.853778 10.92 18.068652 12.487851 15.278251 15.278251 
C 12.487851 18.068652 10.92 21.853778 10.92 25.8 
C 10.92 29.746222 12.487851 33.531348 15.278251 36.321749 
C 18.068652 39.112149 21.853778 40.68 25.8 40.68 
z
" clip-path="url(#p5058830008)" style="fill: #0000ff; stroke: #000000; stroke-width: 2; stroke-linejoin: miter"/>
   </g>
   <g id="patch_3">
    <path d="M 63 40.68 
C 66.946222 40.68 70.731348 39.112149 73.521749 36.321749 
C 76.312149 33.531348 77.88 29.746222 77.88 25.8 
C 77.88 21.853778 76.312149 18.068652 73.521749 15.278251 
C 70.731348 12.487851 66.946222 10.92 63 10.92 
C 59.053778 10.92 55.268652 12.487851 52.478251 15.278251 
C 49.687851 18.068652 48.12 21.853778 48.12 25.8 
C 48.12 29.746222 49.687851 33.531348 52.478251 36.321749 
C 55.268652 39.112149 59.053778 40.68 63 40.68 
z
" clip-path="url(#p5058830008)" style="fill: #ff0202; stroke: #000000; stroke-width: 2; stroke-linejoin: miter"/>
   </g>
   <g id="patch_4">
    <path d="M 100.2 40.68 
C 104.146222 40.68 107.931348 39.112149 110.721749 36.321749 
C 113.512149 33.531348 115.08 29.746222 115.08 25.8 
C 115.08 21.853778 113.512149 18.068652 110.721749 15.278251 
C 107.931348 12.487851 104.146222 10.92 100.2 10.92 
C 96.253778 10.92 92.468652 12.487851 89.678251 15.278251 
C 86.887851 18.068652 85.32 21.853778 85.32 25.8 
C 85.32 29.746222 86.887851 33.531348 89.678251 36.321749 
C 92.468652 39.112149 96.253778 40.68 100.2 40.68 
z
" clip-path="url(#p5058830008)" style="fill: #fffcfc; stroke: #000000; stroke-width: 2; stroke-linejoin: miter"/>
   </g>
  </g>
 </g>
 <defs>
  <clipPath id="p5058830008">
   <rect x="7.2" y="7.2" width="111.6" height="37.2"/>
  </clipPath>
 </defs>
</svg>
