<?xml version="1.0" encoding="utf-8" standalone="no"?>
<!DOCTYPE svg PUBLIC "-//W3C//DTD SVG 1.1//EN"
  "http://www.w3.org/Graphics/SVG/1.1/DTD/svg11.dtd">
<svg xmlns:xlink="http://www.w3.org/1999/xlink" width="313.125pt" height="159.234688pt" viewBox="0 0 313.125 159.234688" xmlns="http://www.w3.org/2000/svg" version="1.1">
 <metadata>
  <rdf:RDF xmlns:dc="http://purl.org/dc/elements/1.1/" xmlns:cc="http://creativecommons.org/ns#" xmlns:rdf="http://www.w3.org/1999/02/22-rdf-syntax-ns#">
   <cc:Work>
    <dc:type rdf:resource="http://purl.org/dc/dcmitype/StillImage"/>
    <dc:date>2025-11-08T15:27:59.574622</dc:date>
    <dc:format>image/svg+xml</dc:format>
    <dc:creator>
     <cc:Agent>
      <dc:title>Matplotlib v3.10.6, https://matplotlib.org/</dc:title>
     </cc:Agent>
    </dc:creator>
   </cc:Work>
  </rdf:RDF>
 </metadata>
 <defs>
  <style type="text/css">*{stroke-linejoin: round; stroke-linecap: butt}</style>
 </defs>
 <g id="figure_1">
  <g id="patch_1">
   <path d="M 0 159.234688 
L 313.125 159.234688 
L 313.125 0 
L 0 0 
L 0 159.234688 
z
" style="fill: none"/>
  </g>
  <g id="axes_1">
   <g id="patch_2">
    <path d="M 26.925 125.678438 
L 305.925 125.678438 
L 305.925 14.798438 
L 26.925 14.798438 
L 26.925 125.678438 
z
" style="fill: none"/>
   </g>
   <g id="matplotlib.axis_1">
    <g id="xtick_1">
     <g id="line2d_1">
      <defs>
       <path id="m224363fdc3" d="M 0 0 
L 0 3.5 
" style="stroke: #000000; stroke-width: 0.8"/>
      </defs>
      <g>
       <use xlink:href="#m224363fdc3" x="73.425" y="125.678438" style="stroke: #000000; stroke-width: 0.8"/>
      </g>
     </g>
     <g id="text_1">
      <!-- 2 -->
      <g transform="translate(67.0625 147.875313) scale(0.2 -0.2)">
       <defs>
        <path id="DejaVuSans-32" d="M 1228 531 
L 3431 531 
L 3431 0 
L 469 0 
L 469 531 
Q 828 903 1448 1529 
Q 2069 2156 2228 2338 
Q 2531 2678 2651 2914 
Q 2772 3150 2772 3378 
Q 2772 3750 2511 3984 
Q 2250 4219 1831 4219 
Q 1534 4219 1204 4116 
Q 875 4013 500 3803 
L 500 4441 
Q 881 4594 1212 4672 
Q 1544 4750 1819 4750 
Q 2544 4750 2975 4387 
Q 3406 4025 3406 3419 
Q 3406 3131 3298 2873 
Q 3191 2616 2906 2266 
Q 2828 2175 2409 1742 
Q 1991 1309 1228 531 
z
" transform="scale(0.015625)"/>
       </defs>
       <use xlink:href="#DejaVuSans-32"/>
      </g>
     </g>
    </g>
    <g id="xtick_2">
     <g id="line2d_2">
      <g>
       <use xlink:href="#m224363fdc3" x="119.925" y="125.678438" style="stroke: #000000; stroke-width: 0.8"/>
      </g>
     </g>
     <g id="text_2">
      <!-- 4 -->
      <g transform="translate(113.5625 147.875313) scale(0.2 -0.2)">
       <defs>
        <path id="DejaVuSans-34" d="M 2419 4116 
L 825 1625 
L 2419 1625 
L 2419 4116 
z
M 2253 4666 
L 3047 4666 
L 3047 1625 
L 3713 1625 
L 3713 1100 
L 3047 1100 
L 3047 0 
L 2419 0 
L 2419 1100 
L 313 1100 
L 313 1709 
L 2253 4666 
z
" transform="scale(0.015625)"/>
       </defs>
       <use xlink:href="#DejaVuSans-34"/>
      </g>
     </g>
    </g>
    <g id="xtick_3">
     <g id="line2d_3">
      <g>
       <use xlink:href="#m224363fdc3" x="166.425" y="125.678438" style="stroke: #000000; stroke-width: 0.8"/>
      </g>
     </g>
     <g id="text_3">
      <!-- 6 -->
      <g transform="translate(160.0625 147.875313) scale(0.2 -0.2)">
       <defs>
        <path id="DejaVuSans-36" d="M 2113 2584 
Q 1688 2584 1439 2293 
Q 1191 2003 1191 1497 
Q 1191 994 1439 701 
Q 1688 409 2113 409 
Q 2538 409 2786 701 
Q 3034 994 3034 1497 
Q 3034 2003 2786 2293 
Q 2538 2584 2113 2584 
z
M 3366 4563 
L 3366 3988 
Q 3128 4100 2886 4159 
Q 2644 4219 2406 4219 
Q 1781 4219 1451 3797 
Q 1122 3375 1075 2522 
Q 1259 2794 1537 2939 
Q 1816 3084 2150 3084 
Q 2853 3084 3261 2657 
Q 3669 2231 3669 1497 
Q 3669 778 3244 343 
Q 2819 -91 2113 -91 
Q 1303 -91 875 529 
Q 447 1150 447 2328 
Q 447 3434 972 4092 
Q 1497 4750 2381 4750 
Q 2619 4750 2861 4703 
Q 3103 4656 3366 4563 
z
" transform="scale(0.015625)"/>
       </defs>
       <use xlink:href="#DejaVuSans-36"/>
      </g>
     </g>
    </g>
    <g id="xtick_4">
     <g id="line2d_4">
      <g>
       <use xlink:href="#m224363fdc3" x="212.925" y="125.678438" style="stroke: #000000; stroke-width: 0.8"/>
      </g>
     </g>
     <g id="text_4">
      <!-- 8 -->
      <g transform="translate(206.5625 147.875313) scale(0.2 -0.2)">
       <defs>
        <path id="DejaVuSans-38" d="M 2034 2216 
Q 1584 2216 1326 1975 
Q 1069 1734 1069 1313 
Q 1069 891 1326 650 
Q 1584 409 2034 409 
Q 2484 409 2743 651 
Q 3003 894 3003 1313 
Q 3003 1734 2745 1975 
Q 2488 2216 2034 2216 
z
M 1403 2484 
Q 997 2584 770 2862 
Q 544 3141 544 3541 
Q 544 4100 942 4425 
Q 1341 4750 2034 4750 
Q 2731 4750 3128 4425 
Q 3525 4100 3525 3541 
Q 3525 3141 3298 2862 
Q 3072 2584 2669 2484 
Q 3125 2378 3379 2068 
Q 3634 1759 3634 1313 
Q 3634 634 3220 271 
Q 2806 -91 2034 -91 
Q 1263 -91 848 271 
Q 434 634 434 1313 
Q 434 1759 690 2068 
Q 947 2378 1403 2484 
z
M 1172 3481 
Q 1172 3119 1398 2916 
Q 1625 2713 2034 2713 
Q 2441 2713 2670 2916 
Q 2900 3119 2900 3481 
Q 2900 3844 2670 4047 
Q 2441 4250 2034 4250 
Q 1625 4250 1398 4047 
Q 1172 3844 1172 3481 
z
" transform="scale(0.015625)"/>
       </defs>
       <use xlink:href="#DejaVuSans-38"/>
      </g>
     </g>
    </g>
   </g>
   <g id="matplotlib.axis_2">
    <g id="ytick_1">
     <g id="line2d_5">
      <defs>
       <path id="m59302b525e" d="M 0 0 
L -3.5 0 
" style="stroke: #000000; stroke-width: 0.8"/>
      </defs>
      <g>
       <use xlink:href="#m59302b525e" x="26.925" y="122.974047" style="stroke: #000000; stroke-width: 0.8"/>
      </g>
     </g>
     <g id="text_5">
      <!-- 0 -->
      <g transform="translate(7.2 130.572485) scale(0.2 -0.2)">
       <defs>
        <path id="DejaVuSans-30" d="M 2034 4250 
Q 1547 4250 1301 3770 
Q 1056 3291 1056 2328 
Q 1056 1369 1301 889 
Q 1547 409 2034 409 
Q 2525 409 2770 889 
Q 3016 1369 3016 2328 
Q 3016 3291 2770 3770 
Q 2525 4250 2034 4250 
z
M 2034 4750 
Q 2819 4750 3233 4129 
Q 3647 3509 3647 2328 
Q 3647 1150 3233 529 
Q 2819 -91 2034 -91 
Q 1250 -91 836 529 
Q 422 1150 422 2328 
Q 422 3509 836 4129 
Q 1250 4750 2034 4750 
z
" transform="scale(0.015625)"/>
       </defs>
       <use xlink:href="#DejaVuSans-30"/>
      </g>
     </g>
    </g>
    <g id="ytick_2">
     <g id="line2d_6">
      <g>
       <use xlink:href="#m59302b525e" x="26.925" y="68.886242" style="stroke: #000000; stroke-width: 0.8"/>
      </g>
     </g>
     <g id="text_6">
      <!-- 1 -->
      <g transform="translate(7.2 76.48468) scale(0.2 -0.2)">
       <defs>
        <path id="DejaVuSans-31" d="M 794 531 
L 1825 531 
L 1825 4091 
L 703 3866 
L 703 4441 
L 1819 4666 
L 2450 4666 
L 2450 531 
L 3481 531 
L 3481 0 
L 794 0 
L 794 531 
z
" transform="scale(0.015625)"/>
       </defs>
       <use xlink:href="#DejaVuSans-31"/>
      </g>
     </g>
    </g>
    <g id="ytick_3">
     <g id="line2d_7">
      <g>
       <use xlink:href="#m59302b525e" x="26.925" y="14.798438" style="stroke: #000000; stroke-width: 0.8"/>
      </g>
     </g>
     <g id="text_7">
      <!-- 2 -->
      <g transform="translate(7.2 22.396875) scale(0.2 -0.2)">
       <use xlink:href="#DejaVuSans-32"/>
      </g>
     </g>
    </g>
   </g>
   <g id="line2d_8">
    <path d="M 26.925 14.798438 
L 31.110148 14.798438 
L 31.110148 68.886242 
L 32.744532 68.886242 
L 32.744532 14.798438 
L 45.649216 14.798438 
L 45.649216 68.886242 
L 52.935118 68.886242 
L 52.935118 14.798438 
L 53.398233 14.798438 
L 53.398233 68.886242 
L 55.006897 68.886242 
L 55.006897 14.798438 
L 71.129281 14.798438 
L 71.129281 68.886242 
L 72.383671 68.886242 
L 72.383671 14.798438 
L 85.587369 14.798438 
L 85.587369 68.886242 
L 85.922451 68.886242 
L 85.922451 14.798438 
L 92.13882 14.798438 
L 92.13882 68.886242 
L 94.003954 68.886242 
L 94.003954 14.798438 
L 96.105147 14.798438 
L 96.105147 68.886242 
L 98.168917 68.886242 
L 98.168917 14.798438 
L 137.087644 14.798438 
L 137.087644 68.886242 
L 138.911478 68.886242 
L 138.911478 14.798438 
L 150.072626 14.798438 
L 150.072626 68.886242 
L 152.134645 68.886242 
L 152.134645 14.798438 
L 153.849308 14.798438 
L 153.849308 68.886242 
L 159.264317 68.886242 
L 159.264317 122.974047 
L 314.125 122.974047 
" clip-path="url(#p1545e055ca)" style="fill: none; stroke: #d2691e; stroke-width: 4; stroke-linecap: square"/>
   </g>
   <g id="line2d_9">
    <path d="M 26.925 14.798438 
L 28.769999 14.798438 
L 28.769999 68.886242 
L 29.917378 68.886242 
L 29.917378 14.798438 
L 36.195936 14.798438 
L 36.195936 68.886242 
L 36.990023 68.886242 
L 36.990023 14.798438 
L 39.15373 14.798438 
L 39.15373 68.886242 
L 41.639762 68.886242 
L 41.639762 14.798438 
L 93.921 14.798438 
L 93.921 68.886242 
L 98.973199 68.886242 
L 98.973199 14.798438 
L 101.737454 14.798438 
L 101.737454 68.886242 
L 103.616682 68.886242 
L 103.616682 122.974047 
L 163.188187 122.974047 
L 163.188187 68.886242 
L 168.123683 68.886242 
L 168.123683 14.798438 
L 198.631021 14.798438 
L 198.631021 68.886242 
L 201.566457 68.886242 
L 201.566457 14.798438 
L 214.225888 14.798438 
L 214.225888 68.886242 
L 215.333441 68.886242 
L 215.333441 14.798438 
L 219.930924 14.798438 
L 219.930924 68.886242 
L 219.964601 68.886242 
L 219.964601 14.798438 
L 251.317725 14.798438 
L 251.317725 68.886242 
L 253.942898 68.886242 
L 253.942898 14.798438 
L 276.80128 14.798438 
L 276.80128 68.886242 
L 278.662353 68.886242 
L 278.662353 14.798438 
L 297.792573 14.798438 
L 297.792573 68.886242 
L 297.923051 68.886242 
L 297.923051 14.798438 
L 307.459475 14.798438 
L 307.459475 68.886242 
L 308.073537 68.886242 
L 308.073537 14.798438 
L 311.261537 14.798438 
L 311.261537 68.886242 
L 311.414836 68.886242 
L 311.414836 14.798438 
L 314.125 14.798438 
" clip-path="url(#p1545e055ca)" style="fill: none; stroke: #ff00ff; stroke-width: 4; stroke-linecap: square"/>
   </g>
   <g id="line2d_10">
    <path d="M 26.925 14.798438 
L 28.051275 14.798438 
L 28.051275 68.886242 
L 30.492165 68.886242 
L 30.492165 14.798438 
L 40.0015 14.798438 
L 40.0015 68.886242 
L 42.490588 68.886242 
L 42.490588 14.798438 
L 66.960085 14.798438 
L 66.960085 68.886242 
L 67.760615 68.886242 
L 67.760615 14.798438 
L 83.791301 14.798438 
L 83.791301 68.886242 
L 84.52532 68.886242 
L 84.52532 14.798438 
L 88.11313 14.798438 
L 88.11313 68.886242 
L 90.65388 68.886242 
L 90.65388 14.798438 
L 99.577782 14.798438 
L 99.577782 68.886242 
L 99.890085 68.886242 
L 99.890085 14.798438 
L 104.858048 14.798438 
L 104.858048 68.886242 
L 105.764164 68.886242 
L 105.764164 14.798438 
L 117.06432 14.798438 
L 117.06432 68.886242 
L 117.635608 68.886242 
L 117.635608 14.798438 
L 126.340207 14.798438 
L 126.340207 68.886242 
L 131.938901 68.886242 
L 131.938901 14.798438 
L 145.812438 14.798438 
L 145.812438 68.886242 
L 146.09266 68.886242 
L 146.09266 14.798438 
L 155.090304 14.798438 
L 155.090304 68.886242 
L 162.466895 68.886242 
L 162.466895 14.798438 
L 168.17239 14.798438 
L 168.17239 68.886242 
L 168.445565 68.886242 
L 168.445565 14.798438 
L 168.592452 14.798438 
L 168.592452 68.886242 
L 171.468394 68.886242 
L 171.468394 14.798438 
L 179.382271 14.798438 
L 179.382271 68.886242 
L 180.789104 68.886242 
L 180.789104 14.798438 
L 186.348918 14.798438 
L 186.348918 68.886242 
L 187.324888 68.886242 
L 187.324888 14.798438 
L 206.314301 14.798438 
L 206.314301 68.886242 
L 206.458398 68.886242 
L 206.458398 14.798438 
L 209.562807 14.798438 
L 209.562807 68.886242 
L 211.729452 68.886242 
L 211.729452 14.798438 
L 240.908442 14.798438 
L 240.908442 68.886242 
L 242.396223 68.886242 
L 242.396223 14.798438 
L 247.087634 14.798438 
L 247.087634 68.886242 
L 251.544575 68.886242 
L 251.544575 14.798438 
L 255.456139 14.798438 
L 255.456139 68.886242 
L 258.933999 68.886242 
L 258.933999 122.974047 
L 314.125 122.974047 
" clip-path="url(#p1545e055ca)" style="fill: none; stroke: #00bfff; stroke-width: 4; stroke-linecap: square"/>
   </g>
   <g id="patch_3">
    <path d="M 26.925 125.678438 
L 26.925 14.798438 
" style="fill: none; stroke: #000000; stroke-width: 0.8; stroke-linejoin: miter; stroke-linecap: square"/>
   </g>
   <g id="patch_4">
    <path d="M 26.925 125.678438 
L 305.925 125.678438 
" style="fill: none; stroke: #000000; stroke-width: 0.8; stroke-linejoin: miter; stroke-linecap: square"/>
   </g>
  </g>
 </g>
 <defs>
  <clipPath id="p1545e055ca">
   <rect x="26.925" y="14.798438" width="279" height="110.88"/>
  </clipPath>
 </defs>
</svg>
