<?xml version="1.0" encoding="utf-8" standalone="no"?>
<!DOCTYPE svg PUBLIC "-//W3C//DTD SVG 1.1//EN"
  "http://www.w3.org/Graphics/SVG/1.1/DTD/svg11.dtd">
<svg xmlns:xlink="http://www.w3.org/1999/xlink" width="214.25pt" height="207.07625pt" viewBox="0 0 214.25 207.07625" xmlns="http://www.w3.org/2000/svg" version="1.1">
 <metadata>
  <rdf:RDF xmlns:dc="http://purl.org/dc/elements/1.1/" xmlns:cc="http://creativecommons.org/ns#" xmlns:rdf="http://www.w3.org/1999/02/22-rdf-syntax-ns#">
   <cc:Work>
    <dc:type rdf:resource="http://purl.org/dc/dcmitype/StillImage"/>
    <dc:date>2025-11-08T15:25:21.816064</dc:date>
    <dc:format>image/svg+xml</dc:format>
    <dc:creator>
     <cc:Agent>
      <dc:title>Matplotlib v3.10.6, https://matplotlib.org/</dc:title>
     </cc:Agent>
    </dc:creator>
   </cc:Work>
  </rdf:RDF>
 </metadata>
 <defs>
  <style type="text/css">*{stroke-linejoin: round; stroke-linecap: butt}</style>
 </defs>
 <g id="figure_1">
  <g id="patch_1">
   <path d="M 0 207.07625 
L 214.25 207.07625 
L 214.25 0 
L 0 0 
L 0 207.07625 
z
" style="fill: none"/>
  </g>
  <g id="axes_1">
   <g id="patch_2">
    <path d="M 39.65 173.52 
L 207.05 173.52 
L 207.05 7.2 
L 39.65 7.2 
L 39.65 173.52 
z
" style="fill: none"/>
   </g>
   <g id="matplotlib.axis_1">
    <g id="xtick_1">
     <g id="line2d_1">
      <defs>
       <path id="m2a84e3d67a" d="M 0 0 
L 0 3.5 
" style="stroke: #000000; stroke-width: 0.8"/>
      </defs>
      <g>
       <use xlink:href="#m2a84e3d67a" x="79.507143" y="173.52" style="stroke: #000000; stroke-width: 0.8"/>
      </g>
     </g>
     <g id="text_1">
      <!-- 25 -->
      <g transform="translate(66.782143 195.716875) scale(0.2 -0.2)">
       <defs>
        <path id="DejaVuSans-32" d="M 1228 531 
L 3431 531 
L 3431 0 
L 469 0 
L 469 531 
Q 828 903 1448 1529 
Q 2069 2156 2228 2338 
Q 2531 2678 2651 2914 
Q 2772 3150 2772 3378 
Q 2772 3750 2511 3984 
Q 2250 4219 1831 4219 
Q 1534 4219 1204 4116 
Q 875 4013 500 3803 
L 500 4441 
Q 881 4594 1212 4672 
Q 1544 4750 1819 4750 
Q 2544 4750 2975 4387 
Q 3406 4025 3406 3419 
Q 3406 3131 3298 2873 
Q 3191 2616 2906 2266 
Q 2828 2175 2409 1742 
Q 1991 1309 1228 531 
z
" transform="scale(0.015625)"/>
        <path id="DejaVuSans-35" d="M 691 4666 
L 3169 4666 
L 3169 4134 
L 1269 4134 
L 1269 2991 
Q 1406 3038 1543 3061 
Q 1681 3084 1819 3084 
Q 2600 3084 3056 2656 
Q 3513 2228 3513 1497 
Q 3513 744 3044 326 
Q 2575 -91 1722 -91 
Q 1428 -91 1123 -41 
Q 819 9 494 109 
L 494 744 
Q 775 591 1075 516 
Q 1375 441 1709 441 
Q 2250 441 2565 725 
Q 2881 1009 2881 1497 
Q 2881 1984 2565 2268 
Q 2250 2553 1709 2553 
Q 1456 2553 1204 2497 
Q 953 2441 691 2322 
L 691 4666 
z
" transform="scale(0.015625)"/>
       </defs>
       <use xlink:href="#DejaVuSans-32"/>
       <use xlink:href="#DejaVuSans-35" transform="translate(63.623047 0)"/>
      </g>
     </g>
    </g>
    <g id="xtick_2">
     <g id="line2d_2">
      <g>
       <use xlink:href="#m2a84e3d67a" x="119.364286" y="173.52" style="stroke: #000000; stroke-width: 0.8"/>
      </g>
     </g>
     <g id="text_2">
      <!-- 50 -->
      <g transform="translate(106.639286 195.716875) scale(0.2 -0.2)">
       <defs>
        <path id="DejaVuSans-30" d="M 2034 4250 
Q 1547 4250 1301 3770 
Q 1056 3291 1056 2328 
Q 1056 1369 1301 889 
Q 1547 409 2034 409 
Q 2525 409 2770 889 
Q 3016 1369 3016 2328 
Q 3016 3291 2770 3770 
Q 2525 4250 2034 4250 
z
M 2034 4750 
Q 2819 4750 3233 4129 
Q 3647 3509 3647 2328 
Q 3647 1150 3233 529 
Q 2819 -91 2034 -91 
Q 1250 -91 836 529 
Q 422 1150 422 2328 
Q 422 3509 836 4129 
Q 1250 4750 2034 4750 
z
" transform="scale(0.015625)"/>
       </defs>
       <use xlink:href="#DejaVuSans-35"/>
       <use xlink:href="#DejaVuSans-30" transform="translate(63.623047 0)"/>
      </g>
     </g>
    </g>
    <g id="xtick_3">
     <g id="line2d_3">
      <g>
       <use xlink:href="#m2a84e3d67a" x="159.221429" y="173.52" style="stroke: #000000; stroke-width: 0.8"/>
      </g>
     </g>
     <g id="text_3">
      <!-- 75 -->
      <g transform="translate(146.496429 195.716875) scale(0.2 -0.2)">
       <defs>
        <path id="DejaVuSans-37" d="M 525 4666 
L 3525 4666 
L 3525 4397 
L 1831 0 
L 1172 0 
L 2766 4134 
L 525 4134 
L 525 4666 
z
" transform="scale(0.015625)"/>
       </defs>
       <use xlink:href="#DejaVuSans-37"/>
       <use xlink:href="#DejaVuSans-35" transform="translate(63.623047 0)"/>
      </g>
     </g>
    </g>
   </g>
   <g id="matplotlib.axis_2">
    <g id="ytick_1">
     <g id="line2d_4">
      <defs>
       <path id="m6ce687912d" d="M 0 0 
L -3.5 0 
" style="stroke: #000000; stroke-width: 0.8"/>
      </defs>
      <g>
       <use xlink:href="#m6ce687912d" x="39.65" y="173.52" style="stroke: #000000; stroke-width: 0.8"/>
      </g>
     </g>
     <g id="text_4">
      <!-- 0 -->
      <g transform="translate(19.925 181.118438) scale(0.2 -0.2)">
       <use xlink:href="#DejaVuSans-30"/>
      </g>
     </g>
    </g>
    <g id="ytick_2">
     <g id="line2d_5">
      <g>
       <use xlink:href="#m6ce687912d" x="39.65" y="148.910719" style="stroke: #000000; stroke-width: 0.8"/>
      </g>
     </g>
     <g id="text_5">
      <!-- 2 -->
      <g transform="translate(19.925 156.509157) scale(0.2 -0.2)">
       <use xlink:href="#DejaVuSans-32"/>
      </g>
     </g>
    </g>
    <g id="ytick_3">
     <g id="line2d_6">
      <g>
       <use xlink:href="#m6ce687912d" x="39.65" y="124.301438" style="stroke: #000000; stroke-width: 0.8"/>
      </g>
     </g>
     <g id="text_6">
      <!-- 4 -->
      <g transform="translate(19.925 131.899876) scale(0.2 -0.2)">
       <defs>
        <path id="DejaVuSans-34" d="M 2419 4116 
L 825 1625 
L 2419 1625 
L 2419 4116 
z
M 2253 4666 
L 3047 4666 
L 3047 1625 
L 3713 1625 
L 3713 1100 
L 3047 1100 
L 3047 0 
L 2419 0 
L 2419 1100 
L 313 1100 
L 313 1709 
L 2253 4666 
z
" transform="scale(0.015625)"/>
       </defs>
       <use xlink:href="#DejaVuSans-34"/>
      </g>
     </g>
    </g>
    <g id="ytick_4">
     <g id="line2d_7">
      <g>
       <use xlink:href="#m6ce687912d" x="39.65" y="99.692157" style="stroke: #000000; stroke-width: 0.8"/>
      </g>
     </g>
     <g id="text_7">
      <!-- 6 -->
      <g transform="translate(19.925 107.290595) scale(0.2 -0.2)">
       <defs>
        <path id="DejaVuSans-36" d="M 2113 2584 
Q 1688 2584 1439 2293 
Q 1191 2003 1191 1497 
Q 1191 994 1439 701 
Q 1688 409 2113 409 
Q 2538 409 2786 701 
Q 3034 994 3034 1497 
Q 3034 2003 2786 2293 
Q 2538 2584 2113 2584 
z
M 3366 4563 
L 3366 3988 
Q 3128 4100 2886 4159 
Q 2644 4219 2406 4219 
Q 1781 4219 1451 3797 
Q 1122 3375 1075 2522 
Q 1259 2794 1537 2939 
Q 1816 3084 2150 3084 
Q 2853 3084 3261 2657 
Q 3669 2231 3669 1497 
Q 3669 778 3244 343 
Q 2819 -91 2113 -91 
Q 1303 -91 875 529 
Q 447 1150 447 2328 
Q 447 3434 972 4092 
Q 1497 4750 2381 4750 
Q 2619 4750 2861 4703 
Q 3103 4656 3366 4563 
z
" transform="scale(0.015625)"/>
       </defs>
       <use xlink:href="#DejaVuSans-36"/>
      </g>
     </g>
    </g>
    <g id="ytick_5">
     <g id="line2d_8">
      <g>
       <use xlink:href="#m6ce687912d" x="39.65" y="75.082876" style="stroke: #000000; stroke-width: 0.8"/>
      </g>
     </g>
     <g id="text_8">
      <!-- 8 -->
      <g transform="translate(19.925 82.681314) scale(0.2 -0.2)">
       <defs>
        <path id="DejaVuSans-38" d="M 2034 2216 
Q 1584 2216 1326 1975 
Q 1069 1734 1069 1313 
Q 1069 891 1326 650 
Q 1584 409 2034 409 
Q 2484 409 2743 651 
Q 3003 894 3003 1313 
Q 3003 1734 2745 1975 
Q 2488 2216 2034 2216 
z
M 1403 2484 
Q 997 2584 770 2862 
Q 544 3141 544 3541 
Q 544 4100 942 4425 
Q 1341 4750 2034 4750 
Q 2731 4750 3128 4425 
Q 3525 4100 3525 3541 
Q 3525 3141 3298 2862 
Q 3072 2584 2669 2484 
Q 3125 2378 3379 2068 
Q 3634 1759 3634 1313 
Q 3634 634 3220 271 
Q 2806 -91 2034 -91 
Q 1263 -91 848 271 
Q 434 634 434 1313 
Q 434 1759 690 2068 
Q 947 2378 1403 2484 
z
M 1172 3481 
Q 1172 3119 1398 2916 
Q 1625 2713 2034 2713 
Q 2441 2713 2670 2916 
Q 2900 3119 2900 3481 
Q 2900 3844 2670 4047 
Q 2441 4250 2034 4250 
Q 1625 4250 1398 4047 
Q 1172 3844 1172 3481 
z
" transform="scale(0.015625)"/>
       </defs>
       <use xlink:href="#DejaVuSans-38"/>
      </g>
     </g>
    </g>
    <g id="ytick_6">
     <g id="line2d_9">
      <g>
       <use xlink:href="#m6ce687912d" x="39.65" y="50.473596" style="stroke: #000000; stroke-width: 0.8"/>
      </g>
     </g>
     <g id="text_9">
      <!-- 10 -->
      <g transform="translate(7.2 58.072033) scale(0.2 -0.2)">
       <defs>
        <path id="DejaVuSans-31" d="M 794 531 
L 1825 531 
L 1825 4091 
L 703 3866 
L 703 4441 
L 1819 4666 
L 2450 4666 
L 2450 531 
L 3481 531 
L 3481 0 
L 794 0 
L 794 531 
z
" transform="scale(0.015625)"/>
       </defs>
       <use xlink:href="#DejaVuSans-31"/>
       <use xlink:href="#DejaVuSans-30" transform="translate(63.623047 0)"/>
      </g>
     </g>
    </g>
    <g id="ytick_7">
     <g id="line2d_10">
      <g>
       <use xlink:href="#m6ce687912d" x="39.65" y="25.864315" style="stroke: #000000; stroke-width: 0.8"/>
      </g>
     </g>
     <g id="text_10">
      <!-- 12 -->
      <g transform="translate(7.2 33.462752) scale(0.2 -0.2)">
       <use xlink:href="#DejaVuSans-31"/>
       <use xlink:href="#DejaVuSans-32" transform="translate(63.623047 0)"/>
      </g>
     </g>
    </g>
   </g>
   <g id="line2d_11">
    <path d="M 39.65 164.044479 
L 41.26039 162.813892 
L 42.870779 161.337188 
L 44.481169 159.614366 
L 46.091558 157.891544 
L 47.701948 156.168722 
L 49.312338 154.322841 
L 50.922727 152.476961 
L 52.533117 150.63108 
L 54.143506 148.785199 
L 55.753896 146.939319 
L 57.364286 145.093438 
L 58.974675 143.370616 
L 60.585065 141.524735 
L 62.195455 139.678855 
L 63.805844 137.956033 
L 65.416234 136.110152 
L 67.026623 134.38733 
L 68.637013 132.541449 
L 70.247403 130.818628 
L 71.857792 129.095806 
L 73.468182 127.372984 
L 75.078571 125.650162 
L 76.688961 123.92734 
L 78.299351 122.204518 
L 79.90974 120.481696 
L 81.52013 118.758874 
L 83.130519 117.159111 
L 84.740909 115.436289 
L 86.351299 113.836525 
L 87.961688 112.113704 
L 89.572078 110.51394 
L 91.182468 108.791118 
L 92.792857 107.191355 
L 94.403247 105.591592 
L 96.013636 103.991829 
L 97.624026 102.392065 
L 99.234416 100.792302 
L 100.844805 99.192539 
L 102.455195 97.592776 
L 104.065584 96.116071 
L 105.675974 94.516308 
L 107.286364 92.916545 
L 108.896753 91.43984 
L 110.507143 89.840077 
L 112.117532 88.363372 
L 113.727922 86.763609 
L 115.338312 85.286905 
L 116.948701 83.8102 
L 118.559091 82.333496 
L 120.169481 80.856791 
L 121.77987 79.257028 
L 123.39026 77.780323 
L 125.000649 76.303619 
L 126.611039 74.949973 
L 128.221429 73.473268 
L 129.831818 71.996564 
L 131.442208 70.519859 
L 133.052597 69.043155 
L 134.662987 67.689509 
L 136.273377 66.212805 
L 137.883766 64.859159 
L 139.494156 63.382454 
L 141.104545 62.028808 
L 142.714935 60.552104 
L 144.325325 59.198458 
L 145.935714 57.844812 
L 147.546104 56.368108 
L 149.156494 55.014462 
L 150.766883 53.660816 
L 152.377273 52.30717 
L 153.987662 50.953524 
L 155.598052 49.599879 
L 157.208442 48.246233 
L 158.818831 46.892587 
L 160.429221 45.538941 
L 162.03961 44.185295 
L 163.65 42.83165 
L 165.26039 41.601062 
L 166.870779 40.247417 
L 168.481169 38.893771 
L 170.091558 37.663184 
L 171.701948 36.309538 
L 173.312338 34.955892 
L 174.922727 33.725305 
L 176.533117 32.494718 
L 178.143506 31.141072 
L 179.753896 29.910485 
L 181.364286 28.556839 
L 182.974675 27.326252 
L 184.585065 26.095665 
L 186.195455 24.865078 
L 187.805844 23.511432 
L 189.416234 22.280845 
L 191.026623 21.050258 
L 192.637013 19.819671 
L 194.247403 18.589084 
L 195.857792 17.358497 
L 197.468182 16.127909 
L 199.078571 14.897322 
" clip-path="url(#p2e807ef23d)" style="fill: none; stroke: #db7093; stroke-width: 4; stroke-linecap: square"/>
   </g>
   <g id="line2d_12">
    <path d="M 39.65 165.028949 
L 41.26039 164.290597 
L 42.870779 163.306127 
L 44.481169 162.198599 
L 46.091558 161.09107 
L 47.701948 159.983542 
L 49.312338 158.876013 
L 50.922727 157.768485 
L 52.533117 156.660957 
L 54.143506 155.676487 
L 55.753896 154.568959 
L 57.364286 153.584489 
L 58.974675 152.600019 
L 60.585065 151.738608 
L 62.195455 150.754139 
L 63.805844 149.892728 
L 65.416234 149.031317 
L 67.026623 148.169906 
L 68.637013 147.308495 
L 70.247403 146.447084 
L 71.857792 145.708731 
L 73.468182 144.970379 
L 75.078571 144.108968 
L 76.688961 143.370616 
L 78.299351 142.632264 
L 79.90974 142.01697 
L 81.52013 141.278618 
L 83.130519 140.663324 
L 84.740909 139.924972 
L 86.351299 139.309679 
L 87.961688 138.694385 
L 89.572078 138.079091 
L 91.182468 137.463798 
L 92.792857 136.848504 
L 94.403247 136.233211 
L 96.013636 135.740976 
L 97.624026 135.125682 
L 99.234416 134.633448 
L 100.844805 134.018154 
L 102.455195 133.525919 
L 104.065584 133.033684 
L 105.675974 132.541449 
L 107.286364 132.049215 
L 108.896753 131.55698 
L 110.507143 131.064745 
L 112.117532 130.57251 
L 113.727922 130.080275 
L 115.338312 129.58804 
L 116.948701 129.218864 
L 118.559091 128.726629 
L 120.169481 128.234395 
L 121.77987 127.865218 
L 123.39026 127.496042 
L 125.000649 127.003807 
L 126.611039 126.634631 
L 128.221429 126.265455 
L 129.831818 125.77322 
L 131.442208 125.404044 
L 133.052597 125.034868 
L 134.662987 124.665692 
L 136.273377 124.296516 
L 137.883766 123.92734 
L 139.494156 123.558164 
L 141.104545 123.188987 
L 142.714935 122.94287 
L 144.325325 122.573694 
L 145.935714 122.204518 
L 147.546104 121.835342 
L 149.156494 121.589224 
L 150.766883 121.220048 
L 152.377273 120.850872 
L 153.987662 120.604755 
L 155.598052 120.235578 
L 157.208442 119.989461 
L 158.818831 119.620285 
L 160.429221 119.374167 
L 162.03961 119.004991 
L 163.65 118.758874 
L 165.26039 118.512756 
L 166.870779 118.266639 
L 168.481169 117.897463 
L 170.091558 117.651345 
L 171.701948 117.405228 
L 173.312338 117.159111 
L 174.922727 116.789935 
L 176.533117 116.543817 
L 178.143506 116.2977 
L 179.753896 116.051582 
L 181.364286 115.805465 
L 182.974675 115.559347 
L 184.585065 115.31323 
L 186.195455 115.067113 
L 187.805844 114.820995 
L 189.416234 114.574878 
L 191.026623 114.32876 
L 192.637013 114.082643 
L 194.247403 113.959584 
L 195.857792 113.713467 
L 197.468182 113.467349 
L 199.078571 113.221232 
" clip-path="url(#p2e807ef23d)" style="fill: none; stroke: #ff69b4; stroke-width: 4; stroke-linecap: square"/>
   </g>
   <g id="line2d_13">
    <path d="M 39.65 168.597652 
L 41.26039 168.843769 
L 42.870779 168.843769 
L 44.481169 168.72071 
L 46.091558 168.72071 
L 47.701948 168.597652 
L 49.312338 168.474593 
L 50.922727 168.474593 
L 52.533117 168.351534 
L 54.143506 168.351534 
L 55.753896 168.228475 
L 57.364286 168.228475 
L 58.974675 168.105417 
L 60.585065 168.105417 
L 62.195455 167.982358 
L 63.805844 167.982358 
L 65.416234 167.982358 
L 67.026623 167.859299 
L 68.637013 167.859299 
L 70.247403 167.859299 
L 71.857792 167.736241 
L 73.468182 167.736241 
L 75.078571 167.736241 
L 76.688961 167.613182 
L 78.299351 167.613182 
L 79.90974 167.613182 
L 81.52013 167.613182 
L 83.130519 167.490123 
L 84.740909 167.490123 
L 86.351299 167.490123 
L 87.961688 167.490123 
L 89.572078 167.490123 
L 91.182468 167.490123 
L 92.792857 167.367064 
L 94.403247 167.367064 
L 96.013636 167.367064 
L 97.624026 167.367064 
L 99.234416 167.367064 
L 100.844805 167.367064 
L 102.455195 167.367064 
L 104.065584 167.244006 
L 105.675974 167.244006 
L 107.286364 167.244006 
L 108.896753 167.244006 
L 110.507143 167.244006 
L 112.117532 167.244006 
L 113.727922 167.244006 
L 115.338312 167.244006 
L 116.948701 167.244006 
L 118.559091 167.120947 
L 120.169481 167.120947 
L 121.77987 167.120947 
L 123.39026 167.120947 
L 125.000649 167.120947 
L 126.611039 167.120947 
L 128.221429 167.120947 
L 129.831818 167.120947 
L 131.442208 167.120947 
L 133.052597 167.120947 
L 134.662987 167.120947 
L 136.273377 167.120947 
L 137.883766 167.120947 
L 139.494156 167.120947 
L 141.104545 166.997888 
L 142.714935 166.997888 
L 144.325325 166.997888 
L 145.935714 166.997888 
L 147.546104 166.997888 
L 149.156494 166.997888 
L 150.766883 166.997888 
L 152.377273 166.997888 
L 153.987662 166.997888 
L 155.598052 166.997888 
L 157.208442 166.997888 
L 158.818831 166.997888 
L 160.429221 166.997888 
L 162.03961 166.997888 
L 163.65 166.997888 
L 165.26039 166.997888 
L 166.870779 166.997888 
L 168.481169 166.997888 
L 170.091558 166.997888 
L 171.701948 166.997888 
L 173.312338 166.997888 
L 174.922727 166.997888 
L 176.533117 166.87483 
L 178.143506 166.87483 
L 179.753896 166.87483 
L 181.364286 166.87483 
L 182.974675 166.87483 
L 184.585065 166.87483 
L 186.195455 166.87483 
L 187.805844 166.87483 
L 189.416234 166.87483 
L 191.026623 166.87483 
L 192.637013 166.87483 
L 194.247403 166.87483 
L 195.857792 166.87483 
L 197.468182 166.87483 
L 199.078571 166.87483 
" clip-path="url(#p2e807ef23d)" style="fill: none; stroke: #ffc0cb; stroke-width: 4; stroke-linecap: square"/>
   </g>
   <g id="patch_3">
    <path d="M 39.65 173.52 
L 39.65 7.2 
" style="fill: none; stroke: #000000; stroke-width: 0.8; stroke-linejoin: miter; stroke-linecap: square"/>
   </g>
   <g id="patch_4">
    <path d="M 39.65 173.52 
L 207.05 173.52 
" style="fill: none; stroke: #000000; stroke-width: 0.8; stroke-linejoin: miter; stroke-linecap: square"/>
   </g>
  </g>
 </g>
 <defs>
  <clipPath id="p2e807ef23d">
   <rect x="39.65" y="7.2" width="167.4" height="166.32"/>
  </clipPath>
 </defs>
</svg>
