<?xml version="1.0" encoding="utf-8" standalone="no"?>
<!DOCTYPE svg PUBLIC "-//W3C//DTD SVG 1.1//EN"
  "http://www.w3.org/Graphics/SVG/1.1/DTD/svg11.dtd">
<svg xmlns:xlink="http://www.w3.org/1999/xlink" width="499.60625pt" height="207.07625pt" viewBox="0 0 499.60625 207.07625" xmlns="http://www.w3.org/2000/svg" version="1.1">
 <metadata>
  <rdf:RDF xmlns:dc="http://purl.org/dc/elements/1.1/" xmlns:cc="http://creativecommons.org/ns#" xmlns:rdf="http://www.w3.org/1999/02/22-rdf-syntax-ns#">
   <cc:Work>
    <dc:type rdf:resource="http://purl.org/dc/dcmitype/StillImage"/>
    <dc:date>2025-10-26T14:59:57.238274</dc:date>
    <dc:format>image/svg+xml</dc:format>
    <dc:creator>
     <cc:Agent>
      <dc:title>Matplotlib v3.10.6, https://matplotlib.org/</dc:title>
     </cc:Agent>
    </dc:creator>
   </cc:Work>
  </rdf:RDF>
 </metadata>
 <defs>
  <style type="text/css">*{stroke-linejoin: round; stroke-linecap: butt}</style>
 </defs>
 <g id="figure_1">
  <g id="patch_1">
   <path d="M 0 207.07625 
L 499.60625 207.07625 
L 499.60625 0 
L 0 0 
L 0 207.07625 
z
" style="fill: none"/>
  </g>
  <g id="axes_1">
   <g id="patch_2">
    <path d="M 46.00625 173.52 
L 492.40625 173.52 
L 492.40625 7.2 
L 46.00625 7.2 
L 46.00625 173.52 
z
" style="fill: none"/>
   </g>
   <g id="matplotlib.axis_1">
    <g id="xtick_1">
     <g id="line2d_1">
      <defs>
       <path id="mc928660e9c" d="M 0 0 
L 0 3.5 
" style="stroke: #000000; stroke-width: 0.8"/>
      </defs>
      <g>
       <use xlink:href="#mc928660e9c" x="131.034822" y="173.52" style="stroke: #000000; stroke-width: 0.8"/>
      </g>
     </g>
     <g id="text_1">
      <!-- 20 -->
      <g transform="translate(118.309822 195.716875) scale(0.2 -0.2)">
       <defs>
        <path id="DejaVuSans-32" d="M 1228 531 
L 3431 531 
L 3431 0 
L 469 0 
L 469 531 
Q 828 903 1448 1529 
Q 2069 2156 2228 2338 
Q 2531 2678 2651 2914 
Q 2772 3150 2772 3378 
Q 2772 3750 2511 3984 
Q 2250 4219 1831 4219 
Q 1534 4219 1204 4116 
Q 875 4013 500 3803 
L 500 4441 
Q 881 4594 1212 4672 
Q 1544 4750 1819 4750 
Q 2544 4750 2975 4387 
Q 3406 4025 3406 3419 
Q 3406 3131 3298 2873 
Q 3191 2616 2906 2266 
Q 2828 2175 2409 1742 
Q 1991 1309 1228 531 
z
" transform="scale(0.015625)"/>
        <path id="DejaVuSans-30" d="M 2034 4250 
Q 1547 4250 1301 3770 
Q 1056 3291 1056 2328 
Q 1056 1369 1301 889 
Q 1547 409 2034 409 
Q 2525 409 2770 889 
Q 3016 1369 3016 2328 
Q 3016 3291 2770 3770 
Q 2525 4250 2034 4250 
z
M 2034 4750 
Q 2819 4750 3233 4129 
Q 3647 3509 3647 2328 
Q 3647 1150 3233 529 
Q 2819 -91 2034 -91 
Q 1250 -91 836 529 
Q 422 1150 422 2328 
Q 422 3509 836 4129 
Q 1250 4750 2034 4750 
z
" transform="scale(0.015625)"/>
       </defs>
       <use xlink:href="#DejaVuSans-32"/>
       <use xlink:href="#DejaVuSans-30" transform="translate(63.623047 0)"/>
      </g>
     </g>
    </g>
    <g id="xtick_2">
     <g id="line2d_2">
      <g>
       <use xlink:href="#mc928660e9c" x="216.063394" y="173.52" style="stroke: #000000; stroke-width: 0.8"/>
      </g>
     </g>
     <g id="text_2">
      <!-- 40 -->
      <g transform="translate(203.338394 195.716875) scale(0.2 -0.2)">
       <defs>
        <path id="DejaVuSans-34" d="M 2419 4116 
L 825 1625 
L 2419 1625 
L 2419 4116 
z
M 2253 4666 
L 3047 4666 
L 3047 1625 
L 3713 1625 
L 3713 1100 
L 3047 1100 
L 3047 0 
L 2419 0 
L 2419 1100 
L 313 1100 
L 313 1709 
L 2253 4666 
z
" transform="scale(0.015625)"/>
       </defs>
       <use xlink:href="#DejaVuSans-34"/>
       <use xlink:href="#DejaVuSans-30" transform="translate(63.623047 0)"/>
      </g>
     </g>
    </g>
    <g id="xtick_3">
     <g id="line2d_3">
      <g>
       <use xlink:href="#mc928660e9c" x="301.091966" y="173.52" style="stroke: #000000; stroke-width: 0.8"/>
      </g>
     </g>
     <g id="text_3">
      <!-- 60 -->
      <g transform="translate(288.366966 195.716875) scale(0.2 -0.2)">
       <defs>
        <path id="DejaVuSans-36" d="M 2113 2584 
Q 1688 2584 1439 2293 
Q 1191 2003 1191 1497 
Q 1191 994 1439 701 
Q 1688 409 2113 409 
Q 2538 409 2786 701 
Q 3034 994 3034 1497 
Q 3034 2003 2786 2293 
Q 2538 2584 2113 2584 
z
M 3366 4563 
L 3366 3988 
Q 3128 4100 2886 4159 
Q 2644 4219 2406 4219 
Q 1781 4219 1451 3797 
Q 1122 3375 1075 2522 
Q 1259 2794 1537 2939 
Q 1816 3084 2150 3084 
Q 2853 3084 3261 2657 
Q 3669 2231 3669 1497 
Q 3669 778 3244 343 
Q 2819 -91 2113 -91 
Q 1303 -91 875 529 
Q 447 1150 447 2328 
Q 447 3434 972 4092 
Q 1497 4750 2381 4750 
Q 2619 4750 2861 4703 
Q 3103 4656 3366 4563 
z
" transform="scale(0.015625)"/>
       </defs>
       <use xlink:href="#DejaVuSans-36"/>
       <use xlink:href="#DejaVuSans-30" transform="translate(63.623047 0)"/>
      </g>
     </g>
    </g>
    <g id="xtick_4">
     <g id="line2d_4">
      <g>
       <use xlink:href="#mc928660e9c" x="386.120537" y="173.52" style="stroke: #000000; stroke-width: 0.8"/>
      </g>
     </g>
     <g id="text_4">
      <!-- 80 -->
      <g transform="translate(373.395537 195.716875) scale(0.2 -0.2)">
       <defs>
        <path id="DejaVuSans-38" d="M 2034 2216 
Q 1584 2216 1326 1975 
Q 1069 1734 1069 1313 
Q 1069 891 1326 650 
Q 1584 409 2034 409 
Q 2484 409 2743 651 
Q 3003 894 3003 1313 
Q 3003 1734 2745 1975 
Q 2488 2216 2034 2216 
z
M 1403 2484 
Q 997 2584 770 2862 
Q 544 3141 544 3541 
Q 544 4100 942 4425 
Q 1341 4750 2034 4750 
Q 2731 4750 3128 4425 
Q 3525 4100 3525 3541 
Q 3525 3141 3298 2862 
Q 3072 2584 2669 2484 
Q 3125 2378 3379 2068 
Q 3634 1759 3634 1313 
Q 3634 634 3220 271 
Q 2806 -91 2034 -91 
Q 1263 -91 848 271 
Q 434 634 434 1313 
Q 434 1759 690 2068 
Q 947 2378 1403 2484 
z
M 1172 3481 
Q 1172 3119 1398 2916 
Q 1625 2713 2034 2713 
Q 2441 2713 2670 2916 
Q 2900 3119 2900 3481 
Q 2900 3844 2670 4047 
Q 2441 4250 2034 4250 
Q 1625 4250 1398 4047 
Q 1172 3844 1172 3481 
z
" transform="scale(0.015625)"/>
       </defs>
       <use xlink:href="#DejaVuSans-38"/>
       <use xlink:href="#DejaVuSans-30" transform="translate(63.623047 0)"/>
      </g>
     </g>
    </g>
   </g>
   <g id="matplotlib.axis_2">
    <g id="ytick_1">
     <g id="line2d_5">
      <defs>
       <path id="mb42c645149" d="M 0 0 
L -3.5 0 
" style="stroke: #000000; stroke-width: 0.8"/>
      </defs>
      <g>
       <use xlink:href="#mb42c645149" x="46.00625" y="171.950938" style="stroke: #000000; stroke-width: 0.8"/>
      </g>
     </g>
     <g id="text_5">
      <!-- 0 -->
      <g transform="translate(26.28125 179.549376) scale(0.2 -0.2)">
       <use xlink:href="#DejaVuSans-30"/>
      </g>
     </g>
    </g>
    <g id="ytick_2">
     <g id="line2d_6">
      <g>
       <use xlink:href="#mb42c645149" x="46.00625" y="93.497852" style="stroke: #000000; stroke-width: 0.8"/>
      </g>
     </g>
     <g id="text_6">
      <!-- 0.5 -->
      <g transform="translate(7.2 101.096289) scale(0.2 -0.2)">
       <defs>
        <path id="DejaVuSans-2e" d="M 684 794 
L 1344 794 
L 1344 0 
L 684 0 
L 684 794 
z
" transform="scale(0.015625)"/>
        <path id="DejaVuSans-35" d="M 691 4666 
L 3169 4666 
L 3169 4134 
L 1269 4134 
L 1269 2991 
Q 1406 3038 1543 3061 
Q 1681 3084 1819 3084 
Q 2600 3084 3056 2656 
Q 3513 2228 3513 1497 
Q 3513 744 3044 326 
Q 2575 -91 1722 -91 
Q 1428 -91 1123 -41 
Q 819 9 494 109 
L 494 744 
Q 775 591 1075 516 
Q 1375 441 1709 441 
Q 2250 441 2565 725 
Q 2881 1009 2881 1497 
Q 2881 1984 2565 2268 
Q 2250 2553 1709 2553 
Q 1456 2553 1204 2497 
Q 953 2441 691 2322 
L 691 4666 
z
" transform="scale(0.015625)"/>
       </defs>
       <use xlink:href="#DejaVuSans-30"/>
       <use xlink:href="#DejaVuSans-2e" transform="translate(63.623047 0)"/>
       <use xlink:href="#DejaVuSans-35" transform="translate(95.410156 0)"/>
      </g>
     </g>
    </g>
    <g id="ytick_3">
     <g id="line2d_7">
      <g>
       <use xlink:href="#mb42c645149" x="46.00625" y="15.044765" style="stroke: #000000; stroke-width: 0.8"/>
      </g>
     </g>
     <g id="text_7">
      <!-- 1 -->
      <g transform="translate(26.28125 22.643203) scale(0.2 -0.2)">
       <defs>
        <path id="DejaVuSans-31" d="M 794 531 
L 1825 531 
L 1825 4091 
L 703 3866 
L 703 4441 
L 1819 4666 
L 2450 4666 
L 2450 531 
L 3481 531 
L 3481 0 
L 794 0 
L 794 531 
z
" transform="scale(0.015625)"/>
       </defs>
       <use xlink:href="#DejaVuSans-31"/>
      </g>
     </g>
    </g>
   </g>
   <g id="line2d_8">
    <path d="M 46.006293 122.510573 
L 48.142689 128.612404 
L 50.279085 132.028039 
L 52.415481 134.846338 
L 54.551877 137.281506 
L 56.688273 139.435994 
L 58.824669 141.370585 
L 60.961065 143.125687 
L 65.233857 146.205626 
L 69.506649 148.833572 
L 73.779441 151.108897 
L 78.052233 153.099814 
L 82.325026 154.855891 
L 86.597818 156.41463 
L 93.007006 158.445056 
L 99.416194 160.171402 
L 105.825382 161.649626 
L 112.23457 162.922525 
L 120.780155 164.357259 
L 129.325739 165.547353 
L 140.007719 166.761154 
L 150.6897 167.734119 
L 163.508076 168.65543 
L 178.462848 169.472342 
L 195.554017 170.156331 
L 214.781582 170.699954 
L 238.281938 171.144194 
L 270.327879 171.506215 
L 313.0558 171.749392 
L 383.556871 171.896173 
L 471.149109 171.940069 
L 471.149109 171.940069 
" clip-path="url(#p47f62241e6)" style="fill: none; stroke: #000000; stroke-width: 4; stroke-linecap: square"/>
   </g>
   <g id="line2d_9">
    <path d="M 46.006293 122.510573 
L 48.142689 128.612404 
L 50.279085 132.028039 
L 52.415481 134.846338 
L 54.551877 137.281506 
L 56.688273 139.435994 
L 58.824669 141.370585 
L 60.961065 143.125687 
L 65.233857 146.205626 
L 69.506649 148.833572 
L 73.779441 151.108897 
L 78.052233 153.099814 
L 82.325026 154.855891 
L 86.597818 156.41463 
L 93.007006 158.445056 
L 99.416194 160.171402 
L 105.825382 161.649626 
L 112.23457 162.922525 
L 120.780155 164.357259 
L 129.325739 165.547353 
L 140.007719 166.761154 
L 150.6897 167.734119 
L 163.508076 168.65543 
L 178.462848 169.472342 
L 195.554017 170.156331 
L 214.781582 170.699954 
L 238.281938 171.144194 
L 270.327879 171.506215 
L 313.0558 171.749392 
L 383.556871 171.896173 
L 471.149109 171.940069 
L 471.149109 171.940069 
" clip-path="url(#p47f62241e6)" style="fill: none; stroke: #000000; stroke-width: 4; stroke-linecap: square"/>
   </g>
   <g id="line2d_10">
    <path d="M 46.006293 84.972858 
L 48.142689 95.488621 
L 50.279085 101.372784 
L 52.415481 106.156524 
L 54.551877 110.257998 
L 56.688273 113.873108 
L 58.824669 117.115486 
L 60.961065 120.058943 
L 63.097461 122.754983 
L 65.233857 125.241397 
L 69.506649 129.694272 
L 73.779441 133.58327 
L 78.052233 137.018488 
L 82.325026 140.077961 
L 86.597818 142.819714 
L 90.87061 145.288522 
L 95.143402 147.519963 
L 99.416194 149.542986 
L 103.688986 151.381606 
L 110.098174 153.837218 
L 116.507363 155.979199 
L 122.916551 157.853068 
L 129.325739 159.496211 
L 135.734927 160.939764 
L 144.280511 162.598766 
L 152.826096 164.000675 
L 161.37168 165.187458 
L 172.05366 166.420339 
L 182.735641 167.425057 
L 195.554017 168.390007 
L 210.508789 169.256709 
L 227.599958 169.990451 
L 246.827522 170.578889 
L 270.327879 171.063236 
L 300.237424 171.440507 
L 340.828949 171.709872 
L 402.784435 171.874157 
L 471.149109 171.929202 
L 471.149109 171.929202 
" clip-path="url(#p47f62241e6)" style="fill: none; stroke: #0000ff; stroke-width: 4; stroke-linecap: square"/>
   </g>
   <g id="line2d_11">
    <path d="M 46.006293 15.878239 
L 48.142689 21.377079 
L 52.415481 27.833544 
L 65.233857 46.192423 
L 75.915837 61.213145 
L 82.325026 69.898927 
L 88.734214 78.236556 
L 95.143402 86.167842 
L 101.55259 93.653988 
L 107.961778 100.672603 
L 114.370967 107.214583 
L 118.643759 111.311412 
L 122.916551 115.19929 
L 127.189343 118.881974 
L 131.462135 122.364272 
L 135.734927 125.651833 
L 140.007719 128.750957 
L 146.416908 133.061292 
L 152.826096 136.987317 
L 159.235284 140.554264 
L 165.644472 143.787617 
L 172.05366 146.712584 
L 178.462848 149.353707 
L 184.872037 151.734573 
L 191.281225 153.877615 
L 197.690413 155.803988 
L 204.099601 157.533491 
L 212.645185 159.564891 
L 221.19077 161.318747 
L 229.736354 162.830711 
L 238.281938 164.132451 
L 248.963919 165.506278 
L 259.645899 166.642351 
L 272.464275 167.747633 
L 285.282652 168.624966 
L 300.237424 169.421529 
L 317.328593 170.102308 
L 338.692553 170.702605 
L 364.329306 171.172183 
L 396.375247 171.519469 
L 441.239564 171.762299 
L 471.149109 171.842297 
L 471.149109 171.842297 
" clip-path="url(#p47f62241e6)" style="fill: none; stroke: #4169e1; stroke-width: 4; stroke-linecap: square"/>
   </g>
   <g id="line2d_12">
    <path d="M 46.006293 15.044765 
L 90.87061 15.138137 
L 99.416194 15.365141 
L 105.825382 15.731035 
L 112.23457 16.3625 
L 116.507363 16.979642 
L 120.780155 17.787877 
L 125.052947 18.814529 
L 129.325739 20.08362 
L 133.598531 21.614689 
L 137.871323 23.421904 
L 142.144115 25.51351 
L 146.416908 27.891604 
L 150.6897 30.552228 
L 154.962492 33.485721 
L 159.235284 36.677278 
L 163.508076 40.107668 
L 167.780868 43.754039 
L 174.190056 49.571954 
L 180.599245 55.723924 
L 189.144829 64.27747 
L 214.781582 90.306081 
L 223.327166 98.520497 
L 229.736354 104.398397 
L 236.145542 109.996685 
L 242.55473 115.292497 
L 248.963919 120.27154 
L 255.373107 124.926926 
L 261.782295 129.25799 
L 268.191483 133.269163 
L 274.600671 136.968922 
L 281.00986 140.36885 
L 287.419048 143.48281 
L 293.828236 146.326229 
L 300.237424 148.915506 
L 306.646612 151.267516 
L 313.0558 153.399214 
L 319.464989 155.327324 
L 325.874177 157.068097 
L 334.419761 159.124576 
L 342.965345 160.91048 
L 351.51093 162.457887 
L 360.056514 163.795999 
L 370.738494 165.214153 
L 381.420474 166.39154 
L 394.238851 167.541112 
L 407.057227 168.45651 
L 422.012 169.289892 
L 439.103168 170.003866 
L 458.330733 170.582149 
L 471.149109 170.869194 
L 471.149109 170.869194 
" clip-path="url(#p47f62241e6)" style="fill: none; stroke: #6495ed; stroke-width: 4; stroke-linecap: square"/>
   </g>
   <g id="line2d_13">
    <path d="M 46.006293 15.044767 
L 206.235997 15.146025 
L 216.917978 15.402325 
L 223.327166 15.727837 
L 229.736354 16.26065 
L 236.145542 17.077817 
L 240.418334 17.820851 
L 244.691126 18.750233 
L 248.963919 19.88796 
L 253.236711 21.253336 
L 257.509503 22.862087 
L 261.782295 24.725666 
L 266.055087 26.850774 
L 270.327879 29.239111 
L 274.600671 31.887356 
L 278.873463 34.787363 
L 283.146256 37.926523 
L 287.419048 41.288279 
L 293.828236 46.704005 
L 300.237424 52.497496 
L 306.646612 58.582793 
L 315.192197 66.996234 
L 338.692553 90.36733 
L 347.238137 98.459916 
L 353.647326 104.265757 
L 360.056514 109.807422 
L 366.465702 115.060597 
L 372.87489 120.009335 
L 379.284078 124.645018 
L 385.693267 128.965283 
L 392.102455 132.972958 
L 398.511643 136.675058 
L 404.920831 140.081868 
L 411.330019 143.206122 
L 417.739208 146.062292 
L 424.148396 148.665975 
L 430.557584 151.033393 
L 436.966772 153.180978 
L 443.37596 155.12504 
L 449.785149 156.881516 
L 458.330733 158.958148 
L 466.876317 160.762973 
L 471.149109 161.573522 
L 471.149109 161.573522 
" clip-path="url(#p47f62241e6)" style="fill: none; stroke: #00bfff; stroke-width: 4; stroke-linecap: square"/>
   </g>
   <g id="line2d_14">
    <path d="M 46.006293 15.044765 
L 471.149109 15.044765 
L 471.149109 15.044765 
" clip-path="url(#p47f62241e6)" style="fill: none; stroke-dasharray: 14.8,6.4; stroke-dashoffset: 0; stroke: #000000; stroke-opacity: 0.5; stroke-width: 4"/>
   </g>
   <g id="patch_3">
    <path d="M 46.00625 173.52 
L 46.00625 7.2 
" style="fill: none; stroke: #000000; stroke-width: 0.8; stroke-linejoin: miter; stroke-linecap: square"/>
   </g>
   <g id="patch_4">
    <path d="M 46.00625 173.52 
L 492.40625 173.52 
" style="fill: none; stroke: #000000; stroke-width: 0.8; stroke-linejoin: miter; stroke-linecap: square"/>
   </g>
   <g id="PathCollection_1">
    <defs>
     <path id="m4131b5bd34" d="M 0 7.071068 
C 1.875269 7.071068 3.673985 6.326016 5 5 
C 6.326016 3.673985 7.071068 1.875269 7.071068 0 
C 7.071068 -1.875269 6.326016 -3.673985 5 -5 
C 3.673985 -6.326016 1.875269 -7.071068 0 -7.071068 
C -1.875269 -7.071068 -3.673985 -6.326016 -5 -5 
C -6.326016 -3.673985 -7.071068 -1.875269 -7.071068 0 
C -7.071068 1.875269 -6.326016 3.673985 -5 5 
C -3.673985 6.326016 -1.875269 7.071068 0 7.071068 
z
" style="stroke: #000000"/>
    </defs>
    <g clip-path="url(#p47f62241e6)">
     <use xlink:href="#m4131b5bd34" x="67.370253" y="147.230755" style="stroke: #000000"/>
    </g>
   </g>
   <g id="PathCollection_2">
    <g clip-path="url(#p47f62241e6)">
     <use xlink:href="#m4131b5bd34" x="67.370253" y="147.230755" style="stroke: #000000"/>
    </g>
   </g>
   <g id="PathCollection_3">
    <defs>
     <path id="mc99d8f5400" d="M 0 7.071068 
C 1.875269 7.071068 3.673985 6.326016 5 5 
C 6.326016 3.673985 7.071068 1.875269 7.071068 0 
C 7.071068 -1.875269 6.326016 -3.673985 5 -5 
C 3.673985 -6.326016 1.875269 -7.071068 0 -7.071068 
C -1.875269 -7.071068 -3.673985 -6.326016 -5 -5 
C -6.326016 -3.673985 -7.071068 -1.875269 -7.071068 0 
C -7.071068 1.875269 -6.326016 3.673985 -5 5 
C -3.673985 6.326016 -1.875269 7.071068 0 7.071068 
z
" style="stroke: #0000ff"/>
    </defs>
    <g clip-path="url(#p47f62241e6)">
     <use xlink:href="#mc99d8f5400" x="69.506649" y="128.461898" style="fill: #0000ff; stroke: #0000ff"/>
    </g>
   </g>
   <g id="PathCollection_4">
    <defs>
     <path id="m6bc59e9fc4" d="M 0 7.071068 
C 1.875269 7.071068 3.673985 6.326016 5 5 
C 6.326016 3.673985 7.071068 1.875269 7.071068 0 
C 7.071068 -1.875269 6.326016 -3.673985 5 -5 
C 3.673985 -6.326016 1.875269 -7.071068 0 -7.071068 
C -1.875269 -7.071068 -3.673985 -6.326016 -5 -5 
C -6.326016 -3.673985 -7.071068 -1.875269 -7.071068 0 
C -7.071068 1.875269 -6.326016 3.673985 -5 5 
C -3.673985 6.326016 -1.875269 7.071068 0 7.071068 
z
" style="stroke: #4169e1"/>
    </defs>
    <g clip-path="url(#p47f62241e6)">
     <use xlink:href="#m6bc59e9fc4" x="103.688986" y="93.914588" style="fill: #4169e1; stroke: #4169e1"/>
    </g>
   </g>
   <g id="PathCollection_5">
    <defs>
     <path id="m54dcdac0b4" d="M 0 7.071068 
C 1.875269 7.071068 3.673985 6.326016 5 5 
C 6.326016 3.673985 7.071068 1.875269 7.071068 0 
C 7.071068 -1.875269 6.326016 -3.673985 5 -5 
C 3.673985 -6.326016 1.875269 -7.071068 0 -7.071068 
C -1.875269 -7.071068 -3.673985 -6.326016 -5 -5 
C -6.326016 -3.673985 -7.071068 -1.875269 -7.071068 0 
C -7.071068 1.875269 -6.326016 3.673985 -5 5 
C -3.673985 6.326016 -1.875269 7.071068 0 7.071068 
z
" style="stroke: #6495ed"/>
    </defs>
    <g clip-path="url(#p47f62241e6)">
     <use xlink:href="#m54dcdac0b4" x="219.054374" y="93.497852" style="fill: #6495ed; stroke: #6495ed"/>
    </g>
   </g>
   <g id="PathCollection_6">
    <defs>
     <path id="m8e63871c26" d="M 0 7.071068 
C 1.875269 7.071068 3.673985 6.326016 5 5 
C 6.326016 3.673985 7.071068 1.875269 7.071068 0 
C 7.071068 -1.875269 6.326016 -3.673985 5 -5 
C 3.673985 -6.326016 1.875269 -7.071068 0 -7.071068 
C -1.875269 -7.071068 -3.673985 -6.326016 -5 -5 
C -6.326016 -3.673985 -7.071068 -1.875269 -7.071068 0 
C -7.071068 1.875269 -6.326016 3.673985 -5 5 
C -3.673985 6.326016 -1.875269 7.071068 0 7.071068 
z
" style="stroke: #00bfff"/>
    </defs>
    <g clip-path="url(#p47f62241e6)">
     <use xlink:href="#m8e63871c26" x="342.965345" y="93.497852" style="fill: #00bfff; stroke: #00bfff"/>
    </g>
   </g>
  </g>
 </g>
 <defs>
  <clipPath id="p47f62241e6">
   <rect x="46.00625" y="7.2" width="446.4" height="166.32"/>
  </clipPath>
 </defs>
</svg>
