<?xml version="1.0" encoding="utf-8" standalone="no"?>
<!DOCTYPE svg PUBLIC "-//W3C//DTD SVG 1.1//EN"
  "http://www.w3.org/Graphics/SVG/1.1/DTD/svg11.dtd">
<svg xmlns:xlink="http://www.w3.org/1999/xlink" width="499.60625pt" height="207.07625pt" viewBox="0 0 499.60625 207.07625" xmlns="http://www.w3.org/2000/svg" version="1.1">
 <metadata>
  <rdf:RDF xmlns:dc="http://purl.org/dc/elements/1.1/" xmlns:cc="http://creativecommons.org/ns#" xmlns:rdf="http://www.w3.org/1999/02/22-rdf-syntax-ns#">
   <cc:Work>
    <dc:type rdf:resource="http://purl.org/dc/dcmitype/StillImage"/>
    <dc:date>2025-10-26T14:01:30.121295</dc:date>
    <dc:format>image/svg+xml</dc:format>
    <dc:creator>
     <cc:Agent>
      <dc:title>Matplotlib v3.10.6, https://matplotlib.org/</dc:title>
     </cc:Agent>
    </dc:creator>
   </cc:Work>
  </rdf:RDF>
 </metadata>
 <defs>
  <style type="text/css">*{stroke-linejoin: round; stroke-linecap: butt}</style>
 </defs>
 <g id="figure_1">
  <g id="patch_1">
   <path d="M 0 207.07625 
L 499.60625 207.07625 
L 499.60625 0 
L 0 0 
L 0 207.07625 
z
" style="fill: none"/>
  </g>
  <g id="axes_1">
   <g id="patch_2">
    <path d="M 46.00625 173.52 
L 492.40625 173.52 
L 492.40625 7.2 
L 46.00625 7.2 
L 46.00625 173.52 
z
" style="fill: none"/>
   </g>
   <g id="matplotlib.axis_1">
    <g id="xtick_1">
     <g id="line2d_1">
      <defs>
       <path id="m9315dfda49" d="M 0 0 
L 0 3.5 
" style="stroke: #000000; stroke-width: 0.8"/>
      </defs>
      <g>
       <use xlink:href="#m9315dfda49" x="99.149107" y="173.52" style="stroke: #000000; stroke-width: 0.8"/>
      </g>
     </g>
     <g id="text_1">
      <!-- 1 -->
      <g transform="translate(92.786607 195.716875) scale(0.2 -0.2)">
       <defs>
        <path id="DejaVuSans-31" d="M 794 531 
L 1825 531 
L 1825 4091 
L 703 3866 
L 703 4441 
L 1819 4666 
L 2450 4666 
L 2450 531 
L 3481 531 
L 3481 0 
L 794 0 
L 794 531 
z
" transform="scale(0.015625)"/>
       </defs>
       <use xlink:href="#DejaVuSans-31"/>
      </g>
     </g>
    </g>
    <g id="xtick_2">
     <g id="line2d_2">
      <g>
       <use xlink:href="#m9315dfda49" x="152.291964" y="173.52" style="stroke: #000000; stroke-width: 0.8"/>
      </g>
     </g>
     <g id="text_2">
      <!-- 2 -->
      <g transform="translate(145.929464 195.716875) scale(0.2 -0.2)">
       <defs>
        <path id="DejaVuSans-32" d="M 1228 531 
L 3431 531 
L 3431 0 
L 469 0 
L 469 531 
Q 828 903 1448 1529 
Q 2069 2156 2228 2338 
Q 2531 2678 2651 2914 
Q 2772 3150 2772 3378 
Q 2772 3750 2511 3984 
Q 2250 4219 1831 4219 
Q 1534 4219 1204 4116 
Q 875 4013 500 3803 
L 500 4441 
Q 881 4594 1212 4672 
Q 1544 4750 1819 4750 
Q 2544 4750 2975 4387 
Q 3406 4025 3406 3419 
Q 3406 3131 3298 2873 
Q 3191 2616 2906 2266 
Q 2828 2175 2409 1742 
Q 1991 1309 1228 531 
z
" transform="scale(0.015625)"/>
       </defs>
       <use xlink:href="#DejaVuSans-32"/>
      </g>
     </g>
    </g>
    <g id="xtick_3">
     <g id="line2d_3">
      <g>
       <use xlink:href="#m9315dfda49" x="205.434821" y="173.52" style="stroke: #000000; stroke-width: 0.8"/>
      </g>
     </g>
     <g id="text_3">
      <!-- 3 -->
      <g transform="translate(199.072321 195.716875) scale(0.2 -0.2)">
       <defs>
        <path id="DejaVuSans-33" d="M 2597 2516 
Q 3050 2419 3304 2112 
Q 3559 1806 3559 1356 
Q 3559 666 3084 287 
Q 2609 -91 1734 -91 
Q 1441 -91 1130 -33 
Q 819 25 488 141 
L 488 750 
Q 750 597 1062 519 
Q 1375 441 1716 441 
Q 2309 441 2620 675 
Q 2931 909 2931 1356 
Q 2931 1769 2642 2001 
Q 2353 2234 1838 2234 
L 1294 2234 
L 1294 2753 
L 1863 2753 
Q 2328 2753 2575 2939 
Q 2822 3125 2822 3475 
Q 2822 3834 2567 4026 
Q 2313 4219 1838 4219 
Q 1578 4219 1281 4162 
Q 984 4106 628 3988 
L 628 4550 
Q 988 4650 1302 4700 
Q 1616 4750 1894 4750 
Q 2613 4750 3031 4423 
Q 3450 4097 3450 3541 
Q 3450 3153 3228 2886 
Q 3006 2619 2597 2516 
z
" transform="scale(0.015625)"/>
       </defs>
       <use xlink:href="#DejaVuSans-33"/>
      </g>
     </g>
    </g>
    <g id="xtick_4">
     <g id="line2d_4">
      <g>
       <use xlink:href="#m9315dfda49" x="258.577679" y="173.52" style="stroke: #000000; stroke-width: 0.8"/>
      </g>
     </g>
     <g id="text_4">
      <!-- 4 -->
      <g transform="translate(252.215179 195.716875) scale(0.2 -0.2)">
       <defs>
        <path id="DejaVuSans-34" d="M 2419 4116 
L 825 1625 
L 2419 1625 
L 2419 4116 
z
M 2253 4666 
L 3047 4666 
L 3047 1625 
L 3713 1625 
L 3713 1100 
L 3047 1100 
L 3047 0 
L 2419 0 
L 2419 1100 
L 313 1100 
L 313 1709 
L 2253 4666 
z
" transform="scale(0.015625)"/>
       </defs>
       <use xlink:href="#DejaVuSans-34"/>
      </g>
     </g>
    </g>
    <g id="xtick_5">
     <g id="line2d_5">
      <g>
       <use xlink:href="#m9315dfda49" x="311.720536" y="173.52" style="stroke: #000000; stroke-width: 0.8"/>
      </g>
     </g>
     <g id="text_5">
      <!-- 5 -->
      <g transform="translate(305.358036 195.716875) scale(0.2 -0.2)">
       <defs>
        <path id="DejaVuSans-35" d="M 691 4666 
L 3169 4666 
L 3169 4134 
L 1269 4134 
L 1269 2991 
Q 1406 3038 1543 3061 
Q 1681 3084 1819 3084 
Q 2600 3084 3056 2656 
Q 3513 2228 3513 1497 
Q 3513 744 3044 326 
Q 2575 -91 1722 -91 
Q 1428 -91 1123 -41 
Q 819 9 494 109 
L 494 744 
Q 775 591 1075 516 
Q 1375 441 1709 441 
Q 2250 441 2565 725 
Q 2881 1009 2881 1497 
Q 2881 1984 2565 2268 
Q 2250 2553 1709 2553 
Q 1456 2553 1204 2497 
Q 953 2441 691 2322 
L 691 4666 
z
" transform="scale(0.015625)"/>
       </defs>
       <use xlink:href="#DejaVuSans-35"/>
      </g>
     </g>
    </g>
    <g id="xtick_6">
     <g id="line2d_6">
      <g>
       <use xlink:href="#m9315dfda49" x="364.863393" y="173.52" style="stroke: #000000; stroke-width: 0.8"/>
      </g>
     </g>
     <g id="text_6">
      <!-- 6 -->
      <g transform="translate(358.500893 195.716875) scale(0.2 -0.2)">
       <defs>
        <path id="DejaVuSans-36" d="M 2113 2584 
Q 1688 2584 1439 2293 
Q 1191 2003 1191 1497 
Q 1191 994 1439 701 
Q 1688 409 2113 409 
Q 2538 409 2786 701 
Q 3034 994 3034 1497 
Q 3034 2003 2786 2293 
Q 2538 2584 2113 2584 
z
M 3366 4563 
L 3366 3988 
Q 3128 4100 2886 4159 
Q 2644 4219 2406 4219 
Q 1781 4219 1451 3797 
Q 1122 3375 1075 2522 
Q 1259 2794 1537 2939 
Q 1816 3084 2150 3084 
Q 2853 3084 3261 2657 
Q 3669 2231 3669 1497 
Q 3669 778 3244 343 
Q 2819 -91 2113 -91 
Q 1303 -91 875 529 
Q 447 1150 447 2328 
Q 447 3434 972 4092 
Q 1497 4750 2381 4750 
Q 2619 4750 2861 4703 
Q 3103 4656 3366 4563 
z
" transform="scale(0.015625)"/>
       </defs>
       <use xlink:href="#DejaVuSans-36"/>
      </g>
     </g>
    </g>
   </g>
   <g id="matplotlib.axis_2">
    <g id="ytick_1">
     <g id="line2d_7">
      <defs>
       <path id="m54ede7f38d" d="M 0 0 
L -3.5 0 
" style="stroke: #000000; stroke-width: 0.8"/>
      </defs>
      <g>
       <use xlink:href="#m54ede7f38d" x="46.00625" y="173.52" style="stroke: #000000; stroke-width: 0.8"/>
      </g>
     </g>
     <g id="text_7">
      <!-- 0 -->
      <g transform="translate(26.28125 181.118438) scale(0.2 -0.2)">
       <defs>
        <path id="DejaVuSans-30" d="M 2034 4250 
Q 1547 4250 1301 3770 
Q 1056 3291 1056 2328 
Q 1056 1369 1301 889 
Q 1547 409 2034 409 
Q 2525 409 2770 889 
Q 3016 1369 3016 2328 
Q 3016 3291 2770 3770 
Q 2525 4250 2034 4250 
z
M 2034 4750 
Q 2819 4750 3233 4129 
Q 3647 3509 3647 2328 
Q 3647 1150 3233 529 
Q 2819 -91 2034 -91 
Q 1250 -91 836 529 
Q 422 1150 422 2328 
Q 422 3509 836 4129 
Q 1250 4750 2034 4750 
z
" transform="scale(0.015625)"/>
       </defs>
       <use xlink:href="#DejaVuSans-30"/>
      </g>
     </g>
    </g>
    <g id="ytick_2">
     <g id="line2d_8">
      <g>
       <use xlink:href="#m54ede7f38d" x="46.00625" y="94.319987" style="stroke: #000000; stroke-width: 0.8"/>
      </g>
     </g>
     <g id="text_8">
      <!-- 0.5 -->
      <g transform="translate(7.2 101.918425) scale(0.2 -0.2)">
       <defs>
        <path id="DejaVuSans-2e" d="M 684 794 
L 1344 794 
L 1344 0 
L 684 0 
L 684 794 
z
" transform="scale(0.015625)"/>
       </defs>
       <use xlink:href="#DejaVuSans-30"/>
       <use xlink:href="#DejaVuSans-2e" transform="translate(63.623047 0)"/>
       <use xlink:href="#DejaVuSans-35" transform="translate(95.410156 0)"/>
      </g>
     </g>
    </g>
    <g id="ytick_3">
     <g id="line2d_9">
      <g>
       <use xlink:href="#m54ede7f38d" x="46.00625" y="15.119974" style="stroke: #000000; stroke-width: 0.8"/>
      </g>
     </g>
     <g id="text_9">
      <!-- 1 -->
      <g transform="translate(26.28125 22.718412) scale(0.2 -0.2)">
       <use xlink:href="#DejaVuSans-31"/>
      </g>
     </g>
    </g>
   </g>
   <g id="line2d_10">
    <path d="M 46.00625 15.119974 
L 471.149107 15.119974 
L 471.149107 15.119974 
" clip-path="url(#pc7fe0d4e60)" style="fill: none; stroke-dasharray: 14.8,6.4; stroke-dashoffset: 0; stroke: #000000; stroke-opacity: 0.5; stroke-width: 4"/>
   </g>
   <g id="patch_3">
    <path d="M 46.00625 173.52 
L 46.00625 7.2 
" style="fill: none; stroke: #000000; stroke-width: 0.8; stroke-linejoin: miter; stroke-linecap: square"/>
   </g>
   <g id="patch_4">
    <path d="M 46.00625 173.52 
L 492.40625 173.52 
" style="fill: none; stroke: #000000; stroke-width: 0.8; stroke-linejoin: miter; stroke-linecap: square"/>
   </g>
   <g id="line2d_11">
    <path d="M 46.00625 123.593388 
L 46.176341 124.495655 
L 46.516523 124.840213 
L 47.366979 125.125346 
L 50.938894 125.999707 
L 56.636948 127.148272 
L 64.801323 128.557591 
L 75.432021 130.159906 
L 88.614086 131.914935 
L 104.347518 133.778665 
L 122.632318 135.715335 
L 143.553531 137.703005 
L 167.196202 139.721506 
L 193.645378 141.752403 
L 222.986103 143.778944 
L 255.388469 145.791021 
L 291.022568 147.778066 
L 330.143535 149.733489 
L 372.921462 151.645667 
L 419.611485 153.506931 
L 470.553788 155.311944 
L 471.149107 155.331797 
L 471.149107 155.331797 
" clip-path="url(#pc7fe0d4e60)" style="fill: none; stroke: #ffb84a; stroke-width: 4; stroke-linecap: square"/>
   </g>
   <g id="PathCollection_1">
    <defs>
     <path id="m66ae90e0c1" d="M 0 7.071068 
C 1.875269 7.071068 3.673985 6.326016 5 5 
C 6.326016 3.673985 7.071068 1.875269 7.071068 0 
C 7.071068 -1.875269 6.326016 -3.673985 5 -5 
C 3.673985 -6.326016 1.875269 -7.071068 0 -7.071068 
C -1.875269 -7.071068 -3.673985 -6.326016 -5 -5 
C -6.326016 -3.673985 -7.071068 -1.875269 -7.071068 0 
C -7.071068 1.875269 -6.326016 3.673985 -5 5 
C -3.673985 6.326016 -1.875269 7.071068 0 7.071068 
z
" style="stroke: #ffb84a"/>
    </defs>
    <g clip-path="url(#pc7fe0d4e60)">
     <use xlink:href="#m66ae90e0c1" x="306.160681" y="148.556694" style="fill: #ffb84a; stroke: #ffb84a"/>
    </g>
   </g>
   <g id="line2d_12">
    <path d="M 46.00625 50.434539 
L 46.261387 52.36782 
L 46.686615 53.607577 
L 47.366979 54.782702 
L 48.727709 56.549604 
L 55.531355 64.691745 
L 59.443452 69.040741 
L 63.185457 72.865006 
L 67.097554 76.5382 
L 71.179742 80.066382 
L 75.602112 83.593129 
L 80.364665 87.103016 
L 85.467399 90.584444 
L 90.910317 94.027855 
L 96.778462 97.473095 
L 102.986789 100.857898 
L 109.620344 104.218127 
L 116.679127 107.539987 
L 124.163139 110.811586 
L 132.072378 114.022723 
L 140.406844 117.164704 
L 149.251585 120.258838 
L 158.606599 123.292713 
L 168.471886 126.255799 
L 178.847447 129.139256 
L 189.818327 131.956751 
L 201.469571 134.716774 
L 213.716135 137.387875 
L 226.728109 139.995645 
L 240.420447 142.511328 
L 254.963241 144.954666 
L 270.356491 147.312466 
L 286.600197 149.573977 
L 303.86445 151.75109 
L 322.14925 153.831295 
L 341.624688 155.821224 
L 362.37581 157.715545 
L 384.487661 159.508634 
L 408.130332 161.200658 
L 433.473915 162.789319 
L 460.773546 164.275022 
L 471.149107 164.785138 
L 471.149107 164.785138 
" clip-path="url(#pc7fe0d4e60)" style="fill: none; stroke: #ff8c00; stroke-width: 4; stroke-linecap: square"/>
   </g>
   <g id="PathCollection_2">
    <defs>
     <path id="mca9719c0d7" d="M 0 7.071068 
C 1.875269 7.071068 3.673985 6.326016 5 5 
C 6.326016 3.673985 7.071068 1.875269 7.071068 0 
C 7.071068 -1.875269 6.326016 -3.673985 5 -5 
C 3.673985 -6.326016 1.875269 -7.071068 0 -7.071068 
C -1.875269 -7.071068 -3.673985 -6.326016 -5 -5 
C -6.326016 -3.673985 -7.071068 -1.875269 -7.071068 0 
C -7.071068 1.875269 -6.326016 3.673985 -5 5 
C -3.673985 6.326016 -1.875269 7.071068 0 7.071068 
z
" style="stroke: #ff8c00"/>
    </defs>
    <g clip-path="url(#pc7fe0d4e60)">
     <use xlink:href="#mca9719c0d7" x="126.969643" y="111.97727" style="fill: #ff8c00; stroke: #ff8c00"/>
    </g>
   </g>
   <g id="line2d_13">
    <path d="M 46.00625 21.427105 
L 46.261387 23.540057 
L 46.686615 25.052099 
L 47.452025 26.794886 
L 49.408073 30.410229 
L 52.299623 35.948476 
L 55.956583 43.501529 
L 65.481688 63.357806 
L 69.563876 71.255178 
L 73.390927 78.182781 
L 77.132932 84.495816 
L 80.789892 90.233583 
L 84.446852 95.563695 
L 88.103812 100.51057 
L 91.845818 105.203484 
L 95.672869 109.64667 
L 99.584966 113.846764 
L 103.582108 117.812016 
L 107.664296 121.551689 
L 111.916575 125.144645 
L 116.2539 128.521174 
L 120.761315 131.751086 
L 125.438822 134.831343 
L 130.28642 137.760558 
L 135.389155 140.583746 
L 140.747027 143.29031 
L 146.360035 145.872176 
L 152.22818 148.323525 
L 158.351462 150.640524 
L 164.814926 152.848655 
L 171.703618 154.963648 
L 178.932492 156.949027 
L 186.67164 158.840371 
L 194.836016 160.605087 
L 203.595711 162.268392 
L 212.950725 163.816011 
L 222.986103 165.249242 
L 233.871937 166.576175 
L 245.693273 167.789124 
L 258.620201 168.887399 
L 272.822813 169.866719 
L 288.641291 170.729858 
L 306.415818 171.472753 
L 326.826757 172.098398 
L 350.894656 172.607127 
L 380.405473 172.999544 
L 419.016166 173.27765 
L 471.149107 173.437414 
L 471.149107 173.437414 
" clip-path="url(#pc7fe0d4e60)" style="fill: none; stroke: #8b4513; stroke-width: 4; stroke-linecap: square"/>
   </g>
   <g id="PathCollection_3">
    <defs>
     <path id="mdb3566d3e8" d="M 0 7.071068 
C 1.875269 7.071068 3.673985 6.326016 5 5 
C 6.326016 3.673985 7.071068 1.875269 7.071068 0 
C 7.071068 -1.875269 6.326016 -3.673985 5 -5 
C 3.673985 -6.326016 1.875269 -7.071068 0 -7.071068 
C -1.875269 -7.071068 -3.673985 -6.326016 -5 -5 
C -6.326016 -3.673985 -7.071068 -1.875269 -7.071068 0 
C -7.071068 1.875269 -6.326016 3.673985 -5 5 
C -3.673985 6.326016 -1.875269 7.071068 0 7.071068 
z
" style="stroke: #8b4513"/>
    </defs>
    <g clip-path="url(#pc7fe0d4e60)">
     <use xlink:href="#mdb3566d3e8" x="85.892627" y="97.473553" style="fill: #8b4513; stroke: #8b4513"/>
    </g>
   </g>
   <g id="line2d_14">
    <path d="M 46.00625 15.234564 
L 46.261387 17.369704 
L 46.686615 18.916918 
L 47.452025 20.721174 
L 49.578164 24.84354 
L 52.129532 30.04627 
L 55.191173 36.837156 
L 60.889227 50.151675 
L 66.842417 63.84422 
L 71.094696 73.078561 
L 75.006793 81.05684 
L 78.748799 88.193534 
L 82.405758 94.697972 
L 86.062718 100.748838 
L 89.719678 106.36488 
L 93.376638 111.569028 
L 97.033598 116.386159 
L 100.690558 120.841678 
L 104.432564 125.052609 
L 108.259615 129.021668 
L 112.171712 132.753191 
L 116.168854 136.252794 
L 120.251042 139.527097 
L 124.418275 142.583491 
L 128.670554 145.429941 
L 133.092924 148.124238 
L 137.685386 150.661211 
L 142.447938 153.03774 
L 147.380582 155.252577 
L 152.568362 157.338483 
L 158.01128 159.286651 
L 163.794379 161.116425 
L 169.832615 162.793064 
L 176.296079 164.354888 
L 183.184771 165.788002 
L 190.583737 167.097184 
L 198.578021 168.282576 
L 207.252671 169.341562 
L 216.777776 170.278073 
L 227.408473 171.095881 
L 239.3999 171.790786 
L 253.26233 172.365477 
L 269.761172 172.819603 
L 290.427248 173.155928 
L 318.662381 173.377774 
L 365.182314 173.49236 
L 471.149107 173.51946 
L 471.149107 173.51946 
" clip-path="url(#pc7fe0d4e60)" style="fill: none; stroke: #000000; stroke-width: 4; stroke-linecap: square"/>
   </g>
   <g id="PathCollection_4">
    <defs>
     <path id="m4f0ccf6fc6" d="M 0 7.071068 
C 1.875269 7.071068 3.673985 6.326016 5 5 
C 6.326016 3.673985 7.071068 1.875269 7.071068 0 
C 7.071068 -1.875269 6.326016 -3.673985 5 -5 
C 3.673985 -6.326016 1.875269 -7.071068 0 -7.071068 
C -1.875269 -7.071068 -3.673985 -6.326016 -5 -5 
C -6.326016 -3.673985 -7.071068 -1.875269 -7.071068 0 
C -7.071068 1.875269 -6.326016 3.673985 -5 5 
C -3.673985 6.326016 -1.875269 7.071068 0 7.071068 
z
" style="stroke: #000000"/>
    </defs>
    <g clip-path="url(#pc7fe0d4e60)">
     <use xlink:href="#m4f0ccf6fc6" x="82.235667" y="94.377282" style="stroke: #000000"/>
    </g>
   </g>
  </g>
 </g>
 <defs>
  <clipPath id="pc7fe0d4e60">
   <rect x="46.00625" y="7.2" width="446.4" height="166.32"/>
  </clipPath>
 </defs>
</svg>
