<?xml version="1.0" encoding="utf-8" standalone="no"?>
<!DOCTYPE svg PUBLIC "-//W3C//DTD SVG 1.1//EN"
  "http://www.w3.org/Graphics/SVG/1.1/DTD/svg11.dtd">
<svg xmlns:xlink="http://www.w3.org/1999/xlink" width="220.60625pt" height="207.07625pt" viewBox="0 0 220.60625 207.07625" xmlns="http://www.w3.org/2000/svg" version="1.1">
 <metadata>
  <rdf:RDF xmlns:dc="http://purl.org/dc/elements/1.1/" xmlns:cc="http://creativecommons.org/ns#" xmlns:rdf="http://www.w3.org/1999/02/22-rdf-syntax-ns#">
   <cc:Work>
    <dc:type rdf:resource="http://purl.org/dc/dcmitype/StillImage"/>
    <dc:date>2025-10-26T14:34:37.261599</dc:date>
    <dc:format>image/svg+xml</dc:format>
    <dc:creator>
     <cc:Agent>
      <dc:title>Matplotlib v3.10.6, https://matplotlib.org/</dc:title>
     </cc:Agent>
    </dc:creator>
   </cc:Work>
  </rdf:RDF>
 </metadata>
 <defs>
  <style type="text/css">*{stroke-linejoin: round; stroke-linecap: butt}</style>
 </defs>
 <g id="figure_1">
  <g id="patch_1">
   <path d="M 0 207.07625 
L 220.60625 207.07625 
L 220.60625 -0 
L 0 -0 
L 0 207.07625 
z
" style="fill: none"/>
  </g>
  <g id="axes_1">
   <g id="patch_2">
    <path d="M 46.00625 173.52 
L 213.40625 173.52 
L 213.40625 7.2 
L 46.00625 7.2 
L 46.00625 173.52 
z
" style="fill: none"/>
   </g>
   <g id="matplotlib.axis_1">
    <g id="xtick_1">
     <g id="line2d_1">
      <defs>
       <path id="mb8467801c7" d="M 0 0 
L 0 3.5 
" style="stroke: #000000; stroke-width: 0.8"/>
      </defs>
      <g>
       <use xlink:href="#mb8467801c7" x="85.863393" y="173.52" style="stroke: #000000; stroke-width: 0.8"/>
      </g>
     </g>
     <g id="text_1">
      <!-- 50 -->
      <g transform="translate(73.138393 195.716875) scale(0.2 -0.2)">
       <defs>
        <path id="DejaVuSans-35" d="M 691 4666 
L 3169 4666 
L 3169 4134 
L 1269 4134 
L 1269 2991 
Q 1406 3038 1543 3061 
Q 1681 3084 1819 3084 
Q 2600 3084 3056 2656 
Q 3513 2228 3513 1497 
Q 3513 744 3044 326 
Q 2575 -91 1722 -91 
Q 1428 -91 1123 -41 
Q 819 9 494 109 
L 494 744 
Q 775 591 1075 516 
Q 1375 441 1709 441 
Q 2250 441 2565 725 
Q 2881 1009 2881 1497 
Q 2881 1984 2565 2268 
Q 2250 2553 1709 2553 
Q 1456 2553 1204 2497 
Q 953 2441 691 2322 
L 691 4666 
z
" transform="scale(0.015625)"/>
        <path id="DejaVuSans-30" d="M 2034 4250 
Q 1547 4250 1301 3770 
Q 1056 3291 1056 2328 
Q 1056 1369 1301 889 
Q 1547 409 2034 409 
Q 2525 409 2770 889 
Q 3016 1369 3016 2328 
Q 3016 3291 2770 3770 
Q 2525 4250 2034 4250 
z
M 2034 4750 
Q 2819 4750 3233 4129 
Q 3647 3509 3647 2328 
Q 3647 1150 3233 529 
Q 2819 -91 2034 -91 
Q 1250 -91 836 529 
Q 422 1150 422 2328 
Q 422 3509 836 4129 
Q 1250 4750 2034 4750 
z
" transform="scale(0.015625)"/>
       </defs>
       <use xlink:href="#DejaVuSans-35"/>
       <use xlink:href="#DejaVuSans-30" transform="translate(63.623047 0)"/>
      </g>
     </g>
    </g>
    <g id="xtick_2">
     <g id="line2d_2">
      <g>
       <use xlink:href="#mb8467801c7" x="125.720536" y="173.52" style="stroke: #000000; stroke-width: 0.8"/>
      </g>
     </g>
     <g id="text_2">
      <!-- 100 -->
      <g transform="translate(106.633036 195.716875) scale(0.2 -0.2)">
       <defs>
        <path id="DejaVuSans-31" d="M 794 531 
L 1825 531 
L 1825 4091 
L 703 3866 
L 703 4441 
L 1819 4666 
L 2450 4666 
L 2450 531 
L 3481 531 
L 3481 0 
L 794 0 
L 794 531 
z
" transform="scale(0.015625)"/>
       </defs>
       <use xlink:href="#DejaVuSans-31"/>
       <use xlink:href="#DejaVuSans-30" transform="translate(63.623047 0)"/>
       <use xlink:href="#DejaVuSans-30" transform="translate(127.246094 0)"/>
      </g>
     </g>
    </g>
   </g>
   <g id="matplotlib.axis_2">
    <g id="ytick_1">
     <g id="line2d_3">
      <defs>
       <path id="m22911f7ed3" d="M 0 0 
L -3.5 0 
" style="stroke: #000000; stroke-width: 0.8"/>
      </defs>
      <g>
       <use xlink:href="#m22911f7ed3" x="46.00625" y="172.583584" style="stroke: #000000; stroke-width: 0.8"/>
      </g>
     </g>
     <g id="text_3">
      <!-- 0 -->
      <g transform="translate(26.28125 180.182022) scale(0.2 -0.2)">
       <use xlink:href="#DejaVuSans-30"/>
      </g>
     </g>
    </g>
    <g id="ytick_2">
     <g id="line2d_4">
      <g>
       <use xlink:href="#m22911f7ed3" x="46.00625" y="125.762799" style="stroke: #000000; stroke-width: 0.8"/>
      </g>
     </g>
     <g id="text_4">
      <!-- .05 -->
      <g transform="translate(7.2 133.361236) scale(0.2 -0.2)">
       <defs>
        <path id="DejaVuSans-2e" d="M 684 794 
L 1344 794 
L 1344 0 
L 684 0 
L 684 794 
z
" transform="scale(0.015625)"/>
       </defs>
       <use xlink:href="#DejaVuSans-2e"/>
       <use xlink:href="#DejaVuSans-30" transform="translate(31.787109 0)"/>
       <use xlink:href="#DejaVuSans-35" transform="translate(95.410156 0)"/>
      </g>
     </g>
    </g>
    <g id="ytick_3">
     <g id="line2d_5">
      <g>
       <use xlink:href="#m22911f7ed3" x="46.00625" y="78.942013" style="stroke: #000000; stroke-width: 0.8"/>
      </g>
     </g>
     <g id="text_5">
      <!-- .1 -->
      <g transform="translate(19.925 86.540451) scale(0.2 -0.2)">
       <use xlink:href="#DejaVuSans-2e"/>
       <use xlink:href="#DejaVuSans-31" transform="translate(31.787109 0)"/>
      </g>
     </g>
    </g>
    <g id="ytick_4">
     <g id="line2d_6">
      <g>
       <use xlink:href="#m22911f7ed3" x="46.00625" y="32.121228" style="stroke: #000000; stroke-width: 0.8"/>
      </g>
     </g>
     <g id="text_6">
      <!-- .15 -->
      <g transform="translate(7.2 39.719666) scale(0.2 -0.2)">
       <use xlink:href="#DejaVuSans-2e"/>
       <use xlink:href="#DejaVuSans-31" transform="translate(31.787109 0)"/>
       <use xlink:href="#DejaVuSans-35" transform="translate(95.410156 0)"/>
      </g>
     </g>
    </g>
   </g>
   <g id="line2d_7">
    <path d="M 46.00625 162.97119 
L 47.61664 157.977105 
L 49.227029 153.130245 
L 50.837419 148.48335 
L 52.447808 144.035344 
L 54.058198 139.775823 
L 55.668588 135.692765 
L 57.278977 131.774533 
L 58.889367 128.010409 
L 60.499756 124.390673 
L 62.110146 120.90654 
L 63.720536 117.550064 
L 65.330925 114.314036 
L 66.941315 111.191894 
L 68.551705 108.177642 
L 70.162094 105.265781 
L 71.772484 102.45125 
L 73.382873 99.729376 
L 74.993263 97.095832 
L 76.603653 94.5466 
L 78.214042 92.077939 
L 79.824432 89.686357 
L 81.434821 87.368589 
L 83.045211 85.121573 
L 84.655601 82.942438 
L 86.26599 80.828481 
L 87.87638 78.777155 
L 89.486769 76.786059 
L 91.097159 74.852922 
L 92.707549 72.975598 
L 94.317938 71.152054 
L 95.928328 69.380359 
L 97.538718 67.658685 
L 99.149107 65.985291 
L 100.759497 64.358522 
L 102.369886 62.776803 
L 103.980276 61.238632 
L 105.590666 59.742577 
L 107.201055 58.287272 
L 108.811445 56.871411 
L 110.421834 55.493747 
L 112.032224 54.153085 
L 113.642614 52.848283 
L 115.253003 51.578246 
L 116.863393 50.341925 
L 118.473782 49.138313 
L 120.084172 47.966445 
L 121.694562 46.825393 
L 123.304951 45.714265 
L 124.915341 44.632206 
L 126.525731 43.57839 
L 128.13612 42.552025 
L 129.74651 41.552346 
L 131.356899 40.578618 
L 132.967289 39.630132 
L 134.577679 38.706204 
L 136.188068 37.806174 
L 137.798458 36.929404 
L 139.408847 36.075281 
L 141.019237 35.243209 
L 142.629627 34.432615 
L 144.240016 33.642944 
L 145.850406 32.87366 
L 147.460795 32.124242 
L 149.071185 31.394188 
L 150.681575 30.683012 
L 152.291964 29.990242 
L 153.902354 29.315423 
L 155.512744 28.65811 
L 157.123133 28.017876 
L 158.733523 27.394305 
L 160.343912 26.786994 
L 161.954302 26.19555 
L 163.564692 25.619594 
L 165.175081 25.058758 
L 166.785471 24.512684 
L 168.39586 23.981024 
L 170.00625 23.46344 
L 171.61664 22.959604 
L 173.227029 22.469197 
L 174.837419 21.99191 
L 176.447808 21.52744 
L 178.058198 21.075496 
L 179.668588 20.635791 
L 181.278977 20.208049 
L 182.889367 19.791999 
L 184.499756 19.38738 
L 186.110146 18.993934 
L 187.720536 18.611414 
L 189.330925 18.239578 
L 190.941315 17.878188 
L 192.551705 17.527016 
L 194.162094 17.185837 
L 195.772484 16.854433 
L 197.382873 16.532592 
L 198.993263 16.220106 
L 200.603653 15.916774 
L 202.214042 15.622397 
L 203.824432 15.336785 
L 205.434821 15.05975 
" clip-path="url(#p154e4fcaab)" style="fill: none; stroke: #db7093; stroke-width: 4; stroke-linecap: square"/>
   </g>
   <g id="line2d_8">
    <path d="M 46.00625 164.117014 
L 47.61664 161.300062 
L 49.227029 158.870312 
L 50.837419 156.834144 
L 52.447808 155.122138 
L 54.058198 153.676073 
L 55.668588 152.449992 
L 57.278977 151.407625 
L 58.889367 150.520047 
L 60.499756 149.763906 
L 62.110146 149.12013 
L 63.720536 148.572983 
L 65.330925 148.109357 
L 66.941315 147.718245 
L 68.551705 147.39034 
L 70.162094 147.117718 
L 71.772484 146.893593 
L 73.382873 146.712128 
L 74.993263 146.568274 
L 76.603653 146.457647 
L 78.214042 146.376427 
L 79.824432 146.321271 
L 81.434821 146.289246 
L 83.045211 146.27777 
L 84.655601 146.284564 
L 86.26599 146.307613 
L 87.87638 146.345127 
L 89.486769 146.395517 
L 91.097159 146.457368 
L 92.707549 146.529418 
L 94.317938 146.610536 
L 95.928328 146.699713 
L 97.538718 146.796043 
L 99.149107 146.898713 
L 100.759497 147.006991 
L 102.369886 147.120219 
L 103.980276 147.237806 
L 105.590666 147.359217 
L 107.201055 147.483969 
L 108.811445 147.611627 
L 110.421834 147.741798 
L 112.032224 147.874124 
L 113.642614 148.008285 
L 115.253003 148.143988 
L 116.863393 148.280969 
L 118.473782 148.418989 
L 120.084172 148.557832 
L 121.694562 148.697299 
L 123.304951 148.837214 
L 124.915341 148.977416 
L 126.525731 149.117757 
L 128.13612 149.258106 
L 129.74651 149.398343 
L 131.356899 149.538359 
L 132.967289 149.678057 
L 134.577679 149.817347 
L 136.188068 149.956151 
L 137.798458 150.094395 
L 139.408847 150.232015 
L 141.019237 150.368953 
L 142.629627 150.505156 
L 144.240016 150.640578 
L 145.850406 150.775176 
L 147.460795 150.908914 
L 149.071185 151.041758 
L 150.681575 151.173678 
L 152.291964 151.304651 
L 153.902354 151.434652 
L 155.512744 151.563662 
L 157.123133 151.691665 
L 158.733523 151.818646 
L 160.343912 151.944592 
L 161.954302 152.069495 
L 163.564692 152.193344 
L 165.175081 152.316135 
L 166.785471 152.437862 
L 168.39586 152.558522 
L 170.00625 152.678112 
L 171.61664 152.796632 
L 173.227029 152.914082 
L 174.837419 153.030462 
L 176.447808 153.145776 
L 178.058198 153.260026 
L 179.668588 153.373215 
L 181.278977 153.485348 
L 182.889367 153.596431 
L 184.499756 153.706468 
L 186.110146 153.815465 
L 187.720536 153.92343 
L 189.330925 154.030369 
L 190.941315 154.136289 
L 192.551705 154.241198 
L 194.162094 154.345104 
L 195.772484 154.448015 
L 197.382873 154.549939 
L 198.993263 154.650886 
L 200.603653 154.750864 
L 202.214042 154.849882 
L 203.824432 154.947948 
L 205.434821 155.045073 
" clip-path="url(#p154e4fcaab)" style="fill: none; stroke: #ff69b4; stroke-width: 4; stroke-linecap: square"/>
   </g>
   <g id="line2d_9">
    <path d="M 46.00625 167.441942 
L 47.61664 168.469176 
L 49.227029 168.920175 
L 50.837419 169.261651 
L 52.447808 169.54213 
L 54.058198 169.779121 
L 55.668588 169.982485 
L 57.278977 170.158939 
L 58.889367 170.313437 
L 60.499756 170.449774 
L 62.110146 170.570922 
L 63.720536 170.679248 
L 65.330925 170.776655 
L 66.941315 170.864694 
L 68.551705 170.944639 
L 70.162094 171.017545 
L 71.772484 171.084293 
L 73.382873 171.145626 
L 74.993263 171.202171 
L 76.603653 171.254465 
L 78.214042 171.302966 
L 79.824432 171.34807 
L 81.434821 171.390119 
L 83.045211 171.429413 
L 84.655601 171.466213 
L 86.26599 171.500747 
L 87.87638 171.533218 
L 89.486769 171.563805 
L 91.097159 171.592666 
L 92.707549 171.619943 
L 94.317938 171.645763 
L 95.928328 171.670238 
L 97.538718 171.693472 
L 99.149107 171.715555 
L 100.759497 171.736572 
L 102.369886 171.756597 
L 103.980276 171.775699 
L 105.590666 171.793939 
L 107.201055 171.811376 
L 108.811445 171.828061 
L 110.421834 171.844041 
L 112.032224 171.85936 
L 113.642614 171.874058 
L 115.253003 171.888172 
L 116.863393 171.901737 
L 118.473782 171.914783 
L 120.084172 171.927339 
L 121.694562 171.939434 
L 123.304951 171.951091 
L 124.915341 171.962334 
L 126.525731 171.973185 
L 128.13612 171.983664 
L 129.74651 171.99379 
L 131.356899 172.003579 
L 132.967289 172.013049 
L 134.577679 172.022216 
L 136.188068 172.031092 
L 137.798458 172.039693 
L 139.408847 172.04803 
L 141.019237 172.056115 
L 142.629627 172.06396 
L 144.240016 172.071576 
L 145.850406 172.078971 
L 147.460795 172.086156 
L 149.071185 172.09314 
L 150.681575 172.09993 
L 152.291964 172.106535 
L 153.902354 172.112962 
L 155.512744 172.119218 
L 157.123133 172.12531 
L 158.733523 172.131245 
L 160.343912 172.137028 
L 161.954302 172.142665 
L 163.564692 172.148161 
L 165.175081 172.153522 
L 166.785471 172.158753 
L 168.39586 172.163858 
L 170.00625 172.168842 
L 171.61664 172.173709 
L 173.227029 172.178464 
L 174.837419 172.183109 
L 176.447808 172.187649 
L 178.058198 172.192087 
L 179.668588 172.196427 
L 181.278977 172.200672 
L 182.889367 172.204824 
L 184.499756 172.208888 
L 186.110146 172.212866 
L 187.720536 172.216759 
L 189.330925 172.220572 
L 190.941315 172.224307 
L 192.551705 172.227965 
L 194.162094 172.23155 
L 195.772484 172.235063 
L 197.382873 172.238507 
L 198.993263 172.241884 
L 200.603653 172.245195 
L 202.214042 172.248442 
L 203.824432 172.251628 
L 205.434821 172.254754 
" clip-path="url(#p154e4fcaab)" style="fill: none; stroke: #ffc0cb; stroke-width: 4; stroke-linecap: square"/>
   </g>
   <g id="patch_3">
    <path d="M 46.00625 173.52 
L 46.00625 7.2 
" style="fill: none; stroke: #000000; stroke-width: 0.8; stroke-linejoin: miter; stroke-linecap: square"/>
   </g>
   <g id="patch_4">
    <path d="M 46.00625 173.52 
L 213.40625 173.52 
" style="fill: none; stroke: #000000; stroke-width: 0.8; stroke-linejoin: miter; stroke-linecap: square"/>
   </g>
  </g>
 </g>
 <defs>
  <clipPath id="p154e4fcaab">
   <rect x="46.00625" y="7.2" width="167.4" height="166.32"/>
  </clipPath>
 </defs>
</svg>
