<?xml version="1.0" encoding="utf-8" standalone="no"?>
<!DOCTYPE svg PUBLIC "-//W3C//DTD SVG 1.1//EN"
  "http://www.w3.org/Graphics/SVG/1.1/DTD/svg11.dtd">
<svg xmlns:xlink="http://www.w3.org/1999/xlink" width="340.157813pt" height="213.493359pt" viewBox="0 0 340.157813 213.493359" xmlns="http://www.w3.org/2000/svg" version="1.1">
 <metadata>
  <rdf:RDF xmlns:dc="http://purl.org/dc/elements/1.1/" xmlns:cc="http://creativecommons.org/ns#" xmlns:rdf="http://www.w3.org/1999/02/22-rdf-syntax-ns#">
   <cc:Work>
    <dc:type rdf:resource="http://purl.org/dc/dcmitype/StillImage"/>
    <dc:date>2025-10-26T21:46:04.914239</dc:date>
    <dc:format>image/svg+xml</dc:format>
    <dc:creator>
     <cc:Agent>
      <dc:title>Matplotlib v3.10.6, https://matplotlib.org/</dc:title>
     </cc:Agent>
    </dc:creator>
   </cc:Work>
  </rdf:RDF>
 </metadata>
 <defs>
  <style type="text/css">*{stroke-linejoin: round; stroke-linecap: butt}</style>
 </defs>
 <g id="figure_1">
  <g id="patch_1">
   <path d="M 0 213.493359 
L 340.157813 213.493359 
L 340.157813 0 
L 0 0 
L 0 213.493359 
z
" style="fill: none"/>
  </g>
  <g id="axes_1">
   <g id="patch_2">
    <path d="M 53.957813 175.098047 
L 332.957812 175.098047 
L 332.957812 8.778047 
L 53.957813 8.778047 
L 53.957813 175.098047 
z
" style="fill: none"/>
   </g>
   <g id="FillBetweenPolyCollection_1">
    <defs>
     <path id="md5e0f0db59" d="M 53.957813 -38.395313 
L 53.957813 -196.795312 
L 114.951557 -196.795312 
L 114.951557 -38.395313 
L 114.951557 -38.395313 
L 53.957813 -38.395313 
z
" style="stroke: #bbd6ff; stroke-opacity: 0.25"/>
    </defs>
    <g clip-path="url(#p9c2c720cfd)">
     <use xlink:href="#md5e0f0db59" x="0" y="213.493359" style="fill: #bbd6ff; fill-opacity: 0.25; stroke: #bbd6ff; stroke-opacity: 0.25"/>
    </g>
   </g>
   <g id="matplotlib.axis_1">
    <g id="xtick_1">
     <g id="line2d_1">
      <defs>
       <path id="mfc670a7965" d="M 0 0 
L 0 3.5 
" style="stroke: #000000; stroke-width: 0.8"/>
      </defs>
      <g>
       <use xlink:href="#mfc670a7965" x="107.10067" y="175.098047" style="stroke: #000000; stroke-width: 0.8"/>
      </g>
     </g>
     <g id="text_1">
      <!-- 5 -->
      <g transform="translate(99.147545 201.094141) scale(0.25 -0.25)">
       <defs>
        <path id="DejaVuSans-35" d="M 691 4666 
L 3169 4666 
L 3169 4134 
L 1269 4134 
L 1269 2991 
Q 1406 3038 1543 3061 
Q 1681 3084 1819 3084 
Q 2600 3084 3056 2656 
Q 3513 2228 3513 1497 
Q 3513 744 3044 326 
Q 2575 -91 1722 -91 
Q 1428 -91 1123 -41 
Q 819 9 494 109 
L 494 744 
Q 775 591 1075 516 
Q 1375 441 1709 441 
Q 2250 441 2565 725 
Q 2881 1009 2881 1497 
Q 2881 1984 2565 2268 
Q 2250 2553 1709 2553 
Q 1456 2553 1204 2497 
Q 953 2441 691 2322 
L 691 4666 
z
" transform="scale(0.015625)"/>
       </defs>
       <use xlink:href="#DejaVuSans-35"/>
      </g>
     </g>
    </g>
    <g id="xtick_2">
     <g id="line2d_2">
      <g>
       <use xlink:href="#mfc670a7965" x="160.243527" y="175.098047" style="stroke: #000000; stroke-width: 0.8"/>
      </g>
     </g>
     <g id="text_2">
      <!-- 10 -->
      <g transform="translate(144.337277 201.094141) scale(0.25 -0.25)">
       <defs>
        <path id="DejaVuSans-31" d="M 794 531 
L 1825 531 
L 1825 4091 
L 703 3866 
L 703 4441 
L 1819 4666 
L 2450 4666 
L 2450 531 
L 3481 531 
L 3481 0 
L 794 0 
L 794 531 
z
" transform="scale(0.015625)"/>
        <path id="DejaVuSans-30" d="M 2034 4250 
Q 1547 4250 1301 3770 
Q 1056 3291 1056 2328 
Q 1056 1369 1301 889 
Q 1547 409 2034 409 
Q 2525 409 2770 889 
Q 3016 1369 3016 2328 
Q 3016 3291 2770 3770 
Q 2525 4250 2034 4250 
z
M 2034 4750 
Q 2819 4750 3233 4129 
Q 3647 3509 3647 2328 
Q 3647 1150 3233 529 
Q 2819 -91 2034 -91 
Q 1250 -91 836 529 
Q 422 1150 422 2328 
Q 422 3509 836 4129 
Q 1250 4750 2034 4750 
z
" transform="scale(0.015625)"/>
       </defs>
       <use xlink:href="#DejaVuSans-31"/>
       <use xlink:href="#DejaVuSans-30" transform="translate(63.623047 0)"/>
      </g>
     </g>
    </g>
    <g id="xtick_3">
     <g id="line2d_3">
      <g>
       <use xlink:href="#mfc670a7965" x="213.386384" y="175.098047" style="stroke: #000000; stroke-width: 0.8"/>
      </g>
     </g>
     <g id="text_3">
      <!-- 15 -->
      <g transform="translate(197.480134 201.094141) scale(0.25 -0.25)">
       <use xlink:href="#DejaVuSans-31"/>
       <use xlink:href="#DejaVuSans-35" transform="translate(63.623047 0)"/>
      </g>
     </g>
    </g>
   </g>
   <g id="matplotlib.axis_2">
    <g id="ytick_1">
     <g id="line2d_4">
      <defs>
       <path id="mee74862441" d="M 0 0 
L -3.5 0 
" style="stroke: #000000; stroke-width: 0.8"/>
      </defs>
      <g>
       <use xlink:href="#mee74862441" x="53.957813" y="175.098047" style="stroke: #000000; stroke-width: 0.8"/>
      </g>
     </g>
     <g id="text_4">
      <!-- 0 -->
      <g transform="translate(31.051563 184.596094) scale(0.25 -0.25)">
       <use xlink:href="#DejaVuSans-30"/>
      </g>
     </g>
    </g>
    <g id="ytick_2">
     <g id="line2d_5">
      <g>
       <use xlink:href="#mee74862441" x="53.957813" y="95.898047" style="stroke: #000000; stroke-width: 0.8"/>
      </g>
     </g>
     <g id="text_5">
      <!-- 0.5 -->
      <g transform="translate(7.2 105.396094) scale(0.25 -0.25)">
       <defs>
        <path id="DejaVuSans-2e" d="M 684 794 
L 1344 794 
L 1344 0 
L 684 0 
L 684 794 
z
" transform="scale(0.015625)"/>
       </defs>
       <use xlink:href="#DejaVuSans-30"/>
       <use xlink:href="#DejaVuSans-2e" transform="translate(63.623047 0)"/>
       <use xlink:href="#DejaVuSans-35" transform="translate(95.410156 0)"/>
      </g>
     </g>
    </g>
    <g id="ytick_3">
     <g id="line2d_6">
      <g>
       <use xlink:href="#mee74862441" x="53.957813" y="16.698047" style="stroke: #000000; stroke-width: 0.8"/>
      </g>
     </g>
     <g id="text_6">
      <!-- 1 -->
      <g transform="translate(31.051563 26.196094) scale(0.25 -0.25)">
       <use xlink:href="#DejaVuSans-31"/>
      </g>
     </g>
    </g>
   </g>
   <g id="line2d_7">
    <path d="M 53.957813 16.698047 
L 319.672098 16.698047 
L 319.672098 16.698047 
" clip-path="url(#p9c2c720cfd)" style="fill: none; stroke-dasharray: 14.8,6.4; stroke-dashoffset: 0; stroke: #808080; stroke-width: 4"/>
   </g>
   <g id="line2d_8">
    <path d="M 53.957813 175.098047 
L 55.29306 173.550529 
L 57.963556 167.913407 
L 61.969299 159.395253 
L 65.975042 151.404468 
L 69.980785 143.921504 
L 73.986528 136.914189 
L 77.992271 130.352291 
L 81.998014 124.207497 
L 86.003757 118.453294 
L 90.0095 113.064854 
L 94.015243 108.018927 
L 98.020986 103.293743 
L 102.026729 98.868912 
L 106.032472 94.725344 
L 110.038215 90.84516 
L 114.043958 87.211617 
L 118.049701 83.809039 
L 123.390691 79.606308 
L 128.731682 75.75594 
L 134.072673 72.228395 
L 139.413663 68.996605 
L 144.754654 66.035774 
L 150.095645 63.323184 
L 155.436635 60.838023 
L 160.777626 58.561222 
L 167.453864 55.981756 
L 174.130103 53.669728 
L 180.806341 51.597412 
L 187.482579 49.739953 
L 195.494065 47.763415 
L 203.505551 46.030166 
L 211.517037 44.51026 
L 220.863771 42.971828 
L 230.210505 41.651972 
L 240.892486 40.37158 
L 252.909715 39.175307 
L 266.262192 38.095286 
L 280.949916 37.150835 
L 296.972888 36.349466 
L 315.666355 35.645367 
L 319.672098 35.520573 
L 319.672098 35.520573 
" clip-path="url(#p9c2c720cfd)" style="fill: none; stroke: #ff0000; stroke-width: 4; stroke-linecap: square"/>
   </g>
   <g id="line2d_9">
    <path d="M 53.957813 175.098047 
L 55.29306 155.595068 
L 56.628308 152.089522 
L 57.963556 151.757498 
L 59.298803 152.048722 
L 71.316032 155.632781 
L 79.327518 157.680599 
L 87.339004 159.476354 
L 95.35049 161.051073 
L 104.697224 162.644985 
L 114.043958 164.012439 
L 124.725939 165.339007 
L 136.743168 166.578421 
L 148.760397 167.596192 
L 162.112874 168.515058 
L 178.135846 169.382486 
L 195.494065 170.09759 
L 216.858028 170.739454 
L 242.227734 171.260175 
L 272.93843 171.659546 
L 314.331108 171.960178 
L 319.672098 171.986131 
L 319.672098 171.986131 
" clip-path="url(#p9c2c720cfd)" style="fill: none; stroke: #ff8c00; stroke-width: 4; stroke-linecap: square"/>
   </g>
   <g id="line2d_10">
    <path d="M 53.957813 16.698047 
L 55.29306 37.748544 
L 56.628308 43.981517 
L 57.963556 47.223236 
L 60.634051 52.260805 
L 64.639794 59.175738 
L 68.645537 65.644533 
L 72.65128 71.702091 
L 76.657023 77.374603 
L 80.662766 82.686544 
L 84.668509 87.660834 
L 88.674252 92.318936 
L 92.679995 96.680948 
L 96.685738 100.76569 
L 100.691481 104.590788 
L 104.697224 108.172746 
L 108.702967 111.527018 
L 114.043958 115.670084 
L 119.384948 119.465788 
L 124.725939 122.943254 
L 130.06693 126.129163 
L 135.40792 129.047959 
L 140.748911 131.722039 
L 146.089902 134.171918 
L 151.430892 136.416396 
L 158.107131 138.959242 
L 164.783369 141.238446 
L 171.459607 143.281342 
L 178.135846 145.112431 
L 186.147332 147.060908 
L 194.158818 148.769551 
L 202.170304 150.267879 
L 211.517037 151.784469 
L 220.863771 153.085587 
L 231.545752 154.347802 
L 243.562981 155.527092 
L 256.915458 156.59178 
L 271.603182 157.522823 
L 287.626154 158.312815 
L 306.319622 159.006918 
L 319.672098 159.387436 
L 319.672098 159.387436 
" clip-path="url(#p9c2c720cfd)" style="fill: none; stroke: #39b54a; stroke-width: 4; stroke-linecap: square"/>
   </g>
   <g id="patch_3">
    <path d="M 53.957813 175.098047 
L 53.957813 8.778047 
" style="fill: none; stroke: #000000; stroke-width: 0.8; stroke-linejoin: miter; stroke-linecap: square"/>
   </g>
   <g id="patch_4">
    <path d="M 53.957813 175.098047 
L 332.957813 175.098047 
" style="fill: none; stroke: #000000; stroke-width: 0.8; stroke-linejoin: miter; stroke-linecap: square"/>
   </g>
  </g>
 </g>
 <defs>
  <clipPath id="p9c2c720cfd">
   <rect x="53.957813" y="8.778047" width="279" height="166.32"/>
  </clipPath>
 </defs>
</svg>
