<?xml version="1.0" encoding="utf-8" standalone="no"?>
<!DOCTYPE svg PUBLIC "-//W3C//DTD SVG 1.1//EN"
  "http://www.w3.org/Graphics/SVG/1.1/DTD/svg11.dtd">
<svg xmlns:xlink="http://www.w3.org/1999/xlink" width="332.20625pt" height="207.07625pt" viewBox="0 0 332.20625 207.07625" xmlns="http://www.w3.org/2000/svg" version="1.1">
 <metadata>
  <rdf:RDF xmlns:dc="http://purl.org/dc/elements/1.1/" xmlns:cc="http://creativecommons.org/ns#" xmlns:rdf="http://www.w3.org/1999/02/22-rdf-syntax-ns#">
   <cc:Work>
    <dc:type rdf:resource="http://purl.org/dc/dcmitype/StillImage"/>
    <dc:date>2025-10-29T16:05:23.457827</dc:date>
    <dc:format>image/svg+xml</dc:format>
    <dc:creator>
     <cc:Agent>
      <dc:title>Matplotlib v3.10.6, https://matplotlib.org/</dc:title>
     </cc:Agent>
    </dc:creator>
   </cc:Work>
  </rdf:RDF>
 </metadata>
 <defs>
  <style type="text/css">*{stroke-linejoin: round; stroke-linecap: butt}</style>
 </defs>
 <g id="figure_1">
  <g id="patch_1">
   <path d="M 0 207.07625 
L 332.20625 207.07625 
L 332.20625 0 
L 0 0 
L 0 207.07625 
z
" style="fill: none"/>
  </g>
  <g id="axes_1">
   <g id="patch_2">
    <path d="M 46.00625 173.52 
L 325.00625 173.52 
L 325.00625 7.2 
L 46.00625 7.2 
L 46.00625 173.52 
z
" style="fill: none"/>
   </g>
   <g id="matplotlib.axis_1">
    <g id="xtick_1">
     <g id="line2d_1">
      <defs>
       <path id="m573b396e00" d="M 0 0 
L 0 3.5 
" style="stroke: #000000; stroke-width: 0.8"/>
      </defs>
      <g>
       <use xlink:href="#m573b396e00" x="112.434821" y="173.52" style="stroke: #000000; stroke-width: 0.8"/>
      </g>
     </g>
     <g id="text_1">
      <!-- 25 -->
      <g transform="translate(99.709821 195.716875) scale(0.2 -0.2)">
       <defs>
        <path id="DejaVuSans-32" d="M 1228 531 
L 3431 531 
L 3431 0 
L 469 0 
L 469 531 
Q 828 903 1448 1529 
Q 2069 2156 2228 2338 
Q 2531 2678 2651 2914 
Q 2772 3150 2772 3378 
Q 2772 3750 2511 3984 
Q 2250 4219 1831 4219 
Q 1534 4219 1204 4116 
Q 875 4013 500 3803 
L 500 4441 
Q 881 4594 1212 4672 
Q 1544 4750 1819 4750 
Q 2544 4750 2975 4387 
Q 3406 4025 3406 3419 
Q 3406 3131 3298 2873 
Q 3191 2616 2906 2266 
Q 2828 2175 2409 1742 
Q 1991 1309 1228 531 
z
" transform="scale(0.015625)"/>
        <path id="DejaVuSans-35" d="M 691 4666 
L 3169 4666 
L 3169 4134 
L 1269 4134 
L 1269 2991 
Q 1406 3038 1543 3061 
Q 1681 3084 1819 3084 
Q 2600 3084 3056 2656 
Q 3513 2228 3513 1497 
Q 3513 744 3044 326 
Q 2575 -91 1722 -91 
Q 1428 -91 1123 -41 
Q 819 9 494 109 
L 494 744 
Q 775 591 1075 516 
Q 1375 441 1709 441 
Q 2250 441 2565 725 
Q 2881 1009 2881 1497 
Q 2881 1984 2565 2268 
Q 2250 2553 1709 2553 
Q 1456 2553 1204 2497 
Q 953 2441 691 2322 
L 691 4666 
z
" transform="scale(0.015625)"/>
       </defs>
       <use xlink:href="#DejaVuSans-32"/>
       <use xlink:href="#DejaVuSans-35" transform="translate(63.623047 0)"/>
      </g>
     </g>
    </g>
    <g id="xtick_2">
     <g id="line2d_2">
      <g>
       <use xlink:href="#m573b396e00" x="178.863393" y="173.52" style="stroke: #000000; stroke-width: 0.8"/>
      </g>
     </g>
     <g id="text_2">
      <!-- 50 -->
      <g transform="translate(166.138393 195.716875) scale(0.2 -0.2)">
       <defs>
        <path id="DejaVuSans-30" d="M 2034 4250 
Q 1547 4250 1301 3770 
Q 1056 3291 1056 2328 
Q 1056 1369 1301 889 
Q 1547 409 2034 409 
Q 2525 409 2770 889 
Q 3016 1369 3016 2328 
Q 3016 3291 2770 3770 
Q 2525 4250 2034 4250 
z
M 2034 4750 
Q 2819 4750 3233 4129 
Q 3647 3509 3647 2328 
Q 3647 1150 3233 529 
Q 2819 -91 2034 -91 
Q 1250 -91 836 529 
Q 422 1150 422 2328 
Q 422 3509 836 4129 
Q 1250 4750 2034 4750 
z
" transform="scale(0.015625)"/>
       </defs>
       <use xlink:href="#DejaVuSans-35"/>
       <use xlink:href="#DejaVuSans-30" transform="translate(63.623047 0)"/>
      </g>
     </g>
    </g>
    <g id="xtick_3">
     <g id="line2d_3">
      <g>
       <use xlink:href="#m573b396e00" x="245.291964" y="173.52" style="stroke: #000000; stroke-width: 0.8"/>
      </g>
     </g>
     <g id="text_3">
      <!-- 75 -->
      <g transform="translate(232.566964 195.716875) scale(0.2 -0.2)">
       <defs>
        <path id="DejaVuSans-37" d="M 525 4666 
L 3525 4666 
L 3525 4397 
L 1831 0 
L 1172 0 
L 2766 4134 
L 525 4134 
L 525 4666 
z
" transform="scale(0.015625)"/>
       </defs>
       <use xlink:href="#DejaVuSans-37"/>
       <use xlink:href="#DejaVuSans-35" transform="translate(63.623047 0)"/>
      </g>
     </g>
    </g>
   </g>
   <g id="matplotlib.axis_2">
    <g id="ytick_1">
     <g id="line2d_4">
      <defs>
       <path id="me1deb17935" d="M 0 0 
L -3.5 0 
" style="stroke: #000000; stroke-width: 0.8"/>
      </defs>
      <g>
       <use xlink:href="#me1deb17935" x="46.00625" y="173.52" style="stroke: #000000; stroke-width: 0.8"/>
      </g>
     </g>
     <g id="text_4">
      <!-- 0 -->
      <g transform="translate(26.28125 181.118438) scale(0.2 -0.2)">
       <use xlink:href="#DejaVuSans-30"/>
      </g>
     </g>
    </g>
    <g id="ytick_2">
     <g id="line2d_5">
      <g>
       <use xlink:href="#me1deb17935" x="46.00625" y="93.967148" style="stroke: #000000; stroke-width: 0.8"/>
      </g>
     </g>
     <g id="text_5">
      <!-- 0.5 -->
      <g transform="translate(7.2 101.565585) scale(0.2 -0.2)">
       <defs>
        <path id="DejaVuSans-2e" d="M 684 794 
L 1344 794 
L 1344 0 
L 684 0 
L 684 794 
z
" transform="scale(0.015625)"/>
       </defs>
       <use xlink:href="#DejaVuSans-30"/>
       <use xlink:href="#DejaVuSans-2e" transform="translate(63.623047 0)"/>
       <use xlink:href="#DejaVuSans-35" transform="translate(95.410156 0)"/>
      </g>
     </g>
    </g>
   </g>
   <g id="line2d_6">
    <path d="M 46.00625 15.421881 
L 52.819437 20.946859 
L 59.632624 24.113169 
L 66.44581 27.097519 
L 73.258997 30.028412 
L 80.072184 32.960504 
L 86.885371 35.919455 
L 93.698558 38.909915 
L 100.511745 41.923558 
L 107.324931 44.945794 
L 114.138118 47.960189 
L 120.951305 50.950946 
L 127.764492 53.904108 
L 134.577679 56.808003 
L 141.390865 59.65328 
L 148.204052 62.43274 
L 155.017239 65.141075 
L 161.830426 67.774593 
L 168.643613 70.330947 
L 175.456799 72.808889 
L 182.269986 75.208061 
L 189.083173 77.528815 
L 195.89636 79.772054 
L 202.709547 81.939114 
L 209.522734 84.031656 
L 216.33592 86.051581 
L 223.149107 88.000963 
L 229.962294 89.881992 
L 236.775481 91.69693 
L 243.588668 93.448075 
L 250.401854 95.137732 
L 257.215041 96.768196 
L 264.028228 98.341725 
L 270.841415 99.860538 
L 277.654602 101.326796 
L 284.467788 102.742602 
L 291.280975 104.10999 
L 298.094162 105.430927 
L 304.907349 106.707307 
L 311.720536 107.940952 
" clip-path="url(#p2b28b49405)" style="fill: none; stroke: #800000; stroke-width: 4; stroke-linecap: square"/>
   </g>
   <g id="line2d_7">
    <path d="M 46.00625 32.019833 
L 52.819437 53.254919 
L 59.632624 64.485964 
L 66.44581 73.375435 
L 73.258997 80.928207 
L 80.072184 87.538909 
L 86.885371 93.418721 
L 93.698558 98.698206 
L 100.511745 103.466634 
L 107.324931 107.790397 
L 114.138118 111.722242 
L 120.951305 115.306049 
L 127.764492 118.57939 
L 134.577679 121.574979 
L 141.390865 124.32157 
L 148.204052 126.844559 
L 155.017239 129.166439 
L 161.830426 131.307162 
L 168.643613 133.284443 
L 175.456799 135.11403 
L 182.269986 136.809933 
L 189.083173 138.384627 
L 195.89636 139.849236 
L 202.709547 141.213691 
L 209.522734 142.486869 
L 216.33592 143.676718 
L 223.149107 144.790361 
L 229.962294 145.834199 
L 236.775481 146.813987 
L 243.588668 147.73491 
L 250.401854 148.601646 
L 257.215041 149.418425 
L 264.028228 150.189076 
L 270.841415 150.917071 
L 277.654602 151.605563 
L 284.467788 152.257422 
L 291.280975 152.87526 
L 298.094162 153.461464 
L 304.907349 154.018213 
L 311.720536 154.547502 
" clip-path="url(#p2b28b49405)" style="fill: none; stroke: #dc143c; stroke-width: 4; stroke-linecap: square"/>
   </g>
   <g id="line2d_8">
    <path d="M 46.00625 14.563141 
L 52.819437 16.422243 
L 59.632624 20.664071 
L 66.44581 28.125673 
L 73.258997 38.408553 
L 80.072184 50.201255 
L 86.885371 62.150517 
L 93.698558 73.40314 
L 100.511745 83.577521 
L 107.324931 92.58175 
L 114.138118 100.468692 
L 120.951305 107.350567 
L 127.764492 113.355022 
L 134.577679 118.604857 
L 141.390865 123.210001 
L 148.204052 127.265426 
L 155.017239 130.851703 
L 161.830426 134.036584 
L 168.643613 136.876848 
L 175.456799 139.420065 
L 182.269986 141.706154 
L 189.083173 143.768715 
L 195.89636 145.636125 
L 202.709547 147.332448 
L 209.522734 148.878175 
L 216.33592 150.290825 
L 223.149107 151.585445 
L 229.962294 152.775006 
L 236.775481 153.87074 
L 243.588668 154.882407 
L 250.401854 155.818521 
L 257.215041 156.686536 
L 264.028228 157.493002 
L 270.841415 158.243692 
L 277.654602 158.943709 
L 284.467788 159.597581 
L 291.280975 160.209335 
L 298.094162 160.782564 
L 304.907349 161.320481 
L 311.720536 161.825966 
" clip-path="url(#p2b28b49405)" style="fill: none; stroke: #ff6347; stroke-width: 4; stroke-linecap: square"/>
   </g>
   <g id="patch_3">
    <path d="M 46.00625 173.52 
L 46.00625 7.2 
" style="fill: none; stroke: #000000; stroke-width: 0.8; stroke-linejoin: miter; stroke-linecap: square"/>
   </g>
   <g id="patch_4">
    <path d="M 46.00625 173.52 
L 325.00625 173.52 
" style="fill: none; stroke: #000000; stroke-width: 0.8; stroke-linejoin: miter; stroke-linecap: square"/>
   </g>
  </g>
 </g>
 <defs>
  <clipPath id="p2b28b49405">
   <rect x="46.00625" y="7.2" width="279" height="166.32"/>
  </clipPath>
 </defs>
</svg>
