<?xml version="1.0" encoding="utf-8" standalone="no"?>
<!DOCTYPE svg PUBLIC "-//W3C//DTD SVG 1.1//EN"
  "http://www.w3.org/Graphics/SVG/1.1/DTD/svg11.dtd">
<svg xmlns:xlink="http://www.w3.org/1999/xlink" width="316.30625pt" height="267.355312pt" viewBox="0 0 316.30625 267.355312" xmlns="http://www.w3.org/2000/svg" version="1.1">
 <metadata>
  <rdf:RDF xmlns:dc="http://purl.org/dc/elements/1.1/" xmlns:cc="http://creativecommons.org/ns#" xmlns:rdf="http://www.w3.org/1999/02/22-rdf-syntax-ns#">
   <cc:Work>
    <dc:type rdf:resource="http://purl.org/dc/dcmitype/StillImage"/>
    <dc:date>2025-10-29T15:18:08.484425</dc:date>
    <dc:format>image/svg+xml</dc:format>
    <dc:creator>
     <cc:Agent>
      <dc:title>Matplotlib v3.10.6, https://matplotlib.org/</dc:title>
     </cc:Agent>
    </dc:creator>
   </cc:Work>
  </rdf:RDF>
 </metadata>
 <defs>
  <style type="text/css">*{stroke-linejoin: round; stroke-linecap: butt}</style>
 </defs>
 <g id="figure_1">
  <g id="patch_1">
   <path d="M 0 267.355312 
L 316.30625 267.355312 
L 316.30625 0 
L 0 0 
L 0 267.355312 
z
" style="fill: none"/>
  </g>
  <g id="axes_1">
   <g id="patch_2">
    <path d="M 30.10625 112.8 
L 309.10625 112.8 
L 309.10625 7.2 
L 30.10625 7.2 
L 30.10625 112.8 
z
" style="fill: none"/>
   </g>
   <g id="matplotlib.axis_1">
    <g id="xtick_1">
     <g id="line2d_1">
      <defs>
       <path id="mf7f0926410" d="M 0 0 
L 0 3.5 
" style="stroke: #000000; stroke-width: 0.8"/>
      </defs>
      <g>
       <use xlink:href="#mf7f0926410" x="104.50625" y="112.8" style="stroke: #000000; stroke-width: 0.8"/>
      </g>
     </g>
    </g>
    <g id="xtick_2">
     <g id="line2d_2">
      <g>
       <use xlink:href="#mf7f0926410" x="178.90625" y="112.8" style="stroke: #000000; stroke-width: 0.8"/>
      </g>
     </g>
    </g>
   </g>
   <g id="matplotlib.axis_2">
    <g id="ytick_1">
     <g id="line2d_3">
      <defs>
       <path id="m48802345b3" d="M 0 0 
L -3.5 0 
" style="stroke: #000000; stroke-width: 0.8"/>
      </defs>
      <g>
       <use xlink:href="#m48802345b3" x="30.10625" y="110.729412" style="stroke: #000000; stroke-width: 0.8"/>
      </g>
     </g>
     <g id="text_1">
      <!-- 0 -->
      <g transform="translate(7.2 120.227459) scale(0.25 -0.25)">
       <defs>
        <path id="DejaVuSans-30" d="M 2034 4250 
Q 1547 4250 1301 3770 
Q 1056 3291 1056 2328 
Q 1056 1369 1301 889 
Q 1547 409 2034 409 
Q 2525 409 2770 889 
Q 3016 1369 3016 2328 
Q 3016 3291 2770 3770 
Q 2525 4250 2034 4250 
z
M 2034 4750 
Q 2819 4750 3233 4129 
Q 3647 3509 3647 2328 
Q 3647 1150 3233 529 
Q 2819 -91 2034 -91 
Q 1250 -91 836 529 
Q 422 1150 422 2328 
Q 422 3509 836 4129 
Q 1250 4750 2034 4750 
z
" transform="scale(0.015625)"/>
       </defs>
       <use xlink:href="#DejaVuSans-30"/>
      </g>
     </g>
    </g>
    <g id="ytick_2">
     <g id="line2d_4">
      <g>
       <use xlink:href="#m48802345b3" x="30.10625" y="69.317647" style="stroke: #000000; stroke-width: 0.8"/>
      </g>
     </g>
     <g id="text_2">
      <!-- 2 -->
      <g transform="translate(7.2 78.815694) scale(0.25 -0.25)">
       <defs>
        <path id="DejaVuSans-32" d="M 1228 531 
L 3431 531 
L 3431 0 
L 469 0 
L 469 531 
Q 828 903 1448 1529 
Q 2069 2156 2228 2338 
Q 2531 2678 2651 2914 
Q 2772 3150 2772 3378 
Q 2772 3750 2511 3984 
Q 2250 4219 1831 4219 
Q 1534 4219 1204 4116 
Q 875 4013 500 3803 
L 500 4441 
Q 881 4594 1212 4672 
Q 1544 4750 1819 4750 
Q 2544 4750 2975 4387 
Q 3406 4025 3406 3419 
Q 3406 3131 3298 2873 
Q 3191 2616 2906 2266 
Q 2828 2175 2409 1742 
Q 1991 1309 1228 531 
z
" transform="scale(0.015625)"/>
       </defs>
       <use xlink:href="#DejaVuSans-32"/>
      </g>
     </g>
    </g>
    <g id="ytick_3">
     <g id="line2d_5">
      <g>
       <use xlink:href="#m48802345b3" x="30.10625" y="27.905882" style="stroke: #000000; stroke-width: 0.8"/>
      </g>
     </g>
     <g id="text_3">
      <!-- 4 -->
      <g transform="translate(7.2 37.403929) scale(0.25 -0.25)">
       <defs>
        <path id="DejaVuSans-34" d="M 2419 4116 
L 825 1625 
L 2419 1625 
L 2419 4116 
z
M 2253 4666 
L 3047 4666 
L 3047 1625 
L 3713 1625 
L 3713 1100 
L 3047 1100 
L 3047 0 
L 2419 0 
L 2419 1100 
L 313 1100 
L 313 1709 
L 2253 4666 
z
" transform="scale(0.015625)"/>
       </defs>
       <use xlink:href="#DejaVuSans-34"/>
      </g>
     </g>
    </g>
   </g>
   <g id="line2d_6">
    <path d="M 30.10625 110.729412 
L 32.706493 110.729412 
L 32.706493 90.023529 
L 32.870166 90.023529 
L 32.870166 110.729412 
L 67.636628 110.729412 
L 67.636628 90.023529 
L 67.99972 90.023529 
L 67.99972 110.729412 
L 68.049942 110.729412 
L 70.292843 110.729412 
L 70.292843 90.023529 
L 71.996595 90.023529 
L 71.996595 69.317647 
L 73.33151 69.317647 
L 73.33151 90.023529 
L 73.434419 90.023529 
L 76.385339 90.023529 
L 76.385339 69.317647 
L 94.68723 69.317647 
L 94.68723 90.023529 
L 109.757353 90.023529 
L 109.757353 69.317647 
L 111.00007 69.317647 
L 111.00007 110.729412 
L 114.212217 110.729412 
L 114.212217 90.023529 
L 119.446298 90.023529 
L 119.446298 69.317647 
L 131.532891 69.317647 
L 131.532891 110.729412 
L 204.225318 110.729412 
L 204.225318 69.317647 
L 205.513837 69.317647 
L 205.513837 110.729412 
L 216.415373 110.729412 
L 216.415373 69.317647 
L 240.541107 69.317647 
L 240.541107 90.023529 
L 242.129879 90.023529 
L 242.129879 48.611765 
L 245.460893 48.611765 
L 245.460893 90.023529 
L 245.528622 90.023529 
L 261.336822 90.023529 
L 261.336822 69.317647 
L 273.418681 69.317647 
L 273.418681 110.729412 
L 317.30625 110.729412 
L 317.30625 110.729412 
" clip-path="url(#p48f0218caf)" style="fill: none; stroke: #ff0000; stroke-width: 4; stroke-linecap: square"/>
   </g>
   <g id="line2d_7">
    <path d="M 30.10625 110.729412 
L 32.706493 110.729412 
L 32.706493 90.023529 
L 32.870166 90.023529 
L 32.870166 110.729412 
L 61.909312 110.729412 
L 61.909312 69.317647 
L 63.130116 69.317647 
L 63.130116 90.023529 
L 65.684725 90.023529 
L 65.684725 48.611765 
L 66.149851 48.611765 
L 66.149851 69.317647 
L 66.379133 69.317647 
L 66.379133 27.905882 
L 67.636628 27.905882 
L 67.636628 48.611765 
L 67.99972 48.611765 
L 68.049942 69.317647 
L 68.049942 69.317647 
L 70.292843 69.317647 
L 70.292843 90.023529 
L 71.996595 90.023529 
L 71.996595 110.729412 
L 317.30625 110.729412 
L 317.30625 110.729412 
" clip-path="url(#p48f0218caf)" style="fill: none; stroke: #39b54a; stroke-width: 4; stroke-linecap: square"/>
   </g>
   <g id="line2d_8">
    <path d="M 30.10625 110.729412 
L 63.130116 110.729412 
L 63.130116 90.023529 
L 66.149851 90.023529 
L 66.149851 69.317647 
L 73.33151 69.317647 
L 73.434419 48.611765 
L 73.434419 48.611765 
L 76.385339 48.611765 
L 76.385339 69.317647 
L 94.68723 69.317647 
L 94.68723 48.611765 
L 109.757353 48.611765 
L 109.757353 69.317647 
L 114.212217 69.317647 
L 114.212217 90.023529 
L 119.446298 90.023529 
L 119.446298 110.729412 
L 240.541107 110.729412 
L 240.541107 90.023529 
L 261.336822 90.023529 
L 261.336822 110.729412 
L 317.30625 110.729412 
L 317.30625 110.729412 
" clip-path="url(#p48f0218caf)" style="fill: none; stroke: #594a42; stroke-width: 4; stroke-linecap: square"/>
   </g>
   <g id="patch_3">
    <path d="M 30.10625 112.8 
L 30.10625 7.2 
" style="fill: none; stroke: #000000; stroke-width: 0.8; stroke-linejoin: miter; stroke-linecap: square"/>
   </g>
   <g id="patch_4">
    <path d="M 30.10625 112.8 
L 309.10625 112.8 
" style="fill: none; stroke: #000000; stroke-width: 0.8; stroke-linejoin: miter; stroke-linecap: square"/>
   </g>
  </g>
  <g id="axes_2">
   <g id="patch_5">
    <path d="M 30.10625 228.96 
L 309.10625 228.96 
L 309.10625 123.36 
L 30.10625 123.36 
L 30.10625 228.96 
z
" style="fill: none"/>
   </g>
   <g id="matplotlib.axis_3">
    <g id="xtick_3">
     <g id="line2d_9">
      <g>
       <use xlink:href="#mf7f0926410" x="104.50625" y="228.96" style="stroke: #000000; stroke-width: 0.8"/>
      </g>
     </g>
     <g id="text_4">
      <!-- 4 -->
      <g transform="translate(96.553125 254.956094) scale(0.25 -0.25)">
       <use xlink:href="#DejaVuSans-34"/>
      </g>
     </g>
    </g>
    <g id="xtick_4">
     <g id="line2d_10">
      <g>
       <use xlink:href="#mf7f0926410" x="178.90625" y="228.96" style="stroke: #000000; stroke-width: 0.8"/>
      </g>
     </g>
     <g id="text_5">
      <!-- 8 -->
      <g transform="translate(170.953125 254.956094) scale(0.25 -0.25)">
       <defs>
        <path id="DejaVuSans-38" d="M 2034 2216 
Q 1584 2216 1326 1975 
Q 1069 1734 1069 1313 
Q 1069 891 1326 650 
Q 1584 409 2034 409 
Q 2484 409 2743 651 
Q 3003 894 3003 1313 
Q 3003 1734 2745 1975 
Q 2488 2216 2034 2216 
z
M 1403 2484 
Q 997 2584 770 2862 
Q 544 3141 544 3541 
Q 544 4100 942 4425 
Q 1341 4750 2034 4750 
Q 2731 4750 3128 4425 
Q 3525 4100 3525 3541 
Q 3525 3141 3298 2862 
Q 3072 2584 2669 2484 
Q 3125 2378 3379 2068 
Q 3634 1759 3634 1313 
Q 3634 634 3220 271 
Q 2806 -91 2034 -91 
Q 1263 -91 848 271 
Q 434 634 434 1313 
Q 434 1759 690 2068 
Q 947 2378 1403 2484 
z
M 1172 3481 
Q 1172 3119 1398 2916 
Q 1625 2713 2034 2713 
Q 2441 2713 2670 2916 
Q 2900 3119 2900 3481 
Q 2900 3844 2670 4047 
Q 2441 4250 2034 4250 
Q 1625 4250 1398 4047 
Q 1172 3844 1172 3481 
z
" transform="scale(0.015625)"/>
       </defs>
       <use xlink:href="#DejaVuSans-38"/>
      </g>
     </g>
    </g>
   </g>
   <g id="matplotlib.axis_4">
    <g id="ytick_4">
     <g id="line2d_11">
      <g>
       <use xlink:href="#m48802345b3" x="30.10625" y="227.228852" style="stroke: #000000; stroke-width: 0.8"/>
      </g>
     </g>
     <g id="text_6">
      <!-- 0 -->
      <g transform="translate(7.2 236.726899) scale(0.25 -0.25)">
       <use xlink:href="#DejaVuSans-30"/>
      </g>
     </g>
    </g>
    <g id="ytick_5">
     <g id="line2d_12">
      <g>
       <use xlink:href="#m48802345b3" x="30.10625" y="192.605902" style="stroke: #000000; stroke-width: 0.8"/>
      </g>
     </g>
     <g id="text_7">
      <!-- 2 -->
      <g transform="translate(7.2 202.103949) scale(0.25 -0.25)">
       <use xlink:href="#DejaVuSans-32"/>
      </g>
     </g>
    </g>
    <g id="ytick_6">
     <g id="line2d_13">
      <g>
       <use xlink:href="#m48802345b3" x="30.10625" y="157.982951" style="stroke: #000000; stroke-width: 0.8"/>
      </g>
     </g>
     <g id="text_8">
      <!-- 4 -->
      <g transform="translate(7.2 167.480998) scale(0.25 -0.25)">
       <use xlink:href="#DejaVuSans-34"/>
      </g>
     </g>
    </g>
   </g>
   <g id="line2d_14">
    <path d="M 30.10625 227.228852 
L 73.434419 227.228852 
L 73.434419 209.917377 
L 78.574903 209.917377 
L 78.574903 192.605902 
L 111.00007 192.605902 
L 111.00007 175.294426 
L 131.532891 175.294426 
L 131.532891 157.982951 
L 204.225318 157.982951 
L 204.225318 175.294426 
L 205.513837 175.294426 
L 205.513837 157.982951 
L 216.415373 157.982951 
L 216.415373 175.294426 
L 242.129879 175.294426 
L 242.129879 192.605902 
L 245.460893 192.605902 
L 245.460893 175.294426 
L 245.528622 175.294426 
L 273.418681 175.294426 
L 273.418681 157.982951 
L 317.30625 157.982951 
L 317.30625 157.982951 
" clip-path="url(#pc4979dd070)" style="fill: none; stroke: #ff0000; stroke-width: 4; stroke-linecap: square"/>
   </g>
   <g id="line2d_15">
    <path d="M 30.10625 227.228852 
L 32.363272 227.228852 
L 32.363272 209.917377 
L 32.706493 209.917377 
L 32.706493 227.228852 
L 32.870166 227.228852 
L 32.870166 209.917377 
L 33.274367 209.917377 
L 33.274367 227.228852 
L 34.645381 227.228852 
L 34.645381 209.917377 
L 35.747347 209.917377 
L 35.747347 227.228852 
L 39.475668 227.228852 
L 39.475668 209.917377 
L 40.533972 209.917377 
L 40.533972 227.228852 
L 41.983013 227.228852 
L 41.983013 209.917377 
L 42.193489 209.917377 
L 42.193489 227.228852 
L 48.30532 227.228852 
L 48.30532 209.917377 
L 49.429045 209.917377 
L 49.429045 227.228852 
L 53.414859 227.228852 
L 53.414859 209.917377 
L 53.452838 227.228852 
L 57.181524 227.228852 
L 57.181524 209.917377 
L 57.702666 209.917377 
L 57.702666 227.228852 
L 59.052105 227.228852 
L 59.052105 209.917377 
L 59.413512 209.917377 
L 59.413512 192.605902 
L 60.587128 192.605902 
L 60.587128 209.917377 
L 64.622354 209.917377 
L 64.622354 227.228852 
L 67.99972 227.228852 
L 67.99972 209.917377 
L 68.049942 227.228852 
L 68.311128 227.228852 
L 68.311128 209.917377 
L 69.412995 209.917377 
L 69.412995 227.228852 
L 71.257556 227.228852 
L 71.257556 209.917377 
L 72.730629 209.917377 
L 72.730629 192.605902 
L 73.434419 192.605902 
L 73.434419 209.917377 
L 75.380795 209.917377 
L 75.380795 227.228852 
L 75.880336 227.228852 
L 75.880336 209.917377 
L 77.858117 209.917377 
L 77.858117 192.605902 
L 78.574903 192.605902 
L 78.574903 209.917377 
L 79.1303 209.917377 
L 79.1303 227.228852 
L 86.980718 227.228852 
L 86.980718 209.917377 
L 91.314049 209.917377 
L 91.314049 227.228852 
L 106.378091 227.228852 
L 106.378091 209.917377 
L 107.545556 209.917377 
L 107.545556 227.228852 
L 108.604905 227.228852 
L 108.604905 209.917377 
L 112.082227 209.917377 
L 112.082227 227.228852 
L 174.233608 227.228852 
L 174.233608 209.917377 
L 174.470318 209.917377 
L 174.470318 227.228852 
L 183.074061 227.228852 
L 183.074061 209.917377 
L 185.334288 209.917377 
L 185.334288 227.228852 
L 203.820876 227.228852 
L 203.820876 209.917377 
L 204.033835 209.917377 
L 204.033835 227.228852 
L 211.093771 227.228852 
L 211.093771 209.917377 
L 214.055257 209.917377 
L 214.055257 227.228852 
L 232.340131 227.228852 
L 232.340131 209.917377 
L 232.366878 227.228852 
L 233.576037 227.228852 
L 233.576037 209.917377 
L 234.273424 209.917377 
L 234.273424 227.228852 
L 241.327504 227.228852 
L 241.327504 209.917377 
L 241.520302 209.917377 
L 241.520302 227.228852 
L 245.528622 227.228852 
L 245.528622 209.917377 
L 250.625226 209.917377 
L 250.625226 227.228852 
L 251.843438 227.228852 
L 251.843438 209.917377 
L 253.873189 209.917377 
L 253.873189 227.228852 
L 258.540564 227.228852 
L 258.540564 209.917377 
L 262.304141 209.917377 
L 262.304141 227.228852 
L 270.354932 227.228852 
L 270.354932 209.917377 
L 270.381576 227.228852 
L 279.483885 227.228852 
L 279.483885 209.917377 
L 286.666406 209.917377 
L 286.666406 227.228852 
L 290.114352 227.228852 
L 290.114352 209.917377 
L 292.309448 209.917377 
L 292.309448 227.228852 
L 294.528293 227.228852 
L 294.528293 209.917377 
L 295.269997 209.917377 
L 295.269997 227.228852 
L 296.970978 227.228852 
L 296.970978 209.917377 
L 297.081477 227.228852 
L 308.857857 227.228852 
L 308.857857 209.917377 
L 310.495033 209.917377 
L 310.495033 227.228852 
L 317.30625 227.228852 
L 317.30625 227.228852 
" clip-path="url(#pc4979dd070)" style="fill: none; stroke: #ff8c00; stroke-width: 4; stroke-linecap: square"/>
   </g>
   <g id="line2d_16">
    <path d="M 30.10625 140.671475 
L 32.363272 140.671475 
L 32.363272 157.982951 
L 33.274367 157.982951 
L 33.274367 140.671475 
L 34.645381 140.671475 
L 34.645381 157.982951 
L 35.747347 157.982951 
L 35.747347 140.671475 
L 39.475668 140.671475 
L 39.475668 157.982951 
L 40.533972 157.982951 
L 40.533972 140.671475 
L 41.983013 140.671475 
L 41.983013 157.982951 
L 42.193489 157.982951 
L 42.193489 140.671475 
L 48.30532 140.671475 
L 48.30532 157.982951 
L 49.429045 157.982951 
L 49.429045 140.671475 
L 53.414859 140.671475 
L 53.414859 157.982951 
L 53.452838 140.671475 
L 57.181524 140.671475 
L 57.181524 157.982951 
L 57.702666 157.982951 
L 57.702666 140.671475 
L 59.052105 140.671475 
L 59.052105 157.982951 
L 59.413512 157.982951 
L 59.413512 175.294426 
L 60.587128 175.294426 
L 60.587128 157.982951 
L 61.909312 157.982951 
L 61.909312 175.294426 
L 64.622354 175.294426 
L 64.622354 157.982951 
L 65.684725 157.982951 
L 65.684725 175.294426 
L 66.379133 175.294426 
L 66.379133 192.605902 
L 68.049942 192.605902 
L 68.049942 175.294426 
L 68.311128 175.294426 
L 68.311128 192.605902 
L 69.412995 192.605902 
L 69.412995 175.294426 
L 71.257556 175.294426 
L 71.257556 192.605902 
L 72.730629 192.605902 
L 72.730629 209.917377 
L 75.380795 209.917377 
L 75.380795 192.605902 
L 75.880336 192.605902 
L 75.880336 209.917377 
L 77.858117 209.917377 
L 77.858117 227.228852 
L 79.1303 227.228852 
L 79.1303 209.917377 
L 86.980718 209.917377 
L 86.980718 227.228852 
L 91.314049 227.228852 
L 91.314049 209.917377 
L 106.378091 209.917377 
L 106.378091 227.228852 
L 107.545556 227.228852 
L 107.545556 209.917377 
L 108.604905 209.917377 
L 108.604905 227.228852 
L 112.082227 227.228852 
L 112.082227 209.917377 
L 174.233608 209.917377 
L 174.233608 227.228852 
L 174.470318 227.228852 
L 174.470318 209.917377 
L 183.074061 209.917377 
L 183.074061 227.228852 
L 185.334288 227.228852 
L 185.334288 209.917377 
L 203.820876 209.917377 
L 203.820876 227.228852 
L 204.033835 227.228852 
L 204.033835 209.917377 
L 211.093771 209.917377 
L 211.093771 227.228852 
L 214.055257 227.228852 
L 214.055257 209.917377 
L 232.340131 209.917377 
L 232.340131 227.228852 
L 232.366878 209.917377 
L 233.576037 209.917377 
L 233.576037 227.228852 
L 234.273424 227.228852 
L 234.273424 209.917377 
L 241.327504 209.917377 
L 241.327504 227.228852 
L 241.520302 227.228852 
L 241.520302 209.917377 
L 245.528622 209.917377 
L 245.528622 227.228852 
L 250.625226 227.228852 
L 250.625226 209.917377 
L 251.843438 209.917377 
L 251.843438 227.228852 
L 253.873189 227.228852 
L 253.873189 209.917377 
L 258.540564 209.917377 
L 258.540564 227.228852 
L 262.304141 227.228852 
L 262.304141 209.917377 
L 270.354932 209.917377 
L 270.354932 227.228852 
L 270.381576 209.917377 
L 279.483885 209.917377 
L 279.483885 227.228852 
L 286.666406 227.228852 
L 286.666406 209.917377 
L 290.114352 209.917377 
L 290.114352 227.228852 
L 292.309448 227.228852 
L 292.309448 209.917377 
L 294.528293 209.917377 
L 294.528293 227.228852 
L 295.269997 227.228852 
L 295.269997 209.917377 
L 296.970978 209.917377 
L 296.970978 227.228852 
L 297.081477 209.917377 
L 308.857857 209.917377 
L 308.857857 227.228852 
L 310.495033 227.228852 
L 310.495033 209.917377 
L 317.30625 209.917377 
L 317.30625 209.917377 
" clip-path="url(#pc4979dd070)" style="fill: none; stroke: #39b54a; stroke-width: 4; stroke-linecap: square"/>
   </g>
   <g id="patch_6">
    <path d="M 30.10625 228.96 
L 30.10625 123.36 
" style="fill: none; stroke: #000000; stroke-width: 0.8; stroke-linejoin: miter; stroke-linecap: square"/>
   </g>
   <g id="patch_7">
    <path d="M 30.10625 228.96 
L 309.10625 228.96 
" style="fill: none; stroke: #000000; stroke-width: 0.8; stroke-linejoin: miter; stroke-linecap: square"/>
   </g>
  </g>
 </g>
 <defs>
  <clipPath id="p48f0218caf">
   <rect x="30.10625" y="7.2" width="279" height="105.6"/>
  </clipPath>
  <clipPath id="pc4979dd070">
   <rect x="30.10625" y="123.36" width="279" height="105.6"/>
  </clipPath>
 </defs>
</svg>
