<?xml version="1.0" encoding="utf-8" standalone="no"?>
<!DOCTYPE svg PUBLIC "-//W3C//DTD SVG 1.1//EN"
  "http://www.w3.org/Graphics/SVG/1.1/DTD/svg11.dtd">
<svg xmlns:xlink="http://www.w3.org/1999/xlink" width="313.125pt" height="207.07625pt" viewBox="0 0 313.125 207.07625" xmlns="http://www.w3.org/2000/svg" version="1.1">
 <metadata>
  <rdf:RDF xmlns:dc="http://purl.org/dc/elements/1.1/" xmlns:cc="http://creativecommons.org/ns#" xmlns:rdf="http://www.w3.org/1999/02/22-rdf-syntax-ns#">
   <cc:Work>
    <dc:type rdf:resource="http://purl.org/dc/dcmitype/StillImage"/>
    <dc:date>2025-10-29T16:05:09.800898</dc:date>
    <dc:format>image/svg+xml</dc:format>
    <dc:creator>
     <cc:Agent>
      <dc:title>Matplotlib v3.10.6, https://matplotlib.org/</dc:title>
     </cc:Agent>
    </dc:creator>
   </cc:Work>
  </rdf:RDF>
 </metadata>
 <defs>
  <style type="text/css">*{stroke-linejoin: round; stroke-linecap: butt}</style>
 </defs>
 <g id="figure_1">
  <g id="patch_1">
   <path d="M 0 207.07625 
L 313.125 207.07625 
L 313.125 0 
L 0 0 
L 0 207.07625 
z
" style="fill: none"/>
  </g>
  <g id="axes_1">
   <g id="patch_2">
    <path d="M 26.925 173.52 
L 305.925 173.52 
L 305.925 7.2 
L 26.925 7.2 
L 26.925 173.52 
z
" style="fill: none"/>
   </g>
   <g id="matplotlib.axis_1">
    <g id="xtick_1">
     <g id="line2d_1">
      <defs>
       <path id="ma2b7896bdd" d="M 0 0 
L 0 3.5 
" style="stroke: #000000; stroke-width: 0.8"/>
      </defs>
      <g>
       <use xlink:href="#ma2b7896bdd" x="93.353571" y="173.52" style="stroke: #000000; stroke-width: 0.8"/>
      </g>
     </g>
     <g id="text_1">
      <!-- 25 -->
      <g transform="translate(80.628571 195.716875) scale(0.2 -0.2)">
       <defs>
        <path id="DejaVuSans-32" d="M 1228 531 
L 3431 531 
L 3431 0 
L 469 0 
L 469 531 
Q 828 903 1448 1529 
Q 2069 2156 2228 2338 
Q 2531 2678 2651 2914 
Q 2772 3150 2772 3378 
Q 2772 3750 2511 3984 
Q 2250 4219 1831 4219 
Q 1534 4219 1204 4116 
Q 875 4013 500 3803 
L 500 4441 
Q 881 4594 1212 4672 
Q 1544 4750 1819 4750 
Q 2544 4750 2975 4387 
Q 3406 4025 3406 3419 
Q 3406 3131 3298 2873 
Q 3191 2616 2906 2266 
Q 2828 2175 2409 1742 
Q 1991 1309 1228 531 
z
" transform="scale(0.015625)"/>
        <path id="DejaVuSans-35" d="M 691 4666 
L 3169 4666 
L 3169 4134 
L 1269 4134 
L 1269 2991 
Q 1406 3038 1543 3061 
Q 1681 3084 1819 3084 
Q 2600 3084 3056 2656 
Q 3513 2228 3513 1497 
Q 3513 744 3044 326 
Q 2575 -91 1722 -91 
Q 1428 -91 1123 -41 
Q 819 9 494 109 
L 494 744 
Q 775 591 1075 516 
Q 1375 441 1709 441 
Q 2250 441 2565 725 
Q 2881 1009 2881 1497 
Q 2881 1984 2565 2268 
Q 2250 2553 1709 2553 
Q 1456 2553 1204 2497 
Q 953 2441 691 2322 
L 691 4666 
z
" transform="scale(0.015625)"/>
       </defs>
       <use xlink:href="#DejaVuSans-32"/>
       <use xlink:href="#DejaVuSans-35" transform="translate(63.623047 0)"/>
      </g>
     </g>
    </g>
    <g id="xtick_2">
     <g id="line2d_2">
      <g>
       <use xlink:href="#ma2b7896bdd" x="159.782143" y="173.52" style="stroke: #000000; stroke-width: 0.8"/>
      </g>
     </g>
     <g id="text_2">
      <!-- 50 -->
      <g transform="translate(147.057143 195.716875) scale(0.2 -0.2)">
       <defs>
        <path id="DejaVuSans-30" d="M 2034 4250 
Q 1547 4250 1301 3770 
Q 1056 3291 1056 2328 
Q 1056 1369 1301 889 
Q 1547 409 2034 409 
Q 2525 409 2770 889 
Q 3016 1369 3016 2328 
Q 3016 3291 2770 3770 
Q 2525 4250 2034 4250 
z
M 2034 4750 
Q 2819 4750 3233 4129 
Q 3647 3509 3647 2328 
Q 3647 1150 3233 529 
Q 2819 -91 2034 -91 
Q 1250 -91 836 529 
Q 422 1150 422 2328 
Q 422 3509 836 4129 
Q 1250 4750 2034 4750 
z
" transform="scale(0.015625)"/>
       </defs>
       <use xlink:href="#DejaVuSans-35"/>
       <use xlink:href="#DejaVuSans-30" transform="translate(63.623047 0)"/>
      </g>
     </g>
    </g>
    <g id="xtick_3">
     <g id="line2d_3">
      <g>
       <use xlink:href="#ma2b7896bdd" x="226.210714" y="173.52" style="stroke: #000000; stroke-width: 0.8"/>
      </g>
     </g>
     <g id="text_3">
      <!-- 75 -->
      <g transform="translate(213.485714 195.716875) scale(0.2 -0.2)">
       <defs>
        <path id="DejaVuSans-37" d="M 525 4666 
L 3525 4666 
L 3525 4397 
L 1831 0 
L 1172 0 
L 2766 4134 
L 525 4134 
L 525 4666 
z
" transform="scale(0.015625)"/>
       </defs>
       <use xlink:href="#DejaVuSans-37"/>
       <use xlink:href="#DejaVuSans-35" transform="translate(63.623047 0)"/>
      </g>
     </g>
    </g>
   </g>
   <g id="matplotlib.axis_2">
    <g id="ytick_1">
     <g id="line2d_4">
      <defs>
       <path id="ma2f95c41ec" d="M 0 0 
L -3.5 0 
" style="stroke: #000000; stroke-width: 0.8"/>
      </defs>
      <g>
       <use xlink:href="#ma2f95c41ec" x="26.925" y="173.52" style="stroke: #000000; stroke-width: 0.8"/>
      </g>
     </g>
     <g id="text_4">
      <!-- 0 -->
      <g transform="translate(7.2 181.118438) scale(0.2 -0.2)">
       <use xlink:href="#DejaVuSans-30"/>
      </g>
     </g>
    </g>
    <g id="ytick_2">
     <g id="line2d_5">
      <g>
       <use xlink:href="#ma2f95c41ec" x="26.925" y="123.980046" style="stroke: #000000; stroke-width: 0.8"/>
      </g>
     </g>
     <g id="text_5">
      <!-- 2 -->
      <g transform="translate(7.2 131.578484) scale(0.2 -0.2)">
       <use xlink:href="#DejaVuSans-32"/>
      </g>
     </g>
    </g>
    <g id="ytick_3">
     <g id="line2d_6">
      <g>
       <use xlink:href="#ma2f95c41ec" x="26.925" y="74.440092" style="stroke: #000000; stroke-width: 0.8"/>
      </g>
     </g>
     <g id="text_6">
      <!-- 4 -->
      <g transform="translate(7.2 82.03853) scale(0.2 -0.2)">
       <defs>
        <path id="DejaVuSans-34" d="M 2419 4116 
L 825 1625 
L 2419 1625 
L 2419 4116 
z
M 2253 4666 
L 3047 4666 
L 3047 1625 
L 3713 1625 
L 3713 1100 
L 3047 1100 
L 3047 0 
L 2419 0 
L 2419 1100 
L 313 1100 
L 313 1709 
L 2253 4666 
z
" transform="scale(0.015625)"/>
       </defs>
       <use xlink:href="#DejaVuSans-34"/>
      </g>
     </g>
    </g>
   </g>
   <g id="line2d_7">
    <path d="M 26.925 133.865107 
L 33.738187 115.711335 
L 40.551374 100.39409 
L 47.36456 88.140294 
L 54.177747 77.701875 
L 60.990934 68.965372 
L 67.804121 61.987516 
L 74.617308 56.201001 
L 81.430495 50.75487 
L 88.243681 46.102966 
L 95.056868 42.812595 
L 101.870055 40.316451 
L 108.683242 38.501074 
L 115.496429 36.515505 
L 122.309615 34.359745 
L 129.122802 33.054942 
L 135.935989 32.033793 
L 142.749176 30.558799 
L 149.562363 29.083805 
L 156.375549 27.892463 
L 163.188736 27.098236 
L 170.001923 26.587661 
L 176.81511 26.077086 
L 183.628297 25.282859 
L 190.441484 23.921326 
L 197.25467 23.127098 
L 204.067857 22.616523 
L 210.881044 22.105949 
L 217.694231 21.14153 
L 224.507418 20.630955 
L 231.320604 20.12038 
L 238.133791 19.155961 
L 244.946978 18.645386 
L 251.760165 18.134811 
L 258.573352 17.170392 
L 265.386538 16.659817 
L 272.199725 16.149242 
L 279.012912 15.184823 
L 285.826099 14.730979 
L 292.639286 14.560787 
" clip-path="url(#p657626e751)" style="fill: none; stroke: #800000; stroke-width: 4; stroke-linecap: square"/>
   </g>
   <g id="line2d_8">
    <path d="M 26.925 143.963142 
L 33.738187 133.297801 
L 40.551374 124.050724 
L 47.36456 115.938257 
L 54.177747 110.321934 
L 60.990934 105.329647 
L 67.804121 100.39409 
L 74.617308 96.422952 
L 81.430495 93.416234 
L 88.243681 90.636438 
L 95.056868 87.970102 
L 101.870055 86.154725 
L 108.683242 84.169156 
L 115.496429 82.013396 
L 122.309615 80.708594 
L 129.122802 79.517252 
L 135.935989 78.893216 
L 142.749176 77.531683 
L 149.562363 76.907648 
L 156.375549 75.546115 
L 163.188736 74.922079 
L 170.001923 73.560546 
L 176.81511 72.766318 
L 183.628297 72.255743 
L 190.441484 71.745169 
L 197.25467 70.78075 
L 204.067857 70.270175 
L 210.881044 69.7596 
L 217.694231 68.795181 
L 224.507418 68.284606 
L 231.320604 67.774031 
L 238.133791 66.809612 
L 244.946978 66.128845 
L 251.760165 66.299037 
L 258.573352 66.469229 
L 265.386538 65.788462 
L 272.199725 64.824043 
L 279.012912 64.143277 
L 285.826099 64.029816 
L 292.639286 64.48366 
" clip-path="url(#p657626e751)" style="fill: none; stroke: #dc143c; stroke-width: 4; stroke-linecap: square"/>
   </g>
   <g id="line2d_9">
    <path d="M 26.925 129.667047 
L 33.738187 112.250772 
L 40.551374 104.195036 
L 47.36456 106.69118 
L 54.177747 114.917107 
L 60.990934 124.391107 
L 67.804121 131.142041 
L 74.617308 136.134328 
L 81.430495 139.935274 
L 88.243681 143.395837 
L 95.056868 145.891981 
L 101.870055 147.87755 
L 108.683242 149.182352 
L 115.496429 150.373693 
L 122.309615 150.997729 
L 129.122802 152.359262 
L 135.935989 152.983298 
L 142.749176 154.344831 
L 149.562363 155.139058 
L 156.375549 155.819825 
L 163.188736 155.479441 
L 170.001923 156.160208 
L 176.81511 157.124627 
L 183.628297 157.805394 
L 190.441484 157.635202 
L 197.25467 157.635202 
L 204.067857 157.46501 
L 210.881044 158.145777 
L 217.694231 159.110196 
L 224.507418 159.790962 
L 231.320604 159.620771 
L 238.133791 159.620771 
L 244.946978 159.620771 
L 251.760165 159.450579 
L 258.573352 160.131346 
L 265.386538 161.095765 
L 272.199725 161.776531 
L 279.012912 161.606339 
L 285.826099 161.606339 
L 292.639286 161.606339 
" clip-path="url(#p657626e751)" style="fill: none; stroke: #ff6347; stroke-width: 4; stroke-linecap: square"/>
   </g>
   <g id="patch_3">
    <path d="M 26.925 173.52 
L 26.925 7.2 
" style="fill: none; stroke: #000000; stroke-width: 0.8; stroke-linejoin: miter; stroke-linecap: square"/>
   </g>
   <g id="patch_4">
    <path d="M 26.925 173.52 
L 305.925 173.52 
" style="fill: none; stroke: #000000; stroke-width: 0.8; stroke-linejoin: miter; stroke-linecap: square"/>
   </g>
  </g>
 </g>
 <defs>
  <clipPath id="p657626e751">
   <rect x="26.925" y="7.2" width="279" height="166.32"/>
  </clipPath>
 </defs>
</svg>
