<?xml version="1.0" encoding="utf-8" standalone="no"?>
<!DOCTYPE svg PUBLIC "-//W3C//DTD SVG 1.1//EN"
  "http://www.w3.org/Graphics/SVG/1.1/DTD/svg11.dtd">
<svg xmlns:xlink="http://www.w3.org/1999/xlink" width="499.60625pt" height="207.07625pt" viewBox="0 0 499.60625 207.07625" xmlns="http://www.w3.org/2000/svg" version="1.1">
 <metadata>
  <rdf:RDF xmlns:dc="http://purl.org/dc/elements/1.1/" xmlns:cc="http://creativecommons.org/ns#" xmlns:rdf="http://www.w3.org/1999/02/22-rdf-syntax-ns#">
   <cc:Work>
    <dc:type rdf:resource="http://purl.org/dc/dcmitype/StillImage"/>
    <dc:date>2025-10-29T11:39:30.158282</dc:date>
    <dc:format>image/svg+xml</dc:format>
    <dc:creator>
     <cc:Agent>
      <dc:title>Matplotlib v3.10.6, https://matplotlib.org/</dc:title>
     </cc:Agent>
    </dc:creator>
   </cc:Work>
  </rdf:RDF>
 </metadata>
 <defs>
  <style type="text/css">*{stroke-linejoin: round; stroke-linecap: butt}</style>
 </defs>
 <g id="figure_1">
  <g id="patch_1">
   <path d="M 0 207.07625 
L 499.60625 207.07625 
L 499.60625 0 
L 0 0 
L 0 207.07625 
z
" style="fill: none"/>
  </g>
  <g id="axes_1">
   <g id="patch_2">
    <path d="M 46.00625 173.52 
L 492.40625 173.52 
L 492.40625 7.2 
L 46.00625 7.2 
L 46.00625 173.52 
z
" style="fill: none"/>
   </g>
   <g id="matplotlib.axis_1">
    <g id="xtick_1">
     <g id="line2d_1">
      <defs>
       <path id="m1b1672bfeb" d="M 0 0 
L 0 3.5 
" style="stroke: #000000; stroke-width: 0.8"/>
      </defs>
      <g>
       <use xlink:href="#m1b1672bfeb" x="157.60625" y="173.52" style="stroke: #000000; stroke-width: 0.8"/>
      </g>
     </g>
     <g id="text_1">
      <!-- 5 -->
      <g transform="translate(151.24375 195.716875) scale(0.2 -0.2)">
       <defs>
        <path id="DejaVuSans-35" d="M 691 4666 
L 3169 4666 
L 3169 4134 
L 1269 4134 
L 1269 2991 
Q 1406 3038 1543 3061 
Q 1681 3084 1819 3084 
Q 2600 3084 3056 2656 
Q 3513 2228 3513 1497 
Q 3513 744 3044 326 
Q 2575 -91 1722 -91 
Q 1428 -91 1123 -41 
Q 819 9 494 109 
L 494 744 
Q 775 591 1075 516 
Q 1375 441 1709 441 
Q 2250 441 2565 725 
Q 2881 1009 2881 1497 
Q 2881 1984 2565 2268 
Q 2250 2553 1709 2553 
Q 1456 2553 1204 2497 
Q 953 2441 691 2322 
L 691 4666 
z
" transform="scale(0.015625)"/>
       </defs>
       <use xlink:href="#DejaVuSans-35"/>
      </g>
     </g>
    </g>
    <g id="xtick_2">
     <g id="line2d_2">
      <g>
       <use xlink:href="#m1b1672bfeb" x="269.20625" y="173.52" style="stroke: #000000; stroke-width: 0.8"/>
      </g>
     </g>
     <g id="text_2">
      <!-- 10 -->
      <g transform="translate(256.48125 195.716875) scale(0.2 -0.2)">
       <defs>
        <path id="DejaVuSans-31" d="M 794 531 
L 1825 531 
L 1825 4091 
L 703 3866 
L 703 4441 
L 1819 4666 
L 2450 4666 
L 2450 531 
L 3481 531 
L 3481 0 
L 794 0 
L 794 531 
z
" transform="scale(0.015625)"/>
        <path id="DejaVuSans-30" d="M 2034 4250 
Q 1547 4250 1301 3770 
Q 1056 3291 1056 2328 
Q 1056 1369 1301 889 
Q 1547 409 2034 409 
Q 2525 409 2770 889 
Q 3016 1369 3016 2328 
Q 3016 3291 2770 3770 
Q 2525 4250 2034 4250 
z
M 2034 4750 
Q 2819 4750 3233 4129 
Q 3647 3509 3647 2328 
Q 3647 1150 3233 529 
Q 2819 -91 2034 -91 
Q 1250 -91 836 529 
Q 422 1150 422 2328 
Q 422 3509 836 4129 
Q 1250 4750 2034 4750 
z
" transform="scale(0.015625)"/>
       </defs>
       <use xlink:href="#DejaVuSans-31"/>
       <use xlink:href="#DejaVuSans-30" transform="translate(63.623047 0)"/>
      </g>
     </g>
    </g>
    <g id="xtick_3">
     <g id="line2d_3">
      <g>
       <use xlink:href="#m1b1672bfeb" x="380.80625" y="173.52" style="stroke: #000000; stroke-width: 0.8"/>
      </g>
     </g>
     <g id="text_3">
      <!-- 15 -->
      <g transform="translate(368.08125 195.716875) scale(0.2 -0.2)">
       <use xlink:href="#DejaVuSans-31"/>
       <use xlink:href="#DejaVuSans-35" transform="translate(63.623047 0)"/>
      </g>
     </g>
    </g>
   </g>
   <g id="matplotlib.axis_2">
    <g id="ytick_1">
     <g id="line2d_4">
      <defs>
       <path id="m31bfd8014c" d="M 0 0 
L -3.5 0 
" style="stroke: #000000; stroke-width: 0.8"/>
      </defs>
      <g>
       <use xlink:href="#m31bfd8014c" x="46.00625" y="171.950943" style="stroke: #000000; stroke-width: 0.8"/>
      </g>
     </g>
     <g id="text_4">
      <!-- 0 -->
      <g transform="translate(26.28125 179.549381) scale(0.2 -0.2)">
       <use xlink:href="#DejaVuSans-30"/>
      </g>
     </g>
    </g>
    <g id="ytick_2">
     <g id="line2d_5">
      <g>
       <use xlink:href="#m31bfd8014c" x="46.00625" y="93.498113" style="stroke: #000000; stroke-width: 0.8"/>
      </g>
     </g>
     <g id="text_5">
      <!-- 0.5 -->
      <g transform="translate(7.2 101.096551) scale(0.2 -0.2)">
       <defs>
        <path id="DejaVuSans-2e" d="M 684 794 
L 1344 794 
L 1344 0 
L 684 0 
L 684 794 
z
" transform="scale(0.015625)"/>
       </defs>
       <use xlink:href="#DejaVuSans-30"/>
       <use xlink:href="#DejaVuSans-2e" transform="translate(63.623047 0)"/>
       <use xlink:href="#DejaVuSans-35" transform="translate(95.410156 0)"/>
      </g>
     </g>
    </g>
    <g id="ytick_3">
     <g id="line2d_6">
      <g>
       <use xlink:href="#m31bfd8014c" x="46.00625" y="15.045283" style="stroke: #000000; stroke-width: 0.8"/>
      </g>
     </g>
     <g id="text_6">
      <!-- 1 -->
      <g transform="translate(26.28125 22.643721) scale(0.2 -0.2)">
       <use xlink:href="#DejaVuSans-31"/>
      </g>
     </g>
    </g>
   </g>
   <g id="line2d_7">
    <path d="M 46.006473 15.045283 
L 500.60625 15.045283 
L 500.60625 15.045283 
" clip-path="url(#p7cefd019f5)" style="fill: none; stroke-dasharray: 14.8,6.4; stroke-dashoffset: 0; stroke: #000000; stroke-opacity: 0.5; stroke-width: 4"/>
   </g>
   <g id="patch_3">
    <path d="M 46.00625 173.52 
L 46.00625 7.2 
" style="fill: none; stroke: #000000; stroke-width: 0.8; stroke-linejoin: miter; stroke-linecap: square"/>
   </g>
   <g id="patch_4">
    <path d="M 46.00625 173.52 
L 492.40625 173.52 
" style="fill: none; stroke: #000000; stroke-width: 0.8; stroke-linejoin: miter; stroke-linecap: square"/>
   </g>
   <g id="line2d_8">
    <path d="M 46.006473 120.638186 
L 50.492904 130.861739 
L 59.465766 135.38878 
L 68.438628 139.595011 
L 77.41149 143.453855 
L 86.384353 146.961611 
L 95.357215 150.124287 
L 104.330077 152.955352 
L 113.302939 155.473486 
L 122.275801 157.700673 
L 131.248663 159.660671 
L 140.221525 161.377828 
L 149.194387 162.876205 
L 158.167249 164.178961 
L 167.140111 165.307935 
L 180.599404 166.719447 
L 194.058697 167.846431 
L 207.517991 168.741494 
L 225.463715 169.649788 
L 243.409439 170.308885 
L 265.841594 170.880273 
L 292.76018 171.314727 
L 328.651629 171.636309 
L 378.00237 171.833179 
L 467.730991 171.931806 
L 500.60625 171.941176 
L 500.60625 171.941176 
" clip-path="url(#p7cefd019f5)" style="fill: none; stroke: #ba55d3; stroke-width: 4; stroke-linecap: square"/>
   </g>
   <g id="PathCollection_1">
    <defs>
     <path id="m36a6b2b4e4" d="M 0 7.071068 
C 1.875269 7.071068 3.673985 6.326016 5 5 
C 6.326016 3.673985 7.071068 1.875269 7.071068 0 
C 7.071068 -1.875269 6.326016 -3.673985 5 -5 
C 3.673985 -6.326016 1.875269 -7.071068 0 -7.071068 
C -1.875269 -7.071068 -3.673985 -6.326016 -5 -5 
C -6.326016 -3.673985 -7.071068 -1.875269 -7.071068 0 
C -7.071068 1.875269 -6.326016 3.673985 -5 5 
C -3.673985 6.326016 -1.875269 7.071068 0 7.071068 
z
" style="stroke: #ba55d3"/>
    </defs>
    <g clip-path="url(#p7cefd019f5)">
     <use xlink:href="#m36a6b2b4e4" x="86.384353" y="146.294565" style="fill: #ba55d3; stroke: #ba55d3"/>
    </g>
   </g>
   <g id="line2d_9">
    <path d="M 46.006473 82.341298 
L 50.492904 93.227379 
L 63.952197 102.945116 
L 72.925059 109.176209 
L 81.897922 115.103038 
L 90.870784 120.679877 
L 99.843646 125.879176 
L 108.816508 130.687882 
L 117.78937 135.104415 
L 126.762232 139.136085 
L 135.735094 142.796831 
L 144.707956 146.105283 
L 153.680818 149.083132 
L 162.65368 151.753803 
L 171.626542 154.141423 
L 180.599404 156.270038 
L 189.572266 158.163042 
L 198.545129 159.842789 
L 207.517991 161.330339 
L 216.490853 162.645314 
L 229.950146 164.333416 
L 243.409439 165.728442 
L 256.868732 166.877883 
L 270.328025 167.822468 
L 288.273749 168.822343 
L 306.219473 169.586592 
L 328.651629 170.290923 
L 355.570215 170.870229 
L 386.975232 171.299887 
L 427.353112 171.614553 
L 485.676715 171.823444 
L 500.60625 171.851732 
L 500.60625 171.851732 
" clip-path="url(#p7cefd019f5)" style="fill: none; stroke: #9400d3; stroke-width: 4; stroke-linecap: square"/>
   </g>
   <g id="PathCollection_2">
    <defs>
     <path id="mf38021c550" d="M 0 7.071068 
C 1.875269 7.071068 3.673985 6.326016 5 5 
C 6.326016 3.673985 7.071068 1.875269 7.071068 0 
C 7.071068 -1.875269 6.326016 -3.673985 5 -5 
C 3.673985 -6.326016 1.875269 -7.071068 0 -7.071068 
C -1.875269 -7.071068 -3.673985 -6.326016 -5 -5 
C -6.326016 -3.673985 -7.071068 -1.875269 -7.071068 0 
C -7.071068 1.875269 -6.326016 3.673985 -5 5 
C -3.673985 6.326016 -1.875269 7.071068 0 7.071068 
z
" style="stroke: #9400d3"/>
    </defs>
    <g clip-path="url(#p7cefd019f5)">
     <use xlink:href="#mf38021c550" x="104.330077" y="127.146121" style="fill: #9400d3; stroke: #9400d3"/>
    </g>
   </g>
   <g id="line2d_10">
    <path d="M 46.006473 43.690994 
L 50.492904 52.958607 
L 63.952197 65.174494 
L 72.925059 73.235742 
L 81.897922 81.033975 
L 90.870784 88.490094 
L 99.843646 95.555687 
L 108.816508 102.203671 
L 117.78937 108.421839 
L 126.762232 114.208414 
L 135.735094 119.569138 
L 144.707956 124.515333 
L 153.680818 129.062503 
L 162.65368 133.229224 
L 171.626542 137.036209 
L 180.599404 140.505498 
L 189.572266 143.659781 
L 198.545129 146.521833 
L 207.517991 149.114069 
L 216.490853 151.458203 
L 225.463715 153.575011 
L 234.436577 155.484162 
L 243.409439 157.204121 
L 252.382301 158.752101 
L 265.841594 160.78617 
L 279.300887 162.517555 
L 292.76018 163.989002 
L 306.219473 165.237802 
L 319.678767 166.296315 
L 337.624491 167.459425 
L 355.570215 168.389272 
L 378.00237 169.291992 
L 400.434525 169.97114 
L 427.353112 170.566233 
L 458.758129 171.043226 
L 500.60625 171.43862 
L 500.60625 171.43862 
" clip-path="url(#p7cefd019f5)" style="fill: none; stroke: #4b0082; stroke-width: 4; stroke-linecap: square"/>
   </g>
   <g id="PathCollection_3">
    <defs>
     <path id="m51e310e2cb" d="M 0 7.071068 
C 1.875269 7.071068 3.673985 6.326016 5 5 
C 6.326016 3.673985 7.071068 1.875269 7.071068 0 
C 7.071068 -1.875269 6.326016 -3.673985 5 -5 
C 3.673985 -6.326016 1.875269 -7.071068 0 -7.071068 
C -1.875269 -7.071068 -3.673985 -6.326016 -5 -5 
C -6.326016 -3.673985 -7.071068 -1.875269 -7.071068 0 
C -7.071068 1.875269 -6.326016 3.673985 -5 5 
C -3.673985 6.326016 -1.875269 7.071068 0 7.071068 
z
" style="stroke: #4b0082"/>
    </defs>
    <g clip-path="url(#p7cefd019f5)">
     <use xlink:href="#m51e310e2cb" x="117.78937" y="107.820968" style="fill: #4b0082; stroke: #4b0082"/>
    </g>
   </g>
   <g id="line2d_11">
    <path d="M 46.006473 15.056232 
L 50.492904 16.432544 
L 54.979335 18.366903 
L 59.465766 20.530773 
L 63.952197 23.01724 
L 68.438628 25.791125 
L 72.925059 28.788376 
L 77.41149 31.957353 
L 86.384353 38.6803 
L 95.357215 45.777274 
L 108.816508 56.829221 
L 126.762232 71.680472 
L 135.735094 78.926664 
L 144.707956 85.953354 
L 153.680818 92.708203 
L 162.65368 99.15359 
L 171.626542 105.263933 
L 180.599404 111.023452 
L 189.572266 116.424364 
L 198.545129 121.465397 
L 207.517991 126.150542 
L 216.490853 130.487979 
L 225.463715 134.489138 
L 234.436577 138.167901 
L 243.409439 141.5399 
L 252.382301 144.621931 
L 261.355163 147.431466 
L 270.328025 149.98625 
L 279.300887 152.303976 
L 288.273749 154.402032 
L 297.246611 156.297306 
L 306.219473 158.006039 
L 315.192336 159.543722 
L 328.651629 161.561387 
L 342.110922 163.272853 
L 355.570215 164.719505 
L 369.029508 165.938321 
L 382.488801 166.962046 
L 400.434525 168.072736 
L 418.380249 168.945545 
L 440.812405 169.774345 
L 463.24456 170.380701 
L 490.163146 170.894463 
L 500.60625 171.045632 
L 500.60625 171.045632 
" clip-path="url(#p7cefd019f5)" style="fill: none; stroke: #000000; stroke-width: 4; stroke-linecap: square"/>
   </g>
   <g id="PathCollection_4">
    <defs>
     <path id="m5de87145ab" d="M 0 7.071068 
C 1.875269 7.071068 3.673985 6.326016 5 5 
C 6.326016 3.673985 7.071068 1.875269 7.071068 0 
C 7.071068 -1.875269 6.326016 -3.673985 5 -5 
C 3.673985 -6.326016 1.875269 -7.071068 0 -7.071068 
C -1.875269 -7.071068 -3.673985 -6.326016 -5 -5 
C -6.326016 -3.673985 -7.071068 -1.875269 -7.071068 0 
C -7.071068 1.875269 -6.326016 3.673985 -5 5 
C -3.673985 6.326016 -1.875269 7.071068 0 7.071068 
z
" style="stroke: #000000"/>
    </defs>
    <g clip-path="url(#p7cefd019f5)">
     <use xlink:href="#m5de87145ab" x="158.167249" y="93.503588" style="stroke: #000000"/>
    </g>
   </g>
  </g>
 </g>
 <defs>
  <clipPath id="p7cefd019f5">
   <rect x="46.00625" y="7.2" width="446.4" height="166.32"/>
  </clipPath>
 </defs>
</svg>
