<?xml version="1.0" encoding="utf-8" standalone="no"?>
<!DOCTYPE svg PUBLIC "-//W3C//DTD SVG 1.1//EN"
  "http://www.w3.org/Graphics/SVG/1.1/DTD/svg11.dtd">
<svg xmlns:xlink="http://www.w3.org/1999/xlink" width="499.60625pt" height="207.07625pt" viewBox="0 0 499.60625 207.07625" xmlns="http://www.w3.org/2000/svg" version="1.1">
 <metadata>
  <rdf:RDF xmlns:dc="http://purl.org/dc/elements/1.1/" xmlns:cc="http://creativecommons.org/ns#" xmlns:rdf="http://www.w3.org/1999/02/22-rdf-syntax-ns#">
   <cc:Work>
    <dc:type rdf:resource="http://purl.org/dc/dcmitype/StillImage"/>
    <dc:date>2025-10-29T14:04:03.114061</dc:date>
    <dc:format>image/svg+xml</dc:format>
    <dc:creator>
     <cc:Agent>
      <dc:title>Matplotlib v3.10.6, https://matplotlib.org/</dc:title>
     </cc:Agent>
    </dc:creator>
   </cc:Work>
  </rdf:RDF>
 </metadata>
 <defs>
  <style type="text/css">*{stroke-linejoin: round; stroke-linecap: butt}</style>
 </defs>
 <g id="figure_1">
  <g id="patch_1">
   <path d="M 0 207.07625 
L 499.60625 207.07625 
L 499.60625 -0 
L 0 -0 
L 0 207.07625 
z
" style="fill: none"/>
  </g>
  <g id="axes_1">
   <g id="patch_2">
    <path d="M 46.00625 173.52 
L 492.40625 173.52 
L 492.40625 7.2 
L 46.00625 7.2 
L 46.00625 173.52 
z
" style="fill: none"/>
   </g>
   <g id="matplotlib.axis_1">
    <g id="xtick_1">
     <g id="line2d_1">
      <defs>
       <path id="m0696705005" d="M 0 0 
L 0 3.5 
" style="stroke: #000000; stroke-width: 0.8"/>
      </defs>
      <g>
       <use xlink:href="#m0696705005" x="157.60625" y="173.52" style="stroke: #000000; stroke-width: 0.8"/>
      </g>
     </g>
     <g id="text_1">
      <!-- 5 -->
      <g transform="translate(151.24375 195.716875) scale(0.2 -0.2)">
       <defs>
        <path id="DejaVuSans-35" d="M 691 4666 
L 3169 4666 
L 3169 4134 
L 1269 4134 
L 1269 2991 
Q 1406 3038 1543 3061 
Q 1681 3084 1819 3084 
Q 2600 3084 3056 2656 
Q 3513 2228 3513 1497 
Q 3513 744 3044 326 
Q 2575 -91 1722 -91 
Q 1428 -91 1123 -41 
Q 819 9 494 109 
L 494 744 
Q 775 591 1075 516 
Q 1375 441 1709 441 
Q 2250 441 2565 725 
Q 2881 1009 2881 1497 
Q 2881 1984 2565 2268 
Q 2250 2553 1709 2553 
Q 1456 2553 1204 2497 
Q 953 2441 691 2322 
L 691 4666 
z
" transform="scale(0.015625)"/>
       </defs>
       <use xlink:href="#DejaVuSans-35"/>
      </g>
     </g>
    </g>
    <g id="xtick_2">
     <g id="line2d_2">
      <g>
       <use xlink:href="#m0696705005" x="269.20625" y="173.52" style="stroke: #000000; stroke-width: 0.8"/>
      </g>
     </g>
     <g id="text_2">
      <!-- 10 -->
      <g transform="translate(256.48125 195.716875) scale(0.2 -0.2)">
       <defs>
        <path id="DejaVuSans-31" d="M 794 531 
L 1825 531 
L 1825 4091 
L 703 3866 
L 703 4441 
L 1819 4666 
L 2450 4666 
L 2450 531 
L 3481 531 
L 3481 0 
L 794 0 
L 794 531 
z
" transform="scale(0.015625)"/>
        <path id="DejaVuSans-30" d="M 2034 4250 
Q 1547 4250 1301 3770 
Q 1056 3291 1056 2328 
Q 1056 1369 1301 889 
Q 1547 409 2034 409 
Q 2525 409 2770 889 
Q 3016 1369 3016 2328 
Q 3016 3291 2770 3770 
Q 2525 4250 2034 4250 
z
M 2034 4750 
Q 2819 4750 3233 4129 
Q 3647 3509 3647 2328 
Q 3647 1150 3233 529 
Q 2819 -91 2034 -91 
Q 1250 -91 836 529 
Q 422 1150 422 2328 
Q 422 3509 836 4129 
Q 1250 4750 2034 4750 
z
" transform="scale(0.015625)"/>
       </defs>
       <use xlink:href="#DejaVuSans-31"/>
       <use xlink:href="#DejaVuSans-30" transform="translate(63.623047 0)"/>
      </g>
     </g>
    </g>
   </g>
   <g id="matplotlib.axis_2">
    <g id="ytick_1">
     <g id="line2d_3">
      <defs>
       <path id="mb40894a6d0" d="M 0 0 
L -3.5 0 
" style="stroke: #000000; stroke-width: 0.8"/>
      </defs>
      <g>
       <use xlink:href="#mb40894a6d0" x="46.00625" y="171.950943" style="stroke: #000000; stroke-width: 0.8"/>
      </g>
     </g>
     <g id="text_3">
      <!-- 0 -->
      <g transform="translate(26.28125 179.549381) scale(0.2 -0.2)">
       <use xlink:href="#DejaVuSans-30"/>
      </g>
     </g>
    </g>
    <g id="ytick_2">
     <g id="line2d_4">
      <g>
       <use xlink:href="#mb40894a6d0" x="46.00625" y="93.498113" style="stroke: #000000; stroke-width: 0.8"/>
      </g>
     </g>
     <g id="text_4">
      <!-- 0.5 -->
      <g transform="translate(7.2 101.096551) scale(0.2 -0.2)">
       <defs>
        <path id="DejaVuSans-2e" d="M 684 794 
L 1344 794 
L 1344 0 
L 684 0 
L 684 794 
z
" transform="scale(0.015625)"/>
       </defs>
       <use xlink:href="#DejaVuSans-30"/>
       <use xlink:href="#DejaVuSans-2e" transform="translate(63.623047 0)"/>
       <use xlink:href="#DejaVuSans-35" transform="translate(95.410156 0)"/>
      </g>
     </g>
    </g>
    <g id="ytick_3">
     <g id="line2d_5">
      <g>
       <use xlink:href="#mb40894a6d0" x="46.00625" y="15.045283" style="stroke: #000000; stroke-width: 0.8"/>
      </g>
     </g>
     <g id="text_5">
      <!-- 1 -->
      <g transform="translate(26.28125 22.643721) scale(0.2 -0.2)">
       <use xlink:href="#DejaVuSans-31"/>
      </g>
     </g>
    </g>
   </g>
   <g id="line2d_6">
    <path d="M 46.006473 15.045283 
L 500.60625 15.045283 
L 500.60625 15.045283 
" clip-path="url(#p8757cb4f27)" style="fill: none; stroke-dasharray: 14.8,6.4; stroke-dashoffset: 0; stroke: #000000; stroke-opacity: 0.5; stroke-width: 4"/>
   </g>
   <g id="patch_3">
    <path d="M 46.00625 173.52 
L 46.00625 7.2 
" style="fill: none; stroke: #000000; stroke-width: 0.8; stroke-linejoin: miter; stroke-linecap: square"/>
   </g>
   <g id="patch_4">
    <path d="M 46.00625 173.52 
L 492.40625 173.52 
" style="fill: none; stroke: #000000; stroke-width: 0.8; stroke-linejoin: miter; stroke-linecap: square"/>
   </g>
   <g id="line2d_7">
    <path d="M 46.006473 33.31127 
L 50.492904 47.389843 
L 54.979335 55.00874 
L 59.465766 61.890148 
L 63.952197 68.123876 
L 68.438628 73.830111 
L 72.925059 79.091764 
L 77.41149 83.967885 
L 81.897922 88.503885 
L 86.384353 92.736556 
L 90.870784 96.696613 
L 95.357215 100.41018 
L 99.843646 103.899767 
L 104.330077 107.184957 
L 108.816508 110.282912 
L 113.302939 113.208762 
L 117.78937 115.975894 
L 122.275801 118.596195 
L 131.248663 123.437493 
L 140.221525 127.804538 
L 149.194387 131.755293 
L 158.167249 135.337203 
L 167.140111 138.589786 
L 176.112973 141.546567 
L 185.085835 144.23648 
L 194.058697 146.68487 
L 203.03156 148.914213 
L 212.004422 150.944613 
L 220.977284 152.794174 
L 229.950146 154.479265 
L 243.409439 156.730615 
L 256.868732 158.689479 
L 270.328025 160.394426 
L 283.787318 161.878901 
L 297.246611 163.171903 
L 315.192336 164.641009 
L 333.13806 165.864523 
L 351.083784 166.884162 
L 373.515939 167.923934 
L 395.948094 168.753053 
L 422.86668 169.529844 
L 454.271698 170.206452 
L 490.163146 170.758159 
L 500.60625 170.884297 
L 500.60625 170.884297 
" clip-path="url(#p8757cb4f27)" style="fill: none; stroke: #ff6347; stroke-width: 4; stroke-linecap: square"/>
   </g>
   <g id="PathCollection_1">
    <defs>
     <path id="med7c9408f9" d="M 0 7.071068 
C 1.875269 7.071068 3.673985 6.326016 5 5 
C 6.326016 3.673985 7.071068 1.875269 7.071068 0 
C 7.071068 -1.875269 6.326016 -3.673985 5 -5 
C 3.673985 -6.326016 1.875269 -7.071068 0 -7.071068 
C -1.875269 -7.071068 -3.673985 -6.326016 -5 -5 
C -6.326016 -3.673985 -7.071068 -1.875269 -7.071068 0 
C -7.071068 1.875269 -6.326016 3.673985 -5 5 
C -3.673985 6.326016 -1.875269 7.071068 0 7.071068 
z
" style="stroke: #ff6347"/>
    </defs>
    <g clip-path="url(#p8757cb4f27)">
     <use xlink:href="#med7c9408f9" x="99.843646" y="102.631107" style="fill: #ff6347; stroke: #ff6347"/>
    </g>
   </g>
   <g id="line2d_8">
    <path d="M 46.006473 67.128739 
L 50.492904 76.211698 
L 63.952197 87.621495 
L 72.925059 94.923274 
L 81.897922 101.858902 
L 90.870784 108.389814 
L 99.843646 114.495602 
L 108.816508 120.168392 
L 117.78937 125.409683 
L 126.762232 130.228158 
L 135.735094 134.637944 
L 144.707956 138.657166 
L 153.680818 142.306717 
L 162.65368 145.609251 
L 171.626542 148.58835 
L 180.599404 151.267866 
L 189.572266 153.671414 
L 198.545129 155.821985 
L 207.517991 157.741665 
L 216.490853 159.451444 
L 225.463715 160.971089 
L 234.436577 162.319071 
L 247.89587 164.05633 
L 261.355163 165.49796 
L 274.814456 166.689867 
L 288.273749 167.671937 
L 306.219473 168.713609 
L 324.165198 169.510691 
L 346.597353 170.245062 
L 373.515939 170.84771 
L 404.920956 171.292467 
L 445.298836 171.615378 
L 500.60625 171.819884 
L 500.60625 171.819884 
" clip-path="url(#p8757cb4f27)" style="fill: none; stroke: #dc143c; stroke-width: 4; stroke-linecap: square"/>
   </g>
   <g id="PathCollection_2">
    <defs>
     <path id="m819e504704" d="M 0 7.071068 
C 1.875269 7.071068 3.673985 6.326016 5 5 
C 6.326016 3.673985 7.071068 1.875269 7.071068 0 
C 7.071068 -1.875269 6.326016 -3.673985 5 -5 
C 3.673985 -6.326016 1.875269 -7.071068 0 -7.071068 
C -1.875269 -7.071068 -3.673985 -6.326016 -5 -5 
C -6.326016 -3.673985 -7.071068 -1.875269 -7.071068 0 
C -7.071068 1.875269 -6.326016 3.673985 -5 5 
C -3.673985 6.326016 -1.875269 7.071068 0 7.071068 
z
" style="stroke: #dc143c"/>
    </defs>
    <g clip-path="url(#p8757cb4f27)">
     <use xlink:href="#m819e504704" x="108.816508" y="119.539841" style="fill: #dc143c; stroke: #dc143c"/>
    </g>
   </g>
   <g id="line2d_9">
    <path d="M 46.006473 28.358467 
L 50.492904 33.099971 
L 59.465766 41.19152 
L 77.41149 57.507256 
L 86.384353 65.445213 
L 95.357215 73.117893 
L 104.330077 80.467147 
L 113.302939 87.456427 
L 122.275801 94.064261 
L 131.248663 100.279688 
L 140.221525 106.099567 
L 149.194387 111.526939 
L 158.167249 116.569826 
L 167.140111 121.240205 
L 176.112973 125.553071 
L 185.085835 129.525584 
L 194.058697 133.176322 
L 203.03156 136.524653 
L 212.004422 139.59023 
L 220.977284 142.392587 
L 229.950146 144.950848 
L 238.923008 147.283502 
L 247.89587 149.408252 
L 256.868732 151.341916 
L 265.841594 153.100369 
L 274.814456 154.698509 
L 288.273749 156.825323 
L 301.733042 158.665459 
L 315.192336 160.257158 
L 328.651629 161.634251 
L 342.110922 162.82649 
L 360.056646 164.173075 
L 378.00237 165.289399 
L 400.434525 166.426137 
L 422.86668 167.337625 
L 449.785267 168.206338 
L 481.190284 168.991694 
L 500.60625 169.385171 
L 500.60625 169.385171 
" clip-path="url(#p8757cb4f27)" style="fill: none; stroke: #800000; stroke-width: 4; stroke-linecap: square"/>
   </g>
   <g id="PathCollection_3">
    <defs>
     <path id="md6473515f2" d="M 0 7.071068 
C 1.875269 7.071068 3.673985 6.326016 5 5 
C 6.326016 3.673985 7.071068 1.875269 7.071068 0 
C 7.071068 -1.875269 6.326016 -3.673985 5 -5 
C 3.673985 -6.326016 1.875269 -7.071068 0 -7.071068 
C -1.875269 -7.071068 -3.673985 -6.326016 -5 -5 
C -6.326016 -3.673985 -7.071068 -1.875269 -7.071068 0 
C -7.071068 1.875269 -6.326016 3.673985 -5 5 
C -3.673985 6.326016 -1.875269 7.071068 0 7.071068 
z
" style="stroke: #800000"/>
    </defs>
    <g clip-path="url(#p8757cb4f27)">
     <use xlink:href="#md6473515f2" x="131.248663" y="100.154705" style="fill: #800000; stroke: #800000"/>
    </g>
   </g>
   <g id="line2d_10">
    <path d="M 46.006473 15.056232 
L 50.492904 16.432544 
L 54.979335 18.366903 
L 59.465766 20.530773 
L 63.952197 23.01724 
L 68.438628 25.791125 
L 72.925059 28.788376 
L 77.41149 31.957353 
L 86.384353 38.6803 
L 95.357215 45.777274 
L 108.816508 56.829221 
L 126.762232 71.680472 
L 135.735094 78.926664 
L 144.707956 85.953354 
L 153.680818 92.708203 
L 162.65368 99.15359 
L 171.626542 105.263933 
L 180.599404 111.023452 
L 189.572266 116.424364 
L 198.545129 121.465397 
L 207.517991 126.150542 
L 216.490853 130.487979 
L 225.463715 134.489138 
L 234.436577 138.167901 
L 243.409439 141.5399 
L 252.382301 144.621931 
L 261.355163 147.431466 
L 270.328025 149.98625 
L 279.300887 152.303976 
L 288.273749 154.402032 
L 297.246611 156.297306 
L 306.219473 158.006039 
L 315.192336 159.543722 
L 328.651629 161.561387 
L 342.110922 163.272853 
L 355.570215 164.719505 
L 369.029508 165.938321 
L 382.488801 166.962046 
L 400.434525 168.072736 
L 418.380249 168.945545 
L 440.812405 169.774345 
L 463.24456 170.380701 
L 490.163146 170.894463 
L 500.60625 171.045632 
L 500.60625 171.045632 
" clip-path="url(#p8757cb4f27)" style="fill: none; stroke: #000000; stroke-width: 4; stroke-linecap: square"/>
   </g>
   <g id="PathCollection_4">
    <defs>
     <path id="mfe61070ba3" d="M 0 7.071068 
C 1.875269 7.071068 3.673985 6.326016 5 5 
C 6.326016 3.673985 7.071068 1.875269 7.071068 0 
C 7.071068 -1.875269 6.326016 -3.673985 5 -5 
C 3.673985 -6.326016 1.875269 -7.071068 0 -7.071068 
C -1.875269 -7.071068 -3.673985 -6.326016 -5 -5 
C -6.326016 -3.673985 -7.071068 -1.875269 -7.071068 0 
C -7.071068 1.875269 -6.326016 3.673985 -5 5 
C -3.673985 6.326016 -1.875269 7.071068 0 7.071068 
z
" style="stroke: #000000"/>
    </defs>
    <g clip-path="url(#p8757cb4f27)">
     <use xlink:href="#mfe61070ba3" x="158.167249" y="93.503588" style="stroke: #000000"/>
    </g>
   </g>
  </g>
 </g>
 <defs>
  <clipPath id="p8757cb4f27">
   <rect x="46.00625" y="7.2" width="446.4" height="166.32"/>
  </clipPath>
 </defs>
</svg>
