<?xml version="1.0" encoding="utf-8" standalone="no"?>
<!DOCTYPE svg PUBLIC "-//W3C//DTD SVG 1.1//EN"
  "http://www.w3.org/Graphics/SVG/1.1/DTD/svg11.dtd">
<svg xmlns:xlink="http://www.w3.org/1999/xlink" width="499.60625pt" height="207.07625pt" viewBox="0 0 499.60625 207.07625" xmlns="http://www.w3.org/2000/svg" version="1.1">
 <metadata>
  <rdf:RDF xmlns:dc="http://purl.org/dc/elements/1.1/" xmlns:cc="http://creativecommons.org/ns#" xmlns:rdf="http://www.w3.org/1999/02/22-rdf-syntax-ns#">
   <cc:Work>
    <dc:type rdf:resource="http://purl.org/dc/dcmitype/StillImage"/>
    <dc:date>2025-10-29T11:17:42.941017</dc:date>
    <dc:format>image/svg+xml</dc:format>
    <dc:creator>
     <cc:Agent>
      <dc:title>Matplotlib v3.10.6, https://matplotlib.org/</dc:title>
     </cc:Agent>
    </dc:creator>
   </cc:Work>
  </rdf:RDF>
 </metadata>
 <defs>
  <style type="text/css">*{stroke-linejoin: round; stroke-linecap: butt}</style>
 </defs>
 <g id="figure_1">
  <g id="patch_1">
   <path d="M 0 207.07625 
L 499.60625 207.07625 
L 499.60625 0 
L 0 0 
L 0 207.07625 
z
" style="fill: none"/>
  </g>
  <g id="axes_1">
   <g id="patch_2">
    <path d="M 46.00625 173.52 
L 492.40625 173.52 
L 492.40625 7.2 
L 46.00625 7.2 
L 46.00625 173.52 
z
" style="fill: none"/>
   </g>
   <g id="matplotlib.axis_1">
    <g id="xtick_1">
     <g id="line2d_1">
      <defs>
       <path id="mf22a2ae7b5" d="M 0 0 
L 0 3.5 
" style="stroke: #000000; stroke-width: 0.8"/>
      </defs>
      <g>
       <use xlink:href="#mf22a2ae7b5" x="157.60625" y="173.52" style="stroke: #000000; stroke-width: 0.8"/>
      </g>
     </g>
     <g id="text_1">
      <!-- 5 -->
      <g transform="translate(151.24375 195.716875) scale(0.2 -0.2)">
       <defs>
        <path id="DejaVuSans-35" d="M 691 4666 
L 3169 4666 
L 3169 4134 
L 1269 4134 
L 1269 2991 
Q 1406 3038 1543 3061 
Q 1681 3084 1819 3084 
Q 2600 3084 3056 2656 
Q 3513 2228 3513 1497 
Q 3513 744 3044 326 
Q 2575 -91 1722 -91 
Q 1428 -91 1123 -41 
Q 819 9 494 109 
L 494 744 
Q 775 591 1075 516 
Q 1375 441 1709 441 
Q 2250 441 2565 725 
Q 2881 1009 2881 1497 
Q 2881 1984 2565 2268 
Q 2250 2553 1709 2553 
Q 1456 2553 1204 2497 
Q 953 2441 691 2322 
L 691 4666 
z
" transform="scale(0.015625)"/>
       </defs>
       <use xlink:href="#DejaVuSans-35"/>
      </g>
     </g>
    </g>
    <g id="xtick_2">
     <g id="line2d_2">
      <g>
       <use xlink:href="#mf22a2ae7b5" x="269.20625" y="173.52" style="stroke: #000000; stroke-width: 0.8"/>
      </g>
     </g>
     <g id="text_2">
      <!-- 10 -->
      <g transform="translate(256.48125 195.716875) scale(0.2 -0.2)">
       <defs>
        <path id="DejaVuSans-31" d="M 794 531 
L 1825 531 
L 1825 4091 
L 703 3866 
L 703 4441 
L 1819 4666 
L 2450 4666 
L 2450 531 
L 3481 531 
L 3481 0 
L 794 0 
L 794 531 
z
" transform="scale(0.015625)"/>
        <path id="DejaVuSans-30" d="M 2034 4250 
Q 1547 4250 1301 3770 
Q 1056 3291 1056 2328 
Q 1056 1369 1301 889 
Q 1547 409 2034 409 
Q 2525 409 2770 889 
Q 3016 1369 3016 2328 
Q 3016 3291 2770 3770 
Q 2525 4250 2034 4250 
z
M 2034 4750 
Q 2819 4750 3233 4129 
Q 3647 3509 3647 2328 
Q 3647 1150 3233 529 
Q 2819 -91 2034 -91 
Q 1250 -91 836 529 
Q 422 1150 422 2328 
Q 422 3509 836 4129 
Q 1250 4750 2034 4750 
z
" transform="scale(0.015625)"/>
       </defs>
       <use xlink:href="#DejaVuSans-31"/>
       <use xlink:href="#DejaVuSans-30" transform="translate(63.623047 0)"/>
      </g>
     </g>
    </g>
    <g id="xtick_3">
     <g id="line2d_3">
      <g>
       <use xlink:href="#mf22a2ae7b5" x="380.80625" y="173.52" style="stroke: #000000; stroke-width: 0.8"/>
      </g>
     </g>
     <g id="text_3">
      <!-- 15 -->
      <g transform="translate(368.08125 195.716875) scale(0.2 -0.2)">
       <use xlink:href="#DejaVuSans-31"/>
       <use xlink:href="#DejaVuSans-35" transform="translate(63.623047 0)"/>
      </g>
     </g>
    </g>
   </g>
   <g id="matplotlib.axis_2">
    <g id="ytick_1">
     <g id="line2d_4">
      <defs>
       <path id="m3d1a2e6dc0" d="M 0 0 
L -3.5 0 
" style="stroke: #000000; stroke-width: 0.8"/>
      </defs>
      <g>
       <use xlink:href="#m3d1a2e6dc0" x="46.00625" y="171.950943" style="stroke: #000000; stroke-width: 0.8"/>
      </g>
     </g>
     <g id="text_4">
      <!-- 0 -->
      <g transform="translate(26.28125 179.549381) scale(0.2 -0.2)">
       <use xlink:href="#DejaVuSans-30"/>
      </g>
     </g>
    </g>
    <g id="ytick_2">
     <g id="line2d_5">
      <g>
       <use xlink:href="#m3d1a2e6dc0" x="46.00625" y="93.498113" style="stroke: #000000; stroke-width: 0.8"/>
      </g>
     </g>
     <g id="text_5">
      <!-- 0.5 -->
      <g transform="translate(7.2 101.096551) scale(0.2 -0.2)">
       <defs>
        <path id="DejaVuSans-2e" d="M 684 794 
L 1344 794 
L 1344 0 
L 684 0 
L 684 794 
z
" transform="scale(0.015625)"/>
       </defs>
       <use xlink:href="#DejaVuSans-30"/>
       <use xlink:href="#DejaVuSans-2e" transform="translate(63.623047 0)"/>
       <use xlink:href="#DejaVuSans-35" transform="translate(95.410156 0)"/>
      </g>
     </g>
    </g>
    <g id="ytick_3">
     <g id="line2d_6">
      <g>
       <use xlink:href="#m3d1a2e6dc0" x="46.00625" y="15.045283" style="stroke: #000000; stroke-width: 0.8"/>
      </g>
     </g>
     <g id="text_6">
      <!-- 1 -->
      <g transform="translate(26.28125 22.643721) scale(0.2 -0.2)">
       <use xlink:href="#DejaVuSans-31"/>
      </g>
     </g>
    </g>
   </g>
   <g id="line2d_7">
    <path d="M 46.006473 15.045283 
L 500.60625 15.045283 
L 500.60625 15.045283 
" clip-path="url(#p2467e46317)" style="fill: none; stroke-dasharray: 14.8,6.4; stroke-dashoffset: 0; stroke: #000000; stroke-opacity: 0.5; stroke-width: 4"/>
   </g>
   <g id="patch_3">
    <path d="M 46.00625 173.52 
L 46.00625 7.2 
" style="fill: none; stroke: #000000; stroke-width: 0.8; stroke-linejoin: miter; stroke-linecap: square"/>
   </g>
   <g id="patch_4">
    <path d="M 46.00625 173.52 
L 492.40625 173.52 
" style="fill: none; stroke: #000000; stroke-width: 0.8; stroke-linejoin: miter; stroke-linecap: square"/>
   </g>
   <g id="line2d_8">
    <path d="M 46.006473 147.714461 
L 50.492904 155.034026 
L 59.465766 157.532027 
L 68.438628 159.695122 
L 77.41149 161.560369 
L 86.384353 163.163394 
L 95.357215 164.536679 
L 104.330077 165.709551 
L 113.302939 166.708312 
L 126.762232 167.930543 
L 140.221525 168.881228 
L 153.680818 169.616524 
L 171.626542 170.339751 
L 189.572266 170.845357 
L 212.004422 171.26533 
L 243.409439 171.603544 
L 288.273749 171.821576 
L 364.543077 171.927493 
L 500.60625 171.949877 
L 500.60625 171.949877 
" clip-path="url(#p2467e46317)" style="fill: none; stroke: #ba55d3; stroke-width: 4; stroke-linecap: square"/>
   </g>
   <g id="PathCollection_1">
    <defs>
     <path id="m128226b1e5" d="M 0 7.071068 
C 1.875269 7.071068 3.673985 6.326016 5 5 
C 6.326016 3.673985 7.071068 1.875269 7.071068 0 
C 7.071068 -1.875269 6.326016 -3.673985 5 -5 
C 3.673985 -6.326016 1.875269 -7.071068 0 -7.071068 
C -1.875269 -7.071068 -3.673985 -6.326016 -5 -5 
C -6.326016 -3.673985 -7.071068 -1.875269 -7.071068 0 
C -7.071068 1.875269 -6.326016 3.673985 -5 5 
C -3.673985 6.326016 -1.875269 7.071068 0 7.071068 
z
" style="stroke: #ba55d3"/>
    </defs>
    <g clip-path="url(#p2467e46317)">
     <use xlink:href="#m128226b1e5" x="72.925059" y="159.832702" style="fill: #ba55d3; stroke: #ba55d3"/>
    </g>
   </g>
   <g id="line2d_9">
    <path d="M 46.006473 111.080121 
L 50.492904 120.218514 
L 59.465766 125.851625 
L 68.438628 131.022328 
L 77.41149 135.711634 
L 86.384353 139.945711 
L 95.357215 143.753646 
L 104.330077 147.16589 
L 113.302939 150.213281 
L 122.275801 152.926301 
L 131.248663 155.334532 
L 140.221525 157.466276 
L 149.194387 159.348297 
L 158.167249 161.005668 
L 167.140111 162.46169 
L 176.112973 163.737868 
L 189.572266 165.357614 
L 203.03156 166.676081 
L 216.490853 167.744496 
L 229.950146 168.606626 
L 247.89587 169.498449 
L 265.841594 170.160598 
L 288.273749 170.749725 
L 315.192336 171.212226 
L 351.083784 171.568589 
L 400.434525 171.798687 
L 481.190284 171.918147 
L 500.60625 171.928354 
L 500.60625 171.928354 
" clip-path="url(#p2467e46317)" style="fill: none; stroke: #9400d3; stroke-width: 4; stroke-linecap: square"/>
   </g>
   <g id="PathCollection_2">
    <defs>
     <path id="mc2637a10c4" d="M 0 7.071068 
C 1.875269 7.071068 3.673985 6.326016 5 5 
C 6.326016 3.673985 7.071068 1.875269 7.071068 0 
C 7.071068 -1.875269 6.326016 -3.673985 5 -5 
C 3.673985 -6.326016 1.875269 -7.071068 0 -7.071068 
C -1.875269 -7.071068 -3.673985 -6.326016 -5 -5 
C -6.326016 -3.673985 -7.071068 -1.875269 -7.071068 0 
C -7.071068 1.875269 -6.326016 3.673985 -5 5 
C -3.673985 6.326016 -1.875269 7.071068 0 7.071068 
z
" style="stroke: #9400d3"/>
    </defs>
    <g clip-path="url(#p2467e46317)">
     <use xlink:href="#mc2637a10c4" x="90.870784" y="141.515532" style="fill: #9400d3; stroke: #9400d3"/>
    </g>
   </g>
   <g id="line2d_10">
    <path d="M 46.006473 66.936213 
L 50.492904 75.114367 
L 63.952197 86.894241 
L 72.925059 94.340518 
L 81.897922 101.371424 
L 90.870784 107.96506 
L 99.843646 114.11139 
L 108.816508 119.809825 
L 117.78937 125.067242 
L 126.762232 129.896305 
L 135.735094 134.31402 
L 144.707956 138.340502 
L 153.680818 141.997935 
L 162.65368 145.309718 
L 171.626542 148.299773 
L 180.599404 150.992 
L 189.572266 153.409864 
L 198.545129 155.576078 
L 207.517991 157.512389 
L 216.490853 159.239419 
L 225.463715 160.776577 
L 234.436577 162.142002 
L 247.89587 163.904674 
L 261.355163 165.370142 
L 274.814456 166.583788 
L 288.273749 167.585197 
L 306.219473 168.648762 
L 324.165198 169.46343 
L 346.597353 170.214387 
L 369.029508 170.745023 
L 400.434525 171.232847 
L 436.325974 171.557752 
L 490.163146 171.794351 
L 500.60625 171.82017 
L 500.60625 171.82017 
" clip-path="url(#p2467e46317)" style="fill: none; stroke: #4b0082; stroke-width: 4; stroke-linecap: square"/>
   </g>
   <g id="PathCollection_3">
    <defs>
     <path id="m0c19c7038c" d="M 0 7.071068 
C 1.875269 7.071068 3.673985 6.326016 5 5 
C 6.326016 3.673985 7.071068 1.875269 7.071068 0 
C 7.071068 -1.875269 6.326016 -3.673985 5 -5 
C 3.673985 -6.326016 1.875269 -7.071068 0 -7.071068 
C -1.875269 -7.071068 -3.673985 -6.326016 -5 -5 
C -6.326016 -3.673985 -7.071068 -1.875269 -7.071068 0 
C -7.071068 1.875269 -6.326016 3.673985 -5 5 
C -3.673985 6.326016 -1.875269 7.071068 0 7.071068 
z
" style="stroke: #4b0082"/>
    </defs>
    <g clip-path="url(#p2467e46317)">
     <use xlink:href="#m0c19c7038c" x="108.816508" y="119.443578" style="fill: #4b0082; stroke: #4b0082"/>
    </g>
   </g>
   <g id="line2d_11">
    <path d="M 46.006473 15.056232 
L 50.492904 16.432544 
L 54.979335 18.366903 
L 59.465766 20.530773 
L 63.952197 23.01724 
L 68.438628 25.791125 
L 72.925059 28.788376 
L 77.41149 31.957353 
L 86.384353 38.6803 
L 95.357215 45.777274 
L 108.816508 56.829221 
L 126.762232 71.680472 
L 135.735094 78.926664 
L 144.707956 85.953354 
L 153.680818 92.708203 
L 162.65368 99.15359 
L 171.626542 105.263933 
L 180.599404 111.023452 
L 189.572266 116.424364 
L 198.545129 121.465397 
L 207.517991 126.150542 
L 216.490853 130.487979 
L 225.463715 134.489138 
L 234.436577 138.167901 
L 243.409439 141.5399 
L 252.382301 144.621931 
L 261.355163 147.431466 
L 270.328025 149.98625 
L 279.300887 152.303976 
L 288.273749 154.402032 
L 297.246611 156.297306 
L 306.219473 158.006039 
L 315.192336 159.543722 
L 328.651629 161.561387 
L 342.110922 163.272853 
L 355.570215 164.719505 
L 369.029508 165.938321 
L 382.488801 166.962046 
L 400.434525 168.072736 
L 418.380249 168.945545 
L 440.812405 169.774345 
L 463.24456 170.380701 
L 490.163146 170.894463 
L 500.60625 171.045632 
L 500.60625 171.045632 
" clip-path="url(#p2467e46317)" style="fill: none; stroke: #000000; stroke-width: 4; stroke-linecap: square"/>
   </g>
   <g id="PathCollection_4">
    <defs>
     <path id="m952f755a76" d="M 0 7.071068 
C 1.875269 7.071068 3.673985 6.326016 5 5 
C 6.326016 3.673985 7.071068 1.875269 7.071068 0 
C 7.071068 -1.875269 6.326016 -3.673985 5 -5 
C 3.673985 -6.326016 1.875269 -7.071068 0 -7.071068 
C -1.875269 -7.071068 -3.673985 -6.326016 -5 -5 
C -6.326016 -3.673985 -7.071068 -1.875269 -7.071068 0 
C -7.071068 1.875269 -6.326016 3.673985 -5 5 
C -3.673985 6.326016 -1.875269 7.071068 0 7.071068 
z
" style="stroke: #000000"/>
    </defs>
    <g clip-path="url(#p2467e46317)">
     <use xlink:href="#m952f755a76" x="158.167249" y="93.503588" style="stroke: #000000"/>
    </g>
   </g>
  </g>
 </g>
 <defs>
  <clipPath id="p2467e46317">
   <rect x="46.00625" y="7.2" width="446.4" height="166.32"/>
  </clipPath>
 </defs>
</svg>
