<?xml version="1.0" encoding="utf-8" standalone="no"?>
<!DOCTYPE svg PUBLIC "-//W3C//DTD SVG 1.1//EN"
  "http://www.w3.org/Graphics/SVG/1.1/DTD/svg11.dtd">
<svg xmlns:xlink="http://www.w3.org/1999/xlink" width="499.60625pt" height="207.07625pt" viewBox="0 0 499.60625 207.07625" xmlns="http://www.w3.org/2000/svg" version="1.1">
 <metadata>
  <rdf:RDF xmlns:dc="http://purl.org/dc/elements/1.1/" xmlns:cc="http://creativecommons.org/ns#" xmlns:rdf="http://www.w3.org/1999/02/22-rdf-syntax-ns#">
   <cc:Work>
    <dc:type rdf:resource="http://purl.org/dc/dcmitype/StillImage"/>
    <dc:date>2025-10-29T11:38:33.828110</dc:date>
    <dc:format>image/svg+xml</dc:format>
    <dc:creator>
     <cc:Agent>
      <dc:title>Matplotlib v3.10.6, https://matplotlib.org/</dc:title>
     </cc:Agent>
    </dc:creator>
   </cc:Work>
  </rdf:RDF>
 </metadata>
 <defs>
  <style type="text/css">*{stroke-linejoin: round; stroke-linecap: butt}</style>
 </defs>
 <g id="figure_1">
  <g id="patch_1">
   <path d="M 0 207.07625 
L 499.60625 207.07625 
L 499.60625 0 
L 0 0 
L 0 207.07625 
z
" style="fill: none"/>
  </g>
  <g id="axes_1">
   <g id="patch_2">
    <path d="M 46.00625 173.52 
L 492.40625 173.52 
L 492.40625 7.2 
L 46.00625 7.2 
L 46.00625 173.52 
z
" style="fill: none"/>
   </g>
   <g id="matplotlib.axis_1">
    <g id="xtick_1">
     <g id="line2d_1">
      <defs>
       <path id="m78b9d56229" d="M 0 0 
L 0 3.5 
" style="stroke: #000000; stroke-width: 0.8"/>
      </defs>
      <g>
       <use xlink:href="#m78b9d56229" x="120.40625" y="173.52" style="stroke: #000000; stroke-width: 0.8"/>
      </g>
     </g>
     <g id="text_1">
      <!-- 5 -->
      <g transform="translate(114.04375 195.716875) scale(0.2 -0.2)">
       <defs>
        <path id="DejaVuSans-35" d="M 691 4666 
L 3169 4666 
L 3169 4134 
L 1269 4134 
L 1269 2991 
Q 1406 3038 1543 3061 
Q 1681 3084 1819 3084 
Q 2600 3084 3056 2656 
Q 3513 2228 3513 1497 
Q 3513 744 3044 326 
Q 2575 -91 1722 -91 
Q 1428 -91 1123 -41 
Q 819 9 494 109 
L 494 744 
Q 775 591 1075 516 
Q 1375 441 1709 441 
Q 2250 441 2565 725 
Q 2881 1009 2881 1497 
Q 2881 1984 2565 2268 
Q 2250 2553 1709 2553 
Q 1456 2553 1204 2497 
Q 953 2441 691 2322 
L 691 4666 
z
" transform="scale(0.015625)"/>
       </defs>
       <use xlink:href="#DejaVuSans-35"/>
      </g>
     </g>
    </g>
    <g id="xtick_2">
     <g id="line2d_2">
      <g>
       <use xlink:href="#m78b9d56229" x="194.80625" y="173.52" style="stroke: #000000; stroke-width: 0.8"/>
      </g>
     </g>
     <g id="text_2">
      <!-- 10 -->
      <g transform="translate(182.08125 195.716875) scale(0.2 -0.2)">
       <defs>
        <path id="DejaVuSans-31" d="M 794 531 
L 1825 531 
L 1825 4091 
L 703 3866 
L 703 4441 
L 1819 4666 
L 2450 4666 
L 2450 531 
L 3481 531 
L 3481 0 
L 794 0 
L 794 531 
z
" transform="scale(0.015625)"/>
        <path id="DejaVuSans-30" d="M 2034 4250 
Q 1547 4250 1301 3770 
Q 1056 3291 1056 2328 
Q 1056 1369 1301 889 
Q 1547 409 2034 409 
Q 2525 409 2770 889 
Q 3016 1369 3016 2328 
Q 3016 3291 2770 3770 
Q 2525 4250 2034 4250 
z
M 2034 4750 
Q 2819 4750 3233 4129 
Q 3647 3509 3647 2328 
Q 3647 1150 3233 529 
Q 2819 -91 2034 -91 
Q 1250 -91 836 529 
Q 422 1150 422 2328 
Q 422 3509 836 4129 
Q 1250 4750 2034 4750 
z
" transform="scale(0.015625)"/>
       </defs>
       <use xlink:href="#DejaVuSans-31"/>
       <use xlink:href="#DejaVuSans-30" transform="translate(63.623047 0)"/>
      </g>
     </g>
    </g>
    <g id="xtick_3">
     <g id="line2d_3">
      <g>
       <use xlink:href="#m78b9d56229" x="269.20625" y="173.52" style="stroke: #000000; stroke-width: 0.8"/>
      </g>
     </g>
     <g id="text_3">
      <!-- 15 -->
      <g transform="translate(256.48125 195.716875) scale(0.2 -0.2)">
       <use xlink:href="#DejaVuSans-31"/>
       <use xlink:href="#DejaVuSans-35" transform="translate(63.623047 0)"/>
      </g>
     </g>
    </g>
   </g>
   <g id="matplotlib.axis_2">
    <g id="ytick_1">
     <g id="line2d_4">
      <defs>
       <path id="m73818114dc" d="M 0 0 
L -3.5 0 
" style="stroke: #000000; stroke-width: 0.8"/>
      </defs>
      <g>
       <use xlink:href="#m73818114dc" x="46.00625" y="171.950943" style="stroke: #000000; stroke-width: 0.8"/>
      </g>
     </g>
     <g id="text_4">
      <!-- 0 -->
      <g transform="translate(26.28125 179.549381) scale(0.2 -0.2)">
       <use xlink:href="#DejaVuSans-30"/>
      </g>
     </g>
    </g>
    <g id="ytick_2">
     <g id="line2d_5">
      <g>
       <use xlink:href="#m73818114dc" x="46.00625" y="93.498113" style="stroke: #000000; stroke-width: 0.8"/>
      </g>
     </g>
     <g id="text_5">
      <!-- 0.5 -->
      <g transform="translate(7.2 101.096551) scale(0.2 -0.2)">
       <defs>
        <path id="DejaVuSans-2e" d="M 684 794 
L 1344 794 
L 1344 0 
L 684 0 
L 684 794 
z
" transform="scale(0.015625)"/>
       </defs>
       <use xlink:href="#DejaVuSans-30"/>
       <use xlink:href="#DejaVuSans-2e" transform="translate(63.623047 0)"/>
       <use xlink:href="#DejaVuSans-35" transform="translate(95.410156 0)"/>
      </g>
     </g>
    </g>
    <g id="ytick_3">
     <g id="line2d_6">
      <g>
       <use xlink:href="#m73818114dc" x="46.00625" y="15.045283" style="stroke: #000000; stroke-width: 0.8"/>
      </g>
     </g>
     <g id="text_6">
      <!-- 1 -->
      <g transform="translate(26.28125 22.643721) scale(0.2 -0.2)">
       <use xlink:href="#DejaVuSans-31"/>
      </g>
     </g>
    </g>
   </g>
   <g id="line2d_7">
    <path d="M 46.006399 15.045283 
L 500.60625 15.045283 
L 500.60625 15.045283 
" clip-path="url(#pcc8e0ae739)" style="fill: none; stroke-dasharray: 14.8,6.4; stroke-dashoffset: 0; stroke: #000000; stroke-opacity: 0.5; stroke-width: 4"/>
   </g>
   <g id="patch_3">
    <path d="M 46.00625 173.52 
L 46.00625 7.2 
" style="fill: none; stroke: #000000; stroke-width: 0.8; stroke-linejoin: miter; stroke-linecap: square"/>
   </g>
   <g id="patch_4">
    <path d="M 46.00625 173.52 
L 492.40625 173.52 
" style="fill: none; stroke: #000000; stroke-width: 0.8; stroke-linejoin: miter; stroke-linecap: square"/>
   </g>
   <g id="line2d_8">
    <path d="M 46.006399 120.638186 
L 48.997353 130.861739 
L 54.979261 135.38878 
L 60.961169 139.595011 
L 66.943077 143.453855 
L 72.924985 146.961611 
L 78.906893 150.124287 
L 84.888801 152.955352 
L 90.870709 155.473486 
L 96.852617 157.700673 
L 102.834525 159.660671 
L 108.816433 161.377828 
L 114.798341 162.876205 
L 120.780249 164.178961 
L 126.762158 165.307935 
L 135.73502 166.719447 
L 144.707882 167.846431 
L 153.680744 168.741494 
L 165.64456 169.649788 
L 177.608376 170.308885 
L 192.563146 170.880273 
L 210.50887 171.314727 
L 234.436502 171.636309 
L 267.336997 171.833179 
L 327.156077 171.931806 
L 500.60625 171.950868 
L 500.60625 171.950868 
" clip-path="url(#pcc8e0ae739)" style="fill: none; stroke: #ffb84a; stroke-width: 4; stroke-linecap: square"/>
   </g>
   <g id="PathCollection_1">
    <defs>
     <path id="m46baf551b6" d="M 0 7.071068 
C 1.875269 7.071068 3.673985 6.326016 5 5 
C 6.326016 3.673985 7.071068 1.875269 7.071068 0 
C 7.071068 -1.875269 6.326016 -3.673985 5 -5 
C 3.673985 -6.326016 1.875269 -7.071068 0 -7.071068 
C -1.875269 -7.071068 -3.673985 -6.326016 -5 -5 
C -6.326016 -3.673985 -7.071068 -1.875269 -7.071068 0 
C -7.071068 1.875269 -6.326016 3.673985 -5 5 
C -3.673985 6.326016 -1.875269 7.071068 0 7.071068 
z
" style="stroke: #ffb84a"/>
    </defs>
    <g clip-path="url(#pcc8e0ae739)">
     <use xlink:href="#m46baf551b6" x="72.924985" y="146.294565" style="fill: #ffb84a; stroke: #ffb84a"/>
    </g>
   </g>
   <g id="line2d_9">
    <path d="M 46.006399 82.341298 
L 48.997353 93.227379 
L 60.961169 106.095001 
L 66.943077 112.18099 
L 72.924985 117.937307 
L 78.906893 123.327837 
L 84.888801 128.332689 
L 90.870709 132.944893 
L 96.852617 137.167618 
L 102.834525 141.011748 
L 108.816433 144.493793 
L 114.798341 147.634096 
L 120.780249 150.455363 
L 126.762158 152.981482 
L 132.744066 155.236624 
L 138.725974 157.244567 
L 144.707882 159.028224 
L 150.68979 160.609327 
L 156.671698 162.00823 
L 162.653606 163.243806 
L 171.626468 164.828498 
L 180.59933 166.136732 
L 189.572192 167.213677 
L 198.545054 168.097955 
L 210.50887 169.033186 
L 222.472686 169.747378 
L 237.427456 170.40498 
L 255.373181 170.945318 
L 276.309859 171.345658 
L 306.219399 171.660832 
L 348.092755 171.849301 
L 425.85756 171.937435 
L 500.60625 171.949299 
L 500.60625 171.949299 
" clip-path="url(#pcc8e0ae739)" style="fill: none; stroke: #ff8c00; stroke-width: 4; stroke-linecap: square"/>
   </g>
   <g id="PathCollection_2">
    <defs>
     <path id="m5a5eb18dc8" d="M 0 7.071068 
C 1.875269 7.071068 3.673985 6.326016 5 5 
C 6.326016 3.673985 7.071068 1.875269 7.071068 0 
C 7.071068 -1.875269 6.326016 -3.673985 5 -5 
C 3.673985 -6.326016 1.875269 -7.071068 0 -7.071068 
C -1.875269 -7.071068 -3.673985 -6.326016 -5 -5 
C -6.326016 -3.673985 -7.071068 -1.875269 -7.071068 0 
C -7.071068 1.875269 -6.326016 3.673985 -5 5 
C -3.673985 6.326016 -1.875269 7.071068 0 7.071068 
z
" style="stroke: #ff8c00"/>
    </defs>
    <g clip-path="url(#pcc8e0ae739)">
     <use xlink:href="#m5a5eb18dc8" x="84.888801" y="127.146121" style="fill: #ff8c00; stroke: #ff8c00"/>
    </g>
   </g>
   <g id="line2d_10">
    <path d="M 46.006399 43.690994 
L 48.997353 52.958607 
L 69.934031 81.033975 
L 75.915939 88.490094 
L 81.897847 95.555687 
L 87.879755 102.203671 
L 93.861663 108.421839 
L 99.843571 114.208414 
L 105.825479 119.569138 
L 111.807387 124.515333 
L 117.789295 129.062503 
L 123.771203 133.229224 
L 129.753112 137.036209 
L 135.73502 140.505498 
L 141.716928 143.659781 
L 147.698836 146.521833 
L 153.680744 149.114069 
L 159.662652 151.458203 
L 165.64456 153.575011 
L 171.626468 155.484162 
L 177.608376 157.204121 
L 183.590284 158.752101 
L 192.563146 160.78617 
L 201.536008 162.517555 
L 210.50887 163.989002 
L 219.481732 165.237802 
L 228.454594 166.296315 
L 240.41841 167.459425 
L 252.382227 168.389272 
L 267.336997 169.291992 
L 282.291767 169.97114 
L 300.237491 170.566233 
L 321.174169 171.043226 
L 348.092755 171.428319 
L 383.984204 171.705282 
L 437.821376 171.876054 
L 500.60625 171.934785 
L 500.60625 171.934785 
" clip-path="url(#pcc8e0ae739)" style="fill: none; stroke: #8b4513; stroke-width: 4; stroke-linecap: square"/>
   </g>
   <g id="PathCollection_3">
    <defs>
     <path id="m265f2f1571" d="M 0 7.071068 
C 1.875269 7.071068 3.673985 6.326016 5 5 
C 6.326016 3.673985 7.071068 1.875269 7.071068 0 
C 7.071068 -1.875269 6.326016 -3.673985 5 -5 
C 3.673985 -6.326016 1.875269 -7.071068 0 -7.071068 
C -1.875269 -7.071068 -3.673985 -6.326016 -5 -5 
C -6.326016 -3.673985 -7.071068 -1.875269 -7.071068 0 
C -7.071068 1.875269 -6.326016 3.673985 -5 5 
C -3.673985 6.326016 -1.875269 7.071068 0 7.071068 
z
" style="stroke: #8b4513"/>
    </defs>
    <g clip-path="url(#pcc8e0ae739)">
     <use xlink:href="#m265f2f1571" x="93.861663" y="107.820968" style="fill: #8b4513; stroke: #8b4513"/>
    </g>
   </g>
   <g id="line2d_11">
    <path d="M 46.006399 15.056232 
L 48.997353 16.432544 
L 51.988307 18.366903 
L 54.979261 20.530773 
L 57.970215 23.01724 
L 60.961169 25.791125 
L 63.952123 28.788376 
L 69.934031 35.262799 
L 75.915939 42.190798 
L 84.888801 53.112556 
L 102.834525 75.32708 
L 111.807387 85.953354 
L 117.789295 92.708203 
L 123.771203 99.15359 
L 129.753112 105.263933 
L 135.73502 111.023452 
L 141.716928 116.424364 
L 147.698836 121.465397 
L 153.680744 126.150542 
L 159.662652 130.487979 
L 165.64456 134.489138 
L 171.626468 138.167901 
L 177.608376 141.5399 
L 183.590284 144.621931 
L 189.572192 147.431466 
L 195.5541 149.98625 
L 201.536008 152.303976 
L 207.517916 154.402032 
L 213.499824 156.297306 
L 219.481732 158.006039 
L 225.46364 159.543722 
L 234.436502 161.561387 
L 243.409365 163.272853 
L 252.382227 164.719505 
L 261.355089 165.938321 
L 270.327951 166.962046 
L 282.291767 168.072736 
L 294.255583 168.945545 
L 309.210353 169.774345 
L 324.165123 170.380701 
L 342.110847 170.894463 
L 366.03848 171.332017 
L 395.94802 171.636272 
L 440.81233 171.83824 
L 500.60625 171.922662 
L 500.60625 171.922662 
" clip-path="url(#pcc8e0ae739)" style="fill: none; stroke: #000000; stroke-width: 4; stroke-linecap: square"/>
   </g>
   <g id="PathCollection_4">
    <defs>
     <path id="m9340e3198f" d="M 0 7.071068 
C 1.875269 7.071068 3.673985 6.326016 5 5 
C 6.326016 3.673985 7.071068 1.875269 7.071068 0 
C 7.071068 -1.875269 6.326016 -3.673985 5 -5 
C 3.673985 -6.326016 1.875269 -7.071068 0 -7.071068 
C -1.875269 -7.071068 -3.673985 -6.326016 -5 -5 
C -6.326016 -3.673985 -7.071068 -1.875269 -7.071068 0 
C -7.071068 1.875269 -6.326016 3.673985 -5 5 
C -3.673985 6.326016 -1.875269 7.071068 0 7.071068 
z
" style="stroke: #000000"/>
    </defs>
    <g clip-path="url(#pcc8e0ae739)">
     <use xlink:href="#m9340e3198f" x="120.780249" y="93.503588" style="stroke: #000000"/>
    </g>
   </g>
  </g>
 </g>
 <defs>
  <clipPath id="pcc8e0ae739">
   <rect x="46.00625" y="7.2" width="446.4" height="166.32"/>
  </clipPath>
 </defs>
</svg>
