<?xml version="1.0" encoding="utf-8" standalone="no"?>
<!DOCTYPE svg PUBLIC "-//W3C//DTD SVG 1.1//EN"
  "http://www.w3.org/Graphics/SVG/1.1/DTD/svg11.dtd">
<svg xmlns:xlink="http://www.w3.org/1999/xlink" width="332.20625pt" height="207.07625pt" viewBox="0 0 332.20625 207.07625" xmlns="http://www.w3.org/2000/svg" version="1.1">
 <metadata>
  <rdf:RDF xmlns:dc="http://purl.org/dc/elements/1.1/" xmlns:cc="http://creativecommons.org/ns#" xmlns:rdf="http://www.w3.org/1999/02/22-rdf-syntax-ns#">
   <cc:Work>
    <dc:type rdf:resource="http://purl.org/dc/dcmitype/StillImage"/>
    <dc:date>2025-10-29T16:04:59.667384</dc:date>
    <dc:format>image/svg+xml</dc:format>
    <dc:creator>
     <cc:Agent>
      <dc:title>Matplotlib v3.10.6, https://matplotlib.org/</dc:title>
     </cc:Agent>
    </dc:creator>
   </cc:Work>
  </rdf:RDF>
 </metadata>
 <defs>
  <style type="text/css">*{stroke-linejoin: round; stroke-linecap: butt}</style>
 </defs>
 <g id="figure_1">
  <g id="patch_1">
   <path d="M 0 207.07625 
L 332.20625 207.07625 
L 332.20625 0 
L 0 0 
L 0 207.07625 
z
" style="fill: none"/>
  </g>
  <g id="axes_1">
   <g id="patch_2">
    <path d="M 46.00625 173.52 
L 325.00625 173.52 
L 325.00625 7.2 
L 46.00625 7.2 
L 46.00625 173.52 
z
" style="fill: none"/>
   </g>
   <g id="matplotlib.axis_1">
    <g id="xtick_1">
     <g id="line2d_1">
      <defs>
       <path id="m17deedcf2b" d="M 0 0 
L 0 3.5 
" style="stroke: #000000; stroke-width: 0.8"/>
      </defs>
      <g>
       <use xlink:href="#m17deedcf2b" x="112.434821" y="173.52" style="stroke: #000000; stroke-width: 0.8"/>
      </g>
     </g>
     <g id="text_1">
      <!-- 25 -->
      <g transform="translate(99.709821 195.716875) scale(0.2 -0.2)">
       <defs>
        <path id="DejaVuSans-32" d="M 1228 531 
L 3431 531 
L 3431 0 
L 469 0 
L 469 531 
Q 828 903 1448 1529 
Q 2069 2156 2228 2338 
Q 2531 2678 2651 2914 
Q 2772 3150 2772 3378 
Q 2772 3750 2511 3984 
Q 2250 4219 1831 4219 
Q 1534 4219 1204 4116 
Q 875 4013 500 3803 
L 500 4441 
Q 881 4594 1212 4672 
Q 1544 4750 1819 4750 
Q 2544 4750 2975 4387 
Q 3406 4025 3406 3419 
Q 3406 3131 3298 2873 
Q 3191 2616 2906 2266 
Q 2828 2175 2409 1742 
Q 1991 1309 1228 531 
z
" transform="scale(0.015625)"/>
        <path id="DejaVuSans-35" d="M 691 4666 
L 3169 4666 
L 3169 4134 
L 1269 4134 
L 1269 2991 
Q 1406 3038 1543 3061 
Q 1681 3084 1819 3084 
Q 2600 3084 3056 2656 
Q 3513 2228 3513 1497 
Q 3513 744 3044 326 
Q 2575 -91 1722 -91 
Q 1428 -91 1123 -41 
Q 819 9 494 109 
L 494 744 
Q 775 591 1075 516 
Q 1375 441 1709 441 
Q 2250 441 2565 725 
Q 2881 1009 2881 1497 
Q 2881 1984 2565 2268 
Q 2250 2553 1709 2553 
Q 1456 2553 1204 2497 
Q 953 2441 691 2322 
L 691 4666 
z
" transform="scale(0.015625)"/>
       </defs>
       <use xlink:href="#DejaVuSans-32"/>
       <use xlink:href="#DejaVuSans-35" transform="translate(63.623047 0)"/>
      </g>
     </g>
    </g>
    <g id="xtick_2">
     <g id="line2d_2">
      <g>
       <use xlink:href="#m17deedcf2b" x="178.863393" y="173.52" style="stroke: #000000; stroke-width: 0.8"/>
      </g>
     </g>
     <g id="text_2">
      <!-- 50 -->
      <g transform="translate(166.138393 195.716875) scale(0.2 -0.2)">
       <defs>
        <path id="DejaVuSans-30" d="M 2034 4250 
Q 1547 4250 1301 3770 
Q 1056 3291 1056 2328 
Q 1056 1369 1301 889 
Q 1547 409 2034 409 
Q 2525 409 2770 889 
Q 3016 1369 3016 2328 
Q 3016 3291 2770 3770 
Q 2525 4250 2034 4250 
z
M 2034 4750 
Q 2819 4750 3233 4129 
Q 3647 3509 3647 2328 
Q 3647 1150 3233 529 
Q 2819 -91 2034 -91 
Q 1250 -91 836 529 
Q 422 1150 422 2328 
Q 422 3509 836 4129 
Q 1250 4750 2034 4750 
z
" transform="scale(0.015625)"/>
       </defs>
       <use xlink:href="#DejaVuSans-35"/>
       <use xlink:href="#DejaVuSans-30" transform="translate(63.623047 0)"/>
      </g>
     </g>
    </g>
    <g id="xtick_3">
     <g id="line2d_3">
      <g>
       <use xlink:href="#m17deedcf2b" x="245.291964" y="173.52" style="stroke: #000000; stroke-width: 0.8"/>
      </g>
     </g>
     <g id="text_3">
      <!-- 75 -->
      <g transform="translate(232.566964 195.716875) scale(0.2 -0.2)">
       <defs>
        <path id="DejaVuSans-37" d="M 525 4666 
L 3525 4666 
L 3525 4397 
L 1831 0 
L 1172 0 
L 2766 4134 
L 525 4134 
L 525 4666 
z
" transform="scale(0.015625)"/>
       </defs>
       <use xlink:href="#DejaVuSans-37"/>
       <use xlink:href="#DejaVuSans-35" transform="translate(63.623047 0)"/>
      </g>
     </g>
    </g>
   </g>
   <g id="matplotlib.axis_2">
    <g id="ytick_1">
     <g id="line2d_4">
      <defs>
       <path id="m2c21772aa5" d="M 0 0 
L -3.5 0 
" style="stroke: #000000; stroke-width: 0.8"/>
      </defs>
      <g>
       <use xlink:href="#m2c21772aa5" x="46.00625" y="173.52" style="stroke: #000000; stroke-width: 0.8"/>
      </g>
     </g>
     <g id="text_4">
      <!-- 0 -->
      <g transform="translate(26.28125 181.118438) scale(0.2 -0.2)">
       <use xlink:href="#DejaVuSans-30"/>
      </g>
     </g>
    </g>
    <g id="ytick_2">
     <g id="line2d_5">
      <g>
       <use xlink:href="#m2c21772aa5" x="46.00625" y="112.560709" style="stroke: #000000; stroke-width: 0.8"/>
      </g>
     </g>
     <g id="text_5">
      <!-- .02 -->
      <g transform="translate(7.2 120.159147) scale(0.2 -0.2)">
       <defs>
        <path id="DejaVuSans-2e" d="M 684 794 
L 1344 794 
L 1344 0 
L 684 0 
L 684 794 
z
" transform="scale(0.015625)"/>
       </defs>
       <use xlink:href="#DejaVuSans-2e"/>
       <use xlink:href="#DejaVuSans-30" transform="translate(31.787109 0)"/>
       <use xlink:href="#DejaVuSans-32" transform="translate(95.410156 0)"/>
      </g>
     </g>
    </g>
    <g id="ytick_3">
     <g id="line2d_6">
      <g>
       <use xlink:href="#m2c21772aa5" x="46.00625" y="51.601419" style="stroke: #000000; stroke-width: 0.8"/>
      </g>
     </g>
     <g id="text_6">
      <!-- .04 -->
      <g transform="translate(7.2 59.199856) scale(0.2 -0.2)">
       <defs>
        <path id="DejaVuSans-34" d="M 2419 4116 
L 825 1625 
L 2419 1625 
L 2419 4116 
z
M 2253 4666 
L 3047 4666 
L 3047 1625 
L 3713 1625 
L 3713 1100 
L 3047 1100 
L 3047 0 
L 2419 0 
L 2419 1100 
L 313 1100 
L 313 1709 
L 2253 4666 
z
" transform="scale(0.015625)"/>
       </defs>
       <use xlink:href="#DejaVuSans-2e"/>
       <use xlink:href="#DejaVuSans-30" transform="translate(31.787109 0)"/>
       <use xlink:href="#DejaVuSans-34" transform="translate(95.410156 0)"/>
      </g>
     </g>
    </g>
   </g>
   <g id="line2d_7">
    <path d="M 46.00625 99.148461 
L 52.819437 77.481982 
L 59.632624 60.483806 
L 66.44581 47.082719 
L 73.258997 36.572589 
L 80.072184 28.571692 
L 86.885371 22.759533 
L 93.698558 18.807107 
L 100.511745 16.387801 
L 107.324931 15.20065 
L 114.138118 14.984324 
L 120.951305 15.520874 
L 127.764492 16.63319 
L 134.577679 18.179702 
L 141.390865 20.048407 
L 148.204052 22.151277 
L 155.017239 24.419419 
L 161.830426 26.799092 
L 168.643613 29.248488 
L 175.456799 31.735177 
L 182.269986 34.234095 
L 189.083173 36.725965 
L 195.89636 39.196057 
L 202.709547 41.633221 
L 209.522734 44.029119 
L 216.33592 46.377634 
L 223.149107 48.674395 
L 229.962294 50.916403 
L 236.775481 53.101743 
L 243.588668 55.229345 
L 250.401854 57.298803 
L 257.215041 59.310227 
L 264.028228 61.264124 
L 270.841415 63.161308 
L 277.654602 65.002822 
L 284.467788 66.789881 
L 291.280975 68.523824 
L 298.094162 70.206076 
L 304.907349 71.838118 
L 311.720536 73.421462 
" clip-path="url(#p6806d4e07e)" style="fill: none; stroke: #800000; stroke-width: 4; stroke-linecap: square"/>
   </g>
   <g id="line2d_8">
    <path d="M 46.00625 138.976287 
L 52.819437 128.540965 
L 59.632624 121.701424 
L 66.44581 117.642285 
L 73.258997 115.449394 
L 80.072184 114.564711 
L 86.885371 114.610041 
L 93.698558 115.309813 
L 100.511745 116.458282 
L 107.324931 117.90221 
L 114.138118 119.52885 
L 120.951305 121.256476 
L 127.764492 123.026771 
L 134.577679 124.798828 
L 141.390865 126.544542 
L 148.204052 128.245127 
L 155.017239 129.888526 
L 161.830426 131.467505 
L 168.643613 132.978254 
L 175.456799 134.419369 
L 182.269986 135.791114 
L 189.083173 137.094886 
L 195.89636 138.332828 
L 202.709547 139.507554 
L 209.522734 140.621949 
L 216.33592 141.67903 
L 223.149107 142.681851 
L 229.962294 143.633426 
L 236.775481 144.536693 
L 243.588668 145.394481 
L 250.401854 146.209487 
L 257.215041 146.984274 
L 264.028228 147.721261 
L 270.841415 148.422724 
L 277.654602 149.090802 
L 284.467788 149.727497 
L 291.280975 150.334683 
L 298.094162 150.91411 
L 304.907349 151.467415 
L 311.720536 151.996122 
" clip-path="url(#p6806d4e07e)" style="fill: none; stroke: #dc143c; stroke-width: 4; stroke-linecap: square"/>
   </g>
   <g id="line2d_9">
    <path d="M 46.00625 117.903963 
L 52.819437 89.501473 
L 59.632624 74.030169 
L 66.44581 72.418364 
L 73.258997 81.166197 
L 80.072184 94.172192 
L 86.885371 107.167614 
L 93.698558 118.430068 
L 100.511745 127.641964 
L 107.324931 135.01588 
L 114.138118 140.89205 
L 120.951305 145.592516 
L 127.764492 149.381864 
L 134.577679 152.465933 
L 141.390865 155.001453 
L 148.204052 157.107015 
L 155.017239 158.872488 
L 161.830426 160.36635 
L 168.643613 161.641185 
L 175.456799 162.737721 
L 182.269986 163.687799 
L 189.083173 164.516534 
L 195.89636 165.24392 
L 202.709547 165.886012 
L 209.522734 166.45581 
L 216.33592 166.963924 
L 223.149107 167.419079 
L 229.962294 167.828503 
L 236.775481 168.19822 
L 243.588668 168.533288 
L 250.401854 168.837975 
L 257.215041 169.115904 
L 264.028228 169.37017 
L 270.841415 169.603425 
L 277.654602 169.817957 
L 284.467788 170.015746 
L 291.280975 170.198512 
L 298.094162 170.36776 
L 304.907349 170.524806 
L 311.720536 170.670808 
" clip-path="url(#p6806d4e07e)" style="fill: none; stroke: #ff6347; stroke-width: 4; stroke-linecap: square"/>
   </g>
   <g id="patch_3">
    <path d="M 46.00625 173.52 
L 46.00625 7.2 
" style="fill: none; stroke: #000000; stroke-width: 0.8; stroke-linejoin: miter; stroke-linecap: square"/>
   </g>
   <g id="patch_4">
    <path d="M 46.00625 173.52 
L 325.00625 173.52 
" style="fill: none; stroke: #000000; stroke-width: 0.8; stroke-linejoin: miter; stroke-linecap: square"/>
   </g>
  </g>
 </g>
 <defs>
  <clipPath id="p6806d4e07e">
   <rect x="46.00625" y="7.2" width="279" height="166.32"/>
  </clipPath>
 </defs>
</svg>
