<?xml version="1.0" encoding="utf-8" standalone="no"?>
<!DOCTYPE svg PUBLIC "-//W3C//DTD SVG 1.1//EN"
  "http://www.w3.org/Graphics/SVG/1.1/DTD/svg11.dtd">
<svg xmlns:xlink="http://www.w3.org/1999/xlink" width="340.157813pt" height="211.915312pt" viewBox="0 0 340.157813 211.915312" xmlns="http://www.w3.org/2000/svg" version="1.1">
 <metadata>
  <rdf:RDF xmlns:dc="http://purl.org/dc/elements/1.1/" xmlns:cc="http://creativecommons.org/ns#" xmlns:rdf="http://www.w3.org/1999/02/22-rdf-syntax-ns#">
   <cc:Work>
    <dc:type rdf:resource="http://purl.org/dc/dcmitype/StillImage"/>
    <dc:date>2025-10-29T13:58:09.794214</dc:date>
    <dc:format>image/svg+xml</dc:format>
    <dc:creator>
     <cc:Agent>
      <dc:title>Matplotlib v3.10.6, https://matplotlib.org/</dc:title>
     </cc:Agent>
    </dc:creator>
   </cc:Work>
  </rdf:RDF>
 </metadata>
 <defs>
  <style type="text/css">*{stroke-linejoin: round; stroke-linecap: butt}</style>
 </defs>
 <g id="figure_1">
  <g id="patch_1">
   <path d="M 0 211.915312 
L 340.157813 211.915312 
L 340.157813 0 
L 0 0 
L 0 211.915312 
z
" style="fill: none"/>
  </g>
  <g id="axes_1">
   <g id="patch_2">
    <path d="M 53.957813 173.52 
L 332.957812 173.52 
L 332.957812 7.2 
L 53.957813 7.2 
L 53.957813 173.52 
z
" style="fill: none"/>
   </g>
   <g id="matplotlib.axis_1">
    <g id="xtick_1">
     <g id="line2d_1">
      <defs>
       <path id="m310aebceb1" d="M 0 0 
L 0 3.5 
" style="stroke: #000000; stroke-width: 0.8"/>
      </defs>
      <g>
       <use xlink:href="#m310aebceb1" x="107.10067" y="173.52" style="stroke: #000000; stroke-width: 0.8"/>
      </g>
     </g>
     <g id="text_1">
      <!-- 5 -->
      <g transform="translate(99.147545 199.516094) scale(0.25 -0.25)">
       <defs>
        <path id="DejaVuSans-35" d="M 691 4666 
L 3169 4666 
L 3169 4134 
L 1269 4134 
L 1269 2991 
Q 1406 3038 1543 3061 
Q 1681 3084 1819 3084 
Q 2600 3084 3056 2656 
Q 3513 2228 3513 1497 
Q 3513 744 3044 326 
Q 2575 -91 1722 -91 
Q 1428 -91 1123 -41 
Q 819 9 494 109 
L 494 744 
Q 775 591 1075 516 
Q 1375 441 1709 441 
Q 2250 441 2565 725 
Q 2881 1009 2881 1497 
Q 2881 1984 2565 2268 
Q 2250 2553 1709 2553 
Q 1456 2553 1204 2497 
Q 953 2441 691 2322 
L 691 4666 
z
" transform="scale(0.015625)"/>
       </defs>
       <use xlink:href="#DejaVuSans-35"/>
      </g>
     </g>
    </g>
    <g id="xtick_2">
     <g id="line2d_2">
      <g>
       <use xlink:href="#m310aebceb1" x="160.243527" y="173.52" style="stroke: #000000; stroke-width: 0.8"/>
      </g>
     </g>
     <g id="text_2">
      <!-- 10 -->
      <g transform="translate(144.337277 199.516094) scale(0.25 -0.25)">
       <defs>
        <path id="DejaVuSans-31" d="M 794 531 
L 1825 531 
L 1825 4091 
L 703 3866 
L 703 4441 
L 1819 4666 
L 2450 4666 
L 2450 531 
L 3481 531 
L 3481 0 
L 794 0 
L 794 531 
z
" transform="scale(0.015625)"/>
        <path id="DejaVuSans-30" d="M 2034 4250 
Q 1547 4250 1301 3770 
Q 1056 3291 1056 2328 
Q 1056 1369 1301 889 
Q 1547 409 2034 409 
Q 2525 409 2770 889 
Q 3016 1369 3016 2328 
Q 3016 3291 2770 3770 
Q 2525 4250 2034 4250 
z
M 2034 4750 
Q 2819 4750 3233 4129 
Q 3647 3509 3647 2328 
Q 3647 1150 3233 529 
Q 2819 -91 2034 -91 
Q 1250 -91 836 529 
Q 422 1150 422 2328 
Q 422 3509 836 4129 
Q 1250 4750 2034 4750 
z
" transform="scale(0.015625)"/>
       </defs>
       <use xlink:href="#DejaVuSans-31"/>
       <use xlink:href="#DejaVuSans-30" transform="translate(63.623047 0)"/>
      </g>
     </g>
    </g>
    <g id="xtick_3">
     <g id="line2d_3">
      <g>
       <use xlink:href="#m310aebceb1" x="213.386384" y="173.52" style="stroke: #000000; stroke-width: 0.8"/>
      </g>
     </g>
     <g id="text_3">
      <!-- 15 -->
      <g transform="translate(197.480134 199.516094) scale(0.25 -0.25)">
       <use xlink:href="#DejaVuSans-31"/>
       <use xlink:href="#DejaVuSans-35" transform="translate(63.623047 0)"/>
      </g>
     </g>
    </g>
   </g>
   <g id="matplotlib.axis_2">
    <g id="ytick_1">
     <g id="line2d_4">
      <defs>
       <path id="ma8e91da892" d="M 0 0 
L -3.5 0 
" style="stroke: #000000; stroke-width: 0.8"/>
      </defs>
      <g>
       <use xlink:href="#ma8e91da892" x="53.957813" y="173.52" style="stroke: #000000; stroke-width: 0.8"/>
      </g>
     </g>
     <g id="text_4">
      <!-- 0 -->
      <g transform="translate(31.051563 183.018047) scale(0.25 -0.25)">
       <use xlink:href="#DejaVuSans-30"/>
      </g>
     </g>
    </g>
    <g id="ytick_2">
     <g id="line2d_5">
      <g>
       <use xlink:href="#ma8e91da892" x="53.957813" y="94.32" style="stroke: #000000; stroke-width: 0.8"/>
      </g>
     </g>
     <g id="text_5">
      <!-- 0.5 -->
      <g transform="translate(7.2 103.818047) scale(0.25 -0.25)">
       <defs>
        <path id="DejaVuSans-2e" d="M 684 794 
L 1344 794 
L 1344 0 
L 684 0 
L 684 794 
z
" transform="scale(0.015625)"/>
       </defs>
       <use xlink:href="#DejaVuSans-30"/>
       <use xlink:href="#DejaVuSans-2e" transform="translate(63.623047 0)"/>
       <use xlink:href="#DejaVuSans-35" transform="translate(95.410156 0)"/>
      </g>
     </g>
    </g>
   </g>
   <g id="line2d_6">
    <path d="M 53.957813 15.12 
L 319.672098 15.12 
L 319.672098 15.12 
" clip-path="url(#p383198deac)" style="fill: none; stroke-dasharray: 14.8,6.4; stroke-dashoffset: 0; stroke: #808080; stroke-width: 4"/>
   </g>
   <g id="line2d_7">
    <path d="M 53.957813 173.52 
L 55.29306 171.972482 
L 57.963556 166.33536 
L 61.969299 157.817206 
L 65.975042 149.826422 
L 69.980785 142.343457 
L 73.986528 135.336142 
L 77.992271 128.774244 
L 81.998014 122.62945 
L 86.003757 116.875247 
L 90.0095 111.486807 
L 94.015243 106.44088 
L 98.020986 101.715696 
L 102.026729 97.290865 
L 106.032472 93.147297 
L 110.038215 89.267113 
L 114.043958 85.633571 
L 118.049701 82.230993 
L 123.390691 78.028261 
L 128.731682 74.177893 
L 134.072673 70.650348 
L 139.413663 67.418558 
L 144.754654 64.457727 
L 150.095645 61.745137 
L 155.436635 59.259976 
L 160.777626 56.983175 
L 167.453864 54.403709 
L 174.130103 52.091681 
L 180.806341 50.019365 
L 187.482579 48.161906 
L 195.494065 46.185368 
L 203.505551 44.452119 
L 211.517037 42.932213 
L 220.863771 41.393781 
L 230.210505 40.073926 
L 240.892486 38.793533 
L 252.909715 37.59726 
L 266.262192 36.517239 
L 280.949916 35.572788 
L 296.972888 34.771419 
L 315.666355 34.06732 
L 319.672098 33.942526 
L 319.672098 33.942526 
" clip-path="url(#p383198deac)" style="fill: none; stroke: #ff0000; stroke-width: 4; stroke-linecap: square"/>
   </g>
   <g id="line2d_8">
    <path d="M 53.957813 173.52 
L 55.29306 154.017021 
L 56.628308 150.511475 
L 57.963556 150.179451 
L 59.298803 150.470676 
L 71.316032 154.054734 
L 79.327518 156.102552 
L 87.339004 157.898308 
L 95.35049 159.473026 
L 104.697224 161.066938 
L 114.043958 162.434392 
L 124.725939 163.76096 
L 136.743168 165.000374 
L 148.760397 166.018145 
L 162.112874 166.937011 
L 178.135846 167.804439 
L 195.494065 168.519544 
L 216.858028 169.161407 
L 242.227734 169.682128 
L 272.93843 170.081499 
L 314.331108 170.382131 
L 319.672098 170.408085 
L 319.672098 170.408085 
" clip-path="url(#p383198deac)" style="fill: none; stroke: #ff8c00; stroke-width: 4; stroke-linecap: square"/>
   </g>
   <g id="line2d_9">
    <path d="M 53.957813 15.12 
L 55.29306 36.170497 
L 56.628308 42.40347 
L 57.963556 45.645189 
L 60.634051 50.682758 
L 64.639794 57.597691 
L 68.645537 64.066486 
L 72.65128 70.124044 
L 76.657023 75.796556 
L 80.662766 81.108497 
L 84.668509 86.082787 
L 88.674252 90.740889 
L 92.679995 95.102901 
L 96.685738 99.187644 
L 100.691481 103.012742 
L 104.697224 106.594699 
L 108.702967 109.948971 
L 114.043958 114.092037 
L 119.384948 117.887742 
L 124.725939 121.365207 
L 130.06693 124.551116 
L 135.40792 127.469912 
L 140.748911 130.143992 
L 146.089902 132.593871 
L 151.430892 134.838349 
L 158.107131 137.381195 
L 164.783369 139.660399 
L 171.459607 141.703295 
L 178.135846 143.534384 
L 186.147332 145.482862 
L 194.158818 147.191504 
L 202.170304 148.689832 
L 211.517037 150.206422 
L 220.863771 151.50754 
L 231.545752 152.769755 
L 243.562981 153.949045 
L 256.915458 155.013733 
L 271.603182 155.944776 
L 287.626154 156.734768 
L 306.319622 157.428871 
L 319.672098 157.809389 
L 319.672098 157.809389 
" clip-path="url(#p383198deac)" style="fill: none; stroke: #39b54a; stroke-width: 4; stroke-linecap: square"/>
   </g>
   <g id="patch_3">
    <path d="M 53.957813 173.52 
L 53.957813 7.2 
" style="fill: none; stroke: #000000; stroke-width: 0.8; stroke-linejoin: miter; stroke-linecap: square"/>
   </g>
   <g id="patch_4">
    <path d="M 53.957813 173.52 
L 332.957813 173.52 
" style="fill: none; stroke: #000000; stroke-width: 0.8; stroke-linejoin: miter; stroke-linecap: square"/>
   </g>
   <g id="line2d_10">
    <path d="M 53.957813 167.4599 
L 55.29306 165.971288 
L 57.963556 160.588014 
L 61.969299 152.45799 
L 65.975042 144.832033 
L 69.980785 137.691319 
L 73.986528 131.005088 
L 77.992271 124.744438 
L 81.998014 118.882302 
L 86.003757 113.393333 
L 90.0095 108.253799 
L 94.015243 103.441476 
L 98.020986 98.935553 
L 102.026729 94.716543 
L 106.032472 90.766198 
L 110.038215 87.067432 
L 114.043958 83.604244 
L 119.384948 79.327358 
L 124.725939 75.409843 
L 130.06693 71.821553 
L 135.40792 68.53487 
L 140.748911 65.524493 
L 146.089902 62.767244 
L 151.430892 60.241887 
L 156.771883 57.928969 
L 163.448121 55.309561 
L 170.12436 52.962797 
L 176.800598 50.860394 
L 183.476836 48.977004 
L 191.488322 46.974211 
L 199.499808 45.219377 
L 207.511294 43.681964 
L 216.858028 42.127578 
L 226.204762 40.795909 
L 236.886743 39.506315 
L 248.903972 38.30427 
L 262.256449 37.222479 
L 276.944173 36.280589 
L 292.967145 35.486218 
L 311.660612 34.794487 
L 319.672098 34.559217 
L 319.672098 34.559217 
" clip-path="url(#p383198deac)" style="fill: none; stroke-dasharray: 11.1,4.8; stroke-dashoffset: 0; stroke: #000000; stroke-width: 3"/>
   </g>
   <g id="line2d_11">
    <path d="M 53.957813 173.213901 
L 55.29306 154.74544 
L 56.628308 151.428947 
L 57.963556 151.11815 
L 60.634051 151.786978 
L 68.645537 154.109836 
L 76.657023 156.153093 
L 84.668509 157.944741 
L 92.679995 159.515765 
L 102.026729 161.105842 
L 111.373462 162.469921 
L 122.055444 163.793133 
L 134.072673 165.029335 
L 146.089902 166.044411 
L 159.442378 166.9608 
L 175.46535 167.825863 
L 192.82357 168.539016 
L 214.187533 169.179165 
L 239.557238 169.698596 
L 270.267935 170.097172 
L 311.660612 170.397589 
L 319.672098 170.435727 
L 319.672098 170.435727 
" clip-path="url(#p383198deac)" style="fill: none; stroke-dasharray: 11.1,4.8; stroke-dashoffset: 0; stroke: #000000; stroke-width: 3"/>
   </g>
   <g id="line2d_12">
    <path d="M 53.957813 21.881263 
L 55.29306 41.840317 
L 56.628308 47.764391 
L 57.963556 50.854845 
L 60.634051 55.664951 
L 64.639794 62.269326 
L 68.645537 68.447454 
L 72.65128 74.232639 
L 76.657023 79.649922 
L 80.662766 84.7227 
L 84.668509 89.472884 
L 88.674252 93.920992 
L 92.679995 98.086235 
L 96.685738 101.986603 
L 100.691481 105.638942 
L 104.697224 109.059028 
L 110.038215 113.283252 
L 115.379205 117.153174 
L 120.720196 120.698517 
L 126.061187 123.946509 
L 131.402177 126.922093 
L 136.743168 129.648121 
L 142.084159 132.145529 
L 147.425149 134.433494 
L 154.101388 137.025545 
L 160.777626 139.348799 
L 167.453864 141.431139 
L 174.130103 143.297557 
L 182.141589 145.283612 
L 190.153075 147.025207 
L 198.164561 148.552446 
L 207.511294 150.098339 
L 216.858028 151.424656 
L 227.540009 152.711409 
L 239.557238 153.913767 
L 252.909715 154.999484 
L 267.597439 155.94919 
L 283.620411 156.755373 
L 302.313879 157.464198 
L 319.672098 157.954223 
L 319.672098 157.954223 
" clip-path="url(#p383198deac)" style="fill: none; stroke-dasharray: 11.1,4.8; stroke-dashoffset: 0; stroke: #000000; stroke-width: 3"/>
   </g>
  </g>
 </g>
 <defs>
  <clipPath id="p383198deac">
   <rect x="53.957813" y="7.2" width="279" height="166.32"/>
  </clipPath>
 </defs>
</svg>
