<?xml version="1.0" encoding="utf-8" standalone="no"?>
<!DOCTYPE svg PUBLIC "-//W3C//DTD SVG 1.1//EN"
  "http://www.w3.org/Graphics/SVG/1.1/DTD/svg11.dtd">
<svg xmlns:xlink="http://www.w3.org/1999/xlink" width="228.557812pt" height="211.915312pt" viewBox="0 0 228.557812 211.915312" xmlns="http://www.w3.org/2000/svg" version="1.1">
 <metadata>
  <rdf:RDF xmlns:dc="http://purl.org/dc/elements/1.1/" xmlns:cc="http://creativecommons.org/ns#" xmlns:rdf="http://www.w3.org/1999/02/22-rdf-syntax-ns#">
   <cc:Work>
    <dc:type rdf:resource="http://purl.org/dc/dcmitype/StillImage"/>
    <dc:date>2025-11-08T13:52:08.902098</dc:date>
    <dc:format>image/svg+xml</dc:format>
    <dc:creator>
     <cc:Agent>
      <dc:title>Matplotlib v3.10.6, https://matplotlib.org/</dc:title>
     </cc:Agent>
    </dc:creator>
   </cc:Work>
  </rdf:RDF>
 </metadata>
 <defs>
  <style type="text/css">*{stroke-linejoin: round; stroke-linecap: butt}</style>
 </defs>
 <g id="figure_1">
  <g id="patch_1">
   <path d="M 0 211.915312 
L 228.557812 211.915312 
L 228.557812 0 
L 0 0 
L 0 211.915312 
z
" style="fill: none"/>
  </g>
  <g id="axes_1">
   <g id="patch_2">
    <path d="M 53.957813 173.52 
L 221.357812 173.52 
L 221.357812 7.2 
L 53.957813 7.2 
L 53.957813 173.52 
z
" style="fill: none"/>
   </g>
   <g id="matplotlib.axis_1">
    <g id="xtick_1">
     <g id="line2d_1">
      <defs>
       <path id="me306face90" d="M 0 0 
L 0 3.5 
" style="stroke: #000000; stroke-width: 0.8"/>
      </defs>
      <g>
       <use xlink:href="#me306face90" x="93.815904" y="173.52" style="stroke: #000000; stroke-width: 0.8"/>
      </g>
     </g>
     <g id="text_1">
      <!-- 5 -->
      <g transform="translate(85.862779 199.516094) scale(0.25 -0.25)">
       <defs>
        <path id="DejaVuSans-35" d="M 691 4666 
L 3169 4666 
L 3169 4134 
L 1269 4134 
L 1269 2991 
Q 1406 3038 1543 3061 
Q 1681 3084 1819 3084 
Q 2600 3084 3056 2656 
Q 3513 2228 3513 1497 
Q 3513 744 3044 326 
Q 2575 -91 1722 -91 
Q 1428 -91 1123 -41 
Q 819 9 494 109 
L 494 744 
Q 775 591 1075 516 
Q 1375 441 1709 441 
Q 2250 441 2565 725 
Q 2881 1009 2881 1497 
Q 2881 1984 2565 2268 
Q 2250 2553 1709 2553 
Q 1456 2553 1204 2497 
Q 953 2441 691 2322 
L 691 4666 
z
" transform="scale(0.015625)"/>
       </defs>
       <use xlink:href="#DejaVuSans-35"/>
      </g>
     </g>
    </g>
    <g id="xtick_2">
     <g id="line2d_2">
      <g>
       <use xlink:href="#me306face90" x="133.673996" y="173.52" style="stroke: #000000; stroke-width: 0.8"/>
      </g>
     </g>
     <g id="text_2">
      <!-- 10 -->
      <g transform="translate(117.767746 199.516094) scale(0.25 -0.25)">
       <defs>
        <path id="DejaVuSans-31" d="M 794 531 
L 1825 531 
L 1825 4091 
L 703 3866 
L 703 4441 
L 1819 4666 
L 2450 4666 
L 2450 531 
L 3481 531 
L 3481 0 
L 794 0 
L 794 531 
z
" transform="scale(0.015625)"/>
        <path id="DejaVuSans-30" d="M 2034 4250 
Q 1547 4250 1301 3770 
Q 1056 3291 1056 2328 
Q 1056 1369 1301 889 
Q 1547 409 2034 409 
Q 2525 409 2770 889 
Q 3016 1369 3016 2328 
Q 3016 3291 2770 3770 
Q 2525 4250 2034 4250 
z
M 2034 4750 
Q 2819 4750 3233 4129 
Q 3647 3509 3647 2328 
Q 3647 1150 3233 529 
Q 2819 -91 2034 -91 
Q 1250 -91 836 529 
Q 422 1150 422 2328 
Q 422 3509 836 4129 
Q 1250 4750 2034 4750 
z
" transform="scale(0.015625)"/>
       </defs>
       <use xlink:href="#DejaVuSans-31"/>
       <use xlink:href="#DejaVuSans-30" transform="translate(63.623047 0)"/>
      </g>
     </g>
    </g>
   </g>
   <g id="matplotlib.axis_2">
    <g id="ytick_1">
     <g id="line2d_3">
      <defs>
       <path id="m0dd3713cd4" d="M 0 0 
L -3.5 0 
" style="stroke: #000000; stroke-width: 0.8"/>
      </defs>
      <g>
       <use xlink:href="#m0dd3713cd4" x="53.957813" y="173.52" style="stroke: #000000; stroke-width: 0.8"/>
      </g>
     </g>
     <g id="text_3">
      <!-- 0 -->
      <g transform="translate(31.051563 183.018047) scale(0.25 -0.25)">
       <use xlink:href="#DejaVuSans-30"/>
      </g>
     </g>
    </g>
    <g id="ytick_2">
     <g id="line2d_4">
      <g>
       <use xlink:href="#m0dd3713cd4" x="53.957813" y="110.005432" style="stroke: #000000; stroke-width: 0.8"/>
      </g>
     </g>
     <g id="text_4">
      <!-- 0.5 -->
      <g transform="translate(7.2 119.503479) scale(0.25 -0.25)">
       <defs>
        <path id="DejaVuSans-2e" d="M 684 794 
L 1344 794 
L 1344 0 
L 684 0 
L 684 794 
z
" transform="scale(0.015625)"/>
       </defs>
       <use xlink:href="#DejaVuSans-30"/>
       <use xlink:href="#DejaVuSans-2e" transform="translate(63.623047 0)"/>
       <use xlink:href="#DejaVuSans-35" transform="translate(95.410156 0)"/>
      </g>
     </g>
    </g>
    <g id="ytick_3">
     <g id="line2d_5">
      <g>
       <use xlink:href="#m0dd3713cd4" x="53.957813" y="46.490865" style="stroke: #000000; stroke-width: 0.8"/>
      </g>
     </g>
     <g id="text_5">
      <!-- 1 -->
      <g transform="translate(31.051563 55.988912) scale(0.25 -0.25)">
       <use xlink:href="#DejaVuSans-31"/>
      </g>
     </g>
    </g>
   </g>
   <g id="line2d_6">
    <path d="M 54.037529 173.075354 
L 55.154114 167.358471 
L 56.749235 160.180607 
L 59.779967 148.556279 
L 61.694113 142.077145 
L 63.927283 135.280406 
L 67.755575 124.926496 
L 71.902891 115.271317 
L 74.295573 110.316685 
L 74.933622 108.982746 
L 75.571671 107.775848 
L 77.645329 103.837551 
L 78.761914 101.868403 
L 79.559475 100.470942 
L 87.375571 88.211405 
L 88.173132 87.131549 
L 89.130205 85.79761 
L 90.24679 84.336629 
L 91.044351 83.256773 
L 93.277521 80.461853 
L 93.91557 79.636081 
L 98.38191 74.427365 
L 98.860447 73.919198 
L 100.136544 72.521738 
L 100.774593 71.886529 
L 101.891178 70.679631 
L 102.529226 70.044422 
L 103.326787 69.21865 
L 104.124348 68.456399 
L 104.921909 67.630627 
L 105.878982 66.741334 
L 106.51703 66.106125 
L 107.633616 65.08979 
L 108.112152 64.645144 
L 109.388249 63.501767 
L 109.866786 63.057121 
L 111.780932 61.405577 
L 112.259468 60.96093 
L 122.308735 53.084336 
L 122.627759 52.893774 
L 124.382393 51.623355 
L 124.701417 51.432792 
L 126.137027 50.416458 
L 126.456051 50.225895 
L 127.572636 49.463644 
L 127.89166 49.273081 
L 129.008245 48.51083 
L 129.486782 48.256746 
L 130.603367 47.494495 
L 131.081904 47.240412 
L 132.038977 46.605203 
L 132.517513 46.351119 
L 133.474586 45.71591 
L 133.953123 45.461826 
L 134.750683 44.953659 
L 135.22922 44.699575 
L 136.026781 44.191408 
L 136.664829 43.873803 
L 137.46239 43.365636 
L 138.100439 43.048031 
L 138.738487 42.666905 
L 139.217024 42.412822 
L 139.855073 42.031696 
L 140.493121 41.714092 
L 141.13117 41.332966 
L 141.769219 41.015362 
L 142.407267 40.634236 
L 143.204828 40.253111 
L 143.842877 39.871985 
L 144.79995 39.427339 
L 145.437998 39.046213 
L 146.554583 38.538046 
L 147.192632 38.15692 
L 148.309217 37.648753 
L 148.787754 37.394669 
L 149.744827 36.950023 
L 150.223363 36.695939 
L 151.339948 36.187772 
L 151.818485 35.933688 
L 153.254094 35.298479 
L 153.732631 35.044395 
L 155.327752 34.345665 
L 155.806289 34.091581 
L 158.358484 33.011726 
L 158.83702 32.757642 
L 174.788236 26.469071 
L 175.107261 26.40555 
L 177.499943 25.516257 
L 177.818967 25.452736 
L 179.892626 24.690485 
L 180.21165 24.626964 
L 181.806772 24.055276 
L 182.125796 23.991755 
L 183.720918 23.420067 
L 184.039942 23.356546 
L 185.316039 22.911899 
L 185.635064 22.848379 
L 186.911161 22.403732 
L 187.230185 22.340211 
L 188.34677 21.959086 
L 188.665795 21.895565 
L 189.78238 21.514439 
L 190.101404 21.450918 
L 191.217989 21.069793 
L 191.537014 21.006272 
L 192.494087 20.688667 
L 192.813111 20.625146 
L 193.610672 20.371063 
L 193.929696 20.307542 
L 194.886769 19.989937 
L 195.205793 19.926416 
L 196.003354 19.672333 
L 196.322378 19.608812 
L 197.119939 19.354728 
L 197.438964 19.291207 
L 198.236524 19.037123 
L 198.555549 18.973602 
L 199.35311 18.719519 
L 199.672134 18.655998 
L 200.310183 18.465435 
L 200.629207 18.401914 
L 201.426768 18.147831 
L 201.745792 18.08431 
L 202.383841 17.893747 
L 202.702865 17.830226 
L 203.340914 17.639663 
L 203.659938 17.576142 
L 204.297987 17.385579 
L 204.617011 17.322059 
L 205.25506 17.131496 
L 205.574084 17.067975 
L 206.212133 16.877412 
L 206.531157 16.813891 
L 207.009693 16.686849 
L 207.328718 16.623328 
L 207.966766 16.432766 
L 208.285791 16.369245 
L 208.923839 16.178682 
L 209.402376 16.115161 
L 210.199937 15.861077 
L 210.678473 15.797556 
L 211.476034 15.543473 
L 211.95457 15.479952 
L 212.752131 15.225868 
L 213.230668 15.162347 
L 213.39018 15.098826 
L 213.39018 15.098826 
" clip-path="url(#pc173c691b3)" style="fill: none; stroke: #000000; stroke-width: 4; stroke-linecap: square"/>
   </g>
   <g id="patch_3">
    <path d="M 53.957813 173.52 
L 53.957813 7.2 
" style="fill: none; stroke: #000000; stroke-width: 0.8; stroke-linejoin: miter; stroke-linecap: square"/>
   </g>
   <g id="patch_4">
    <path d="M 53.957813 173.52 
L 221.357812 173.52 
" style="fill: none; stroke: #000000; stroke-width: 0.8; stroke-linejoin: miter; stroke-linecap: square"/>
   </g>
  </g>
 </g>
 <defs>
  <clipPath id="pc173c691b3">
   <rect x="53.957813" y="7.2" width="167.4" height="166.32"/>
  </clipPath>
 </defs>
</svg>
