<?xml version="1.0" encoding="utf-8" standalone="no"?>
<!DOCTYPE svg PUBLIC "-//W3C//DTD SVG 1.1//EN"
  "http://www.w3.org/Graphics/SVG/1.1/DTD/svg11.dtd">
<svg xmlns:xlink="http://www.w3.org/1999/xlink" width="507.557812pt" height="213.493359pt" viewBox="0 0 507.557812 213.493359" xmlns="http://www.w3.org/2000/svg" version="1.1">
 <metadata>
  <rdf:RDF xmlns:dc="http://purl.org/dc/elements/1.1/" xmlns:cc="http://creativecommons.org/ns#" xmlns:rdf="http://www.w3.org/1999/02/22-rdf-syntax-ns#">
   <cc:Work>
    <dc:type rdf:resource="http://purl.org/dc/dcmitype/StillImage"/>
    <dc:date>2025-11-08T13:46:01.482026</dc:date>
    <dc:format>image/svg+xml</dc:format>
    <dc:creator>
     <cc:Agent>
      <dc:title>Matplotlib v3.10.6, https://matplotlib.org/</dc:title>
     </cc:Agent>
    </dc:creator>
   </cc:Work>
  </rdf:RDF>
 </metadata>
 <defs>
  <style type="text/css">*{stroke-linejoin: round; stroke-linecap: butt}</style>
 </defs>
 <g id="figure_1">
  <g id="patch_1">
   <path d="M 0 213.493359 
L 507.557812 213.493359 
L 507.557812 0 
L 0 0 
L 0 213.493359 
z
" style="fill: none"/>
  </g>
  <g id="axes_1">
   <g id="patch_2">
    <path d="M 53.957813 175.098047 
L 500.357812 175.098047 
L 500.357812 8.778047 
L 53.957813 8.778047 
L 53.957813 175.098047 
z
" style="fill: none"/>
   </g>
   <g id="FillBetweenPolyCollection_1">
    <defs>
     <path id="md3f002ec37" d="M 53.957813 -38.395313 
L 53.957813 -161.041537 
L 54.042858 -160.828194 
L 54.127904 -160.646568 
L 54.212949 -160.476928 
L 54.297995 -160.315079 
L 54.38304 -160.159028 
L 54.468086 -160.007601 
L 54.553132 -159.860023 
L 54.638177 -159.71574 
L 54.723223 -159.574342 
L 54.808268 -159.435507 
L 54.893314 -159.298979 
L 54.978359 -159.16455 
L 55.063405 -159.032046 
L 55.148451 -158.901318 
L 55.233496 -158.77224 
L 55.318542 -158.644704 
L 55.403587 -158.518613 
L 55.488633 -158.393882 
L 55.573679 -158.270438 
L 55.658724 -158.148211 
L 55.74377 -158.027143 
L 55.828815 -157.907178 
L 55.913861 -157.788266 
L 55.998906 -157.670363 
L 56.083952 -157.553426 
L 56.168998 -157.437417 
L 56.254043 -157.322301 
L 56.339089 -157.208044 
L 56.424134 -157.094617 
L 56.50918 -156.981991 
L 56.594225 -156.87014 
L 56.679271 -156.759039 
L 56.764317 -156.648664 
L 56.849362 -156.538995 
L 56.934408 -156.43001 
L 57.019453 -156.321689 
L 57.104499 -156.214016 
L 57.189545 -156.106972 
L 57.27459 -156.000541 
L 57.359636 -155.894707 
L 57.444681 -155.789456 
L 57.529727 -155.684774 
L 57.614772 -155.580647 
L 57.699818 -155.477062 
L 57.784864 -155.374008 
L 57.869909 -155.271472 
L 57.954955 -155.169444 
L 58.04 -155.067912 
L 58.125046 -154.966867 
L 58.210092 -154.866299 
L 58.295137 -154.766198 
L 58.380183 -154.666555 
L 58.465228 -154.567362 
L 58.550274 -154.46861 
L 58.635319 -154.370291 
L 58.720365 -154.272397 
L 58.805411 -154.17492 
L 58.890456 -154.077855 
L 58.975502 -153.981192 
L 59.060547 -153.884927 
L 59.145593 -153.789052 
L 59.230638 -153.69356 
L 59.315684 -153.598446 
L 59.40073 -153.503704 
L 59.485775 -153.409328 
L 59.570821 -153.315313 
L 59.655866 -153.221653 
L 59.740912 -153.128342 
L 59.825958 -153.035376 
L 59.911003 -152.94275 
L 59.996049 -152.850459 
L 60.081094 -152.758499 
L 60.16614 -152.666864 
L 60.251185 -152.57555 
L 60.336231 -152.484554 
L 60.421277 -152.39387 
L 60.506322 -152.303495 
L 60.591368 -152.213426 
L 60.676413 -152.123657 
L 60.761459 -152.034185 
L 60.846505 -151.945007 
L 60.93155 -151.856119 
L 61.016596 -151.767517 
L 61.101641 -151.679198 
L 61.186687 -151.591159 
L 61.271732 -151.503396 
L 61.356778 -151.415907 
L 61.441824 -151.328688 
L 61.526869 -151.241736 
L 61.611915 -151.155048 
L 61.69696 -151.068621 
L 61.782006 -150.982452 
L 61.867051 -150.89654 
L 61.952097 -150.81088 
L 62.037143 -150.72547 
L 62.122188 -150.640308 
L 62.207234 -150.555391 
L 62.292279 -150.470716 
L 62.377325 -150.386281 
L 62.462371 -150.302085 
L 62.547416 -150.218123 
L 62.632462 -150.134395 
L 62.717507 -150.050897 
L 62.802553 -149.967627 
L 62.887598 -149.884585 
L 62.972644 -149.801766 
L 63.05769 -149.719169 
L 63.142735 -149.636793 
L 63.227781 -149.554634 
L 63.312826 -149.472691 
L 63.397872 -149.390963 
L 63.482918 -149.309447 
L 63.567963 -149.228141 
L 63.653009 -149.147043 
L 63.738054 -149.066152 
L 63.8231 -148.985466 
L 63.908145 -148.904983 
L 63.993191 -148.824701 
L 64.078237 -148.744619 
L 64.163282 -148.664736 
L 64.248328 -148.585048 
L 64.333373 -148.505555 
L 64.418419 -148.426255 
L 64.503464 -148.347147 
L 64.58851 -148.268229 
L 64.673556 -148.1895 
L 64.758601 -148.110957 
L 64.843647 -148.0326 
L 64.928692 -147.954428 
L 65.013738 -147.876438 
L 65.098784 -147.798629 
L 65.183829 -147.721 
L 65.268875 -147.64355 
L 65.35392 -147.566278 
L 65.438966 -147.489181 
L 65.524011 -147.412258 
L 65.609057 -147.33551 
L 65.694103 -147.258933 
L 65.779148 -147.182527 
L 65.864194 -147.106291 
L 65.949239 -147.030223 
L 66.034285 -146.954322 
L 66.119331 -146.878588 
L 66.204376 -146.803018 
L 66.289422 -146.727612 
L 66.374467 -146.652369 
L 66.459513 -146.577287 
L 66.544558 -146.502366 
L 66.629604 -146.427604 
L 66.71465 -146.353001 
L 66.799695 -146.278554 
L 66.884741 -146.204264 
L 66.969786 -146.130129 
L 67.054832 -146.056148 
L 67.139877 -145.982321 
L 67.224923 -145.908645 
L 67.309969 -145.835121 
L 67.395014 -145.761746 
L 67.48006 -145.688522 
L 67.565105 -145.615445 
L 67.650151 -145.542516 
L 67.735197 -145.469733 
L 67.820242 -145.397096 
L 67.905288 -145.324604 
L 67.990333 -145.252255 
L 68.075379 -145.18005 
L 68.160424 -145.107986 
L 68.24547 -145.036064 
L 68.330516 -144.964282 
L 68.415561 -144.89264 
L 68.500607 -144.821136 
L 68.585652 -144.749771 
L 68.670698 -144.678542 
L 68.755744 -144.60745 
L 68.840789 -144.536493 
L 68.925835 -144.465671 
L 69.01088 -144.394983 
L 69.095926 -144.324429 
L 69.180971 -144.254006 
L 69.266017 -144.183716 
L 69.351063 -144.113557 
L 69.436108 -144.043527 
L 69.521154 -143.973628 
L 69.606199 -143.903857 
L 69.691245 -143.834214 
L 69.77629 -143.764699 
L 69.861336 -143.695311 
L 69.946382 -143.626049 
L 70.031427 -143.556912 
L 70.116473 -143.4879 
L 70.201518 -143.419011 
L 70.286564 -143.350247 
L 70.37161 -143.281605 
L 70.456655 -143.213085 
L 70.541701 -143.144687 
L 70.626746 -143.07641 
L 70.711792 -143.008253 
L 70.796837 -142.940215 
L 70.881883 -142.872297 
L 70.966929 -142.804497 
L 71.051974 -142.736815 
L 71.13702 -142.66925 
L 71.222065 -142.601802 
L 71.307111 -142.53447 
L 71.392157 -142.467253 
L 71.477202 -142.400152 
L 71.562248 -142.333164 
L 71.647293 -142.266291 
L 71.732339 -142.199531 
L 71.817384 -142.132884 
L 71.90243 -142.066348 
L 71.987476 -141.999925 
L 72.072521 -141.933612 
L 72.157567 -141.86741 
L 72.242612 -141.801319 
L 72.327658 -141.735336 
L 72.412703 -141.669463 
L 72.497749 -141.603699 
L 72.582795 -141.538042 
L 72.66784 -141.472493 
L 72.752886 -141.407051 
L 72.837931 -141.341715 
L 72.922977 -141.276486 
L 73.008023 -141.211362 
L 73.093068 -141.146343 
L 73.178114 -141.081429 
L 73.263159 -141.016619 
L 73.348205 -140.951913 
L 73.43325 -140.88731 
L 73.518296 -140.82281 
L 73.603342 -140.758412 
L 73.688387 -140.694116 
L 73.773433 -140.629921 
L 73.858478 -140.565828 
L 73.943524 -140.501835 
L 74.02857 -140.437942 
L 74.113615 -140.374148 
L 74.198661 -140.310454 
L 74.283706 -140.246859 
L 74.368752 -140.183363 
L 74.453797 -140.119964 
L 74.538843 -140.056663 
L 74.623889 -139.993459 
L 74.708934 -139.930352 
L 74.79398 -139.867341 
L 74.879025 -139.804426 
L 74.964071 -139.741607 
L 75.049116 -139.678883 
L 75.134162 -139.616254 
L 75.219208 -139.553719 
L 75.304253 -139.491278 
L 75.389299 -139.428931 
L 75.474344 -139.366677 
L 75.55939 -139.304516 
L 75.644436 -139.242448 
L 75.729481 -139.180471 
L 75.814527 -139.118587 
L 75.899572 -139.056794 
L 75.984618 -138.995092 
L 76.069663 -138.93348 
L 76.154709 -138.871959 
L 76.239755 -138.810528 
L 76.3248 -138.749187 
L 76.409846 -138.687935 
L 76.494891 -138.626772 
L 76.579937 -138.565697 
L 76.664983 -138.504711 
L 76.750028 -138.443812 
L 76.835074 -138.383002 
L 76.920119 -138.322278 
L 77.005165 -138.261642 
L 77.09021 -138.201092 
L 77.175256 -138.140628 
L 77.260302 -138.08025 
L 77.345347 -138.019958 
L 77.430393 -137.959751 
L 77.515438 -137.89963 
L 77.600484 -137.839593 
L 77.685529 -137.77964 
L 77.770575 -137.719771 
L 77.855621 -137.659986 
L 77.940666 -137.600285 
L 78.025712 -137.540667 
L 78.110757 -137.481131 
L 78.195803 -137.421678 
L 78.280849 -137.362308 
L 78.365894 -137.303019 
L 78.45094 -137.243812 
L 78.535985 -137.184686 
L 78.621031 -137.125642 
L 78.706076 -137.066678 
L 78.791122 -137.007795 
L 78.876168 -136.948992 
L 78.961213 -136.890269 
L 79.046259 -136.831625 
L 79.131304 -136.773061 
L 79.21635 -136.714576 
L 79.301396 -136.65617 
L 79.386441 -136.597843 
L 79.471487 -136.539594 
L 79.556532 -136.481423 
L 79.641578 -136.423329 
L 79.726623 -136.365313 
L 79.811669 -136.307375 
L 79.896715 -136.249513 
L 79.98176 -136.191728 
L 80.066806 -136.13402 
L 80.151851 -136.076388 
L 80.236897 -136.018831 
L 80.321942 -135.961351 
L 80.406988 -135.903946 
L 80.492034 -135.846616 
L 80.577079 -135.789361 
L 80.662125 -135.73218 
L 80.74717 -135.675074 
L 80.832216 -135.618043 
L 80.917262 -135.561085 
L 81.002307 -135.504201 
L 81.087353 -135.447391 
L 81.172398 -135.390654 
L 81.257444 -135.333989 
L 81.342489 -135.277398 
L 81.427535 -135.220879 
L 81.512581 -135.164432 
L 81.597626 -135.108058 
L 81.682672 -135.051755 
L 81.767717 -134.995524 
L 81.852763 -134.939365 
L 81.937808 -134.883276 
L 82.022854 -134.827259 
L 82.1079 -134.771312 
L 82.192945 -134.715436 
L 82.277991 -134.65963 
L 82.363036 -134.603894 
L 82.448082 -134.548228 
L 82.533128 -134.492632 
L 82.618173 -134.437105 
L 82.703219 -134.381647 
L 82.788264 -134.326258 
L 82.87331 -134.270938 
L 82.958355 -134.215687 
L 83.043401 -134.160504 
L 83.128447 -134.105389 
L 83.213492 -134.050342 
L 83.298538 -133.995363 
L 83.383583 -133.940452 
L 83.468629 -133.885607 
L 83.553675 -133.83083 
L 83.63872 -133.77612 
L 83.723766 -133.721476 
L 83.808811 -133.6669 
L 83.893857 -133.612389 
L 83.978902 -133.557945 
L 84.063948 -133.503566 
L 84.148994 -133.449253 
L 84.234039 -133.395006 
L 84.319085 -133.340825 
L 84.40413 -133.286708 
L 84.489176 -133.232656 
L 84.574221 -133.17867 
L 84.659267 -133.124747 
L 84.744313 -133.07089 
L 84.829358 -133.017096 
L 84.914404 -132.963367 
L 84.999449 -132.909701 
L 85.084495 -132.8561 
L 85.169541 -132.802561 
L 85.254586 -132.749086 
L 85.339632 -132.695674 
L 85.424677 -132.642326 
L 85.509723 -132.58904 
L 85.594768 -132.535816 
L 85.679814 -132.482655 
L 85.76486 -132.429556 
L 85.849905 -132.37652 
L 85.934951 -132.323545 
L 86.019996 -132.270632 
L 86.105042 -132.217781 
L 86.190088 -132.164991 
L 86.275133 -132.112262 
L 86.360179 -132.059595 
L 86.445224 -132.006988 
L 86.53027 -131.954442 
L 86.615315 -131.901957 
L 86.700361 -131.849532 
L 86.785407 -131.797167 
L 86.870452 -131.744862 
L 86.955498 -131.692617 
L 87.040543 -131.640432 
L 87.125589 -131.588307 
L 87.210634 -131.536241 
L 87.29568 -131.484234 
L 87.380726 -131.432287 
L 87.465771 -131.380398 
L 87.550817 -131.328568 
L 87.635862 -131.276797 
L 87.720908 -131.225085 
L 87.805954 -131.17343 
L 87.890999 -131.121834 
L 87.976045 -131.070296 
L 88.06109 -131.018816 
L 88.146136 -130.967393 
L 88.231181 -130.916028 
L 88.316227 -130.864721 
L 88.401273 -130.81347 
L 88.486318 -130.762277 
L 88.571364 -130.711141 
L 88.656409 -130.660062 
L 88.741455 -130.609039 
L 88.826501 -130.558073 
L 88.911546 -130.507163 
L 88.996592 -130.45631 
L 89.081637 -130.405512 
L 89.166683 -130.354771 
L 89.251728 -130.304085 
L 89.336774 -130.253455 
L 89.42182 -130.202881 
L 89.506865 -130.152362 
L 89.591911 -130.101898 
L 89.676956 -130.051489 
L 89.762002 -130.001136 
L 89.847047 -129.950837 
L 89.932093 -129.900593 
L 90.017139 -129.850403 
L 90.102184 -129.800268 
L 90.18723 -129.750187 
L 90.272275 -129.700161 
L 90.357321 -129.650188 
L 90.442367 -129.600269 
L 90.527412 -129.550404 
L 90.612458 -129.500593 
L 90.697503 -129.450835 
L 90.782549 -129.40113 
L 90.867594 -129.351479 
L 90.95264 -129.301881 
L 91.037686 -129.252336 
L 91.122731 -129.202843 
L 91.207777 -129.153404 
L 91.292822 -129.104016 
L 91.377868 -129.054682 
L 91.462914 -129.0054 
L 91.547959 -128.95617 
L 91.633005 -128.906992 
L 91.71805 -128.857866 
L 91.803096 -128.808791 
L 91.888141 -128.759769 
L 91.973187 -128.710798 
L 92.058233 -128.661879 
L 92.143278 -128.61301 
L 92.228324 -128.564194 
L 92.313369 -128.515428 
L 92.398415 -128.466713 
L 92.48346 -128.418049 
L 92.568506 -128.369436 
L 92.653552 -128.320873 
L 92.738597 -128.272361 
L 92.823643 -128.2239 
L 92.908688 -128.175488 
L 92.993734 -128.127127 
L 93.07878 -128.078816 
L 93.163825 -128.030555 
L 93.248871 -127.982343 
L 93.333916 -127.934181 
L 93.418962 -127.886069 
L 93.504007 -127.838006 
L 93.589053 -127.789993 
L 93.674099 -127.742029 
L 93.759144 -127.694114 
L 93.84419 -127.646248 
L 93.929235 -127.598431 
L 94.014281 -127.550662 
L 94.099327 -127.502943 
L 94.184372 -127.455271 
L 94.269418 -127.407649 
L 94.354463 -127.360074 
L 94.439509 -127.312548 
L 94.524554 -127.265071 
L 94.6096 -127.217641 
L 94.694646 -127.170259 
L 94.779691 -127.122924 
L 94.864737 -127.075638 
L 94.949782 -127.028399 
L 95.034828 -126.981208 
L 95.119873 -126.934064 
L 95.204919 -126.886967 
L 95.289965 -126.839917 
L 95.37501 -126.792915 
L 95.460056 -126.745959 
L 95.545101 -126.699051 
L 95.630147 -126.652189 
L 95.715193 -126.605374 
L 95.800238 -126.558605 
L 95.885284 -126.511883 
L 95.970329 -126.465207 
L 96.055375 -126.418577 
L 96.14042 -126.371994 
L 96.225466 -126.325457 
L 96.310512 -126.278965 
L 96.395557 -126.23252 
L 96.480603 -126.18612 
L 96.565648 -126.139766 
L 96.650694 -126.093457 
L 96.73574 -126.047194 
L 96.820785 -126.000976 
L 96.905831 -125.954804 
L 96.990876 -125.908676 
L 97.075922 -125.862594 
L 97.160967 -125.816557 
L 97.246013 -125.770564 
L 97.331059 -125.724617 
L 97.416104 -125.678714 
L 97.50115 -125.632856 
L 97.586195 -125.587042 
L 97.671241 -125.541273 
L 97.756286 -125.495548 
L 97.841332 -125.449867 
L 97.926378 -125.40423 
L 98.011423 -125.358637 
L 98.096469 -125.313089 
L 98.181514 -125.267584 
L 98.26656 -125.222123 
L 98.351606 -125.176705 
L 98.436651 -125.131332 
L 98.521697 -125.086001 
L 98.606742 -125.040715 
L 98.691788 -124.995471 
L 98.776833 -124.950271 
L 98.861879 -124.905114 
L 98.946925 -124.859999 
L 99.03197 -124.814928 
L 99.117016 -124.7699 
L 99.202061 -124.724914 
L 99.287107 -124.679972 
L 99.372153 -124.635072 
L 99.457198 -124.590214 
L 99.542244 -124.545399 
L 99.627289 -124.500626 
L 99.712335 -124.455895 
L 99.79738 -124.411207 
L 99.882426 -124.366561 
L 99.967472 -124.321956 
L 100.052517 -124.277394 
L 100.137563 -124.232874 
L 100.222608 -124.188395 
L 100.307654 -124.143958 
L 100.392699 -124.099563 
L 100.477745 -124.055209 
L 100.562791 -124.010896 
L 100.647836 -123.966625 
L 100.732882 -123.922395 
L 100.817927 -123.878207 
L 100.902973 -123.834059 
L 100.988019 -123.789953 
L 101.073064 -123.745887 
L 101.15811 -123.701862 
L 101.243155 -123.657878 
L 101.328201 -123.613935 
L 101.413246 -123.570033 
L 101.498292 -123.526171 
L 101.583338 -123.482349 
L 101.668383 -123.438568 
L 101.753429 -123.394827 
L 101.838474 -123.351127 
L 101.92352 -123.307466 
L 102.008566 -123.263846 
L 102.093611 -123.220265 
L 102.178657 -123.176725 
L 102.263702 -123.133224 
L 102.348748 -123.089763 
L 102.433793 -123.046342 
L 102.518839 -123.002961 
L 102.603885 -122.959619 
L 102.68893 -122.916316 
L 102.773976 -122.873053 
L 102.859021 -122.829829 
L 102.944067 -122.786645 
L 103.029112 -122.743499 
L 103.114158 -122.700393 
L 103.199204 -122.657326 
L 103.284249 -122.614297 
L 103.369295 -122.571308 
L 103.45434 -122.528357 
L 103.539386 -122.485445 
L 103.624432 -122.442572 
L 103.709477 -122.399737 
L 103.794523 -122.356941 
L 103.879568 -122.314183 
L 103.964614 -122.271464 
L 104.049659 -122.228783 
L 104.134705 -122.18614 
L 104.219751 -122.143535 
L 104.304796 -122.100969 
L 104.389842 -122.05844 
L 104.474887 -122.015949 
L 104.559933 -121.973497 
L 104.644979 -121.931082 
L 104.730024 -121.888704 
L 104.81507 -121.846365 
L 104.900115 -121.804063 
L 104.985161 -121.761798 
L 105.070206 -121.719571 
L 105.155252 -121.677381 
L 105.240298 -121.635229 
L 105.325343 -121.593114 
L 105.410389 -121.551036 
L 105.495434 -121.508995 
L 105.58048 -121.466991 
L 105.665525 -121.425025 
L 105.750571 -121.383095 
L 105.835617 -121.341202 
L 105.920662 -121.299345 
L 106.005708 -121.257526 
L 106.090753 -121.215743 
L 106.175799 -121.173997 
L 106.260845 -121.132287 
L 106.34589 -121.090613 
L 106.430936 -121.048977 
L 106.515981 -121.007376 
L 106.601027 -120.965812 
L 106.686072 -120.924283 
L 106.771118 -120.882791 
L 106.856164 -120.841335 
L 106.941209 -120.799915 
L 107.026255 -120.758531 
L 107.1113 -120.717183 
L 107.196346 -120.675871 
L 107.281392 -120.634594 
L 107.366437 -120.593353 
L 107.451483 -120.552148 
L 107.536528 -120.510978 
L 107.621574 -120.469843 
L 107.706619 -120.428745 
L 107.791665 -120.387681 
L 107.876711 -120.346653 
L 107.961756 -120.30566 
L 108.046802 -120.264702 
L 108.131847 -120.223779 
L 108.216893 -120.182892 
L 108.301938 -120.142039 
L 108.386984 -120.101222 
L 108.47203 -120.060439 
L 108.557075 -120.019691 
L 108.642121 -119.978978 
L 108.727166 -119.938299 
L 108.812212 -119.897655 
L 108.897258 -119.857046 
L 108.982303 -119.816471 
L 109.067349 -119.775931 
L 109.152394 -119.735425 
L 109.23744 -119.694954 
L 109.322485 -119.654516 
L 109.407531 -119.614113 
L 109.492577 -119.573745 
L 109.577622 -119.53341 
L 109.662668 -119.493109 
L 109.747713 -119.452842 
L 109.832759 -119.41261 
L 109.917804 -119.372411 
L 110.00285 -119.332246 
L 110.087896 -119.292114 
L 110.172941 -119.252017 
L 110.257987 -119.211953 
L 110.343032 -119.171922 
L 110.428078 -119.131926 
L 110.513124 -119.091962 
L 110.598169 -119.052032 
L 110.683215 -119.012136 
L 110.76826 -118.972272 
L 110.853306 -118.932443 
L 110.938351 -118.892646 
L 111.023397 -118.852882 
L 111.108443 -118.813152 
L 111.193488 -118.773454 
L 111.278534 -118.73379 
L 111.363579 -118.694158 
L 111.448625 -118.654559 
L 111.533671 -118.614993 
L 111.618716 -118.57546 
L 111.703762 -118.53596 
L 111.788807 -118.496492 
L 111.873853 -118.457057 
L 111.958898 -118.417654 
L 112.043944 -118.378284 
L 112.12899 -118.338947 
L 112.214035 -118.299641 
L 112.299081 -118.260368 
L 112.384126 -118.221128 
L 112.469172 -118.181919 
L 112.554217 -118.142743 
L 112.639263 -118.103599 
L 112.724309 -118.064487 
L 112.809354 -118.025407 
L 112.8944 -117.986359 
L 112.979445 -117.947343 
L 113.064491 -117.908358 
L 113.149537 -117.869406 
L 113.234582 -117.830485 
L 113.319628 -117.791596 
L 113.404673 -117.752739 
L 113.489719 -117.713913 
L 113.574764 -117.675119 
L 113.65981 -117.636357 
L 113.744856 -117.597625 
L 113.829901 -117.558926 
L 113.914947 -117.520257 
L 113.999992 -117.48162 
L 114.085038 -117.443014 
L 114.170084 -117.40444 
L 114.255129 -117.365896 
L 114.340175 -117.327384 
L 114.42522 -117.288903 
L 114.510266 -117.250453 
L 114.595311 -117.212033 
L 114.680357 -117.173645 
L 114.765403 -117.135287 
L 114.850448 -117.096961 
L 114.935494 -117.058665 
L 115.020539 -117.0204 
L 115.105585 -116.982165 
L 115.19063 -116.943961 
L 115.275676 -116.905788 
L 115.360722 -116.867645 
L 115.445767 -116.829533 
L 115.530813 -116.791451 
L 115.615858 -116.753399 
L 115.700904 -116.715378 
L 115.78595 -116.677387 
L 115.870995 -116.639427 
L 115.956041 -116.601496 
L 116.041086 -116.563596 
L 116.126132 -116.525726 
L 116.211177 -116.487886 
L 116.296223 -116.450076 
L 116.381269 -116.412296 
L 116.466314 -116.374545 
L 116.55136 -116.336825 
L 116.636405 -116.299135 
L 116.721451 -116.261474 
L 116.806497 -116.223843 
L 116.891542 -116.186242 
L 116.976588 -116.14867 
L 117.061633 -116.111128 
L 117.146679 -116.073615 
L 117.231724 -116.036132 
L 117.31677 -115.998679 
L 117.401816 -115.961255 
L 117.486861 -115.92386 
L 117.571907 -115.886495 
L 117.656952 -115.849159 
L 117.741998 -115.811852 
L 117.827043 -115.774574 
L 117.912089 -115.737326 
L 117.997135 -115.700106 
L 118.08218 -115.662916 
L 118.167226 -115.625754 
L 118.252271 -115.588622 
L 118.337317 -115.551519 
L 118.422363 -115.514444 
L 118.507408 -115.477399 
L 118.592454 -115.440382 
L 118.677499 -115.403394 
L 118.762545 -115.366434 
L 118.84759 -115.329504 
L 118.932636 -115.292601 
L 119.017682 -115.255728 
L 119.102727 -115.218883 
L 119.187773 -115.182067 
L 119.272818 -115.145279 
L 119.357864 -115.108519 
L 119.44291 -115.071788 
L 119.527955 -115.035085 
L 119.613001 -114.998411 
L 119.698046 -114.961764 
L 119.783092 -114.925146 
L 119.868137 -114.888556 
L 119.953183 -114.851995 
L 120.038229 -114.815461 
L 120.123274 -114.778955 
L 120.20832 -114.742478 
L 120.293365 -114.706028 
L 120.378411 -114.669606 
L 120.463456 -114.633212 
L 120.548502 -114.596846 
L 120.633548 -114.560508 
L 120.718593 -114.524198 
L 120.803639 -114.487915 
L 120.888684 -114.45166 
L 120.97373 -114.415433 
L 121.058776 -114.379233 
L 121.143821 -114.34306 
L 121.228867 -114.306916 
L 121.313912 -114.270798 
L 121.398958 -114.234709 
L 121.484003 -114.198646 
L 121.569049 -114.162611 
L 121.654095 -114.126603 
L 121.73914 -114.090623 
L 121.824186 -114.05467 
L 121.909231 -114.018744 
L 121.994277 -113.982845 
L 122.079323 -113.946973 
L 122.164368 -113.911129 
L 122.249414 -113.875311 
L 122.334459 -113.83952 
L 122.419505 -113.803757 
L 122.50455 -113.76802 
L 122.589596 -113.73231 
L 122.674642 -113.696628 
L 122.759687 -113.660971 
L 122.844733 -113.625342 
L 122.929778 -113.58974 
L 123.014824 -113.554164 
L 123.099869 -113.518615 
L 123.184915 -113.483092 
L 123.269961 -113.447596 
L 123.355006 -113.412127 
L 123.440052 -113.376684 
L 123.525097 -113.341267 
L 123.610143 -113.305877 
L 123.695189 -113.270514 
L 123.780234 -113.235176 
L 123.86528 -113.199866 
L 123.950325 -113.164581 
L 124.035371 -113.129323 
L 124.120416 -113.094091 
L 124.205462 -113.058885 
L 124.290508 -113.023705 
L 124.375553 -112.988551 
L 124.460599 -112.953424 
L 124.545644 -112.918322 
L 124.63069 -112.883246 
L 124.715736 -112.848197 
L 124.800781 -112.813173 
L 124.885827 -112.778175 
L 124.970872 -112.743204 
L 125.055918 -112.708258 
L 125.140963 -112.673337 
L 125.226009 -112.638443 
L 125.311055 -112.603574 
L 125.3961 -112.568731 
L 125.481146 -112.533913 
L 125.566191 -112.499121 
L 125.651237 -112.464355 
L 125.736282 -112.429614 
L 125.821328 -112.394899 
L 125.906374 -112.360209 
L 125.991419 -112.325545 
L 126.076465 -112.290906 
L 126.16151 -112.256292 
L 126.246556 -112.221704 
L 126.331602 -112.187141 
L 126.416647 -112.152603 
L 126.501693 -112.118091 
L 126.586738 -112.083603 
L 126.671784 -112.049141 
L 126.756829 -112.014704 
L 126.841875 -111.980292 
L 126.926921 -111.945906 
L 127.011966 -111.911544 
L 127.097012 -111.877207 
L 127.182057 -111.842895 
L 127.267103 -111.808608 
L 127.352149 -111.774346 
L 127.437194 -111.740109 
L 127.52224 -111.705896 
L 127.607285 -111.671709 
L 127.692331 -111.637546 
L 127.777376 -111.603408 
L 127.862422 -111.569294 
L 127.947468 -111.535206 
L 128.032513 -111.501141 
L 128.117559 -111.467102 
L 128.202604 -111.433087 
L 128.28765 -111.399096 
L 128.372695 -111.36513 
L 128.457741 -111.331189 
L 128.542787 -111.297272 
L 128.627832 -111.263379 
L 128.712878 -111.229511 
L 128.797923 -111.195667 
L 128.882969 -111.161847 
L 128.968015 -111.128051 
L 129.05306 -111.09428 
L 129.138106 -111.060533 
L 129.223151 -111.02681 
L 129.308197 -110.993111 
L 129.393242 -110.959437 
L 129.478288 -110.925786 
L 129.563334 -110.89216 
L 129.648379 -110.858557 
L 129.733425 -110.824979 
L 129.81847 -110.791424 
L 129.903516 -110.757894 
L 129.988562 -110.724387 
L 130.073607 -110.690904 
L 130.158653 -110.657445 
L 130.243698 -110.62401 
L 130.328744 -110.590598 
L 130.413789 -110.55721 
L 130.498835 -110.523846 
L 130.583881 -110.490506 
L 130.668926 -110.457189 
L 130.753972 -110.423896 
L 130.839017 -110.390626 
L 130.924063 -110.35738 
L 131.009108 -110.324158 
L 131.094154 -110.290959 
L 131.1792 -110.257783 
L 131.264245 -110.224631 
L 131.349291 -110.191502 
L 131.434336 -110.158397 
L 131.519382 -110.125315 
L 131.604428 -110.092256 
L 131.689473 -110.05922 
L 131.774519 -110.026208 
L 131.859564 -109.993219 
L 131.94461 -109.960253 
L 132.029655 -109.927311 
L 132.114701 -109.894391 
L 132.199747 -109.861495 
L 132.284792 -109.828621 
L 132.369838 -109.795771 
L 132.454883 -109.762943 
L 132.539929 -109.730139 
L 132.624975 -109.697358 
L 132.71002 -109.664599 
L 132.795066 -109.631864 
L 132.880111 -109.599151 
L 132.965157 -109.566461 
L 133.050202 -109.533794 
L 133.135248 -109.501149 
L 133.220294 -109.468528 
L 133.305339 -109.435929 
L 133.390385 -109.403353 
L 133.47543 -109.370799 
L 133.560476 -109.338268 
L 133.645521 -109.30576 
L 133.730567 -109.273274 
L 133.815613 -109.240811 
L 133.900658 -109.208371 
L 133.985704 -109.175953 
L 134.070749 -109.143557 
L 134.155795 -109.111184 
L 134.240841 -109.078833 
L 134.325886 -109.046504 
L 134.410932 -109.014198 
L 134.495977 -108.981914 
L 134.581023 -108.949653 
L 134.666068 -108.917414 
L 134.751114 -108.885197 
L 134.83616 -108.853002 
L 134.921205 -108.820829 
L 135.006251 -108.788679 
L 135.091296 -108.756551 
L 135.176342 -108.724444 
L 135.261388 -108.69236 
L 135.346433 -108.660298 
L 135.431479 -108.628258 
L 135.516524 -108.59624 
L 135.60157 -108.564244 
L 135.686615 -108.53227 
L 135.771661 -108.500318 
L 135.856707 -108.468387 
L 135.941752 -108.436479 
L 136.026798 -108.404592 
L 136.111843 -108.372727 
L 136.196889 -108.340884 
L 136.281934 -108.309063 
L 136.36698 -108.277263 
L 136.452026 -108.245485 
L 136.537071 -108.213729 
L 136.622117 -108.181995 
L 136.707162 -108.150282 
L 136.792208 -108.11859 
L 136.877254 -108.08692 
L 136.962299 -108.055272 
L 137.047345 -108.023645 
L 137.13239 -107.99204 
L 137.217436 -107.960456 
L 137.302481 -107.928894 
L 137.387527 -107.897353 
L 137.472573 -107.865833 
L 137.557618 -107.834335 
L 137.642664 -107.802858 
L 137.727709 -107.771403 
L 137.812755 -107.739968 
L 137.8978 -107.708555 
L 137.982846 -107.677163 
L 138.067892 -107.645793 
L 138.152937 -107.614443 
L 138.237983 -107.583115 
L 138.323028 -107.551808 
L 138.408074 -107.520522 
L 138.49312 -107.489257 
L 138.578165 -107.458013 
L 138.663211 -107.42679 
L 138.748256 -107.395588 
L 138.833302 -107.364407 
L 138.918347 -107.333247 
L 139.003393 -107.302108 
L 139.088439 -107.27099 
L 139.173484 -107.239893 
L 139.25853 -107.208816 
L 139.343575 -107.177761 
L 139.428621 -107.146726 
L 139.513667 -107.115712 
L 139.598712 -107.084719 
L 139.683758 -107.053746 
L 139.768803 -107.022794 
L 139.853849 -106.991863 
L 139.938894 -106.960953 
L 140.02394 -106.930063 
L 140.108986 -106.899194 
L 140.194031 -106.868345 
L 140.279077 -106.837517 
L 140.364122 -106.806709 
L 140.449168 -106.775922 
L 140.534213 -106.745156 
L 140.619259 -106.714409 
L 140.704305 -106.683684 
L 140.78935 -106.652978 
L 140.874396 -106.622294 
L 140.959441 -106.591629 
L 141.044487 -106.560985 
L 141.129533 -106.530361 
L 141.214578 -106.499757 
L 141.299624 -106.469174 
L 141.384669 -106.438611 
L 141.469715 -106.408068 
L 141.55476 -106.377545 
L 141.639806 -106.347043 
L 141.724852 -106.316561 
L 141.809897 -106.286099 
L 141.894943 -106.255656 
L 141.979988 -106.225234 
L 142.065034 -106.194832 
L 142.15008 -106.164451 
L 142.235125 -106.134089 
L 142.320171 -106.103747 
L 142.405216 -106.073425 
L 142.490262 -106.043123 
L 142.575307 -106.012841 
L 142.660353 -105.982579 
L 142.745399 -105.952336 
L 142.830444 -105.922114 
L 142.91549 -105.891911 
L 143.000535 -105.861728 
L 143.085581 -105.831565 
L 143.170626 -105.801422 
L 143.255672 -105.771299 
L 143.340718 -105.741195 
L 143.425763 -105.711111 
L 143.510809 -105.681046 
L 143.595854 -105.651001 
L 143.6809 -105.620976 
L 143.765946 -105.590971 
L 143.850991 -105.560985 
L 143.936037 -105.531018 
L 144.021082 -105.501071 
L 144.106128 -105.471144 
L 144.191173 -105.441236 
L 144.276219 -105.411348 
L 144.361265 -105.381479 
L 144.44631 -105.351629 
L 144.531356 -105.321799 
L 144.616401 -105.291988 
L 144.701447 -105.262197 
L 144.786493 -105.232425 
L 144.871538 -105.202672 
L 144.956584 -105.172938 
L 145.041629 -105.143224 
L 145.126675 -105.113529 
L 145.21172 -105.083853 
L 145.296766 -105.054197 
L 145.381812 -105.02456 
L 145.466857 -104.994941 
L 145.551903 -104.965342 
L 145.636948 -104.935762 
L 145.721994 -104.906202 
L 145.807039 -104.87666 
L 145.892085 -104.847137 
L 145.977131 -104.817634 
L 146.062176 -104.788149 
L 146.147222 -104.758683 
L 146.232267 -104.729237 
L 146.317313 -104.699809 
L 146.402359 -104.6704 
L 146.487404 -104.64101 
L 146.57245 -104.611639 
L 146.657495 -104.582287 
L 146.742541 -104.552954 
L 146.827586 -104.52364 
L 146.912632 -104.494344 
L 146.997678 -104.465067 
L 147.082723 -104.435809 
L 147.167769 -104.40657 
L 147.252814 -104.377349 
L 147.33786 -104.348147 
L 147.422906 -104.318964 
L 147.507951 -104.289799 
L 147.592997 -104.260653 
L 147.678042 -104.231526 
L 147.763088 -104.202417 
L 147.848133 -104.173327 
L 147.933179 -104.144255 
L 148.018225 -104.115202 
L 148.10327 -104.086167 
L 148.188316 -104.057151 
L 148.273361 -104.028154 
L 148.358407 -103.999175 
L 148.443452 -103.970214 
L 148.528498 -103.941272 
L 148.613544 -103.912348 
L 148.698589 -103.883442 
L 148.783635 -103.854555 
L 148.86868 -103.825686 
L 148.953726 -103.796836 
L 149.038772 -103.768003 
L 149.123817 -103.739189 
L 149.208863 -103.710394 
L 149.293908 -103.681616 
L 149.378954 -103.652857 
L 149.463999 -103.624116 
L 149.549045 -103.595393 
L 149.634091 -103.566688 
L 149.719136 -103.538001 
L 149.804182 -103.509333 
L 149.889227 -103.480683 
L 149.974273 -103.45205 
L 150.059319 -103.423436 
L 150.144364 -103.39484 
L 150.22941 -103.366261 
L 150.314455 -103.337701 
L 150.399501 -103.309159 
L 150.484546 -103.280635 
L 150.569592 -103.252128 
L 150.654638 -103.22364 
L 150.739683 -103.195169 
L 150.824729 -103.166717 
L 150.909774 -103.138282 
L 150.99482 -103.109865 
L 151.079865 -103.081466 
L 151.164911 -103.053085 
L 151.249957 -103.024721 
L 151.335002 -102.996375 
L 151.420048 -102.968047 
L 151.505093 -102.939737 
L 151.590139 -102.911444 
L 151.675185 -102.88317 
L 151.76023 -102.854912 
L 151.845276 -102.826673 
L 151.930321 -102.798451 
L 152.015367 -102.770247 
L 152.100412 -102.74206 
L 152.185458 -102.713891 
L 152.270504 -102.685739 
L 152.355549 -102.657605 
L 152.440595 -102.629489 
L 152.52564 -102.60139 
L 152.610686 -102.573308 
L 152.695732 -102.545244 
L 152.780777 -102.517197 
L 152.865823 -102.489168 
L 152.950868 -102.461157 
L 153.035914 -102.433162 
L 153.120959 -102.405185 
L 153.206005 -102.377226 
L 153.291051 -102.349283 
L 153.376096 -102.321358 
L 153.461142 -102.293451 
L 153.546187 -102.26556 
L 153.631233 -102.237687 
L 153.716278 -102.209831 
L 153.801324 -102.181993 
L 153.88637 -102.154171 
L 153.971415 -102.126367 
L 154.056461 -102.09858 
L 154.141506 -102.07081 
L 154.226552 -102.043057 
L 154.311598 -102.015322 
L 154.396643 -101.987603 
L 154.481689 -101.959902 
L 154.566734 -101.932217 
L 154.65178 -101.90455 
L 154.736825 -101.8769 
L 154.821871 -101.849266 
L 154.906917 -101.82165 
L 154.991962 -101.794051 
L 155.077008 -101.766469 
L 155.162053 -101.738903 
L 155.247099 -101.711355 
L 155.332145 -101.683823 
L 155.41719 -101.656309 
L 155.502236 -101.628811 
L 155.587281 -101.60133 
L 155.672327 -101.573866 
L 155.757372 -101.546418 
L 155.842418 -101.518988 
L 155.927464 -101.491574 
L 156.012509 -101.464177 
L 156.097555 -101.436797 
L 156.1826 -101.409434 
L 156.267646 -101.382087 
L 156.352691 -101.354757 
L 156.437737 -101.327444 
L 156.522783 -101.300147 
L 156.607828 -101.272867 
L 156.692874 -101.245604 
L 156.777919 -101.218357 
L 156.862965 -101.191127 
L 156.948011 -101.163913 
L 157.033056 -101.136716 
L 157.118102 -101.109536 
L 157.203147 -101.082372 
L 157.288193 -101.055225 
L 157.373238 -101.028094 
L 157.458284 -101.000979 
L 157.54333 -100.973881 
L 157.628375 -100.9468 
L 157.713421 -100.919735 
L 157.798466 -100.892686 
L 157.883512 -100.865654 
L 157.968558 -100.838638 
L 158.053603 -100.811638 
L 158.138649 -100.784655 
L 158.223694 -100.757688 
L 158.30874 -100.730738 
L 158.393785 -100.703804 
L 158.478831 -100.676886 
L 158.563877 -100.649984 
L 158.648922 -100.623099 
L 158.733968 -100.596229 
L 158.819013 -100.569376 
L 158.904059 -100.54254 
L 158.989104 -100.515719 
L 159.07415 -100.488915 
L 159.159196 -100.462126 
L 159.244241 -100.435354 
L 159.329287 -100.408598 
L 159.414332 -100.381858 
L 159.499378 -100.355134 
L 159.584424 -100.328426 
L 159.669469 -100.301735 
L 159.754515 -100.275059 
L 159.83956 -100.248399 
L 159.924606 -100.221756 
L 160.009651 -100.195128 
L 160.094697 -100.168516 
L 160.179743 -100.141921 
L 160.264788 -100.115341 
L 160.349834 -100.088777 
L 160.434879 -100.062229 
L 160.519925 -100.035697 
L 160.604971 -100.009181 
L 160.690016 -99.98268 
L 160.775062 -99.956196 
L 160.860107 -99.929727 
L 160.945153 -99.903274 
L 161.030198 -99.876837 
L 161.115244 -99.850416 
L 161.20029 -99.824011 
L 161.285335 -99.797621 
L 161.370381 -99.771247 
L 161.455426 -99.744889 
L 161.540472 -99.718546 
L 161.540472 -38.395313 
L 161.540472 -38.395313 
L 161.455426 -38.395313 
L 161.370381 -38.395313 
L 161.285335 -38.395313 
L 161.20029 -38.395313 
L 161.115244 -38.395313 
L 161.030198 -38.395313 
L 160.945153 -38.395313 
L 160.860107 -38.395313 
L 160.775062 -38.395313 
L 160.690016 -38.395313 
L 160.604971 -38.395313 
L 160.519925 -38.395313 
L 160.434879 -38.395313 
L 160.349834 -38.395313 
L 160.264788 -38.395313 
L 160.179743 -38.395313 
L 160.094697 -38.395313 
L 160.009651 -38.395313 
L 159.924606 -38.395313 
L 159.83956 -38.395313 
L 159.754515 -38.395313 
L 159.669469 -38.395313 
L 159.584424 -38.395313 
L 159.499378 -38.395313 
L 159.414332 -38.395313 
L 159.329287 -38.395313 
L 159.244241 -38.395313 
L 159.159196 -38.395313 
L 159.07415 -38.395313 
L 158.989104 -38.395313 
L 158.904059 -38.395313 
L 158.819013 -38.395313 
L 158.733968 -38.395313 
L 158.648922 -38.395313 
L 158.563877 -38.395313 
L 158.478831 -38.395313 
L 158.393785 -38.395313 
L 158.30874 -38.395313 
L 158.223694 -38.395313 
L 158.138649 -38.395313 
L 158.053603 -38.395313 
L 157.968558 -38.395313 
L 157.883512 -38.395313 
L 157.798466 -38.395313 
L 157.713421 -38.395313 
L 157.628375 -38.395313 
L 157.54333 -38.395313 
L 157.458284 -38.395313 
L 157.373238 -38.395313 
L 157.288193 -38.395313 
L 157.203147 -38.395313 
L 157.118102 -38.395313 
L 157.033056 -38.395313 
L 156.948011 -38.395313 
L 156.862965 -38.395313 
L 156.777919 -38.395313 
L 156.692874 -38.395313 
L 156.607828 -38.395313 
L 156.522783 -38.395313 
L 156.437737 -38.395313 
L 156.352691 -38.395313 
L 156.267646 -38.395313 
L 156.1826 -38.395313 
L 156.097555 -38.395313 
L 156.012509 -38.395313 
L 155.927464 -38.395313 
L 155.842418 -38.395313 
L 155.757372 -38.395313 
L 155.672327 -38.395313 
L 155.587281 -38.395313 
L 155.502236 -38.395313 
L 155.41719 -38.395313 
L 155.332145 -38.395313 
L 155.247099 -38.395313 
L 155.162053 -38.395313 
L 155.077008 -38.395313 
L 154.991962 -38.395313 
L 154.906917 -38.395313 
L 154.821871 -38.395313 
L 154.736825 -38.395313 
L 154.65178 -38.395313 
L 154.566734 -38.395313 
L 154.481689 -38.395313 
L 154.396643 -38.395313 
L 154.311598 -38.395313 
L 154.226552 -38.395313 
L 154.141506 -38.395313 
L 154.056461 -38.395313 
L 153.971415 -38.395313 
L 153.88637 -38.395313 
L 153.801324 -38.395313 
L 153.716278 -38.395313 
L 153.631233 -38.395313 
L 153.546187 -38.395313 
L 153.461142 -38.395313 
L 153.376096 -38.395313 
L 153.291051 -38.395313 
L 153.206005 -38.395313 
L 153.120959 -38.395313 
L 153.035914 -38.395313 
L 152.950868 -38.395313 
L 152.865823 -38.395313 
L 152.780777 -38.395313 
L 152.695732 -38.395313 
L 152.610686 -38.395313 
L 152.52564 -38.395313 
L 152.440595 -38.395313 
L 152.355549 -38.395313 
L 152.270504 -38.395313 
L 152.185458 -38.395313 
L 152.100412 -38.395313 
L 152.015367 -38.395313 
L 151.930321 -38.395313 
L 151.845276 -38.395313 
L 151.76023 -38.395313 
L 151.675185 -38.395313 
L 151.590139 -38.395313 
L 151.505093 -38.395313 
L 151.420048 -38.395313 
L 151.335002 -38.395313 
L 151.249957 -38.395313 
L 151.164911 -38.395313 
L 151.079865 -38.395313 
L 150.99482 -38.395313 
L 150.909774 -38.395313 
L 150.824729 -38.395313 
L 150.739683 -38.395313 
L 150.654638 -38.395313 
L 150.569592 -38.395313 
L 150.484546 -38.395313 
L 150.399501 -38.395313 
L 150.314455 -38.395313 
L 150.22941 -38.395313 
L 150.144364 -38.395313 
L 150.059319 -38.395313 
L 149.974273 -38.395313 
L 149.889227 -38.395313 
L 149.804182 -38.395313 
L 149.719136 -38.395313 
L 149.634091 -38.395313 
L 149.549045 -38.395313 
L 149.463999 -38.395313 
L 149.378954 -38.395313 
L 149.293908 -38.395313 
L 149.208863 -38.395313 
L 149.123817 -38.395313 
L 149.038772 -38.395313 
L 148.953726 -38.395313 
L 148.86868 -38.395313 
L 148.783635 -38.395313 
L 148.698589 -38.395313 
L 148.613544 -38.395313 
L 148.528498 -38.395313 
L 148.443452 -38.395313 
L 148.358407 -38.395313 
L 148.273361 -38.395313 
L 148.188316 -38.395313 
L 148.10327 -38.395313 
L 148.018225 -38.395313 
L 147.933179 -38.395313 
L 147.848133 -38.395313 
L 147.763088 -38.395313 
L 147.678042 -38.395313 
L 147.592997 -38.395313 
L 147.507951 -38.395313 
L 147.422906 -38.395313 
L 147.33786 -38.395313 
L 147.252814 -38.395313 
L 147.167769 -38.395313 
L 147.082723 -38.395313 
L 146.997678 -38.395313 
L 146.912632 -38.395313 
L 146.827586 -38.395313 
L 146.742541 -38.395313 
L 146.657495 -38.395313 
L 146.57245 -38.395313 
L 146.487404 -38.395313 
L 146.402359 -38.395313 
L 146.317313 -38.395313 
L 146.232267 -38.395313 
L 146.147222 -38.395313 
L 146.062176 -38.395313 
L 145.977131 -38.395313 
L 145.892085 -38.395313 
L 145.807039 -38.395313 
L 145.721994 -38.395313 
L 145.636948 -38.395313 
L 145.551903 -38.395313 
L 145.466857 -38.395313 
L 145.381812 -38.395313 
L 145.296766 -38.395313 
L 145.21172 -38.395313 
L 145.126675 -38.395313 
L 145.041629 -38.395313 
L 144.956584 -38.395313 
L 144.871538 -38.395313 
L 144.786493 -38.395313 
L 144.701447 -38.395313 
L 144.616401 -38.395313 
L 144.531356 -38.395313 
L 144.44631 -38.395313 
L 144.361265 -38.395313 
L 144.276219 -38.395313 
L 144.191173 -38.395313 
L 144.106128 -38.395313 
L 144.021082 -38.395313 
L 143.936037 -38.395313 
L 143.850991 -38.395313 
L 143.765946 -38.395313 
L 143.6809 -38.395313 
L 143.595854 -38.395313 
L 143.510809 -38.395313 
L 143.425763 -38.395313 
L 143.340718 -38.395313 
L 143.255672 -38.395313 
L 143.170626 -38.395313 
L 143.085581 -38.395313 
L 143.000535 -38.395313 
L 142.91549 -38.395313 
L 142.830444 -38.395313 
L 142.745399 -38.395313 
L 142.660353 -38.395313 
L 142.575307 -38.395313 
L 142.490262 -38.395313 
L 142.405216 -38.395313 
L 142.320171 -38.395313 
L 142.235125 -38.395313 
L 142.15008 -38.395313 
L 142.065034 -38.395313 
L 141.979988 -38.395313 
L 141.894943 -38.395313 
L 141.809897 -38.395313 
L 141.724852 -38.395313 
L 141.639806 -38.395313 
L 141.55476 -38.395313 
L 141.469715 -38.395313 
L 141.384669 -38.395313 
L 141.299624 -38.395313 
L 141.214578 -38.395313 
L 141.129533 -38.395313 
L 141.044487 -38.395313 
L 140.959441 -38.395313 
L 140.874396 -38.395313 
L 140.78935 -38.395313 
L 140.704305 -38.395313 
L 140.619259 -38.395313 
L 140.534213 -38.395313 
L 140.449168 -38.395313 
L 140.364122 -38.395313 
L 140.279077 -38.395313 
L 140.194031 -38.395313 
L 140.108986 -38.395313 
L 140.02394 -38.395313 
L 139.938894 -38.395313 
L 139.853849 -38.395313 
L 139.768803 -38.395313 
L 139.683758 -38.395313 
L 139.598712 -38.395313 
L 139.513667 -38.395313 
L 139.428621 -38.395313 
L 139.343575 -38.395313 
L 139.25853 -38.395313 
L 139.173484 -38.395313 
L 139.088439 -38.395313 
L 139.003393 -38.395313 
L 138.918347 -38.395313 
L 138.833302 -38.395313 
L 138.748256 -38.395313 
L 138.663211 -38.395313 
L 138.578165 -38.395313 
L 138.49312 -38.395313 
L 138.408074 -38.395313 
L 138.323028 -38.395313 
L 138.237983 -38.395313 
L 138.152937 -38.395313 
L 138.067892 -38.395313 
L 137.982846 -38.395313 
L 137.8978 -38.395313 
L 137.812755 -38.395313 
L 137.727709 -38.395313 
L 137.642664 -38.395313 
L 137.557618 -38.395313 
L 137.472573 -38.395313 
L 137.387527 -38.395313 
L 137.302481 -38.395313 
L 137.217436 -38.395313 
L 137.13239 -38.395313 
L 137.047345 -38.395313 
L 136.962299 -38.395313 
L 136.877254 -38.395313 
L 136.792208 -38.395313 
L 136.707162 -38.395313 
L 136.622117 -38.395313 
L 136.537071 -38.395313 
L 136.452026 -38.395313 
L 136.36698 -38.395313 
L 136.281934 -38.395313 
L 136.196889 -38.395313 
L 136.111843 -38.395313 
L 136.026798 -38.395313 
L 135.941752 -38.395313 
L 135.856707 -38.395313 
L 135.771661 -38.395313 
L 135.686615 -38.395313 
L 135.60157 -38.395313 
L 135.516524 -38.395313 
L 135.431479 -38.395313 
L 135.346433 -38.395313 
L 135.261388 -38.395313 
L 135.176342 -38.395313 
L 135.091296 -38.395313 
L 135.006251 -38.395313 
L 134.921205 -38.395313 
L 134.83616 -38.395313 
L 134.751114 -38.395313 
L 134.666068 -38.395313 
L 134.581023 -38.395313 
L 134.495977 -38.395313 
L 134.410932 -38.395313 
L 134.325886 -38.395313 
L 134.240841 -38.395313 
L 134.155795 -38.395313 
L 134.070749 -38.395313 
L 133.985704 -38.395313 
L 133.900658 -38.395313 
L 133.815613 -38.395313 
L 133.730567 -38.395313 
L 133.645521 -38.395313 
L 133.560476 -38.395313 
L 133.47543 -38.395313 
L 133.390385 -38.395313 
L 133.305339 -38.395313 
L 133.220294 -38.395313 
L 133.135248 -38.395313 
L 133.050202 -38.395313 
L 132.965157 -38.395313 
L 132.880111 -38.395313 
L 132.795066 -38.395313 
L 132.71002 -38.395313 
L 132.624975 -38.395313 
L 132.539929 -38.395313 
L 132.454883 -38.395313 
L 132.369838 -38.395313 
L 132.284792 -38.395313 
L 132.199747 -38.395313 
L 132.114701 -38.395313 
L 132.029655 -38.395313 
L 131.94461 -38.395313 
L 131.859564 -38.395313 
L 131.774519 -38.395313 
L 131.689473 -38.395313 
L 131.604428 -38.395313 
L 131.519382 -38.395313 
L 131.434336 -38.395313 
L 131.349291 -38.395313 
L 131.264245 -38.395313 
L 131.1792 -38.395313 
L 131.094154 -38.395313 
L 131.009108 -38.395313 
L 130.924063 -38.395313 
L 130.839017 -38.395313 
L 130.753972 -38.395313 
L 130.668926 -38.395313 
L 130.583881 -38.395313 
L 130.498835 -38.395313 
L 130.413789 -38.395313 
L 130.328744 -38.395313 
L 130.243698 -38.395313 
L 130.158653 -38.395313 
L 130.073607 -38.395313 
L 129.988562 -38.395313 
L 129.903516 -38.395313 
L 129.81847 -38.395313 
L 129.733425 -38.395313 
L 129.648379 -38.395313 
L 129.563334 -38.395313 
L 129.478288 -38.395313 
L 129.393242 -38.395313 
L 129.308197 -38.395313 
L 129.223151 -38.395313 
L 129.138106 -38.395313 
L 129.05306 -38.395313 
L 128.968015 -38.395313 
L 128.882969 -38.395313 
L 128.797923 -38.395313 
L 128.712878 -38.395313 
L 128.627832 -38.395313 
L 128.542787 -38.395313 
L 128.457741 -38.395313 
L 128.372695 -38.395313 
L 128.28765 -38.395313 
L 128.202604 -38.395313 
L 128.117559 -38.395313 
L 128.032513 -38.395313 
L 127.947468 -38.395313 
L 127.862422 -38.395313 
L 127.777376 -38.395313 
L 127.692331 -38.395313 
L 127.607285 -38.395313 
L 127.52224 -38.395313 
L 127.437194 -38.395313 
L 127.352149 -38.395313 
L 127.267103 -38.395313 
L 127.182057 -38.395313 
L 127.097012 -38.395313 
L 127.011966 -38.395313 
L 126.926921 -38.395313 
L 126.841875 -38.395313 
L 126.756829 -38.395313 
L 126.671784 -38.395313 
L 126.586738 -38.395313 
L 126.501693 -38.395313 
L 126.416647 -38.395313 
L 126.331602 -38.395313 
L 126.246556 -38.395313 
L 126.16151 -38.395313 
L 126.076465 -38.395313 
L 125.991419 -38.395313 
L 125.906374 -38.395313 
L 125.821328 -38.395313 
L 125.736282 -38.395313 
L 125.651237 -38.395313 
L 125.566191 -38.395313 
L 125.481146 -38.395313 
L 125.3961 -38.395313 
L 125.311055 -38.395313 
L 125.226009 -38.395313 
L 125.140963 -38.395313 
L 125.055918 -38.395313 
L 124.970872 -38.395313 
L 124.885827 -38.395313 
L 124.800781 -38.395313 
L 124.715736 -38.395313 
L 124.63069 -38.395313 
L 124.545644 -38.395313 
L 124.460599 -38.395313 
L 124.375553 -38.395313 
L 124.290508 -38.395313 
L 124.205462 -38.395313 
L 124.120416 -38.395313 
L 124.035371 -38.395313 
L 123.950325 -38.395313 
L 123.86528 -38.395313 
L 123.780234 -38.395313 
L 123.695189 -38.395313 
L 123.610143 -38.395313 
L 123.525097 -38.395313 
L 123.440052 -38.395313 
L 123.355006 -38.395313 
L 123.269961 -38.395313 
L 123.184915 -38.395313 
L 123.099869 -38.395313 
L 123.014824 -38.395313 
L 122.929778 -38.395313 
L 122.844733 -38.395313 
L 122.759687 -38.395313 
L 122.674642 -38.395313 
L 122.589596 -38.395313 
L 122.50455 -38.395313 
L 122.419505 -38.395313 
L 122.334459 -38.395313 
L 122.249414 -38.395313 
L 122.164368 -38.395313 
L 122.079323 -38.395313 
L 121.994277 -38.395313 
L 121.909231 -38.395313 
L 121.824186 -38.395313 
L 121.73914 -38.395313 
L 121.654095 -38.395313 
L 121.569049 -38.395313 
L 121.484003 -38.395313 
L 121.398958 -38.395313 
L 121.313912 -38.395313 
L 121.228867 -38.395313 
L 121.143821 -38.395313 
L 121.058776 -38.395313 
L 120.97373 -38.395313 
L 120.888684 -38.395313 
L 120.803639 -38.395313 
L 120.718593 -38.395313 
L 120.633548 -38.395313 
L 120.548502 -38.395313 
L 120.463456 -38.395313 
L 120.378411 -38.395313 
L 120.293365 -38.395313 
L 120.20832 -38.395313 
L 120.123274 -38.395313 
L 120.038229 -38.395313 
L 119.953183 -38.395313 
L 119.868137 -38.395313 
L 119.783092 -38.395313 
L 119.698046 -38.395313 
L 119.613001 -38.395313 
L 119.527955 -38.395313 
L 119.44291 -38.395313 
L 119.357864 -38.395313 
L 119.272818 -38.395313 
L 119.187773 -38.395313 
L 119.102727 -38.395313 
L 119.017682 -38.395313 
L 118.932636 -38.395313 
L 118.84759 -38.395313 
L 118.762545 -38.395313 
L 118.677499 -38.395313 
L 118.592454 -38.395313 
L 118.507408 -38.395313 
L 118.422363 -38.395313 
L 118.337317 -38.395313 
L 118.252271 -38.395313 
L 118.167226 -38.395313 
L 118.08218 -38.395313 
L 117.997135 -38.395313 
L 117.912089 -38.395313 
L 117.827043 -38.395313 
L 117.741998 -38.395313 
L 117.656952 -38.395313 
L 117.571907 -38.395313 
L 117.486861 -38.395313 
L 117.401816 -38.395313 
L 117.31677 -38.395313 
L 117.231724 -38.395313 
L 117.146679 -38.395313 
L 117.061633 -38.395313 
L 116.976588 -38.395313 
L 116.891542 -38.395313 
L 116.806497 -38.395313 
L 116.721451 -38.395313 
L 116.636405 -38.395313 
L 116.55136 -38.395313 
L 116.466314 -38.395313 
L 116.381269 -38.395313 
L 116.296223 -38.395313 
L 116.211177 -38.395313 
L 116.126132 -38.395313 
L 116.041086 -38.395313 
L 115.956041 -38.395313 
L 115.870995 -38.395313 
L 115.78595 -38.395313 
L 115.700904 -38.395313 
L 115.615858 -38.395313 
L 115.530813 -38.395313 
L 115.445767 -38.395313 
L 115.360722 -38.395313 
L 115.275676 -38.395313 
L 115.19063 -38.395313 
L 115.105585 -38.395313 
L 115.020539 -38.395313 
L 114.935494 -38.395313 
L 114.850448 -38.395313 
L 114.765403 -38.395313 
L 114.680357 -38.395313 
L 114.595311 -38.395313 
L 114.510266 -38.395313 
L 114.42522 -38.395313 
L 114.340175 -38.395313 
L 114.255129 -38.395313 
L 114.170084 -38.395313 
L 114.085038 -38.395313 
L 113.999992 -38.395313 
L 113.914947 -38.395313 
L 113.829901 -38.395313 
L 113.744856 -38.395313 
L 113.65981 -38.395313 
L 113.574764 -38.395313 
L 113.489719 -38.395313 
L 113.404673 -38.395313 
L 113.319628 -38.395313 
L 113.234582 -38.395313 
L 113.149537 -38.395313 
L 113.064491 -38.395313 
L 112.979445 -38.395313 
L 112.8944 -38.395313 
L 112.809354 -38.395313 
L 112.724309 -38.395313 
L 112.639263 -38.395313 
L 112.554217 -38.395313 
L 112.469172 -38.395313 
L 112.384126 -38.395313 
L 112.299081 -38.395313 
L 112.214035 -38.395313 
L 112.12899 -38.395313 
L 112.043944 -38.395313 
L 111.958898 -38.395313 
L 111.873853 -38.395313 
L 111.788807 -38.395313 
L 111.703762 -38.395313 
L 111.618716 -38.395313 
L 111.533671 -38.395313 
L 111.448625 -38.395313 
L 111.363579 -38.395313 
L 111.278534 -38.395313 
L 111.193488 -38.395313 
L 111.108443 -38.395313 
L 111.023397 -38.395313 
L 110.938351 -38.395313 
L 110.853306 -38.395313 
L 110.76826 -38.395313 
L 110.683215 -38.395313 
L 110.598169 -38.395313 
L 110.513124 -38.395313 
L 110.428078 -38.395313 
L 110.343032 -38.395313 
L 110.257987 -38.395313 
L 110.172941 -38.395313 
L 110.087896 -38.395313 
L 110.00285 -38.395313 
L 109.917804 -38.395313 
L 109.832759 -38.395313 
L 109.747713 -38.395313 
L 109.662668 -38.395313 
L 109.577622 -38.395313 
L 109.492577 -38.395313 
L 109.407531 -38.395313 
L 109.322485 -38.395313 
L 109.23744 -38.395313 
L 109.152394 -38.395313 
L 109.067349 -38.395313 
L 108.982303 -38.395313 
L 108.897258 -38.395313 
L 108.812212 -38.395313 
L 108.727166 -38.395313 
L 108.642121 -38.395313 
L 108.557075 -38.395313 
L 108.47203 -38.395313 
L 108.386984 -38.395313 
L 108.301938 -38.395313 
L 108.216893 -38.395313 
L 108.131847 -38.395313 
L 108.046802 -38.395313 
L 107.961756 -38.395313 
L 107.876711 -38.395313 
L 107.791665 -38.395313 
L 107.706619 -38.395313 
L 107.621574 -38.395313 
L 107.536528 -38.395313 
L 107.451483 -38.395313 
L 107.366437 -38.395313 
L 107.281392 -38.395313 
L 107.196346 -38.395313 
L 107.1113 -38.395313 
L 107.026255 -38.395313 
L 106.941209 -38.395313 
L 106.856164 -38.395313 
L 106.771118 -38.395313 
L 106.686072 -38.395313 
L 106.601027 -38.395313 
L 106.515981 -38.395313 
L 106.430936 -38.395313 
L 106.34589 -38.395313 
L 106.260845 -38.395313 
L 106.175799 -38.395313 
L 106.090753 -38.395313 
L 106.005708 -38.395313 
L 105.920662 -38.395313 
L 105.835617 -38.395313 
L 105.750571 -38.395313 
L 105.665525 -38.395313 
L 105.58048 -38.395313 
L 105.495434 -38.395313 
L 105.410389 -38.395313 
L 105.325343 -38.395313 
L 105.240298 -38.395313 
L 105.155252 -38.395313 
L 105.070206 -38.395313 
L 104.985161 -38.395313 
L 104.900115 -38.395313 
L 104.81507 -38.395313 
L 104.730024 -38.395313 
L 104.644979 -38.395313 
L 104.559933 -38.395313 
L 104.474887 -38.395313 
L 104.389842 -38.395313 
L 104.304796 -38.395313 
L 104.219751 -38.395313 
L 104.134705 -38.395313 
L 104.049659 -38.395313 
L 103.964614 -38.395313 
L 103.879568 -38.395313 
L 103.794523 -38.395313 
L 103.709477 -38.395313 
L 103.624432 -38.395313 
L 103.539386 -38.395313 
L 103.45434 -38.395313 
L 103.369295 -38.395313 
L 103.284249 -38.395313 
L 103.199204 -38.395313 
L 103.114158 -38.395313 
L 103.029112 -38.395313 
L 102.944067 -38.395313 
L 102.859021 -38.395313 
L 102.773976 -38.395313 
L 102.68893 -38.395313 
L 102.603885 -38.395313 
L 102.518839 -38.395313 
L 102.433793 -38.395313 
L 102.348748 -38.395313 
L 102.263702 -38.395313 
L 102.178657 -38.395313 
L 102.093611 -38.395313 
L 102.008566 -38.395313 
L 101.92352 -38.395313 
L 101.838474 -38.395313 
L 101.753429 -38.395313 
L 101.668383 -38.395313 
L 101.583338 -38.395313 
L 101.498292 -38.395313 
L 101.413246 -38.395313 
L 101.328201 -38.395313 
L 101.243155 -38.395313 
L 101.15811 -38.395313 
L 101.073064 -38.395313 
L 100.988019 -38.395313 
L 100.902973 -38.395313 
L 100.817927 -38.395313 
L 100.732882 -38.395313 
L 100.647836 -38.395313 
L 100.562791 -38.395313 
L 100.477745 -38.395313 
L 100.392699 -38.395313 
L 100.307654 -38.395313 
L 100.222608 -38.395313 
L 100.137563 -38.395313 
L 100.052517 -38.395313 
L 99.967472 -38.395313 
L 99.882426 -38.395313 
L 99.79738 -38.395313 
L 99.712335 -38.395313 
L 99.627289 -38.395313 
L 99.542244 -38.395313 
L 99.457198 -38.395313 
L 99.372153 -38.395313 
L 99.287107 -38.395313 
L 99.202061 -38.395313 
L 99.117016 -38.395313 
L 99.03197 -38.395313 
L 98.946925 -38.395313 
L 98.861879 -38.395313 
L 98.776833 -38.395313 
L 98.691788 -38.395313 
L 98.606742 -38.395313 
L 98.521697 -38.395313 
L 98.436651 -38.395313 
L 98.351606 -38.395313 
L 98.26656 -38.395313 
L 98.181514 -38.395313 
L 98.096469 -38.395313 
L 98.011423 -38.395313 
L 97.926378 -38.395313 
L 97.841332 -38.395313 
L 97.756286 -38.395313 
L 97.671241 -38.395313 
L 97.586195 -38.395313 
L 97.50115 -38.395313 
L 97.416104 -38.395313 
L 97.331059 -38.395313 
L 97.246013 -38.395313 
L 97.160967 -38.395313 
L 97.075922 -38.395313 
L 96.990876 -38.395313 
L 96.905831 -38.395313 
L 96.820785 -38.395313 
L 96.73574 -38.395313 
L 96.650694 -38.395313 
L 96.565648 -38.395313 
L 96.480603 -38.395313 
L 96.395557 -38.395313 
L 96.310512 -38.395313 
L 96.225466 -38.395313 
L 96.14042 -38.395313 
L 96.055375 -38.395313 
L 95.970329 -38.395313 
L 95.885284 -38.395313 
L 95.800238 -38.395313 
L 95.715193 -38.395313 
L 95.630147 -38.395313 
L 95.545101 -38.395313 
L 95.460056 -38.395313 
L 95.37501 -38.395313 
L 95.289965 -38.395313 
L 95.204919 -38.395313 
L 95.119873 -38.395313 
L 95.034828 -38.395313 
L 94.949782 -38.395313 
L 94.864737 -38.395313 
L 94.779691 -38.395313 
L 94.694646 -38.395313 
L 94.6096 -38.395313 
L 94.524554 -38.395313 
L 94.439509 -38.395313 
L 94.354463 -38.395313 
L 94.269418 -38.395313 
L 94.184372 -38.395313 
L 94.099327 -38.395313 
L 94.014281 -38.395313 
L 93.929235 -38.395313 
L 93.84419 -38.395313 
L 93.759144 -38.395313 
L 93.674099 -38.395313 
L 93.589053 -38.395313 
L 93.504007 -38.395313 
L 93.418962 -38.395313 
L 93.333916 -38.395313 
L 93.248871 -38.395313 
L 93.163825 -38.395313 
L 93.07878 -38.395313 
L 92.993734 -38.395313 
L 92.908688 -38.395313 
L 92.823643 -38.395313 
L 92.738597 -38.395313 
L 92.653552 -38.395313 
L 92.568506 -38.395313 
L 92.48346 -38.395313 
L 92.398415 -38.395313 
L 92.313369 -38.395313 
L 92.228324 -38.395313 
L 92.143278 -38.395313 
L 92.058233 -38.395313 
L 91.973187 -38.395313 
L 91.888141 -38.395313 
L 91.803096 -38.395313 
L 91.71805 -38.395313 
L 91.633005 -38.395313 
L 91.547959 -38.395313 
L 91.462914 -38.395313 
L 91.377868 -38.395313 
L 91.292822 -38.395313 
L 91.207777 -38.395313 
L 91.122731 -38.395313 
L 91.037686 -38.395313 
L 90.95264 -38.395313 
L 90.867594 -38.395313 
L 90.782549 -38.395313 
L 90.697503 -38.395313 
L 90.612458 -38.395313 
L 90.527412 -38.395313 
L 90.442367 -38.395313 
L 90.357321 -38.395313 
L 90.272275 -38.395313 
L 90.18723 -38.395313 
L 90.102184 -38.395313 
L 90.017139 -38.395313 
L 89.932093 -38.395313 
L 89.847047 -38.395313 
L 89.762002 -38.395313 
L 89.676956 -38.395313 
L 89.591911 -38.395313 
L 89.506865 -38.395313 
L 89.42182 -38.395313 
L 89.336774 -38.395313 
L 89.251728 -38.395313 
L 89.166683 -38.395313 
L 89.081637 -38.395313 
L 88.996592 -38.395313 
L 88.911546 -38.395313 
L 88.826501 -38.395313 
L 88.741455 -38.395313 
L 88.656409 -38.395313 
L 88.571364 -38.395313 
L 88.486318 -38.395313 
L 88.401273 -38.395313 
L 88.316227 -38.395313 
L 88.231181 -38.395313 
L 88.146136 -38.395313 
L 88.06109 -38.395313 
L 87.976045 -38.395313 
L 87.890999 -38.395313 
L 87.805954 -38.395313 
L 87.720908 -38.395313 
L 87.635862 -38.395313 
L 87.550817 -38.395313 
L 87.465771 -38.395313 
L 87.380726 -38.395313 
L 87.29568 -38.395313 
L 87.210634 -38.395313 
L 87.125589 -38.395313 
L 87.040543 -38.395313 
L 86.955498 -38.395313 
L 86.870452 -38.395313 
L 86.785407 -38.395313 
L 86.700361 -38.395313 
L 86.615315 -38.395313 
L 86.53027 -38.395313 
L 86.445224 -38.395313 
L 86.360179 -38.395313 
L 86.275133 -38.395313 
L 86.190088 -38.395313 
L 86.105042 -38.395313 
L 86.019996 -38.395313 
L 85.934951 -38.395313 
L 85.849905 -38.395313 
L 85.76486 -38.395313 
L 85.679814 -38.395313 
L 85.594768 -38.395313 
L 85.509723 -38.395313 
L 85.424677 -38.395313 
L 85.339632 -38.395313 
L 85.254586 -38.395313 
L 85.169541 -38.395313 
L 85.084495 -38.395313 
L 84.999449 -38.395313 
L 84.914404 -38.395313 
L 84.829358 -38.395313 
L 84.744313 -38.395313 
L 84.659267 -38.395313 
L 84.574221 -38.395313 
L 84.489176 -38.395313 
L 84.40413 -38.395313 
L 84.319085 -38.395313 
L 84.234039 -38.395313 
L 84.148994 -38.395313 
L 84.063948 -38.395313 
L 83.978902 -38.395313 
L 83.893857 -38.395313 
L 83.808811 -38.395313 
L 83.723766 -38.395313 
L 83.63872 -38.395313 
L 83.553675 -38.395313 
L 83.468629 -38.395313 
L 83.383583 -38.395313 
L 83.298538 -38.395313 
L 83.213492 -38.395313 
L 83.128447 -38.395313 
L 83.043401 -38.395313 
L 82.958355 -38.395313 
L 82.87331 -38.395313 
L 82.788264 -38.395313 
L 82.703219 -38.395313 
L 82.618173 -38.395313 
L 82.533128 -38.395313 
L 82.448082 -38.395313 
L 82.363036 -38.395313 
L 82.277991 -38.395313 
L 82.192945 -38.395313 
L 82.1079 -38.395313 
L 82.022854 -38.395313 
L 81.937808 -38.395313 
L 81.852763 -38.395313 
L 81.767717 -38.395313 
L 81.682672 -38.395313 
L 81.597626 -38.395313 
L 81.512581 -38.395313 
L 81.427535 -38.395313 
L 81.342489 -38.395313 
L 81.257444 -38.395313 
L 81.172398 -38.395313 
L 81.087353 -38.395313 
L 81.002307 -38.395313 
L 80.917262 -38.395313 
L 80.832216 -38.395313 
L 80.74717 -38.395313 
L 80.662125 -38.395313 
L 80.577079 -38.395313 
L 80.492034 -38.395313 
L 80.406988 -38.395313 
L 80.321942 -38.395313 
L 80.236897 -38.395313 
L 80.151851 -38.395313 
L 80.066806 -38.395313 
L 79.98176 -38.395313 
L 79.896715 -38.395313 
L 79.811669 -38.395313 
L 79.726623 -38.395313 
L 79.641578 -38.395313 
L 79.556532 -38.395313 
L 79.471487 -38.395313 
L 79.386441 -38.395313 
L 79.301396 -38.395313 
L 79.21635 -38.395313 
L 79.131304 -38.395313 
L 79.046259 -38.395313 
L 78.961213 -38.395313 
L 78.876168 -38.395313 
L 78.791122 -38.395313 
L 78.706076 -38.395313 
L 78.621031 -38.395313 
L 78.535985 -38.395313 
L 78.45094 -38.395313 
L 78.365894 -38.395313 
L 78.280849 -38.395313 
L 78.195803 -38.395313 
L 78.110757 -38.395313 
L 78.025712 -38.395313 
L 77.940666 -38.395313 
L 77.855621 -38.395313 
L 77.770575 -38.395313 
L 77.685529 -38.395313 
L 77.600484 -38.395313 
L 77.515438 -38.395313 
L 77.430393 -38.395313 
L 77.345347 -38.395313 
L 77.260302 -38.395313 
L 77.175256 -38.395313 
L 77.09021 -38.395313 
L 77.005165 -38.395313 
L 76.920119 -38.395313 
L 76.835074 -38.395313 
L 76.750028 -38.395313 
L 76.664983 -38.395313 
L 76.579937 -38.395313 
L 76.494891 -38.395313 
L 76.409846 -38.395313 
L 76.3248 -38.395313 
L 76.239755 -38.395313 
L 76.154709 -38.395313 
L 76.069663 -38.395313 
L 75.984618 -38.395313 
L 75.899572 -38.395313 
L 75.814527 -38.395313 
L 75.729481 -38.395313 
L 75.644436 -38.395313 
L 75.55939 -38.395313 
L 75.474344 -38.395313 
L 75.389299 -38.395313 
L 75.304253 -38.395313 
L 75.219208 -38.395313 
L 75.134162 -38.395313 
L 75.049116 -38.395313 
L 74.964071 -38.395313 
L 74.879025 -38.395313 
L 74.79398 -38.395313 
L 74.708934 -38.395313 
L 74.623889 -38.395313 
L 74.538843 -38.395313 
L 74.453797 -38.395313 
L 74.368752 -38.395313 
L 74.283706 -38.395313 
L 74.198661 -38.395313 
L 74.113615 -38.395313 
L 74.02857 -38.395313 
L 73.943524 -38.395313 
L 73.858478 -38.395313 
L 73.773433 -38.395313 
L 73.688387 -38.395313 
L 73.603342 -38.395313 
L 73.518296 -38.395313 
L 73.43325 -38.395313 
L 73.348205 -38.395313 
L 73.263159 -38.395313 
L 73.178114 -38.395313 
L 73.093068 -38.395313 
L 73.008023 -38.395313 
L 72.922977 -38.395313 
L 72.837931 -38.395313 
L 72.752886 -38.395313 
L 72.66784 -38.395313 
L 72.582795 -38.395313 
L 72.497749 -38.395313 
L 72.412703 -38.395313 
L 72.327658 -38.395313 
L 72.242612 -38.395313 
L 72.157567 -38.395313 
L 72.072521 -38.395313 
L 71.987476 -38.395313 
L 71.90243 -38.395313 
L 71.817384 -38.395313 
L 71.732339 -38.395313 
L 71.647293 -38.395313 
L 71.562248 -38.395313 
L 71.477202 -38.395313 
L 71.392157 -38.395313 
L 71.307111 -38.395313 
L 71.222065 -38.395313 
L 71.13702 -38.395313 
L 71.051974 -38.395313 
L 70.966929 -38.395313 
L 70.881883 -38.395313 
L 70.796837 -38.395313 
L 70.711792 -38.395313 
L 70.626746 -38.395313 
L 70.541701 -38.395313 
L 70.456655 -38.395313 
L 70.37161 -38.395313 
L 70.286564 -38.395313 
L 70.201518 -38.395313 
L 70.116473 -38.395313 
L 70.031427 -38.395313 
L 69.946382 -38.395313 
L 69.861336 -38.395313 
L 69.77629 -38.395313 
L 69.691245 -38.395313 
L 69.606199 -38.395313 
L 69.521154 -38.395313 
L 69.436108 -38.395313 
L 69.351063 -38.395313 
L 69.266017 -38.395313 
L 69.180971 -38.395313 
L 69.095926 -38.395313 
L 69.01088 -38.395313 
L 68.925835 -38.395313 
L 68.840789 -38.395313 
L 68.755744 -38.395313 
L 68.670698 -38.395313 
L 68.585652 -38.395313 
L 68.500607 -38.395313 
L 68.415561 -38.395313 
L 68.330516 -38.395313 
L 68.24547 -38.395313 
L 68.160424 -38.395313 
L 68.075379 -38.395313 
L 67.990333 -38.395313 
L 67.905288 -38.395313 
L 67.820242 -38.395313 
L 67.735197 -38.395313 
L 67.650151 -38.395313 
L 67.565105 -38.395313 
L 67.48006 -38.395313 
L 67.395014 -38.395313 
L 67.309969 -38.395313 
L 67.224923 -38.395313 
L 67.139877 -38.395313 
L 67.054832 -38.395313 
L 66.969786 -38.395313 
L 66.884741 -38.395313 
L 66.799695 -38.395313 
L 66.71465 -38.395313 
L 66.629604 -38.395313 
L 66.544558 -38.395313 
L 66.459513 -38.395313 
L 66.374467 -38.395313 
L 66.289422 -38.395313 
L 66.204376 -38.395313 
L 66.119331 -38.395313 
L 66.034285 -38.395313 
L 65.949239 -38.395313 
L 65.864194 -38.395313 
L 65.779148 -38.395313 
L 65.694103 -38.395313 
L 65.609057 -38.395313 
L 65.524011 -38.395313 
L 65.438966 -38.395313 
L 65.35392 -38.395313 
L 65.268875 -38.395313 
L 65.183829 -38.395313 
L 65.098784 -38.395313 
L 65.013738 -38.395313 
L 64.928692 -38.395313 
L 64.843647 -38.395313 
L 64.758601 -38.395313 
L 64.673556 -38.395313 
L 64.58851 -38.395313 
L 64.503464 -38.395313 
L 64.418419 -38.395313 
L 64.333373 -38.395313 
L 64.248328 -38.395313 
L 64.163282 -38.395313 
L 64.078237 -38.395313 
L 63.993191 -38.395313 
L 63.908145 -38.395313 
L 63.8231 -38.395313 
L 63.738054 -38.395313 
L 63.653009 -38.395313 
L 63.567963 -38.395313 
L 63.482918 -38.395313 
L 63.397872 -38.395313 
L 63.312826 -38.395313 
L 63.227781 -38.395313 
L 63.142735 -38.395313 
L 63.05769 -38.395313 
L 62.972644 -38.395313 
L 62.887598 -38.395313 
L 62.802553 -38.395313 
L 62.717507 -38.395313 
L 62.632462 -38.395313 
L 62.547416 -38.395313 
L 62.462371 -38.395313 
L 62.377325 -38.395313 
L 62.292279 -38.395313 
L 62.207234 -38.395313 
L 62.122188 -38.395313 
L 62.037143 -38.395313 
L 61.952097 -38.395313 
L 61.867051 -38.395313 
L 61.782006 -38.395313 
L 61.69696 -38.395313 
L 61.611915 -38.395313 
L 61.526869 -38.395313 
L 61.441824 -38.395313 
L 61.356778 -38.395313 
L 61.271732 -38.395313 
L 61.186687 -38.395313 
L 61.101641 -38.395313 
L 61.016596 -38.395313 
L 60.93155 -38.395313 
L 60.846505 -38.395313 
L 60.761459 -38.395313 
L 60.676413 -38.395313 
L 60.591368 -38.395313 
L 60.506322 -38.395313 
L 60.421277 -38.395313 
L 60.336231 -38.395313 
L 60.251185 -38.395313 
L 60.16614 -38.395313 
L 60.081094 -38.395313 
L 59.996049 -38.395313 
L 59.911003 -38.395313 
L 59.825958 -38.395313 
L 59.740912 -38.395313 
L 59.655866 -38.395313 
L 59.570821 -38.395313 
L 59.485775 -38.395313 
L 59.40073 -38.395313 
L 59.315684 -38.395313 
L 59.230638 -38.395313 
L 59.145593 -38.395313 
L 59.060547 -38.395313 
L 58.975502 -38.395313 
L 58.890456 -38.395313 
L 58.805411 -38.395313 
L 58.720365 -38.395313 
L 58.635319 -38.395313 
L 58.550274 -38.395313 
L 58.465228 -38.395313 
L 58.380183 -38.395313 
L 58.295137 -38.395313 
L 58.210092 -38.395313 
L 58.125046 -38.395313 
L 58.04 -38.395313 
L 57.954955 -38.395313 
L 57.869909 -38.395313 
L 57.784864 -38.395313 
L 57.699818 -38.395313 
L 57.614772 -38.395313 
L 57.529727 -38.395313 
L 57.444681 -38.395313 
L 57.359636 -38.395313 
L 57.27459 -38.395313 
L 57.189545 -38.395313 
L 57.104499 -38.395313 
L 57.019453 -38.395313 
L 56.934408 -38.395313 
L 56.849362 -38.395313 
L 56.764317 -38.395313 
L 56.679271 -38.395313 
L 56.594225 -38.395313 
L 56.50918 -38.395313 
L 56.424134 -38.395313 
L 56.339089 -38.395313 
L 56.254043 -38.395313 
L 56.168998 -38.395313 
L 56.083952 -38.395313 
L 55.998906 -38.395313 
L 55.913861 -38.395313 
L 55.828815 -38.395313 
L 55.74377 -38.395313 
L 55.658724 -38.395313 
L 55.573679 -38.395313 
L 55.488633 -38.395313 
L 55.403587 -38.395313 
L 55.318542 -38.395313 
L 55.233496 -38.395313 
L 55.148451 -38.395313 
L 55.063405 -38.395313 
L 54.978359 -38.395313 
L 54.893314 -38.395313 
L 54.808268 -38.395313 
L 54.723223 -38.395313 
L 54.638177 -38.395313 
L 54.553132 -38.395313 
L 54.468086 -38.395313 
L 54.38304 -38.395313 
L 54.297995 -38.395313 
L 54.212949 -38.395313 
L 54.127904 -38.395313 
L 54.042858 -38.395313 
L 53.957813 -38.395313 
z
" style="stroke: #bbd6ff; stroke-opacity: 0.25"/>
    </defs>
    <g clip-path="url(#p9b1707ebb9)">
     <use xlink:href="#md3f002ec37" x="0" y="213.493359" style="fill: #bbd6ff; fill-opacity: 0.25; stroke: #bbd6ff; stroke-opacity: 0.25"/>
    </g>
   </g>
   <g id="matplotlib.axis_1">
    <g id="xtick_1">
     <g id="line2d_1">
      <defs>
       <path id="m785910afd9" d="M 0 0 
L 0 3.5 
" style="stroke: #000000; stroke-width: 0.8"/>
      </defs>
      <g>
       <use xlink:href="#m785910afd9" x="479.10067" y="175.098047" style="stroke: #000000; stroke-width: 0.8"/>
      </g>
     </g>
     <g id="text_1">
      <!-- 1 -->
      <g transform="translate(471.147545 201.094141) scale(0.25 -0.25)">
       <defs>
        <path id="DejaVuSans-31" d="M 794 531 
L 1825 531 
L 1825 4091 
L 703 3866 
L 703 4441 
L 1819 4666 
L 2450 4666 
L 2450 531 
L 3481 531 
L 3481 0 
L 794 0 
L 794 531 
z
" transform="scale(0.015625)"/>
       </defs>
       <use xlink:href="#DejaVuSans-31"/>
      </g>
     </g>
    </g>
   </g>
   <g id="matplotlib.axis_2">
    <g id="ytick_1">
     <g id="line2d_2">
      <defs>
       <path id="m4f9eb1bf46" d="M 0 0 
L -3.5 0 
" style="stroke: #000000; stroke-width: 0.8"/>
      </defs>
      <g>
       <use xlink:href="#m4f9eb1bf46" x="53.957813" y="175.098047" style="stroke: #000000; stroke-width: 0.8"/>
      </g>
     </g>
     <g id="text_2">
      <!-- 0 -->
      <g transform="translate(31.051563 184.596094) scale(0.25 -0.25)">
       <defs>
        <path id="DejaVuSans-30" d="M 2034 4250 
Q 1547 4250 1301 3770 
Q 1056 3291 1056 2328 
Q 1056 1369 1301 889 
Q 1547 409 2034 409 
Q 2525 409 2770 889 
Q 3016 1369 3016 2328 
Q 3016 3291 2770 3770 
Q 2525 4250 2034 4250 
z
M 2034 4750 
Q 2819 4750 3233 4129 
Q 3647 3509 3647 2328 
Q 3647 1150 3233 529 
Q 2819 -91 2034 -91 
Q 1250 -91 836 529 
Q 422 1150 422 2328 
Q 422 3509 836 4129 
Q 1250 4750 2034 4750 
z
" transform="scale(0.015625)"/>
       </defs>
       <use xlink:href="#DejaVuSans-30"/>
      </g>
     </g>
    </g>
    <g id="ytick_2">
     <g id="line2d_3">
      <g>
       <use xlink:href="#m4f9eb1bf46" x="53.957813" y="95.898047" style="stroke: #000000; stroke-width: 0.8"/>
      </g>
     </g>
     <g id="text_3">
      <!-- 0.5 -->
      <g transform="translate(7.2 105.396094) scale(0.25 -0.25)">
       <defs>
        <path id="DejaVuSans-2e" d="M 684 794 
L 1344 794 
L 1344 0 
L 684 0 
L 684 794 
z
" transform="scale(0.015625)"/>
        <path id="DejaVuSans-35" d="M 691 4666 
L 3169 4666 
L 3169 4134 
L 1269 4134 
L 1269 2991 
Q 1406 3038 1543 3061 
Q 1681 3084 1819 3084 
Q 2600 3084 3056 2656 
Q 3513 2228 3513 1497 
Q 3513 744 3044 326 
Q 2575 -91 1722 -91 
Q 1428 -91 1123 -41 
Q 819 9 494 109 
L 494 744 
Q 775 591 1075 516 
Q 1375 441 1709 441 
Q 2250 441 2565 725 
Q 2881 1009 2881 1497 
Q 2881 1984 2565 2268 
Q 2250 2553 1709 2553 
Q 1456 2553 1204 2497 
Q 953 2441 691 2322 
L 691 4666 
z
" transform="scale(0.015625)"/>
       </defs>
       <use xlink:href="#DejaVuSans-30"/>
       <use xlink:href="#DejaVuSans-2e" transform="translate(63.623047 0)"/>
       <use xlink:href="#DejaVuSans-35" transform="translate(95.410156 0)"/>
      </g>
     </g>
    </g>
    <g id="ytick_3">
     <g id="line2d_4">
      <g>
       <use xlink:href="#m4f9eb1bf46" x="53.957813" y="16.698047" style="stroke: #000000; stroke-width: 0.8"/>
      </g>
     </g>
     <g id="text_4">
      <!-- 1 -->
      <g transform="translate(31.051563 26.196094) scale(0.25 -0.25)">
       <use xlink:href="#DejaVuSans-31"/>
      </g>
     </g>
    </g>
   </g>
   <g id="line2d_5">
    <path d="M 53.957813 52.451823 
L 54.468086 53.485758 
L 55.658724 55.345148 
L 57.444681 57.703903 
L 59.740912 60.365017 
L 62.547416 63.275236 
L 65.864194 66.387069 
L 69.606199 69.589502 
L 73.773433 72.863438 
L 78.45094 76.249547 
L 83.553675 79.662529 
L 89.081637 83.087847 
L 95.034828 86.512152 
L 101.413246 89.923327 
L 108.301938 93.35132 
L 115.615858 96.73996 
L 123.440052 100.116676 
L 131.774519 103.467151 
L 140.619259 106.77895 
L 149.974273 110.041309 
L 159.83956 113.24496 
L 170.300167 116.406773 
L 181.356092 119.514816 
L 193.092382 122.580297 
L 205.423991 125.570077 
L 218.521011 128.514005 
L 232.298395 131.38111 
L 246.841189 134.179158 
L 262.234439 136.912473 
L 278.478145 139.569159 
L 295.657352 142.151561 
L 313.772061 144.64851 
L 332.992362 147.071362 
L 353.318256 149.407353 
L 374.834788 151.654559 
L 397.627003 153.81 
L 421.864994 155.876852 
L 447.633805 157.848847 
L 475.103527 159.725349 
L 479.10067 159.980681 
L 479.10067 159.980681 
" clip-path="url(#p9b1707ebb9)" style="fill: none; stroke: #000000; stroke-width: 4; stroke-linecap: square"/>
   </g>
   <g id="line2d_6">
    <path d="M 53.957813 16.698047 
L 479.10067 16.698047 
L 479.10067 16.698047 
" clip-path="url(#p9b1707ebb9)" style="fill: none; stroke-dasharray: 14.8,6.4; stroke-dashoffset: 0; stroke: #808080; stroke-width: 4"/>
   </g>
   <g id="line2d_7">
    <path d="M 161.625517 175.098047 
L 161.625517 168.284368 
L 161.625517 161.470689 
L 161.625517 154.65701 
L 161.625517 147.84333 
L 161.625517 141.029651 
L 161.625517 134.215972 
L 161.625517 127.402293 
L 161.625517 120.588614 
L 161.625517 113.774935 
" clip-path="url(#p9b1707ebb9)" style="fill: none; stroke-dasharray: 4,6.6; stroke-dashoffset: 0; stroke: #0000ff; stroke-width: 4"/>
   </g>
   <g id="line2d_8">
    <path d="M 53.957813 113.774935 
L 161.625517 113.774935 
" clip-path="url(#p9b1707ebb9)" style="fill: none; stroke-dasharray: 4,6.6; stroke-dashoffset: 0; stroke: #0000ff; stroke-width: 4"/>
   </g>
   <g id="patch_3">
    <path d="M 53.957813 175.098047 
L 53.957813 8.778047 
" style="fill: none; stroke: #000000; stroke-width: 0.8; stroke-linejoin: miter; stroke-linecap: square"/>
   </g>
   <g id="patch_4">
    <path d="M 53.957813 175.098047 
L 500.357812 175.098047 
" style="fill: none; stroke: #000000; stroke-width: 0.8; stroke-linejoin: miter; stroke-linecap: square"/>
   </g>
   <g id="PathCollection_1">
    <defs>
     <path id="m88148b11d9" d="M 0 7.071068 
C 1.875269 7.071068 3.673985 6.326016 5 5 
C 6.326016 3.673985 7.071068 1.875269 7.071068 0 
C 7.071068 -1.875269 6.326016 -3.673985 5 -5 
C 3.673985 -6.326016 1.875269 -7.071068 0 -7.071068 
C -1.875269 -7.071068 -3.673985 -6.326016 -5 -5 
C -6.326016 -3.673985 -7.071068 -1.875269 -7.071068 0 
C -7.071068 1.875269 -6.326016 3.673985 -5 5 
C -3.673985 6.326016 -1.875269 7.071068 0 7.071068 
z
" style="stroke: #000000"/>
    </defs>
    <g clip-path="url(#p9b1707ebb9)">
     <use xlink:href="#m88148b11d9" x="53.957813" y="52.451823" style="stroke: #000000"/>
    </g>
   </g>
   <g id="PathCollection_2">
    <defs>
     <path id="m73d4bdedc4" d="M 0 7.071068 
C 1.875269 7.071068 3.673985 6.326016 5 5 
C 6.326016 3.673985 7.071068 1.875269 7.071068 0 
C 7.071068 -1.875269 6.326016 -3.673985 5 -5 
C 3.673985 -6.326016 1.875269 -7.071068 0 -7.071068 
C -1.875269 -7.071068 -3.673985 -6.326016 -5 -5 
C -6.326016 -3.673985 -7.071068 -1.875269 -7.071068 0 
C -7.071068 1.875269 -6.326016 3.673985 -5 5 
C -3.673985 6.326016 -1.875269 7.071068 0 7.071068 
z
" style="stroke: #0000ff"/>
    </defs>
    <g clip-path="url(#p9b1707ebb9)">
     <use xlink:href="#m73d4bdedc4" x="161.625517" y="113.774935" style="fill: #0000ff; stroke: #0000ff"/>
    </g>
   </g>
  </g>
 </g>
 <defs>
  <clipPath id="p9b1707ebb9">
   <rect x="53.957813" y="8.778047" width="446.4" height="166.32"/>
  </clipPath>
 </defs>
</svg>
